<svg xmlns="http://www.w3.org/2000/svg" xmlns:xlink="http://www.w3.org/1999/xlink" width="1920" height="310" viewBox="0 0 1920 310"><defs><style>.a{fill:#fff;}.b{fill:#1043a5;}.c{clip-path:url(#a);}.d{opacity:0.5;}.e{fill:none;stroke:#4bcd3d;stroke-miterlimit:10;}.f{fill:#4bcd3d;}</style><clipPath id="a"><rect class="a" width="1920" height="310"/></clipPath></defs><rect class="b" width="1920" height="310"/><g class="c"><g class="d" transform="translate(553.859 -842.819) rotate(90)"><path class="e" d="M0,551.757c105.827-250.5,227.6-309.414,458.772-203.211,132.284,60.794,328.552,292.9,473.408,225.915,139.789-64.735-97.759-286.522-53.289-410.362,67.737-188.388,405.3-179.569,579.423-143.167" transform="translate(101.324 30.669)"/><path class="e" d="M0,545.66C109.392,305.672,230.231,252.008,457.647,356.9,590.306,418.254,784.51,641.73,926.176,569.865c139.039-70.552-82.748-285.208-31.9-407.735C968.582-16.876,1288.5-13.311,1456.626,13.709" transform="translate(96.445 35.452)"/><path class="e" d="M0,540.46c112.957-229.48,232.482-277.7,456.521-174.127C589.743,428.066,781.883,643.1,920.172,566.354c138.1-76.556-68.112-283.52-10.508-405.3C989.41-8.566,1292.819-10.442,1454.75,7.384" transform="translate(91.754 39.338)"/><path class="e" d="M0,536.56C116.522,317.775,234.922,274.806,455.395,376.881c133.785,62.3,323.674,268.509,458.585,187.074,137.163-82.748-53.664-281.456,10.883-402.669,85-160.242,372.46-167.56,528.2-158.929" transform="translate(86.876 41.925)"/><path class="e" d="M0,535.328C120.088,327.051,237.361,289.336,454.269,390.1,588.43,452.768,776.254,650.162,907.975,564.412c136.412-88.94-39.4-279.392,32.274-400.23C1029.564,13.322,1301.825.751,1451.372,0" transform="translate(81.997 41.843)"/><path class="e" d="M0,536.642C123.653,338.873,239.8,306.411,452.956,405.859c134.723,63.234,320.3,251.621,448.828,161.368,135.474-95.32-25.706-276.952,53.476-397.79C1048.328,27.77,1305.953,9.945,1449.5,0" transform="translate(77.307 39.216)"/><path class="e" d="M0,537.768C127.218,350.694,242.239,323.486,451.83,421.62c135.1,63.609,318.608,242.99,443.949,148.421,134.536-101.7-12.384-274.7,74.867-395.164C1066.716,42.218,1310.457,19.327,1447.807,0" transform="translate(72.428 36.777)"/><path class="e" d="M0,538.894c130.783-176.567,244.679-198.52,450.7-101.7,135.661,64.172,316.919,234.359,438.883,135.474,133.6-108.267.751-272.261,96.258-392.724C1084.166,56.1,1314.772,28.521,1445.931,0" transform="translate(67.549 34.338)"/><path class="e" d="M0,540.019c134.348-166.059,247.118-182.571,449.578-87.251,136.037,64.547,315.042,225.54,434,122.527,132.659-114.834,13.322-270.01,117.648-390.1C1101.617,69.8,1319.463,37.9,1444.43,0" transform="translate(62.671 31.898)"/><path class="e" d="M0,541.145c137.913-155.551,249.557-166.809,448.452-72.8,136.6,65.11,313.166,216.721,429.126,109.58,131.533-121.589,25.706-267.946,139.039-387.658C1118.129,83.311,1323.591,47.1,1442.553,0" transform="translate(57.98 29.459)"/><path class="e" d="M0,542.271C141.478,397.415,252,391.411,447.327,484.1c136.975,65.673,311.29,207.714,424.247,96.821C1001.982,452.581,909.1,314.667,1032,195.893,1134.453,96.445,1328.094,56.291,1440.864,0" transform="translate(53.101 27.02)"/><path class="e" d="M0,543.4c145.043-134.348,254.436-135.1,446.2-43.719,137.538,66.048,309.226,198.707,419.181,83.874,129.282-135.1,49.161-264.756,181.82-382.592C1150.4,109.392,1332.6,65.673,1439.175,0" transform="translate(48.223 24.58)"/><path class="e" d="M0,544.523c148.8-123.84,256.875-119.15,445.075-29.271,137.913,66.611,307.349,189.7,414.3,70.927,127.968-142.041,60.231-263.818,203.211-379.965C1165.976,121.964,1336.913,74.867,1437.3,0" transform="translate(43.532 22.141)"/><path class="e" d="M0,545.648C152.361,432.5,259.314,442.26,443.761,530.825c138.476,66.986,305.1,180.694,409.424,57.98C979.84,439.821,924.3,325.55,1077.6,211.279,1181.55,134.16,1341.229,84.061,1435.61,0" transform="translate(38.653 19.702)"/><path class="e" d="M0,546.774c155.926-102.637,261.754-87.439,442.635-.375,138.851,67.549,303.034,171.5,404.545,45.033,125.154-155.926,81.622-263.443,245.8-374.9C1196.936,145.982,1345.732,93.256,1433.922,0" transform="translate(33.775 17.263)"/><path class="e" d="M0,548.088c159.491-92.13,264.193-71.677,441.51,14.26,139.414,67.925,300.782,162.494,399.479,32.274,123.653-162.869,91.942-264.381,267.2-372.46C1212.323,157.8,1350.235,102.825,1432.233,0" transform="translate(28.896 14.636)"/><path class="e" d="M0,549.214c163.057-81.435,266.632-55.728,440.384,28.708,139.79,68.487,298.343,153.3,394.6,19.327,122.152-170,102.075-265.882,288.585-370.02C1227.709,169.249,1354.551,112.019,1430.357,0" transform="translate(24.205 12.196)"/><path class="e" d="M0,550.339c166.622-70.927,269.071-39.967,439.258,43.156C579.61,662.359,735.349,737.6,828.98,599.876,949.255,422.746,941,331.742,1138.956,232.482,1243.282,180.132,1358.867,121.214,1428.668,0" transform="translate(19.327 9.757)"/><path class="e" d="M0,551.465c170.187-60.419,271.511-24.018,438.132,57.6C579.048,678.5,731.784,743.981,822.976,602.5c118.587-184.26,121.776-271.323,331.367-364.954C1258.856,191.014,1363.37,130.6,1426.979,0" transform="translate(14.448 7.318)"/><path class="e" d="M0,552.591c173.752-49.911,273.95-8.256,437.007,72.24C578.3,694.82,728.219,750.548,816.784,605.317c116.71-191.2,131.721-275.451,352.758-362.327C1274.618,201.71,1367.686,139.79,1425.291,0" transform="translate(9.757 4.879)"/><path class="e" d="M0,553.717c177.317-39.216,276.389,7.693,435.881,86.688,141.853,70.364,288.773,116.71,374.9-32.461C925.613,409.612,952.258,327.8,1184.74,248.056,1290.567,212.03,1372.189,148.984,1423.414,0" transform="translate(4.879 2.439)"/><path class="e" d="M0,554.843C180.882,526.134,278.829,578.3,434.567,655.979c142.229,70.927,286.146,107.516,370.02-45.22C917.545,405.108,956.2,324.987,1200.126,253.5c106.766-31.335,176.379-95.132,221.6-253.5" transform="translate(0 0)"/></g></g><rect class="f" width="1920" height="8" transform="translate(0 302)"/></svg>