<svg xmlns="http://www.w3.org/2000/svg" width="154.004" height="153.994" viewBox="0 0 154.004 153.994"><defs><style>.a{fill:rgba(0,0,0,0);stroke:#1043a5;stroke-linecap:round;stroke-linejoin:round;stroke-width:4px;}</style></defs><g transform="translate(-10277.345 4184.85)"><g transform="translate(9586.395 -6106.45)"><path class="a" d="M747.6,1939a31.97,31.97,0,0,1,4.85-6.15,31.625,31.625,0,0,1,44.75,44.7q-.689.693-1.4,1.325"/></g><g transform="translate(9586.395 -6106.45)"><path class="a" d="M710.15,1985.75V1960q.3-8.7,8.35-9.25h26.1q7.95.55,8.3,9.25l.15,25.75m-32.3-21.45v21.45m21.5-21.45v21.45"/></g><g transform="translate(9899.994 -4764.4)"><path class="a" d="M741.315,1933.291a9.289,9.289,0,0,1-2.88,6.883,10.079,10.079,0,0,1-14.006,0,9.666,9.666,0,0,1,0-13.767,9.39,9.39,0,0,1,4.974-2.638,10.5,10.5,0,0,1,2.029-.193,11.534,11.534,0,0,1,2.094.193,9.763,9.763,0,0,1,7.788,9.521Z" transform="translate(-313.569 -1342.009)"/></g><g transform="translate(8870.795 -6941.3)"><path class="a" d="M737.948,1986.08H835.9q7.125,0,7.125,7.255v73.083q0,7.18-7.125,7.18H700.3q-7.275,0-7.275-7.18v-73.083q0-7.256,7.275-7.255h22.051m-29.326,15.8h150" transform="translate(715.529 834.846)"/></g><g transform="translate(9519.244 -5135.3)"><path class="a" d="M751.14,2027.508l-9.4,10.924,10.6,9.159m32.909-20.083,8.975,10.924-10.77,9.159m-10.343-27.814-7.779,33.865" transform="translate(67.101 -971.146)"/></g><g transform="translate(10102.395 -4803.4)"><path class="a" d="M771.219,1954.5q4.512-2.936,5.653-9.515.489-3.425,3.153-2.773,3.479,1.522-.272,9.352h5.056q3.044.543,2.772,3.1l-1.631,7.394q-1.794,5.056-5.273,4.785H773.5a6.023,6.023,0,0,1-2.337-.87m-9.024-11.418h2.229q1.413,0,1.413,1.2v10.222q0,1.2-1.413,1.2h-2.229" transform="translate(-515.995 -1303.031)"/></g></g></svg>