<svg xmlns="http://www.w3.org/2000/svg" width="154" height="154" viewBox="0 0 154 154"><defs><style>.a{fill:none;stroke:#1043a5;stroke-linecap:round;stroke-linejoin:round;stroke-width:4px;}.b{fill:#2b2b2b;}</style></defs><g transform="translate(-9746.245 4184.4)"><g transform="translate(9586.395 -6106.45)"><path class="a" d="M214.85,1927.125a76.973,76.973,0,0,1,22-3.075,75.034,75.034,0,0,1,26.5,4.6m44.25,44.8q.213.623.425,1.25l.05.15a76.026,76.026,0,0,1,3.775,24.2q0,31.1-22,53-21.95,22-53,22t-53.05-22q-21.95-21.9-21.95-53a75.265,75.265,0,0,1,4.675-26.75q.589-1.54,1.25-3.05"/></g><g transform="translate(9617.395 -5846.3)"><path class="a" d="M214.243,1990.893a19.046,19.046,0,0,1,4.062-6.552,5.323,5.323,0,0,0,.393-.437q.612-.567,1.354-1.136a18.474,18.474,0,0,1,12.274-4.412,17.49,17.49,0,0,1,10.309,3.014,19.149,19.149,0,0,1,1.835,1.4,11.754,11.754,0,0,1,1.223,1.136,18.352,18.352,0,0,1,5.679,13.585,18.093,18.093,0,0,1-1.616,7.688q-.131.305-.218.48a6.508,6.508,0,0,0-.568,1m-27.345,6.6a4.953,4.953,0,0,1-1.4-.961,7.205,7.205,0,0,1-1.092-.83,1.248,1.248,0,0,0-.437-.524,7.343,7.343,0,0,1-1.485-1.7,2.291,2.291,0,0,0-.437-.349,19.96,19.96,0,0,1-3.407-7.644" transform="translate(-30.97 -260.123)"/></g><g transform="translate(8408.295 -5394.55)"><path class="a" d="M228.153,2052.3v13.625m0-13.625a37.627,37.627,0,0,1-7.419-18.191l.071-4.708a40.07,40.07,0,0,0,.071-5.35,6.129,6.129,0,0,1,.785-3,3.754,3.754,0,0,1,.357-.571,3.312,3.312,0,0,1,2.211-1.213,2.857,2.857,0,0,1,1.855.285,3.365,3.365,0,0,1,1.569.927v-20.9a1.149,1.149,0,0,1,.143-.5,3.833,3.833,0,0,1,1.213-2.568,4.063,4.063,0,0,1,3.139-1.284,4.281,4.281,0,0,1,3.21,1.284q1.427,1.355,1.355,5.208v11.7a5.333,5.333,0,0,1,1.213-2.14,4.469,4.469,0,0,1,3.139-1.355,4.158,4.158,0,0,1,3.139,1.355,3.614,3.614,0,0,1,1.07,2.212,10.68,10.68,0,0,1,.357,2.354,7.5,7.5,0,0,1,.856-1.284.736.736,0,0,1,.143-.285,4.911,4.911,0,0,1,3.139-1.141,4.75,4.75,0,0,1,3.067,1.427,4.676,4.676,0,0,1,1.284,3.21,1.581,1.581,0,0,1-.071.5m1,.071a2.3,2.3,0,0,1,1.284-.214,7.769,7.769,0,0,1,2,.285q2.211,1,2.069,4.566l-.143,8.7v1.641q-.143,8.346-5.636,18.975v13.839m-26.965-45.655v12.2m26.394-14.053v7.776m-17.335-12.983v9.987m8.917-7.562-.071,8.275m9.06,28.178H228.153" transform="translate(1178.051 -711.867)"/></g><g transform="translate(9290.444 -4545.45)"><path class="a" d="M213.22,1945.244a24.7,24.7,0,0,1,.667,5.8,23.132,23.132,0,0,1-23.1,23.2h-.1a23.219,23.219,0,0,1-23.2-23.1v-.1a23.307,23.307,0,0,1,23.2-23.25h.1a22.05,22.05,0,0,1,14.68,5.338,21.584,21.584,0,0,1,1.642,1.489q.616.616,1.181,1.283v-5.389m-40.806,20.632h6.159m17.143-23.352v6.621m22.276,16.732h-5.749m.975-15.243H202.7m-11.908,38.339v-5.594" transform="translate(295.903 -1560.947)"/></g><g transform="translate(9290.145 -4545.45)"><path class="b" d="M489.218,392.365A3.177,3.177,0,0,0,490.3,389.9a3.4,3.4,0,0,0-.975-2.513l-.1-.1a3.337,3.337,0,0,0-2.462-.974,3.357,3.357,0,0,0-3.59,3.59,3.337,3.337,0,0,0,.975,2.462,3.561,3.561,0,0,0,2.616,1.077A3.177,3.177,0,0,0,489.218,392.365Z"/><path class="a" d="M193.07,1948.372l5.642-5.693" transform="translate(296.208 -1560.996)"/></g><g transform="translate(9586.395 -6106.45)"><path class="a" d="M287.25,1976.95h-6.7a1.413,1.413,0,0,1-.85-.35,3.183,3.183,0,0,1-.55-.6l-1.25-3.1a33.207,33.207,0,0,1-4.1-1.9l-3.3,1.35a1.389,1.389,0,0,1-.85.2,1.99,1.99,0,0,1-.65-.5l-4.7-4.65a2.128,2.128,0,0,1-.55-.9,4.1,4.1,0,0,1,.15-.9l1.35-3.15a18.139,18.139,0,0,1-1.8-4.2l-3.2-1.2a3.03,3.03,0,0,1-.7-.6,2.719,2.719,0,0,1-.1-.75v-6.8a3.1,3.1,0,0,1,.1-.75,6.515,6.515,0,0,1,.7-.6l3.2-1.25a17.4,17.4,0,0,1,1.8-4.1l-1.35-3.35a2.265,2.265,0,0,1-.15-.8,1.564,1.564,0,0,1,.55-.7l4.7-4.65a1.6,1.6,0,0,1,.65-.6,1.76,1.76,0,0,1,.85.25l3.3,1.3a16.01,16.01,0,0,1,4.1-1.75l1.25-3.25a3.183,3.183,0,0,1,.55-.6,1.76,1.76,0,0,1,.85-.25h6.7a1.342,1.342,0,0,1,.8.25q.35.25.75.6l1.1,3.25a17.778,17.778,0,0,1,4.2,1.75l3.1-1.3a2.37,2.37,0,0,1,.95-.25,3.236,3.236,0,0,1,.85.6l4.65,4.65a1.7,1.7,0,0,1,.5.7,1.378,1.378,0,0,1-.15.8l-1.4,3.35a33.226,33.226,0,0,1,1.9,4.1l3.05,1.25a2.3,2.3,0,0,1,.65.6,1.18,1.18,0,0,1,.35.75v6.8a1.051,1.051,0,0,1-.35.75,1.633,1.633,0,0,1-.65.6l-3.05,1.2a34.759,34.759,0,0,1-1.9,4.2l1.4,3.15a2.064,2.064,0,0,1,.15.9,2.4,2.4,0,0,1-.5.9l-4.65,4.65a3.016,3.016,0,0,1-.85.5,1.808,1.808,0,0,1-.95-.2l-3.1-1.35a40.157,40.157,0,0,1-4.2,1.9l-1.1,3.1q-.4.35-.75.6A1.1,1.1,0,0,1,287.25,1976.95Zm11.2-23.9a14.511,14.511,0,1,1-4.25-10.3A14.027,14.027,0,0,1,298.45,1953.05Z"/></g></g></svg>