<svg xmlns="http://www.w3.org/2000/svg" width="57" height="24" viewBox="0 0 57 24">
    <g fill="none" fill-rule="evenodd">
        <g>
            <g>
                <path fill="#00D103" d="M44.344 23.279c-2.418 0-4.836.002-7.254-.002-.764-.001-1.286-.488-1.304-1.194-.018-.665.468-1.205 1.133-1.255.13-.01.26-.007.389-.007h13.834c.968-.001 1.703-.512 2.04-1.404.314-.833.074-1.765-.616-2.379-.397-.353-.863-.506-1.394-.505-3.774.004-7.548.006-11.323 0-2.043-.002-3.789-1.185-4.457-3.001-1.097-2.983 1.05-6.168 4.258-6.2 4.812-.047 9.624-.016 14.436-.012.711 0 1.246.537 1.256 1.22.01.679-.515 1.225-1.227 1.25-.507.018-1.014.005-1.521.005-4.234 0-8.469-.002-12.703.001-1.05 0-1.932.794-2.076 1.85-.139 1.014.516 2.045 1.483 2.343.242.075.487.078.735.078 3.727 0 7.454-.013 11.18.005 1.941.009 3.453.835 4.333 2.595 1.472 2.943-.622 6.488-3.914 6.586-2.428.073-4.859.015-7.288.015v.01zM13.941 9.798c-2.029 0-4.058-.022-6.086.007-1.565.022-2.94.537-3.96 1.784-.896 1.094-1.176 2.394-1.181 3.77-.008 2.23-.002 4.461-.003 6.692 0 .564-.27.972-.767 1.212-.503.243-.99.168-1.426-.175-.324-.256-.495-.608-.493-1.016.016-2.526-.09-5.054.044-7.576.207-3.892 3.07-6.792 6.947-7.118.506-.042 1.012-.06 1.52-.06h11.323c.153 0 .306 0 .46.003.744.012 1.279.52 1.284 1.22.006.705-.518 1.238-1.257 1.245-1.203.013-2.406.008-3.61.009h-2.795v.003zM27.016 15.297c0-2.241-.003-4.483.003-6.724.001-.634.376-1.136.943-1.308.54-.165 1.134.035 1.48.494.193.256.263.548.263.862 0 4.447.002 8.894-.002 13.342 0 .838-.56 1.427-1.334 1.434-.784.006-1.35-.594-1.352-1.447-.003-2.217 0-4.435 0-6.653" transform="translate(-24 -21) translate(24 21)"/>
                <path fill="#00D103" d="M11.486 16.535H5.439c-.81 0-1.35-.484-1.36-1.212-.01-.741.538-1.257 1.355-1.257 4.043-.003 8.085-.003 12.128 0 .798 0 1.345.51 1.346 1.234.001.722-.551 1.234-1.34 1.235h-6.082" transform="translate(-24 -21) translate(24 21)"/>
                <path fill="#D3F6D4" d="M5.42 3.57c-1.01.12-1.815-.881-1.806-1.756.01-.972.82-1.836 1.823-1.798 1.008.038 1.777.79 1.787 1.796.009.956-.88 1.882-1.804 1.757" transform="translate(-24 -21) translate(24 21)"/>
                <path fill="#00D103" d="M28.372 3.599c-.996.007-1.804-.784-1.814-1.777-.01-.978.78-1.79 1.749-1.798 1.039-.009 1.84.758 1.848 1.77.008.992-.787 1.797-1.783 1.805" transform="translate(-24 -21) translate(24 21)"/>
                <path fill="#A7EDAA" d="M9.558 1.016c.403-.798 1.231-1.18 2.061-.95.838.232 1.373.976 1.332 1.853-.038.818-.672 1.52-1.484 1.643-.302-.058-.612-.029-.915-.074-.62-.206-.985-.641-1.132-1.27-.021-.409.017-.81.138-1.202" transform="translate(-24 -21) translate(24 21)"/>
                <path fill="#35DB51" d="M20.895 1.375c.18-.629.544-1.085 1.192-1.274.027.021.058.029.09.03.033.001.066-.004.097.008-.016-.035-.076-.012-.081-.061 1.033-.26 1.952.4 2.155 1.294-.003.304-.005.609-.01.914-.217.702-.659 1.156-1.405 1.274-.21-.05-.421-.047-.631-.002-.767-.135-1.193-.629-1.411-1.342.03-.28.02-.56.004-.84" transform="translate(-24 -21) translate(24 21)"/>
                <path fill="#76E480" d="M18.549 2.297c-.043.438-.291.742-.641.979-.276.07-.525.23-.816.252-.174.019-.352-.033-.523.03-.212-.005-.403-.07-.569-.205-.012-.085-.068-.096-.138-.083-.33-.22-.576-.5-.65-.905-.099-.457-.055-.906.077-1.35.162-.283.325-.564.642-.707.26-.056.485-.2.766-.224.485-.04.89.122 1.29.353.38.197.54.541.626.935-.035.307.069.624-.064.925" transform="translate(-24 -21) translate(24 21)"/>
                <path fill="#75E480" d="M17.986.437c-.029.01-.07.037-.085.027-.575-.391-1.176-.414-1.804-.142-.045.02-.11-.008-.166-.014.588-.448 1.496-.391 2.055.129" transform="translate(-24 -21) translate(24 21)"/>
                <path fill="#74E47F" d="M15.29 1.015c.076.308-.114.59-.082.901.015.142.176.302.003.449-.208-.464-.148-.912.078-1.35" transform="translate(-24 -21) translate(24 21)"/>
                <path fill="#9CEBA1" d="M9.558 1.016c-.052.4-.039.807-.138 1.202-.132-.421-.066-.82.138-1.202" transform="translate(-24 -21) translate(24 21)"/>
                <path fill="#62E170" d="M18.549 2.297c.034-.308-.081-.625.064-.925.072.315.158.63-.064.925" transform="translate(-24 -21) translate(24 21)"/>
                <path fill="#05D739" d="M24.339 2.286c-.092-.306-.105-.61.009-.914.094.305.084.61-.01.914" transform="translate(-24 -21) translate(24 21)"/>
                <path fill="#71E37D" d="M17.131 3.494c.265-.052.488-.252.777-.218-.219.137-.438.275-.708.283-.03-.014-.052-.036-.069-.065" transform="translate(-24 -21) translate(24 21)"/>
                <path fill="#01D631" d="M20.895 1.375c.09.281.1.562-.004.841-.069-.28-.069-.56.004-.84" transform="translate(-24 -21) translate(24 21)"/>
                <path fill="#9FEBA4" d="M10.552 3.488c.312-.063.615-.008.915.074-.308.008-.62.069-.915-.074" transform="translate(-24 -21) translate(24 21)"/>
                <path fill="#5FE06D" d="M17.131 3.494l.069.067c-.21.037-.42.037-.631-.001.175-.132.376-.035.562-.066" transform="translate(-24 -21) translate(24 21)"/>
                <path fill="#00D631" d="M22.302 3.558c.21-.099.42-.1.63.002-.21.036-.42.037-.63-.002" transform="translate(-24 -21) translate(24 21)"/>
                <path fill="#2EDD57" d="M22.193.078c.056.01.111.022.167.033-.093.07-.186.11-.273-.006l.106-.027" transform="translate(-24 -21) translate(24 21)"/>
                <path fill="#64E171" d="M15.862 3.27c.096-.094.158-.013.225.044L16 3.353l-.138-.083" transform="translate(-24 -21) translate(24 21)"/>
            </g>
        </g>
    </g>
</svg>
