<svg xmlns="http://www.w3.org/2000/svg" width="799" height="387" viewBox="0 0 799 387"><defs><style>.a{fill:#1c4fb1;}.b{fill:#fff;}.b,.i{stroke:rgba(255,255,255,0);}.c{fill:#134098;}.d,.e,.j,.l{fill:none;}.d,.e{stroke:#20a0ee;stroke-width:2px;}.d{opacity:0.8;}.e{opacity:0.683;}.f{fill:#ffd800;}.g{fill:#2a6ef0;}.h{fill:#ff7f00;}.i{fill:#2b2b2b;}.j{stroke:#707070;stroke-width:1.5px;opacity:0.246;}.k{stroke:none;}</style></defs><g transform="translate(-409 -2314)"><rect class="a" width="608" height="387" rx="6" transform="translate(409 2314)"/><path class="b" d="M3.584,5.544V8.952H8.992v1.76H3.584V15H1.5V3.8H9.68V5.544Zm15.952.912V15h-1.9V13.912a3.183,3.183,0,0,1-1.2.888,3.861,3.861,0,0,1-1.552.312,3.714,3.714,0,0,1-2.7-.952,3.756,3.756,0,0,1-.984-2.824V6.456h2v4.608a2.475,2.475,0,0,0,.52,1.72,1.905,1.905,0,0,0,1.48.568,2.241,2.241,0,0,0,1.7-.664,2.668,2.668,0,0,0,.632-1.912V6.456ZM22.16,3.128h2V15h-2Zm4.624,0h2V15h-2ZM40.96,14.536a2.354,2.354,0,0,1-.856.432,3.855,3.855,0,0,1-1.064.144,3.019,3.019,0,0,1-2.176-.736,2.833,2.833,0,0,1-.768-2.144V8.12H34.688V6.52H36.1V4.568h2V6.52h2.288v1.6H38.1v4.064a1.352,1.352,0,0,0,.3.952,1.141,1.141,0,0,0,.88.328,1.757,1.757,0,0,0,1.12-.352Zm1.648-8.08h2V15h-2Zm1.008-1.408A1.285,1.285,0,0,1,42.7,4.7a1.124,1.124,0,0,1-.368-.856,1.124,1.124,0,0,1,.368-.856,1.285,1.285,0,0,1,.912-.344,1.321,1.321,0,0,1,.912.328A1.057,1.057,0,0,1,44.9,3.8a1.207,1.207,0,0,1-.36.888A1.246,1.246,0,0,1,43.616,5.048Zm14.4,1.312a3.476,3.476,0,0,1,2.56.936A3.794,3.794,0,0,1,61.52,10.1V15h-2V10.36a2.5,2.5,0,0,0-.5-1.688A1.789,1.789,0,0,0,57.6,8.1a2.086,2.086,0,0,0-1.616.664,2.709,2.709,0,0,0-.608,1.9V15h-2V10.36a2.5,2.5,0,0,0-.5-1.688A1.789,1.789,0,0,0,51.456,8.1a2.092,2.092,0,0,0-1.624.656,2.727,2.727,0,0,0-.6,1.9V15h-2V6.456h1.9V7.544a3.11,3.11,0,0,1,1.2-.88,4.074,4.074,0,0,1,1.6-.3,3.865,3.865,0,0,1,1.7.36,2.766,2.766,0,0,1,1.176,1.064,3.561,3.561,0,0,1,1.36-1.048A4.417,4.417,0,0,1,58.016,6.36Zm14.176,4.416q0,.208-.032.592h-6.7a2.324,2.324,0,0,0,.92,1.5,3.016,3.016,0,0,0,1.848.552,3.114,3.114,0,0,0,2.32-.928l1.072,1.232a3.612,3.612,0,0,1-1.456,1.04,5.77,5.77,0,0,1-4.464-.208,4.033,4.033,0,0,1-1.656-1.56,4.406,4.406,0,0,1-.584-2.264,4.471,4.471,0,0,1,.568-2.248A4.029,4.029,0,0,1,65.6,6.92a4.6,4.6,0,0,1,2.272-.56,4.483,4.483,0,0,1,2.232.552A3.909,3.909,0,0,1,71.64,8.464,4.706,4.706,0,0,1,72.192,10.776ZM67.872,7.96a2.364,2.364,0,0,0-2.432,2.08h4.848a2.358,2.358,0,0,0-.784-1.5A2.384,2.384,0,0,0,67.872,7.96ZM80.512,18.1a11.549,11.549,0,0,1-1.448-3.376,16.146,16.146,0,0,1-.5-4.112,16.239,16.239,0,0,1,.5-4.12,11.316,11.316,0,0,1,1.448-3.368h1.9a14.187,14.187,0,0,0-1.432,3.56,16.223,16.223,0,0,0-.456,3.928,16.223,16.223,0,0,0,.456,3.928,14.187,14.187,0,0,0,1.432,3.56ZM87.5,3.8V15h-2.08V5.544H83.056V3.8Zm6.9,11.36a4.336,4.336,0,0,1-2.4-.68A4.592,4.592,0,0,1,90.336,12.5a7.27,7.27,0,0,1-.608-3.1,7.27,7.27,0,0,1,.608-3.1A4.592,4.592,0,0,1,92,4.32a4.589,4.589,0,0,1,4.808,0A4.572,4.572,0,0,1,98.48,6.3a7.27,7.27,0,0,1,.608,3.1,7.27,7.27,0,0,1-.608,3.1,4.572,4.572,0,0,1-1.672,1.984A4.375,4.375,0,0,1,94.4,15.16Zm0-1.808a2.2,2.2,0,0,0,1.9-.992,5.161,5.161,0,0,0,.7-2.96,5.161,5.161,0,0,0-.7-2.96,2.293,2.293,0,0,0-3.776,0,5.161,5.161,0,0,0-.7,2.96,5.161,5.161,0,0,0,.7,2.96A2.182,2.182,0,0,0,94.4,13.352Zm10.768,1.808a4.336,4.336,0,0,1-2.4-.68A4.592,4.592,0,0,1,101.1,12.5a7.27,7.27,0,0,1-.608-3.1,7.27,7.27,0,0,1,.608-3.1,4.592,4.592,0,0,1,1.664-1.984,4.589,4.589,0,0,1,4.808,0A4.572,4.572,0,0,1,109.248,6.3a7.27,7.27,0,0,1,.608,3.1,7.27,7.27,0,0,1-.608,3.1,4.572,4.572,0,0,1-1.672,1.984A4.375,4.375,0,0,1,105.168,15.16Zm0-1.808a2.2,2.2,0,0,0,1.9-.992,5.161,5.161,0,0,0,.7-2.96,5.161,5.161,0,0,0-.7-2.96,2.293,2.293,0,0,0-3.776,0,5.161,5.161,0,0,0-.7,2.96,5.161,5.161,0,0,0,.7,2.96A2.182,2.182,0,0,0,105.168,13.352Zm8.592-3.52a2.439,2.439,0,0,1-1.936-.848,3.272,3.272,0,0,1-.736-2.224,3.272,3.272,0,0,1,.736-2.224,2.439,2.439,0,0,1,1.936-.848,2.474,2.474,0,0,1,1.944.84,3.243,3.243,0,0,1,.744,2.232,3.243,3.243,0,0,1-.744,2.232A2.474,2.474,0,0,1,113.76,9.832ZM120.48,3.8h1.568L114.4,15h-1.568Zm-6.72,4.912a1.17,1.17,0,0,0,1.016-.512,2.477,2.477,0,0,0,.36-1.44,2.477,2.477,0,0,0-.36-1.44,1.243,1.243,0,0,0-2.016.008,2.4,2.4,0,0,0-.376,1.432,2.4,2.4,0,0,0,.376,1.432A1.175,1.175,0,0,0,113.76,8.712Zm7.344,6.4a2.439,2.439,0,0,1-1.936-.848,3.272,3.272,0,0,1-.736-2.224,3.272,3.272,0,0,1,.736-2.224,2.643,2.643,0,0,1,3.88,0,3.249,3.249,0,0,1,.744,2.224,3.249,3.249,0,0,1-.744,2.224A2.463,2.463,0,0,1,121.1,15.112Zm0-1.12a1.169,1.169,0,0,0,1.008-.52,2.443,2.443,0,0,0,.368-1.432,2.443,2.443,0,0,0-.368-1.432A1.243,1.243,0,0,0,120.1,10.6a2.436,2.436,0,0,0-.368,1.44,2.436,2.436,0,0,0,.368,1.44A1.175,1.175,0,0,0,121.1,13.992Zm3.248,4.112a14.388,14.388,0,0,0,1.44-3.568,15.985,15.985,0,0,0,.464-3.92,15.985,15.985,0,0,0-.464-3.92,14.388,14.388,0,0,0-1.44-3.568h1.9A11.1,11.1,0,0,1,127.7,6.48a16.306,16.306,0,0,1,.5,4.136,16.119,16.119,0,0,1-.5,4.12,11.561,11.561,0,0,1-1.448,3.368ZM6.112,43.8a6.2,6.2,0,0,1,2.536.48A3.688,3.688,0,0,1,10.3,45.656a4.2,4.2,0,0,1,0,4.248,3.67,3.67,0,0,1-1.656,1.384,6.2,6.2,0,0,1-2.536.48H3.584V55H1.5V43.8Zm-.1,6.208a3.2,3.2,0,0,0,2.064-.576,2.281,2.281,0,0,0,0-3.3,3.2,3.2,0,0,0-2.064-.576H3.584v4.448Zm9.936-3.648a4.166,4.166,0,0,1,2.888.9,3.494,3.494,0,0,1,1,2.728V55H17.952V53.96a2.327,2.327,0,0,1-1.048.856,4.1,4.1,0,0,1-1.64.3,4.018,4.018,0,0,1-1.68-.328,2.6,2.6,0,0,1-1.112-.912,2.314,2.314,0,0,1-.392-1.32,2.262,2.262,0,0,1,.856-1.848,4.251,4.251,0,0,1,2.7-.7H17.84V49.88A1.751,1.751,0,0,0,17.3,48.5a2.319,2.319,0,0,0-1.592-.48,4.6,4.6,0,0,0-1.416.224,3.479,3.479,0,0,0-1.176.624l-.784-1.456a4.855,4.855,0,0,1,1.616-.784A7.19,7.19,0,0,1,15.952,46.36Zm-.272,7.3a2.582,2.582,0,0,0,1.336-.344,1.872,1.872,0,0,0,.824-.984v-.992H15.776q-1.728,0-1.728,1.136a1.02,1.02,0,0,0,.432.864A1.98,1.98,0,0,0,15.68,53.656ZM24.3,47.7a3.332,3.332,0,0,1,3.04-1.344v1.9a2.539,2.539,0,0,0-.464-.048,2.416,2.416,0,0,0-1.824.68,2.712,2.712,0,0,0-.656,1.96V55h-2V46.456h1.9ZM34.5,54.536a2.354,2.354,0,0,1-.856.432,3.855,3.855,0,0,1-1.064.144,3.019,3.019,0,0,1-2.176-.736,2.833,2.833,0,0,1-.768-2.144V48.12H28.224v-1.6h1.408V44.568h2V46.52H33.92v1.6H31.632v4.064a1.352,1.352,0,0,0,.3.952,1.141,1.141,0,0,0,.88.328,1.757,1.757,0,0,0,1.12-.352Zm11.2,0a2.354,2.354,0,0,1-.856.432,3.855,3.855,0,0,1-1.064.144,3.019,3.019,0,0,1-2.176-.736,2.833,2.833,0,0,1-.768-2.144V48.12H39.424v-1.6h1.408V44.568h2V46.52H45.12v1.6H42.832v4.064a1.352,1.352,0,0,0,.3.952,1.141,1.141,0,0,0,.88.328,1.757,1.757,0,0,0,1.12-.352Zm1.648-8.08h2V55h-2Zm1.008-1.408a1.285,1.285,0,0,1-.912-.344,1.18,1.18,0,0,1,0-1.712,1.285,1.285,0,0,1,.912-.344,1.321,1.321,0,0,1,.912.328,1.057,1.057,0,0,1,.368.824,1.207,1.207,0,0,1-.36.888A1.246,1.246,0,0,1,48.352,45.048Zm14.4,1.312a3.476,3.476,0,0,1,2.56.936,3.794,3.794,0,0,1,.944,2.808V55h-2V50.36a2.5,2.5,0,0,0-.5-1.688,1.789,1.789,0,0,0-1.424-.568,2.086,2.086,0,0,0-1.616.664,2.709,2.709,0,0,0-.608,1.9V55h-2V50.36a2.5,2.5,0,0,0-.5-1.688,1.789,1.789,0,0,0-1.424-.568,2.092,2.092,0,0,0-1.624.656,2.727,2.727,0,0,0-.6,1.9V55h-2V46.456h1.9v1.088a3.11,3.11,0,0,1,1.2-.88,4.074,4.074,0,0,1,1.6-.3,3.865,3.865,0,0,1,1.7.36,2.766,2.766,0,0,1,1.176,1.064,3.561,3.561,0,0,1,1.36-1.048A4.417,4.417,0,0,1,62.752,46.36Zm14.176,4.416q0,.208-.032.592h-6.7a2.324,2.324,0,0,0,.92,1.5,3.016,3.016,0,0,0,1.848.552,3.114,3.114,0,0,0,2.32-.928l1.072,1.232A3.612,3.612,0,0,1,74.9,54.76a5.77,5.77,0,0,1-4.464-.208,4.033,4.033,0,0,1-1.656-1.56,4.405,4.405,0,0,1-.584-2.264,4.471,4.471,0,0,1,.568-2.248,4.029,4.029,0,0,1,1.576-1.56,4.6,4.6,0,0,1,2.272-.56,4.483,4.483,0,0,1,2.232.552,3.909,3.909,0,0,1,1.536,1.552A4.706,4.706,0,0,1,76.928,50.776Zm-4.32-2.816a2.364,2.364,0,0,0-2.432,2.08h4.848a2.358,2.358,0,0,0-.784-1.5A2.384,2.384,0,0,0,72.608,47.96ZM85.248,58.1A11.549,11.549,0,0,1,83.8,54.728a17.059,17.059,0,0,1,0-8.232,11.316,11.316,0,0,1,1.448-3.368h1.9a14.187,14.187,0,0,0-1.432,3.56,17.146,17.146,0,0,0,0,7.856,14.187,14.187,0,0,0,1.432,3.56ZM94.256,55l-2.192-2.96L89.856,55H87.648l3.328-4.336-3.184-4.208h2.224l2.1,2.8,2.1-2.8h2.16l-3.2,4.176L96.512,55Zm5.616-5.168a2.439,2.439,0,0,1-1.936-.848,3.728,3.728,0,0,1,0-4.448,2.439,2.439,0,0,1,1.936-.848,2.474,2.474,0,0,1,1.944.84,3.72,3.72,0,0,1,0,4.464A2.474,2.474,0,0,1,99.872,49.832Zm6.72-6.032h1.568L100.512,55H98.944Zm-6.72,4.912a1.17,1.17,0,0,0,1.016-.512,3.06,3.06,0,0,0,0-2.88,1.243,1.243,0,0,0-2.016.008,2.915,2.915,0,0,0,0,2.864A1.175,1.175,0,0,0,99.872,48.712Zm7.344,6.4a2.439,2.439,0,0,1-1.936-.848,3.728,3.728,0,0,1,0-4.448,2.643,2.643,0,0,1,3.88,0,3.7,3.7,0,0,1,0,4.448A2.463,2.463,0,0,1,107.216,55.112Zm0-1.12a1.169,1.169,0,0,0,1.008-.52,2.97,2.97,0,0,0,0-2.864,1.243,1.243,0,0,0-2.016-.008,3,3,0,0,0,0,2.88A1.175,1.175,0,0,0,107.216,53.992Zm3.248,4.112a14.388,14.388,0,0,0,1.44-3.568,16.791,16.791,0,0,0,0-7.84,14.388,14.388,0,0,0-1.44-3.568h1.9a11.1,11.1,0,0,1,1.448,3.352,16.306,16.306,0,0,1,.5,4.136,16.119,16.119,0,0,1-.5,4.12,11.561,11.561,0,0,1-1.448,3.368ZM3.584,85.544v3.408H8.992v1.76H3.584V95H1.5V83.8H9.68v1.744Zm15.952.912V95h-1.9V93.912a3.183,3.183,0,0,1-1.2.888,3.861,3.861,0,0,1-1.552.312,3.714,3.714,0,0,1-2.7-.952,3.756,3.756,0,0,1-.984-2.824v-4.88h2v4.608a2.475,2.475,0,0,0,.52,1.72,1.905,1.905,0,0,0,1.48.568,2.241,2.241,0,0,0,1.7-.664,2.668,2.668,0,0,0,.632-1.912v-4.32Zm2.624-3.328h2V95h-2Zm4.624,0h2V95h-2ZM40.96,94.536a2.355,2.355,0,0,1-.856.432,3.855,3.855,0,0,1-1.064.144,3.019,3.019,0,0,1-2.176-.736,2.833,2.833,0,0,1-.768-2.144V88.12H34.688v-1.6H36.1V84.568h2V86.52h2.288v1.6H38.1v4.064a1.352,1.352,0,0,0,.3.952,1.141,1.141,0,0,0,.88.328,1.757,1.757,0,0,0,1.12-.352Zm1.648-8.08h2V95h-2Zm1.008-1.408A1.285,1.285,0,0,1,42.7,84.7a1.18,1.18,0,0,1,0-1.712,1.285,1.285,0,0,1,.912-.344,1.321,1.321,0,0,1,.912.328,1.057,1.057,0,0,1,.368.824,1.207,1.207,0,0,1-.36.888A1.246,1.246,0,0,1,43.616,85.048Zm14.4,1.312a3.476,3.476,0,0,1,2.56.936A3.794,3.794,0,0,1,61.52,90.1V95h-2V90.36a2.5,2.5,0,0,0-.5-1.688A1.789,1.789,0,0,0,57.6,88.1a2.086,2.086,0,0,0-1.616.664,2.709,2.709,0,0,0-.608,1.9V95h-2V90.36a2.5,2.5,0,0,0-.5-1.688,1.789,1.789,0,0,0-1.424-.568,2.092,2.092,0,0,0-1.624.656,2.727,2.727,0,0,0-.6,1.9V95h-2V86.456h1.9v1.088a3.11,3.11,0,0,1,1.2-.88,4.074,4.074,0,0,1,1.6-.3,3.865,3.865,0,0,1,1.7.36,2.766,2.766,0,0,1,1.176,1.064,3.561,3.561,0,0,1,1.36-1.048A4.417,4.417,0,0,1,58.016,86.36Zm14.176,4.416q0,.208-.032.592h-6.7a2.324,2.324,0,0,0,.92,1.5,3.016,3.016,0,0,0,1.848.552,3.114,3.114,0,0,0,2.32-.928l1.072,1.232a3.612,3.612,0,0,1-1.456,1.04,5.77,5.77,0,0,1-4.464-.208,4.033,4.033,0,0,1-1.656-1.56,4.406,4.406,0,0,1-.584-2.264,4.471,4.471,0,0,1,.568-2.248A4.029,4.029,0,0,1,65.6,86.92a4.6,4.6,0,0,1,2.272-.56,4.483,4.483,0,0,1,2.232.552,3.909,3.909,0,0,1,1.536,1.552A4.706,4.706,0,0,1,72.192,90.776Zm-4.32-2.816a2.364,2.364,0,0,0-2.432,2.08h4.848a2.358,2.358,0,0,0-.784-1.5A2.384,2.384,0,0,0,67.872,87.96ZM80.512,98.1a11.549,11.549,0,0,1-1.448-3.376,17.059,17.059,0,0,1,0-8.232,11.316,11.316,0,0,1,1.448-3.368h1.9a14.187,14.187,0,0,0-1.432,3.56,17.146,17.146,0,0,0,0,7.856,14.187,14.187,0,0,0,1.432,3.56ZM87.5,83.8V95h-2.08V85.544H83.056V83.8Zm6.9,11.36a4.336,4.336,0,0,1-2.4-.68A4.592,4.592,0,0,1,90.336,92.5a8.187,8.187,0,0,1,0-6.192A4.592,4.592,0,0,1,92,84.32a4.589,4.589,0,0,1,4.808,0A4.572,4.572,0,0,1,98.48,86.3a8.187,8.187,0,0,1,0,6.192,4.572,4.572,0,0,1-1.672,1.984A4.375,4.375,0,0,1,94.4,95.16Zm0-1.808a2.2,2.2,0,0,0,1.9-.992,6.642,6.642,0,0,0,0-5.92,2.293,2.293,0,0,0-3.776,0,6.642,6.642,0,0,0,0,5.92A2.182,2.182,0,0,0,94.4,93.352Zm10.768,1.808a4.336,4.336,0,0,1-2.4-.68A4.592,4.592,0,0,1,101.1,92.5a8.187,8.187,0,0,1,0-6.192,4.592,4.592,0,0,1,1.664-1.984,4.589,4.589,0,0,1,4.808,0,4.572,4.572,0,0,1,1.672,1.984,8.187,8.187,0,0,1,0,6.192,4.572,4.572,0,0,1-1.672,1.984A4.375,4.375,0,0,1,105.168,95.16Zm0-1.808a2.2,2.2,0,0,0,1.9-.992,6.642,6.642,0,0,0,0-5.92,2.293,2.293,0,0,0-3.776,0,6.642,6.642,0,0,0,0,5.92A2.182,2.182,0,0,0,105.168,93.352Zm8.592-3.52a2.439,2.439,0,0,1-1.936-.848,3.728,3.728,0,0,1,0-4.448,2.439,2.439,0,0,1,1.936-.848,2.474,2.474,0,0,1,1.944.84,3.72,3.72,0,0,1,0,4.464A2.474,2.474,0,0,1,113.76,89.832Zm6.72-6.032h1.568L114.4,95h-1.568Zm-6.72,4.912a1.17,1.17,0,0,0,1.016-.512,3.06,3.06,0,0,0,0-2.88,1.243,1.243,0,0,0-2.016.008,2.915,2.915,0,0,0,0,2.864A1.175,1.175,0,0,0,113.76,88.712Zm7.344,6.4a2.439,2.439,0,0,1-1.936-.848,3.728,3.728,0,0,1,0-4.448,2.643,2.643,0,0,1,3.88,0,3.7,3.7,0,0,1,0,4.448A2.463,2.463,0,0,1,121.1,95.112Zm0-1.12a1.169,1.169,0,0,0,1.008-.52,2.97,2.97,0,0,0,0-2.864A1.243,1.243,0,0,0,120.1,90.6a3,3,0,0,0,0,2.88A1.175,1.175,0,0,0,121.1,93.992Zm3.248,4.112a14.388,14.388,0,0,0,1.44-3.568,16.791,16.791,0,0,0,0-7.84,14.388,14.388,0,0,0-1.44-3.568h1.9A11.1,11.1,0,0,1,127.7,86.48a16.306,16.306,0,0,1,.5,4.136,16.119,16.119,0,0,1-.5,4.12,11.561,11.561,0,0,1-1.448,3.368ZM3.584,125.544v3.408H8.992v1.76H3.584V135H1.5V123.8H9.68v1.744Zm15.952.912V135h-1.9v-1.088a3.183,3.183,0,0,1-1.2.888,3.861,3.861,0,0,1-1.552.312,3.714,3.714,0,0,1-2.7-.952,3.756,3.756,0,0,1-.984-2.824v-4.88h2v4.608a2.475,2.475,0,0,0,.52,1.72,1.905,1.905,0,0,0,1.48.568,2.241,2.241,0,0,0,1.7-.664,2.668,2.668,0,0,0,.632-1.912v-4.32Zm2.624-3.328h2V135h-2Zm4.624,0h2V135h-2ZM40.96,134.536a2.354,2.354,0,0,1-.856.432,3.855,3.855,0,0,1-1.064.144,3.019,3.019,0,0,1-2.176-.736,2.833,2.833,0,0,1-.768-2.144V128.12H34.688v-1.6H36.1v-1.952h2v1.952h2.288v1.6H38.1v4.064a1.352,1.352,0,0,0,.3.952,1.141,1.141,0,0,0,.88.328,1.757,1.757,0,0,0,1.12-.352Zm1.648-8.08h2V135h-2Zm1.008-1.408a1.285,1.285,0,0,1-.912-.344,1.18,1.18,0,0,1,0-1.712,1.285,1.285,0,0,1,.912-.344,1.321,1.321,0,0,1,.912.328,1.057,1.057,0,0,1,.368.824,1.207,1.207,0,0,1-.36.888A1.246,1.246,0,0,1,43.616,125.048Zm14.4,1.312a3.476,3.476,0,0,1,2.56.936,3.794,3.794,0,0,1,.944,2.808V135h-2v-4.64a2.5,2.5,0,0,0-.5-1.688A1.789,1.789,0,0,0,57.6,128.1a2.086,2.086,0,0,0-1.616.664,2.709,2.709,0,0,0-.608,1.9V135h-2v-4.64a2.5,2.5,0,0,0-.5-1.688,1.789,1.789,0,0,0-1.424-.568,2.092,2.092,0,0,0-1.624.656,2.727,2.727,0,0,0-.6,1.9V135h-2v-8.544h1.9v1.088a3.11,3.11,0,0,1,1.2-.88,4.074,4.074,0,0,1,1.6-.3,3.865,3.865,0,0,1,1.7.36,2.766,2.766,0,0,1,1.176,1.064,3.561,3.561,0,0,1,1.36-1.048A4.417,4.417,0,0,1,58.016,126.36Zm14.176,4.416q0,.208-.032.592h-6.7a2.324,2.324,0,0,0,.92,1.5,3.016,3.016,0,0,0,1.848.552,3.114,3.114,0,0,0,2.32-.928l1.072,1.232a3.612,3.612,0,0,1-1.456,1.04,5.77,5.77,0,0,1-4.464-.208,4.033,4.033,0,0,1-1.656-1.56,4.406,4.406,0,0,1-.584-2.264,4.471,4.471,0,0,1,.568-2.248,4.029,4.029,0,0,1,1.576-1.56,4.6,4.6,0,0,1,2.272-.56,4.483,4.483,0,0,1,2.232.552,3.909,3.909,0,0,1,1.536,1.552A4.706,4.706,0,0,1,72.192,130.776Zm-4.32-2.816a2.364,2.364,0,0,0-2.432,2.08h4.848a2.358,2.358,0,0,0-.784-1.5A2.384,2.384,0,0,0,67.872,127.96ZM80.512,138.1a11.549,11.549,0,0,1-1.448-3.376,17.059,17.059,0,0,1,0-8.232,11.316,11.316,0,0,1,1.448-3.368h1.9a14.187,14.187,0,0,0-1.432,3.56,17.146,17.146,0,0,0,0,7.856,14.187,14.187,0,0,0,1.432,3.56ZM87.5,123.8V135h-2.08v-9.456H83.056V123.8Zm6.9,11.36a4.336,4.336,0,0,1-2.4-.68,4.592,4.592,0,0,1-1.664-1.984,8.187,8.187,0,0,1,0-6.192A4.592,4.592,0,0,1,92,124.32a4.589,4.589,0,0,1,4.808,0A4.572,4.572,0,0,1,98.48,126.3a8.187,8.187,0,0,1,0,6.192,4.571,4.571,0,0,1-1.672,1.984A4.375,4.375,0,0,1,94.4,135.16Zm0-1.808a2.2,2.2,0,0,0,1.9-.992,6.642,6.642,0,0,0,0-5.92,2.293,2.293,0,0,0-3.776,0,6.642,6.642,0,0,0,0,5.92A2.182,2.182,0,0,0,94.4,133.352Zm10.768,1.808a4.336,4.336,0,0,1-2.4-.68A4.592,4.592,0,0,1,101.1,132.5a8.187,8.187,0,0,1,0-6.192,4.592,4.592,0,0,1,1.664-1.984,4.589,4.589,0,0,1,4.808,0,4.572,4.572,0,0,1,1.672,1.984,8.187,8.187,0,0,1,0,6.192,4.571,4.571,0,0,1-1.672,1.984A4.375,4.375,0,0,1,105.168,135.16Zm0-1.808a2.2,2.2,0,0,0,1.9-.992,6.642,6.642,0,0,0,0-5.92,2.293,2.293,0,0,0-3.776,0,6.642,6.642,0,0,0,0,5.92A2.182,2.182,0,0,0,105.168,133.352Zm8.592-3.52a2.439,2.439,0,0,1-1.936-.848,3.728,3.728,0,0,1,0-4.448,2.439,2.439,0,0,1,1.936-.848,2.474,2.474,0,0,1,1.944.84,3.72,3.72,0,0,1,0,4.464A2.474,2.474,0,0,1,113.76,129.832Zm6.72-6.032h1.568L114.4,135h-1.568Zm-6.72,4.912a1.17,1.17,0,0,0,1.016-.512,3.06,3.06,0,0,0,0-2.88,1.243,1.243,0,0,0-2.016.008,2.915,2.915,0,0,0,0,2.864A1.175,1.175,0,0,0,113.76,128.712Zm7.344,6.4a2.439,2.439,0,0,1-1.936-.848,3.728,3.728,0,0,1,0-4.448,2.643,2.643,0,0,1,3.88,0,3.7,3.7,0,0,1,0,4.448A2.463,2.463,0,0,1,121.1,135.112Zm0-1.12a1.169,1.169,0,0,0,1.008-.52,2.97,2.97,0,0,0,0-2.864,1.243,1.243,0,0,0-2.016-.008,3,3,0,0,0,0,2.88A1.175,1.175,0,0,0,121.1,133.992Zm3.248,4.112a14.388,14.388,0,0,0,1.44-3.568,16.791,16.791,0,0,0,0-7.84,14.388,14.388,0,0,0-1.44-3.568h1.9a11.1,11.1,0,0,1,1.448,3.352,16.306,16.306,0,0,1,.5,4.136,16.119,16.119,0,0,1-.5,4.12,11.561,11.561,0,0,1-1.448,3.368ZM3.584,165.544v3.408H8.992v1.76H3.584V175H1.5V163.8H9.68v1.744Zm15.952.912V175h-1.9v-1.088a3.183,3.183,0,0,1-1.2.888,3.861,3.861,0,0,1-1.552.312,3.714,3.714,0,0,1-2.7-.952,3.756,3.756,0,0,1-.984-2.824v-4.88h2v4.608a2.475,2.475,0,0,0,.52,1.72,1.905,1.905,0,0,0,1.48.568,2.241,2.241,0,0,0,1.7-.664,2.668,2.668,0,0,0,.632-1.912v-4.32Zm2.624-3.328h2V175h-2Zm4.624,0h2V175h-2ZM40.96,174.536a2.354,2.354,0,0,1-.856.432,3.855,3.855,0,0,1-1.064.144,3.019,3.019,0,0,1-2.176-.736,2.833,2.833,0,0,1-.768-2.144V168.12H34.688v-1.6H36.1v-1.952h2v1.952h2.288v1.6H38.1v4.064a1.352,1.352,0,0,0,.3.952,1.141,1.141,0,0,0,.88.328,1.757,1.757,0,0,0,1.12-.352Zm1.648-8.08h2V175h-2Zm1.008-1.408a1.285,1.285,0,0,1-.912-.344,1.18,1.18,0,0,1,0-1.712,1.285,1.285,0,0,1,.912-.344,1.321,1.321,0,0,1,.912.328,1.057,1.057,0,0,1,.368.824,1.207,1.207,0,0,1-.36.888A1.246,1.246,0,0,1,43.616,165.048Zm14.4,1.312a3.476,3.476,0,0,1,2.56.936,3.794,3.794,0,0,1,.944,2.808V175h-2v-4.64a2.5,2.5,0,0,0-.5-1.688A1.789,1.789,0,0,0,57.6,168.1a2.086,2.086,0,0,0-1.616.664,2.709,2.709,0,0,0-.608,1.9V175h-2v-4.64a2.5,2.5,0,0,0-.5-1.688,1.789,1.789,0,0,0-1.424-.568,2.092,2.092,0,0,0-1.624.656,2.727,2.727,0,0,0-.6,1.9V175h-2v-8.544h1.9v1.088a3.11,3.11,0,0,1,1.2-.88,4.074,4.074,0,0,1,1.6-.3,3.865,3.865,0,0,1,1.7.36,2.766,2.766,0,0,1,1.176,1.064,3.561,3.561,0,0,1,1.36-1.048A4.417,4.417,0,0,1,58.016,166.36Zm14.176,4.416q0,.208-.032.592h-6.7a2.324,2.324,0,0,0,.92,1.5,3.016,3.016,0,0,0,1.848.552,3.114,3.114,0,0,0,2.32-.928l1.072,1.232a3.612,3.612,0,0,1-1.456,1.04,5.77,5.77,0,0,1-4.464-.208,4.033,4.033,0,0,1-1.656-1.56,4.406,4.406,0,0,1-.584-2.264,4.471,4.471,0,0,1,.568-2.248,4.029,4.029,0,0,1,1.576-1.56,4.6,4.6,0,0,1,2.272-.56,4.483,4.483,0,0,1,2.232.552,3.909,3.909,0,0,1,1.536,1.552A4.706,4.706,0,0,1,72.192,170.776Zm-4.32-2.816a2.364,2.364,0,0,0-2.432,2.08h4.848a2.358,2.358,0,0,0-.784-1.5A2.384,2.384,0,0,0,67.872,167.96ZM80.512,178.1a11.549,11.549,0,0,1-1.448-3.376,17.059,17.059,0,0,1,0-8.232,11.316,11.316,0,0,1,1.448-3.368h1.9a14.187,14.187,0,0,0-1.432,3.56,17.146,17.146,0,0,0,0,7.856,14.187,14.187,0,0,0,1.432,3.56ZM87.5,163.8V175h-2.08v-9.456H83.056V163.8Zm6.9,11.36a4.336,4.336,0,0,1-2.4-.68,4.592,4.592,0,0,1-1.664-1.984,8.187,8.187,0,0,1,0-6.192A4.592,4.592,0,0,1,92,164.32a4.589,4.589,0,0,1,4.808,0A4.571,4.571,0,0,1,98.48,166.3a8.187,8.187,0,0,1,0,6.192,4.571,4.571,0,0,1-1.672,1.984A4.375,4.375,0,0,1,94.4,175.16Zm0-1.808a2.2,2.2,0,0,0,1.9-.992,6.642,6.642,0,0,0,0-5.92,2.293,2.293,0,0,0-3.776,0,6.642,6.642,0,0,0,0,5.92A2.182,2.182,0,0,0,94.4,173.352Zm10.768,1.808a4.336,4.336,0,0,1-2.4-.68A4.592,4.592,0,0,1,101.1,172.5a8.187,8.187,0,0,1,0-6.192,4.592,4.592,0,0,1,1.664-1.984,4.589,4.589,0,0,1,4.808,0,4.571,4.571,0,0,1,1.672,1.984,8.187,8.187,0,0,1,0,6.192,4.571,4.571,0,0,1-1.672,1.984A4.375,4.375,0,0,1,105.168,175.16Zm0-1.808a2.2,2.2,0,0,0,1.9-.992,6.642,6.642,0,0,0,0-5.92,2.293,2.293,0,0,0-3.776,0,6.642,6.642,0,0,0,0,5.92A2.182,2.182,0,0,0,105.168,173.352Zm8.592-3.52a2.439,2.439,0,0,1-1.936-.848,3.728,3.728,0,0,1,0-4.448,2.439,2.439,0,0,1,1.936-.848,2.474,2.474,0,0,1,1.944.84,3.72,3.72,0,0,1,0,4.464A2.474,2.474,0,0,1,113.76,169.832Zm6.72-6.032h1.568L114.4,175h-1.568Zm-6.72,4.912a1.17,1.17,0,0,0,1.016-.512,3.06,3.06,0,0,0,0-2.88,1.243,1.243,0,0,0-2.016.008,2.915,2.915,0,0,0,0,2.864A1.175,1.175,0,0,0,113.76,168.712Zm7.344,6.4a2.439,2.439,0,0,1-1.936-.848,3.728,3.728,0,0,1,0-4.448,2.643,2.643,0,0,1,3.88,0,3.7,3.7,0,0,1,0,4.448A2.463,2.463,0,0,1,121.1,175.112Zm0-1.12a1.169,1.169,0,0,0,1.008-.52,2.97,2.97,0,0,0,0-2.864,1.243,1.243,0,0,0-2.016-.008,3,3,0,0,0,0,2.88A1.175,1.175,0,0,0,121.1,173.992Zm3.248,4.112a14.388,14.388,0,0,0,1.44-3.568,16.791,16.791,0,0,0,0-7.84,14.388,14.388,0,0,0-1.44-3.568h1.9a11.1,11.1,0,0,1,1.448,3.352,16.306,16.306,0,0,1,.5,4.136,16.119,16.119,0,0,1-.5,4.12,11.561,11.561,0,0,1-1.448,3.368ZM6.736,215.16a6.387,6.387,0,0,1-3.088-.744,5.51,5.51,0,0,1-2.16-2.064,5.95,5.95,0,0,1,0-5.9,5.51,5.51,0,0,1,2.16-2.064,6.387,6.387,0,0,1,3.088-.744,6.387,6.387,0,0,1,3.088.744,5.527,5.527,0,0,1,2.16,2.056,5.98,5.98,0,0,1,0,5.92,5.527,5.527,0,0,1-2.16,2.056A6.387,6.387,0,0,1,6.736,215.16Zm0-1.824a4.04,4.04,0,0,0,2.016-.5,3.645,3.645,0,0,0,1.408-1.408,4.257,4.257,0,0,0,0-4.048,3.645,3.645,0,0,0-1.408-1.408,4.04,4.04,0,0,0-2.016-.5,4.04,4.04,0,0,0-2.016.5,3.645,3.645,0,0,0-1.408,1.408,4.257,4.257,0,0,0,0,4.048,3.645,3.645,0,0,0,1.408,1.408A4.04,4.04,0,0,0,6.736,213.336ZM19.52,206.36a4.535,4.535,0,0,1,2.232.544A3.923,3.923,0,0,1,23.3,208.44a4.97,4.97,0,0,1,0,4.584,3.909,3.909,0,0,1-1.544,1.544,4.535,4.535,0,0,1-2.232.544,3.449,3.449,0,0,1-2.736-1.152V218.1h-2V206.456h1.9v1.12a3.094,3.094,0,0,1,1.224-.912A4.133,4.133,0,0,1,19.52,206.36ZM19.3,213.4a2.417,2.417,0,0,0,1.816-.736,2.988,2.988,0,0,0,0-3.872,2.417,2.417,0,0,0-1.816-.736,2.572,2.572,0,0,0-1.3.328,2.37,2.37,0,0,0-.912.936,3.118,3.118,0,0,0,0,2.816,2.37,2.37,0,0,0,.912.936A2.572,2.572,0,0,0,19.3,213.4Zm11.6,1.136a2.354,2.354,0,0,1-.856.432,3.855,3.855,0,0,1-1.064.144,3.019,3.019,0,0,1-2.176-.736,2.833,2.833,0,0,1-.768-2.144V208.12H24.624v-1.6h1.408v-1.952h2v1.952H30.32v1.6H28.032v4.064a1.352,1.352,0,0,0,.3.952,1.141,1.141,0,0,0,.88.328,1.757,1.757,0,0,0,1.12-.352Zm1.648-8.08h2V215h-2Zm1.008-1.408a1.285,1.285,0,0,1-.912-.344,1.18,1.18,0,0,1,0-1.712,1.285,1.285,0,0,1,.912-.344,1.321,1.321,0,0,1,.912.328,1.057,1.057,0,0,1,.368.824,1.207,1.207,0,0,1-.36.888A1.246,1.246,0,0,1,33.552,205.048Zm7.456,10.064a4.848,4.848,0,0,1-2.336-.56,4.083,4.083,0,0,1-1.624-1.56,4.665,4.665,0,0,1,0-4.52,4.1,4.1,0,0,1,1.624-1.552,5.186,5.186,0,0,1,4.688,0,4.1,4.1,0,0,1,1.624,1.552,4.665,4.665,0,0,1,0,4.52,4.083,4.083,0,0,1-1.624,1.56A4.881,4.881,0,0,1,41.008,215.112Zm0-1.712a2.444,2.444,0,0,0,1.824-.736,2.963,2.963,0,0,0,0-3.872,2.444,2.444,0,0,0-1.824-.736,2.417,2.417,0,0,0-1.816.736,2.988,2.988,0,0,0,0,3.872A2.417,2.417,0,0,0,41.008,213.4Zm11.328-7.04a3.57,3.57,0,0,1,2.592.944,3.724,3.724,0,0,1,.976,2.8V215h-2v-4.64a2.4,2.4,0,0,0-.528-1.688,1.952,1.952,0,0,0-1.5-.568,2.309,2.309,0,0,0-1.744.664,2.647,2.647,0,0,0-.64,1.912V215h-2v-8.544h1.9v1.1a3.127,3.127,0,0,1,1.248-.9A4.491,4.491,0,0,1,52.336,206.36Zm9.376,0a4.166,4.166,0,0,1,2.888.9,3.494,3.494,0,0,1,1,2.728V215H63.712v-1.04a2.327,2.327,0,0,1-1.048.856,4.1,4.1,0,0,1-1.64.3,4.018,4.018,0,0,1-1.68-.328,2.6,2.6,0,0,1-1.112-.912,2.314,2.314,0,0,1-.392-1.32A2.262,2.262,0,0,1,58.7,210.7a4.251,4.251,0,0,1,2.7-.7H63.6v-.128a1.751,1.751,0,0,0-.536-1.376,2.319,2.319,0,0,0-1.592-.48,4.6,4.6,0,0,0-1.416.224,3.479,3.479,0,0,0-1.176.624l-.784-1.456a4.855,4.855,0,0,1,1.616-.784A7.19,7.19,0,0,1,61.712,206.36Zm-.272,7.3a2.582,2.582,0,0,0,1.336-.344,1.872,1.872,0,0,0,.824-.984v-.992H61.536q-1.728,0-1.728,1.136a1.02,1.02,0,0,0,.432.864A1.98,1.98,0,0,0,61.44,213.656Zm6.72-10.528h2V215h-2ZM6.112,243.8a6.2,6.2,0,0,1,2.536.48,3.687,3.687,0,0,1,1.656,1.376,4.2,4.2,0,0,1,0,4.248,3.67,3.67,0,0,1-1.656,1.384,6.2,6.2,0,0,1-2.536.48H3.584V255H1.5V243.8Zm-.1,6.208a3.2,3.2,0,0,0,2.064-.576,2.281,2.281,0,0,0,0-3.3,3.2,3.2,0,0,0-2.064-.576H3.584v4.448Zm9.936-3.648a4.166,4.166,0,0,1,2.888.9,3.494,3.494,0,0,1,1,2.728V255H17.952v-1.04a2.327,2.327,0,0,1-1.048.856,4.1,4.1,0,0,1-1.64.3,4.018,4.018,0,0,1-1.68-.328,2.6,2.6,0,0,1-1.112-.912,2.314,2.314,0,0,1-.392-1.32,2.262,2.262,0,0,1,.856-1.848,4.251,4.251,0,0,1,2.7-.7H17.84v-.128A1.751,1.751,0,0,0,17.3,248.5a2.319,2.319,0,0,0-1.592-.48,4.6,4.6,0,0,0-1.416.224,3.479,3.479,0,0,0-1.176.624l-.784-1.456a4.855,4.855,0,0,1,1.616-.784A7.19,7.19,0,0,1,15.952,246.36Zm-.272,7.3a2.582,2.582,0,0,0,1.336-.344,1.872,1.872,0,0,0,.824-.984v-.992H15.776q-1.728,0-1.728,1.136a1.02,1.02,0,0,0,.432.864A1.98,1.98,0,0,0,15.68,253.656ZM24.3,247.7a3.332,3.332,0,0,1,3.04-1.344v1.9a2.539,2.539,0,0,0-.464-.048,2.416,2.416,0,0,0-1.824.68,2.712,2.712,0,0,0-.656,1.96V255h-2v-8.544h1.9ZM34.5,254.536a2.354,2.354,0,0,1-.856.432,3.855,3.855,0,0,1-1.064.144,3.019,3.019,0,0,1-2.176-.736,2.833,2.833,0,0,1-.768-2.144V248.12H28.224v-1.6h1.408v-1.952h2v1.952H33.92v1.6H31.632v4.064a1.352,1.352,0,0,0,.3.952,1.141,1.141,0,0,0,.88.328,1.757,1.757,0,0,0,1.12-.352Zm11.2,0a2.354,2.354,0,0,1-.856.432,3.855,3.855,0,0,1-1.064.144,3.019,3.019,0,0,1-2.176-.736,2.833,2.833,0,0,1-.768-2.144V248.12H39.424v-1.6h1.408v-1.952h2v1.952H45.12v1.6H42.832v4.064a1.352,1.352,0,0,0,.3.952,1.141,1.141,0,0,0,.88.328,1.757,1.757,0,0,0,1.12-.352Zm1.648-8.08h2V255h-2Zm1.008-1.408a1.285,1.285,0,0,1-.912-.344,1.18,1.18,0,0,1,0-1.712,1.285,1.285,0,0,1,.912-.344,1.321,1.321,0,0,1,.912.328,1.057,1.057,0,0,1,.368.824,1.207,1.207,0,0,1-.36.888A1.246,1.246,0,0,1,48.352,245.048Zm14.4,1.312a3.476,3.476,0,0,1,2.56.936,3.794,3.794,0,0,1,.944,2.808V255h-2v-4.64a2.5,2.5,0,0,0-.5-1.688,1.789,1.789,0,0,0-1.424-.568,2.086,2.086,0,0,0-1.616.664,2.709,2.709,0,0,0-.608,1.9V255h-2v-4.64a2.5,2.5,0,0,0-.5-1.688,1.789,1.789,0,0,0-1.424-.568,2.092,2.092,0,0,0-1.624.656,2.727,2.727,0,0,0-.6,1.9V255h-2v-8.544h1.9v1.088a3.11,3.11,0,0,1,1.2-.88,4.074,4.074,0,0,1,1.6-.3,3.865,3.865,0,0,1,1.7.36,2.766,2.766,0,0,1,1.176,1.064,3.561,3.561,0,0,1,1.36-1.048A4.417,4.417,0,0,1,62.752,246.36Zm14.176,4.416q0,.208-.032.592h-6.7a2.324,2.324,0,0,0,.92,1.5,3.016,3.016,0,0,0,1.848.552,3.114,3.114,0,0,0,2.32-.928l1.072,1.232a3.612,3.612,0,0,1-1.456,1.04,5.77,5.77,0,0,1-4.464-.208,4.033,4.033,0,0,1-1.656-1.56,4.406,4.406,0,0,1-.584-2.264,4.471,4.471,0,0,1,.568-2.248,4.029,4.029,0,0,1,1.576-1.56,4.6,4.6,0,0,1,2.272-.56,4.483,4.483,0,0,1,2.232.552,3.909,3.909,0,0,1,1.536,1.552A4.706,4.706,0,0,1,76.928,250.776Zm-4.32-2.816a2.364,2.364,0,0,0-2.432,2.08h4.848a2.358,2.358,0,0,0-.784-1.5A2.384,2.384,0,0,0,72.608,247.96ZM85.248,258.1a11.549,11.549,0,0,1-1.448-3.376,17.059,17.059,0,0,1,0-8.232,11.316,11.316,0,0,1,1.448-3.368h1.9a14.187,14.187,0,0,0-1.432,3.56,17.146,17.146,0,0,0,0,7.856,14.187,14.187,0,0,0,1.432,3.56Zm9.008-3.1-2.192-2.96L89.856,255H87.648l3.328-4.336-3.184-4.208h2.224l2.1,2.8,2.1-2.8h2.16l-3.2,4.176L96.512,255Zm5.616-5.168a2.439,2.439,0,0,1-1.936-.848,3.728,3.728,0,0,1,0-4.448,2.439,2.439,0,0,1,1.936-.848,2.474,2.474,0,0,1,1.944.84,3.72,3.72,0,0,1,0,4.464A2.474,2.474,0,0,1,99.872,249.832Zm6.72-6.032h1.568L100.512,255H98.944Zm-6.72,4.912a1.17,1.17,0,0,0,1.016-.512,3.06,3.06,0,0,0,0-2.88,1.243,1.243,0,0,0-2.016.008,2.915,2.915,0,0,0,0,2.864A1.175,1.175,0,0,0,99.872,248.712Zm7.344,6.4a2.439,2.439,0,0,1-1.936-.848,3.728,3.728,0,0,1,0-4.448,2.643,2.643,0,0,1,3.88,0,3.7,3.7,0,0,1,0,4.448A2.463,2.463,0,0,1,107.216,255.112Zm0-1.12a1.169,1.169,0,0,0,1.008-.52,2.97,2.97,0,0,0,0-2.864,1.243,1.243,0,0,0-2.016-.008,3,3,0,0,0,0,2.88A1.175,1.175,0,0,0,107.216,253.992Zm3.248,4.112a14.388,14.388,0,0,0,1.44-3.568,16.791,16.791,0,0,0,0-7.84,14.388,14.388,0,0,0-1.44-3.568h1.9a11.1,11.1,0,0,1,1.448,3.352,16.306,16.306,0,0,1,.5,4.136,16.119,16.119,0,0,1-.5,4.12,11.561,11.561,0,0,1-1.448,3.368Z" transform="translate(837.5 2395.5)"/><path class="c" d="M6,0H602a6,6,0,0,1,6,6V60a0,0,0,0,1,0,0H0a0,0,0,0,1,0,0V6A6,6,0,0,1,6,0Z" transform="translate(409 2314)"/><path class="b" d="M8.7-2.4H3.5L2.512,0H-.144L4.848-11.2h2.56L12.416,0H9.7ZM7.888-4.368,6.112-8.656,4.336-4.368Zm5.52-7.5h2.5V0h-2.5Zm4.816,0h2.5V0h-2.5Zm8.912,12A5.162,5.162,0,0,1,24.7-.44a4.222,4.222,0,0,1-1.688-1.576A4.342,4.342,0,0,1,22.4-4.3a4.342,4.342,0,0,1,.608-2.288A4.222,4.222,0,0,1,24.7-8.168a5.162,5.162,0,0,1,2.44-.568,5.114,5.114,0,0,1,2.432.568,4.236,4.236,0,0,1,1.68,1.576A4.342,4.342,0,0,1,31.856-4.3a4.342,4.342,0,0,1-.608,2.288A4.236,4.236,0,0,1,29.568-.44,5.114,5.114,0,0,1,27.136.128Zm0-2.048a2.079,2.079,0,0,0,1.576-.648A2.416,2.416,0,0,0,29.328-4.3a2.416,2.416,0,0,0-.616-1.736,2.079,2.079,0,0,0-1.576-.648,2.1,2.1,0,0,0-1.584.648A2.4,2.4,0,0,0,24.928-4.3a2.4,2.4,0,0,0,.624,1.736A2.1,2.1,0,0,0,27.136-1.92ZM37.68.128A5.292,5.292,0,0,1,35.208-.44,4.253,4.253,0,0,1,33.5-2.016,4.3,4.3,0,0,1,32.88-4.3,4.3,4.3,0,0,1,33.5-6.592a4.253,4.253,0,0,1,1.712-1.576,5.292,5.292,0,0,1,2.472-.568,4.79,4.79,0,0,1,2.376.568,3.369,3.369,0,0,1,1.48,1.624L39.6-5.5a2.116,2.116,0,0,0-1.936-1.184,2.19,2.19,0,0,0-1.616.64,2.357,2.357,0,0,0-.64,1.744,2.357,2.357,0,0,0,.64,1.744,2.19,2.19,0,0,0,1.616.64A2.094,2.094,0,0,0,39.6-3.1l1.936,1.056a3.436,3.436,0,0,1-1.48,1.6A4.736,4.736,0,0,1,37.68.128Zm8.768-8.864a4.48,4.48,0,0,1,3.072.952,3.643,3.643,0,0,1,1.072,2.872V0H48.256V-1.072a2.781,2.781,0,0,1-2.624,1.2,4.072,4.072,0,0,1-1.72-.336A2.565,2.565,0,0,1,42.8-1.136a2.415,2.415,0,0,1-.384-1.344,2.243,2.243,0,0,1,.9-1.888,4.607,4.607,0,0,1,2.792-.688H48.1a1.591,1.591,0,0,0-.5-1.256,2.185,2.185,0,0,0-1.488-.44,4.345,4.345,0,0,0-1.352.216,3.577,3.577,0,0,0-1.128.584l-.9-1.744a5.406,5.406,0,0,1,1.688-.768A7.562,7.562,0,0,1,46.448-8.736Zm-.192,7.184a2.174,2.174,0,0,0,1.136-.3,1.62,1.62,0,0,0,.7-.872V-3.6H46.384q-1.536,0-1.536,1.008a.9.9,0,0,0,.376.76A1.694,1.694,0,0,0,46.256-1.552ZM58.4-.416a2.566,2.566,0,0,1-.9.408,4.571,4.571,0,0,1-1.128.136,3.351,3.351,0,0,1-2.376-.784,3,3,0,0,1-.84-2.3V-6.5H51.824v-1.92h1.328v-2.1h2.5v2.1h2.144V-6.5H55.648v3.5a1.175,1.175,0,0,0,.28.84,1.038,1.038,0,0,0,.792.3,1.6,1.6,0,0,0,1.008-.32Zm1.408-8.192h2.5V0h-2.5Zm1.248-1.2a1.583,1.583,0,0,1-1.12-.4A1.3,1.3,0,0,1,59.5-11.2a1.3,1.3,0,0,1,.432-.992,1.583,1.583,0,0,1,1.12-.4,1.623,1.623,0,0,1,1.12.384,1.231,1.231,0,0,1,.432.96,1.359,1.359,0,0,1-.432,1.032A1.565,1.565,0,0,1,61.056-9.808ZM68.72.128A5.162,5.162,0,0,1,66.28-.44a4.222,4.222,0,0,1-1.688-1.576A4.342,4.342,0,0,1,63.984-4.3a4.342,4.342,0,0,1,.608-2.288A4.222,4.222,0,0,1,66.28-8.168a5.162,5.162,0,0,1,2.44-.568,5.114,5.114,0,0,1,2.432.568,4.236,4.236,0,0,1,1.68,1.576A4.342,4.342,0,0,1,73.44-4.3a4.342,4.342,0,0,1-.608,2.288A4.236,4.236,0,0,1,71.152-.44,5.114,5.114,0,0,1,68.72.128Zm0-2.048A2.079,2.079,0,0,0,70.3-2.568,2.416,2.416,0,0,0,70.912-4.3,2.416,2.416,0,0,0,70.3-6.04a2.079,2.079,0,0,0-1.576-.648,2.1,2.1,0,0,0-1.584.648A2.4,2.4,0,0,0,66.512-4.3a2.4,2.4,0,0,0,.624,1.736A2.1,2.1,0,0,0,68.72-1.92ZM80.336-8.736a3.542,3.542,0,0,1,2.584.96A3.807,3.807,0,0,1,83.9-4.928V0h-2.5V-4.544a2.244,2.244,0,0,0-.448-1.528,1.643,1.643,0,0,0-1.3-.5,1.986,1.986,0,0,0-1.5.584,2.418,2.418,0,0,0-.56,1.736V0H75.1V-8.608h2.384V-7.6a3.31,3.31,0,0,1,1.232-.84A4.293,4.293,0,0,1,80.336-8.736Z" transform="translate(837.5 2351.5)"/><line class="d" y2="293.307" transform="translate(806 2389.109)"/><path class="b" d="M17.872,3.8,14.16,15H11.952L9.184,6.712,6.368,15H4.144L.432,3.8h2.16l2.784,8.512L8.272,3.8h1.92l2.832,8.56L15.888,3.8ZM29.856,15,29.84,7.576,26.16,13.72h-.928l-3.68-6.048V15H19.568V3.8H21.28l4.448,7.424L30.1,3.8h1.712L31.824,15Zm11.68-9.44H37.824V3.8h9.5V5.56H43.616V15h-2.08Zm14.32,5.216q0,.208-.032.592h-6.7a2.324,2.324,0,0,0,.92,1.5,3.016,3.016,0,0,0,1.848.552,3.114,3.114,0,0,0,2.32-.928L55.28,13.72a3.612,3.612,0,0,1-1.456,1.04,5.77,5.77,0,0,1-4.464-.208,4.033,4.033,0,0,1-1.656-1.56,4.406,4.406,0,0,1-.584-2.264,4.471,4.471,0,0,1,.568-2.248,4.029,4.029,0,0,1,1.576-1.56,4.6,4.6,0,0,1,2.272-.56,4.483,4.483,0,0,1,2.232.552A3.909,3.909,0,0,1,55.3,8.464,4.706,4.706,0,0,1,55.856,10.776ZM51.536,7.96A2.364,2.364,0,0,0,49.1,10.04h4.848a2.358,2.358,0,0,0-.784-1.5A2.384,2.384,0,0,0,51.536,7.96ZM61.7,15.112a5.009,5.009,0,0,1-2.384-.56,4.112,4.112,0,0,1-1.648-1.56,4.359,4.359,0,0,1-.592-2.264,4.317,4.317,0,0,1,.592-2.256A4.142,4.142,0,0,1,59.3,6.92,5,5,0,0,1,61.7,6.36a4.608,4.608,0,0,1,2.216.512,3.322,3.322,0,0,1,1.432,1.472l-1.536.9a2.44,2.44,0,0,0-.92-.888,2.685,2.685,0,0,0-3.064.432,2.611,2.611,0,0,0-.736,1.944,2.627,2.627,0,0,0,.728,1.944,2.7,2.7,0,0,0,3.072.432,2.44,2.44,0,0,0,.92-.888l1.536.9a3.462,3.462,0,0,1-1.448,1.48A4.516,4.516,0,0,1,61.7,15.112ZM71.84,6.36a3.57,3.57,0,0,1,2.592.944,3.724,3.724,0,0,1,.976,2.8V15h-2V10.36a2.4,2.4,0,0,0-.528-1.688,1.952,1.952,0,0,0-1.5-.568,2.309,2.309,0,0,0-1.744.664,2.647,2.647,0,0,0-.64,1.912V15h-2V3.128h2v4.32a3.253,3.253,0,0,1,1.224-.808A4.492,4.492,0,0,1,71.84,6.36Zm10.96,0a3.57,3.57,0,0,1,2.592.944,3.724,3.724,0,0,1,.976,2.8V15h-2V10.36a2.4,2.4,0,0,0-.528-1.688,1.952,1.952,0,0,0-1.5-.568,2.309,2.309,0,0,0-1.744.664,2.647,2.647,0,0,0-.64,1.912V15h-2V6.456h1.9v1.1a3.127,3.127,0,0,1,1.248-.9A4.491,4.491,0,0,1,82.8,6.36Zm6.112.1h2V15h-2ZM89.92,5.048a1.285,1.285,0,0,1-.912-.344,1.124,1.124,0,0,1-.368-.856,1.124,1.124,0,0,1,.368-.856,1.285,1.285,0,0,1,.912-.344,1.321,1.321,0,0,1,.912.328A1.057,1.057,0,0,1,91.2,3.8a1.207,1.207,0,0,1-.36.888A1.246,1.246,0,0,1,89.92,5.048Zm7.536,10.064a5.009,5.009,0,0,1-2.384-.56,4.112,4.112,0,0,1-1.648-1.56,4.359,4.359,0,0,1-.592-2.264,4.317,4.317,0,0,1,.592-2.256,4.143,4.143,0,0,1,1.64-1.552,5,5,0,0,1,2.392-.56,4.608,4.608,0,0,1,2.216.512A3.322,3.322,0,0,1,101.1,8.344l-1.536.9a2.44,2.44,0,0,0-.92-.888,2.685,2.685,0,0,0-3.064.432,2.611,2.611,0,0,0-.736,1.944,2.627,2.627,0,0,0,.728,1.944,2.7,2.7,0,0,0,3.072.432,2.44,2.44,0,0,0,.92-.888l1.536.9a3.462,3.462,0,0,1-1.448,1.48A4.516,4.516,0,0,1,97.456,15.112ZM106.1,6.36a4.166,4.166,0,0,1,2.888.9,3.494,3.494,0,0,1,1,2.728V15H108.1V13.96a2.327,2.327,0,0,1-1.048.856,4.1,4.1,0,0,1-1.64.3,4.018,4.018,0,0,1-1.68-.328,2.6,2.6,0,0,1-1.112-.912,2.314,2.314,0,0,1-.392-1.32,2.262,2.262,0,0,1,.856-1.848,4.251,4.251,0,0,1,2.7-.7h2.208V9.88a1.751,1.751,0,0,0-.536-1.376,2.319,2.319,0,0,0-1.592-.48,4.6,4.6,0,0,0-1.416.224,3.479,3.479,0,0,0-1.176.624l-.784-1.456a4.855,4.855,0,0,1,1.616-.784A7.19,7.19,0,0,1,106.1,6.36Zm-.272,7.3a2.582,2.582,0,0,0,1.336-.344,1.872,1.872,0,0,0,.824-.984v-.992H105.92q-1.728,0-1.728,1.136a1.02,1.02,0,0,0,.432.864A1.98,1.98,0,0,0,105.824,13.656Zm6.72-10.528h2V15h-2Zm9.232.672h2.08v9.44h5.856V15h-7.936Zm17.344,6.976q0,.208-.032.592h-6.7a2.324,2.324,0,0,0,.92,1.5,3.016,3.016,0,0,0,1.848.552,3.114,3.114,0,0,0,2.32-.928l1.072,1.232a3.612,3.612,0,0,1-1.456,1.04,5.77,5.77,0,0,1-4.464-.208,4.033,4.033,0,0,1-1.656-1.56,4.406,4.406,0,0,1-.584-2.264,4.471,4.471,0,0,1,.568-2.248,4.029,4.029,0,0,1,1.576-1.56,4.6,4.6,0,0,1,2.272-.56,4.483,4.483,0,0,1,2.232.552,3.909,3.909,0,0,1,1.536,1.552A4.706,4.706,0,0,1,139.12,10.776ZM134.8,7.96a2.364,2.364,0,0,0-2.432,2.08h4.848a2.358,2.358,0,0,0-.784-1.5A2.384,2.384,0,0,0,134.8,7.96Zm9.264-1.6a4.166,4.166,0,0,1,2.888.9,3.494,3.494,0,0,1,1,2.728V15h-1.888V13.96a2.327,2.327,0,0,1-1.048.856,4.1,4.1,0,0,1-1.64.3,4.018,4.018,0,0,1-1.68-.328,2.6,2.6,0,0,1-1.112-.912,2.314,2.314,0,0,1-.392-1.32,2.262,2.262,0,0,1,.856-1.848,4.251,4.251,0,0,1,2.7-.7h2.208V9.88a1.751,1.751,0,0,0-.536-1.376,2.319,2.319,0,0,0-1.592-.48,4.6,4.6,0,0,0-1.416.224,3.478,3.478,0,0,0-1.176.624l-.784-1.456a4.855,4.855,0,0,1,1.616-.784A7.19,7.19,0,0,1,144.064,6.36Zm-.272,7.3a2.582,2.582,0,0,0,1.336-.344,1.872,1.872,0,0,0,.824-.984v-.992h-2.064q-1.728,0-1.728,1.136a1.02,1.02,0,0,0,.432.864A1.98,1.98,0,0,0,143.792,13.656ZM158.96,3.128V15h-1.92V13.9a3.094,3.094,0,0,1-1.224.912,4.133,4.133,0,0,1-1.608.3,4.5,4.5,0,0,1-2.216-.544,3.909,3.909,0,0,1-1.544-1.544,4.619,4.619,0,0,1-.56-2.3,4.574,4.574,0,0,1,.56-2.288A3.923,3.923,0,0,1,151.992,6.9a4.5,4.5,0,0,1,2.216-.544,4.062,4.062,0,0,1,1.552.288,3.122,3.122,0,0,1,1.2.864V3.128ZM154.448,13.4a2.572,2.572,0,0,0,1.3-.328,2.371,2.371,0,0,0,.912-.936,2.864,2.864,0,0,0,.336-1.408,2.864,2.864,0,0,0-.336-1.408,2.371,2.371,0,0,0-.912-.936,2.724,2.724,0,0,0-2.592,0,2.37,2.37,0,0,0-.912.936,2.863,2.863,0,0,0-.336,1.408,2.863,2.863,0,0,0,.336,1.408,2.37,2.37,0,0,0,.912.936A2.572,2.572,0,0,0,154.448,13.4ZM4.976,55.16a8.545,8.545,0,0,1-2.5-.368A5.226,5.226,0,0,1,.56,53.816L1.28,52.2a5.672,5.672,0,0,0,1.688.888,6.138,6.138,0,0,0,2.008.344,3.47,3.47,0,0,0,1.864-.4,1.212,1.212,0,0,0,.616-1.056,1.022,1.022,0,0,0-.344-.792A2.415,2.415,0,0,0,6.24,50.7q-.528-.176-1.44-.4a16.786,16.786,0,0,1-2.072-.608,3.41,3.41,0,0,1-1.36-.952A2.564,2.564,0,0,1,.8,46.984,2.989,2.989,0,0,1,1.3,45.3a3.41,3.41,0,0,1,1.52-1.208,6.158,6.158,0,0,1,2.488-.448,8.036,8.036,0,0,1,2.016.256,5.572,5.572,0,0,1,1.712.736l-.656,1.616a6.472,6.472,0,0,0-1.536-.656A5.746,5.746,0,0,0,5.3,45.368a3.242,3.242,0,0,0-1.832.416,1.283,1.283,0,0,0-.6,1.1,1,1,0,0,0,.344.784,2.485,2.485,0,0,0,.872.48q.528.176,1.44.4a15.153,15.153,0,0,1,2.048.6,3.507,3.507,0,0,1,1.368.952A2.509,2.509,0,0,1,9.5,51.832a2.951,2.951,0,0,1-.5,1.68,3.428,3.428,0,0,1-1.528,1.2A6.216,6.216,0,0,1,4.976,55.16Zm14.24-8.7-4,9.232a4.3,4.3,0,0,1-1.36,1.96,3.257,3.257,0,0,1-1.936.568,3.973,3.973,0,0,1-1.264-.208,2.793,2.793,0,0,1-1.024-.576l.8-1.472a2.177,2.177,0,0,0,.68.432,2.08,2.08,0,0,0,.792.16,1.363,1.363,0,0,0,.872-.272,2.4,2.4,0,0,0,.632-.912l.144-.336L9.824,46.456H11.9l2.688,6.32,2.7-6.32Zm3.776,8.656a7.65,7.65,0,0,1-2.032-.272,5.113,5.113,0,0,1-1.584-.688l.768-1.52a4.938,4.938,0,0,0,1.384.616,5.75,5.75,0,0,0,1.592.232q1.792,0,1.792-.944a.631.631,0,0,0-.456-.624,7.873,7.873,0,0,0-1.464-.336,11.877,11.877,0,0,1-1.72-.368,2.64,2.64,0,0,1-1.152-.728,2.033,2.033,0,0,1-.488-1.448,2.276,2.276,0,0,1,1.016-1.944,4.624,4.624,0,0,1,2.744-.728,7.919,7.919,0,0,1,1.76.2,4.934,4.934,0,0,1,1.44.536l-.768,1.52a4.737,4.737,0,0,0-2.448-.64,2.713,2.713,0,0,0-1.336.264.788.788,0,0,0-.456.7.7.7,0,0,0,.488.68,7.755,7.755,0,0,0,1.512.376,11.666,11.666,0,0,1,1.68.368,2.629,2.629,0,0,1,1.128.7,1.962,1.962,0,0,1,.472,1.408,2.228,2.228,0,0,1-1.04,1.92A4.9,4.9,0,0,1,22.992,55.112Zm10.736-.576a2.354,2.354,0,0,1-.856.432,3.855,3.855,0,0,1-1.064.144,3.019,3.019,0,0,1-2.176-.736,2.833,2.833,0,0,1-.768-2.144V48.12H27.456v-1.6h1.408V44.568h2V46.52h2.288v1.6H30.864v4.064a1.352,1.352,0,0,0,.3.952,1.141,1.141,0,0,0,.88.328,1.757,1.757,0,0,0,1.12-.352Zm9.392-3.76q0,.208-.032.592h-6.7a2.324,2.324,0,0,0,.92,1.5,3.016,3.016,0,0,0,1.848.552,3.114,3.114,0,0,0,2.32-.928l1.072,1.232a3.612,3.612,0,0,1-1.456,1.04,5.77,5.77,0,0,1-4.464-.208,4.033,4.033,0,0,1-1.656-1.56,4.406,4.406,0,0,1-.584-2.264,4.471,4.471,0,0,1,.568-2.248,4.029,4.029,0,0,1,1.576-1.56,4.6,4.6,0,0,1,2.272-.56,4.483,4.483,0,0,1,2.232.552,3.909,3.909,0,0,1,1.536,1.552A4.706,4.706,0,0,1,43.12,50.776ZM38.8,47.96a2.364,2.364,0,0,0-2.432,2.08h4.848a2.358,2.358,0,0,0-.784-1.5A2.384,2.384,0,0,0,38.8,47.96Zm17.024-1.6a3.476,3.476,0,0,1,2.56.936,3.794,3.794,0,0,1,.944,2.808V55h-2V50.36a2.5,2.5,0,0,0-.5-1.688,1.789,1.789,0,0,0-1.424-.568,2.086,2.086,0,0,0-1.616.664,2.709,2.709,0,0,0-.608,1.9V55h-2V50.36a2.5,2.5,0,0,0-.5-1.688,1.789,1.789,0,0,0-1.424-.568,2.092,2.092,0,0,0-1.624.656,2.727,2.727,0,0,0-.6,1.9V55h-2V46.456h1.9v1.088a3.11,3.11,0,0,1,1.2-.88,4.074,4.074,0,0,1,1.6-.3,3.865,3.865,0,0,1,1.7.36,2.766,2.766,0,0,1,1.176,1.064,3.561,3.561,0,0,1,1.36-1.048A4.417,4.417,0,0,1,55.824,46.36ZM73.76,52.408h-5.6L67.056,55H64.912l5.04-11.2H72L77.056,55H74.88Zm-.688-1.632-2.112-4.9-2.1,4.9Zm7.12-3.072a3.332,3.332,0,0,1,3.04-1.344v1.9a2.539,2.539,0,0,0-.464-.048,2.416,2.416,0,0,0-1.824.68,2.712,2.712,0,0,0-.656,1.96V55h-2V46.456h1.9Zm8.576,7.408a5.009,5.009,0,0,1-2.384-.56,4.112,4.112,0,0,1-1.648-1.56,4.61,4.61,0,0,1,0-4.52,4.143,4.143,0,0,1,1.64-1.552,5,5,0,0,1,2.392-.56,4.608,4.608,0,0,1,2.216.512,3.322,3.322,0,0,1,1.432,1.472l-1.536.9a2.44,2.44,0,0,0-.92-.888,2.685,2.685,0,0,0-3.064.432,2.947,2.947,0,0,0-.008,3.888,2.7,2.7,0,0,0,3.072.432,2.44,2.44,0,0,0,.92-.888l1.536.9a3.462,3.462,0,0,1-1.448,1.48A4.516,4.516,0,0,1,88.768,55.112ZM98.912,46.36a3.57,3.57,0,0,1,2.592.944,3.724,3.724,0,0,1,.976,2.8V55h-2V50.36a2.4,2.4,0,0,0-.528-1.688,1.952,1.952,0,0,0-1.5-.568,2.309,2.309,0,0,0-1.744.664,2.647,2.647,0,0,0-.64,1.912V55h-2V43.128h2v4.32a3.253,3.253,0,0,1,1.224-.808A4.492,4.492,0,0,1,98.912,46.36Zm6.112.1h2V55h-2Zm1.008-1.408a1.285,1.285,0,0,1-.912-.344,1.18,1.18,0,0,1,0-1.712,1.285,1.285,0,0,1,.912-.344,1.321,1.321,0,0,1,.912.328,1.057,1.057,0,0,1,.368.824,1.207,1.207,0,0,1-.36.888A1.246,1.246,0,0,1,106.032,45.048Zm8.752,9.488a2.354,2.354,0,0,1-.856.432,3.855,3.855,0,0,1-1.064.144,3.019,3.019,0,0,1-2.176-.736,2.833,2.833,0,0,1-.768-2.144V48.12h-1.408v-1.6h1.408V44.568h2V46.52h2.288v1.6H111.92v4.064a1.352,1.352,0,0,0,.3.952,1.141,1.141,0,0,0,.88.328,1.757,1.757,0,0,0,1.12-.352Zm9.392-3.76q0,.208-.032.592h-6.7a2.324,2.324,0,0,0,.92,1.5,3.016,3.016,0,0,0,1.848.552,3.114,3.114,0,0,0,2.32-.928L123.6,53.72a3.612,3.612,0,0,1-1.456,1.04,5.77,5.77,0,0,1-4.464-.208,4.033,4.033,0,0,1-1.656-1.56,4.405,4.405,0,0,1-.584-2.264,4.471,4.471,0,0,1,.568-2.248,4.029,4.029,0,0,1,1.576-1.56,4.6,4.6,0,0,1,2.272-.56,4.483,4.483,0,0,1,2.232.552,3.909,3.909,0,0,1,1.536,1.552A4.706,4.706,0,0,1,124.176,50.776Zm-4.32-2.816a2.364,2.364,0,0,0-2.432,2.08h4.848a2.358,2.358,0,0,0-.784-1.5A2.384,2.384,0,0,0,119.856,47.96Zm10.16,7.152a5.009,5.009,0,0,1-2.384-.56,4.112,4.112,0,0,1-1.648-1.56,4.61,4.61,0,0,1,0-4.52,4.143,4.143,0,0,1,1.64-1.552,5,5,0,0,1,2.392-.56,4.608,4.608,0,0,1,2.216.512,3.322,3.322,0,0,1,1.432,1.472l-1.536.9a2.44,2.44,0,0,0-.92-.888,2.685,2.685,0,0,0-3.064.432,2.947,2.947,0,0,0-.008,3.888,2.7,2.7,0,0,0,3.072.432,2.44,2.44,0,0,0,.92-.888l1.536.9a3.462,3.462,0,0,1-1.448,1.48A4.516,4.516,0,0,1,130.016,55.112Zm10.624-.576a2.354,2.354,0,0,1-.856.432,3.855,3.855,0,0,1-1.064.144,3.019,3.019,0,0,1-2.176-.736,2.833,2.833,0,0,1-.768-2.144V48.12h-1.408v-1.6h1.408V44.568h2V46.52h2.288v1.6h-2.288v4.064a1.352,1.352,0,0,0,.3.952,1.141,1.141,0,0,0,.88.328,1.757,1.757,0,0,0,1.12-.352ZM17.872,83.8,14.16,95H11.952L9.184,86.712,6.368,95H4.144L.432,83.8h2.16l2.784,8.512,2.9-8.512h1.92l2.832,8.56,2.864-8.56ZM29.856,95l-.016-7.424L26.16,93.72h-.928l-3.68-6.048V95H19.568V83.8H21.28l4.448,7.424L30.1,83.8h1.712L31.824,95Zm9.408-11.2h4.9a7.026,7.026,0,0,1,3.184.7,5.151,5.151,0,0,1,2.16,1.968,6,6,0,0,1,0,5.872,5.151,5.151,0,0,1-2.16,1.968,7.026,7.026,0,0,1-3.184.7h-4.9Zm4.8,9.44a4.753,4.753,0,0,0,2.168-.472,3.377,3.377,0,0,0,1.44-1.344,4.316,4.316,0,0,0,0-4.048,3.377,3.377,0,0,0-1.44-1.344,4.753,4.753,0,0,0-2.168-.472h-2.72v7.68ZM60.32,90.776q0,.208-.032.592h-6.7a2.324,2.324,0,0,0,.92,1.5,3.016,3.016,0,0,0,1.848.552,3.114,3.114,0,0,0,2.32-.928l1.072,1.232a3.612,3.612,0,0,1-1.456,1.04,5.77,5.77,0,0,1-4.464-.208,4.033,4.033,0,0,1-1.656-1.56,4.406,4.406,0,0,1-.584-2.264,4.471,4.471,0,0,1,.568-2.248,4.029,4.029,0,0,1,1.576-1.56A4.6,4.6,0,0,1,56,86.36a4.483,4.483,0,0,1,2.232.552,3.909,3.909,0,0,1,1.536,1.552A4.706,4.706,0,0,1,60.32,90.776ZM56,87.96a2.364,2.364,0,0,0-2.432,2.08h4.848a2.358,2.358,0,0,0-.784-1.5A2.384,2.384,0,0,0,56,87.96Zm14.08-1.5L66.416,95H64.352l-3.664-8.544h2.08l2.656,6.336,2.736-6.336Zm9.04,4.32q0,.208-.032.592h-6.7a2.324,2.324,0,0,0,.92,1.5,3.016,3.016,0,0,0,1.848.552,3.114,3.114,0,0,0,2.32-.928l1.072,1.232a3.612,3.612,0,0,1-1.456,1.04,5.77,5.77,0,0,1-4.464-.208,4.033,4.033,0,0,1-1.656-1.56,4.405,4.405,0,0,1-.584-2.264,4.471,4.471,0,0,1,.568-2.248,4.029,4.029,0,0,1,1.576-1.56,4.6,4.6,0,0,1,2.272-.56,4.483,4.483,0,0,1,2.232.552,3.909,3.909,0,0,1,1.536,1.552A4.706,4.706,0,0,1,79.12,90.776ZM74.8,87.96a2.364,2.364,0,0,0-2.432,2.08h4.848a2.358,2.358,0,0,0-.784-1.5A2.384,2.384,0,0,0,74.8,87.96Zm6.24-4.832h2V95h-2ZM89.5,95.112a4.848,4.848,0,0,1-2.336-.56,4.083,4.083,0,0,1-1.624-1.56,4.665,4.665,0,0,1,0-4.52,4.1,4.1,0,0,1,1.624-1.552,5.186,5.186,0,0,1,4.688,0,4.1,4.1,0,0,1,1.624,1.552,4.665,4.665,0,0,1,0,4.52,4.083,4.083,0,0,1-1.624,1.56A4.881,4.881,0,0,1,89.5,95.112Zm0-1.712a2.444,2.444,0,0,0,1.824-.736,2.963,2.963,0,0,0,0-3.872,2.444,2.444,0,0,0-1.824-.736,2.417,2.417,0,0,0-1.816.736,2.988,2.988,0,0,0,0,3.872A2.417,2.417,0,0,0,89.5,93.4Zm11.216-7.04a4.535,4.535,0,0,1,2.232.544A3.923,3.923,0,0,1,104.5,88.44a4.97,4.97,0,0,1,0,4.584,3.909,3.909,0,0,1-1.544,1.544,4.535,4.535,0,0,1-2.232.544,3.449,3.449,0,0,1-2.736-1.152V98.1h-2V86.456h1.9v1.12a3.094,3.094,0,0,1,1.224-.912A4.133,4.133,0,0,1,100.72,86.36ZM100.5,93.4a2.417,2.417,0,0,0,1.816-.736,2.988,2.988,0,0,0,0-3.872,2.417,2.417,0,0,0-1.816-.736,2.572,2.572,0,0,0-1.3.328,2.37,2.37,0,0,0-.912.936,3.118,3.118,0,0,0,0,2.816,2.37,2.37,0,0,0,.912.936A2.572,2.572,0,0,0,100.5,93.4Zm14.5-2.624q0,.208-.032.592h-6.7a2.324,2.324,0,0,0,.92,1.5,3.016,3.016,0,0,0,1.848.552,3.114,3.114,0,0,0,2.32-.928l1.072,1.232a3.612,3.612,0,0,1-1.456,1.04,5.77,5.77,0,0,1-4.464-.208,4.033,4.033,0,0,1-1.656-1.56,4.405,4.405,0,0,1-.584-2.264,4.471,4.471,0,0,1,.568-2.248,4.029,4.029,0,0,1,1.576-1.56,4.6,4.6,0,0,1,2.272-.56,4.483,4.483,0,0,1,2.232.552,3.909,3.909,0,0,1,1.536,1.552A4.706,4.706,0,0,1,114.992,90.776Zm-4.32-2.816a2.364,2.364,0,0,0-2.432,2.08h4.848a2.358,2.358,0,0,0-.784-1.5A2.384,2.384,0,0,0,110.672,87.96Zm8.144-.256a3.332,3.332,0,0,1,3.04-1.344v1.9a2.539,2.539,0,0,0-.464-.048,2.416,2.416,0,0,0-1.824.68,2.712,2.712,0,0,0-.656,1.96V95h-2V86.456h1.9Zm7.408,7.408a7.65,7.65,0,0,1-2.032-.272,5.113,5.113,0,0,1-1.584-.688l.768-1.52a4.938,4.938,0,0,0,1.384.616,5.75,5.75,0,0,0,1.592.232q1.792,0,1.792-.944a.631.631,0,0,0-.456-.624,7.873,7.873,0,0,0-1.464-.336,11.878,11.878,0,0,1-1.72-.368,2.64,2.64,0,0,1-1.152-.728,2.033,2.033,0,0,1-.488-1.448,2.276,2.276,0,0,1,1.016-1.944,4.624,4.624,0,0,1,2.744-.728,7.919,7.919,0,0,1,1.76.2,4.935,4.935,0,0,1,1.44.536l-.768,1.52a4.737,4.737,0,0,0-2.448-.64,2.713,2.713,0,0,0-1.336.264.788.788,0,0,0-.456.7.7.7,0,0,0,.488.68,7.755,7.755,0,0,0,1.512.376,11.667,11.667,0,0,1,1.68.368,2.629,2.629,0,0,1,1.128.7,1.962,1.962,0,0,1,.472,1.408,2.228,2.228,0,0,1-1.04,1.92A4.9,4.9,0,0,1,126.224,95.112ZM17.872,123.8,14.16,135H11.952l-2.768-8.288L6.368,135H4.144L.432,123.8h2.16l2.784,8.512,2.9-8.512h1.92l2.832,8.56,2.864-8.56ZM29.856,135l-.016-7.424-3.68,6.144h-.928l-3.68-6.048V135H19.568V123.8H21.28l4.448,7.424L30.1,123.8h1.712l.016,11.2Zm14.224.16a4.871,4.871,0,0,1-3.616-1.3,5.074,5.074,0,0,1-1.3-3.736V123.8h2.08v6.24q0,3.3,2.848,3.3,2.832,0,2.832-3.3V123.8h2.048v6.32a5.093,5.093,0,0,1-1.288,3.736A4.843,4.843,0,0,1,44.08,135.16Zm7.808-11.36h2.08V135h-2.08Zm9.52,0h4.9a7.026,7.026,0,0,1,3.184.7,5.151,5.151,0,0,1,2.16,1.968,6,6,0,0,1,0,5.872,5.151,5.151,0,0,1-2.16,1.968,7.026,7.026,0,0,1-3.184.7h-4.9Zm4.8,9.44a4.753,4.753,0,0,0,2.168-.472,3.377,3.377,0,0,0,1.44-1.344,4.316,4.316,0,0,0,0-4.048,3.377,3.377,0,0,0-1.44-1.344,4.753,4.753,0,0,0-2.168-.472h-2.72v7.68Zm16.256-2.464q0,.208-.032.592h-6.7a2.324,2.324,0,0,0,.92,1.5,3.016,3.016,0,0,0,1.848.552,3.114,3.114,0,0,0,2.32-.928l1.072,1.232a3.612,3.612,0,0,1-1.456,1.04,5.77,5.77,0,0,1-4.464-.208,4.033,4.033,0,0,1-1.656-1.56,4.406,4.406,0,0,1-.584-2.264,4.471,4.471,0,0,1,.568-2.248,4.029,4.029,0,0,1,1.576-1.56,4.6,4.6,0,0,1,2.272-.56,4.483,4.483,0,0,1,2.232.552,3.909,3.909,0,0,1,1.536,1.552A4.706,4.706,0,0,1,82.464,130.776Zm-4.32-2.816a2.364,2.364,0,0,0-2.432,2.08H80.56a2.358,2.358,0,0,0-.784-1.5A2.384,2.384,0,0,0,78.144,127.96Zm14.08-1.5L88.56,135H86.5l-3.664-8.544h2.08l2.656,6.336,2.736-6.336Zm9.04,4.32q0,.208-.032.592h-6.7a2.324,2.324,0,0,0,.92,1.5,3.016,3.016,0,0,0,1.848.552,3.114,3.114,0,0,0,2.32-.928l1.072,1.232a3.612,3.612,0,0,1-1.456,1.04,5.77,5.77,0,0,1-4.464-.208,4.033,4.033,0,0,1-1.656-1.56,4.406,4.406,0,0,1-.584-2.264,4.471,4.471,0,0,1,.568-2.248,4.029,4.029,0,0,1,1.576-1.56,4.6,4.6,0,0,1,2.272-.56,4.483,4.483,0,0,1,2.232.552,3.909,3.909,0,0,1,1.536,1.552A4.706,4.706,0,0,1,101.264,130.776Zm-4.32-2.816a2.364,2.364,0,0,0-2.432,2.08H99.36a2.358,2.358,0,0,0-.784-1.5A2.384,2.384,0,0,0,96.944,127.96Zm6.24-4.832h2V135h-2Zm8.464,11.984a4.848,4.848,0,0,1-2.336-.56,4.083,4.083,0,0,1-1.624-1.56,4.665,4.665,0,0,1,0-4.52,4.1,4.1,0,0,1,1.624-1.552,5.186,5.186,0,0,1,4.688,0,4.1,4.1,0,0,1,1.624,1.552,4.665,4.665,0,0,1,0,4.52,4.083,4.083,0,0,1-1.624,1.56A4.881,4.881,0,0,1,111.648,135.112Zm0-1.712a2.444,2.444,0,0,0,1.824-.736,2.963,2.963,0,0,0,0-3.872,2.444,2.444,0,0,0-1.824-.736,2.417,2.417,0,0,0-1.816.736,2.988,2.988,0,0,0,0,3.872A2.417,2.417,0,0,0,111.648,133.4Zm11.216-7.04a4.535,4.535,0,0,1,2.232.544,3.923,3.923,0,0,1,1.544,1.536,4.97,4.97,0,0,1,0,4.584,3.909,3.909,0,0,1-1.544,1.544,4.535,4.535,0,0,1-2.232.544,3.449,3.449,0,0,1-2.736-1.152V138.1h-2V126.456h1.9v1.12a3.094,3.094,0,0,1,1.224-.912A4.133,4.133,0,0,1,122.864,126.36Zm-.224,7.04a2.417,2.417,0,0,0,1.816-.736,2.988,2.988,0,0,0,0-3.872,2.417,2.417,0,0,0-1.816-.736,2.572,2.572,0,0,0-1.3.328,2.371,2.371,0,0,0-.912.936,3.118,3.118,0,0,0,0,2.816,2.371,2.371,0,0,0,.912.936A2.572,2.572,0,0,0,122.64,133.4Zm14.5-2.624q0,.208-.032.592h-6.7a2.324,2.324,0,0,0,.92,1.5,3.016,3.016,0,0,0,1.848.552,3.114,3.114,0,0,0,2.32-.928l1.072,1.232a3.612,3.612,0,0,1-1.456,1.04,5.77,5.77,0,0,1-4.464-.208,4.033,4.033,0,0,1-1.656-1.56,4.406,4.406,0,0,1-.584-2.264,4.471,4.471,0,0,1,.568-2.248,4.029,4.029,0,0,1,1.576-1.56,4.6,4.6,0,0,1,2.272-.56,4.483,4.483,0,0,1,2.232.552,3.909,3.909,0,0,1,1.536,1.552A4.706,4.706,0,0,1,137.136,130.776Zm-4.32-2.816a2.364,2.364,0,0,0-2.432,2.08h4.848a2.358,2.358,0,0,0-.784-1.5A2.384,2.384,0,0,0,132.816,127.96Zm8.144-.256A3.332,3.332,0,0,1,144,126.36v1.9a2.539,2.539,0,0,0-.464-.048,2.416,2.416,0,0,0-1.824.68,2.712,2.712,0,0,0-.656,1.96V135h-2v-8.544h1.9Zm7.408,7.408a7.649,7.649,0,0,1-2.032-.272,5.113,5.113,0,0,1-1.584-.688l.768-1.52a4.937,4.937,0,0,0,1.384.616,5.75,5.75,0,0,0,1.592.232q1.792,0,1.792-.944a.631.631,0,0,0-.456-.624,7.872,7.872,0,0,0-1.464-.336,11.878,11.878,0,0,1-1.72-.368,2.64,2.64,0,0,1-1.152-.728,2.033,2.033,0,0,1-.488-1.448,2.276,2.276,0,0,1,1.016-1.944,4.624,4.624,0,0,1,2.744-.728,7.919,7.919,0,0,1,1.76.2,4.935,4.935,0,0,1,1.44.536l-.768,1.52a4.737,4.737,0,0,0-2.448-.64,2.713,2.713,0,0,0-1.336.264.788.788,0,0,0-.456.7.7.7,0,0,0,.488.68,7.756,7.756,0,0,0,1.512.376,11.665,11.665,0,0,1,1.68.368,2.629,2.629,0,0,1,1.128.7,1.962,1.962,0,0,1,.472,1.408,2.228,2.228,0,0,1-1.04,1.92A4.9,4.9,0,0,1,148.368,135.112Zm12,2.992a11.549,11.549,0,0,1-1.448-3.376,17.059,17.059,0,0,1,0-8.232,11.316,11.316,0,0,1,1.448-3.368h1.9a14.187,14.187,0,0,0-1.432,3.56,17.146,17.146,0,0,0,0,7.856,14.187,14.187,0,0,0,1.432,3.56Zm5.872-12.544h-3.712V123.8h9.5v1.76H168.32V135h-2.08Zm12.016.8a3.57,3.57,0,0,1,2.592.944,3.724,3.724,0,0,1,.976,2.8V135h-2v-4.64a2.4,2.4,0,0,0-.528-1.688,1.952,1.952,0,0,0-1.5-.568,2.309,2.309,0,0,0-1.744.664,2.647,2.647,0,0,0-.64,1.912V135h-2V123.128h2v4.32a3.253,3.253,0,0,1,1.224-.808A4.492,4.492,0,0,1,178.256,126.36Zm14.224,4.416q0,.208-.032.592h-6.7a2.324,2.324,0,0,0,.92,1.5,3.016,3.016,0,0,0,1.848.552,3.114,3.114,0,0,0,2.32-.928l1.072,1.232a3.612,3.612,0,0,1-1.456,1.04,5.77,5.77,0,0,1-4.464-.208,4.033,4.033,0,0,1-1.656-1.56,4.406,4.406,0,0,1-.584-2.264,4.471,4.471,0,0,1,.568-2.248,4.029,4.029,0,0,1,1.576-1.56,4.6,4.6,0,0,1,2.272-.56,4.483,4.483,0,0,1,2.232.552,3.909,3.909,0,0,1,1.536,1.552A4.706,4.706,0,0,1,192.48,130.776Zm-4.32-2.816a2.364,2.364,0,0,0-2.432,2.08h4.848a2.358,2.358,0,0,0-.784-1.5A2.384,2.384,0,0,0,188.16,127.96Zm17.024-1.6a3.476,3.476,0,0,1,2.56.936,3.794,3.794,0,0,1,.944,2.808V135h-2v-4.64a2.5,2.5,0,0,0-.5-1.688,1.789,1.789,0,0,0-1.424-.568,2.086,2.086,0,0,0-1.616.664,2.709,2.709,0,0,0-.608,1.9V135h-2v-4.64a2.5,2.5,0,0,0-.5-1.688,1.789,1.789,0,0,0-1.424-.568,2.092,2.092,0,0,0-1.624.656,2.727,2.727,0,0,0-.6,1.9V135h-2v-8.544h1.9v1.088a3.11,3.11,0,0,1,1.2-.88,4.074,4.074,0,0,1,1.6-.3,3.865,3.865,0,0,1,1.7.36,2.766,2.766,0,0,1,1.176,1.064,3.561,3.561,0,0,1,1.36-1.048A4.417,4.417,0,0,1,205.184,126.36Zm14.176,4.416q0,.208-.032.592h-6.7a2.324,2.324,0,0,0,.92,1.5,3.016,3.016,0,0,0,1.848.552,3.114,3.114,0,0,0,2.32-.928l1.072,1.232a3.612,3.612,0,0,1-1.456,1.04,5.77,5.77,0,0,1-4.464-.208,4.033,4.033,0,0,1-1.656-1.56,4.406,4.406,0,0,1-.584-2.264,4.471,4.471,0,0,1,.568-2.248,4.029,4.029,0,0,1,1.576-1.56,4.6,4.6,0,0,1,2.272-.56,4.483,4.483,0,0,1,2.232.552,3.909,3.909,0,0,1,1.536,1.552A4.706,4.706,0,0,1,219.36,130.776Zm-4.32-2.816a2.364,2.364,0,0,0-2.432,2.08h4.848a2.358,2.358,0,0,0-.784-1.5A2.384,2.384,0,0,0,215.04,127.96Zm5.28,10.144a14.389,14.389,0,0,0,1.44-3.568,16.791,16.791,0,0,0,0-7.84,14.389,14.389,0,0,0-1.44-3.568h1.9a11.1,11.1,0,0,1,1.448,3.352,16.306,16.306,0,0,1,.5,4.136,16.119,16.119,0,0,1-.5,4.12,11.561,11.561,0,0,1-1.448,3.368ZM13.328,176.12a3.712,3.712,0,0,1-1.3.992,3.9,3.9,0,0,1-1.624.336,4.362,4.362,0,0,1-2.112-.52,9.608,9.608,0,0,1-2.192-1.8,6.078,6.078,0,0,1-2.784-.9,5.48,5.48,0,0,1-1.92-2.032,5.978,5.978,0,0,1,.1-5.744,5.51,5.51,0,0,1,2.16-2.064,6.387,6.387,0,0,1,3.088-.744,6.387,6.387,0,0,1,3.088.744,5.527,5.527,0,0,1,2.16,2.056,5.659,5.659,0,0,1,.784,2.96,5.721,5.721,0,0,1-.528,2.456,5.541,5.541,0,0,1-1.472,1.92,5.825,5.825,0,0,1-2.192,1.144,3.322,3.322,0,0,0,.912.72,2.117,2.117,0,0,0,.96.224,2.519,2.519,0,0,0,1.92-.9ZM2.8,169.4a4.034,4.034,0,0,0,.512,2.024,3.645,3.645,0,0,0,1.408,1.408,4.04,4.04,0,0,0,2.016.5,4.04,4.04,0,0,0,2.016-.5,3.645,3.645,0,0,0,1.408-1.408,4.257,4.257,0,0,0,0-4.048,3.645,3.645,0,0,0-1.408-1.408,4.04,4.04,0,0,0-2.016-.5,4.04,4.04,0,0,0-2.016.5,3.645,3.645,0,0,0-1.408,1.408A4.034,4.034,0,0,0,2.8,169.4Zm19.28,3.008h-5.6L15.376,175H13.232l5.04-11.2H20.32L25.376,175H23.2Zm-.688-1.632-2.112-4.9-2.1,4.9ZM33.008,178.1a11.549,11.549,0,0,1-1.448-3.376,17.059,17.059,0,0,1,0-8.232,11.316,11.316,0,0,1,1.448-3.368h1.9a14.187,14.187,0,0,0-1.432,3.56,17.146,17.146,0,0,0,0,7.856,14.187,14.187,0,0,0,1.432,3.56Zm3.568-11.648h2V175h-2Zm1.008-1.408a1.285,1.285,0,0,1-.912-.344,1.18,1.18,0,0,1,0-1.712,1.285,1.285,0,0,1,.912-.344,1.321,1.321,0,0,1,.912.328,1.057,1.057,0,0,1,.368.824,1.207,1.207,0,0,1-.36.888A1.246,1.246,0,0,1,37.584,165.048Zm8.464,1.312a3.57,3.57,0,0,1,2.592.944,3.724,3.724,0,0,1,.976,2.8V175h-2v-4.64a2.4,2.4,0,0,0-.528-1.688,1.952,1.952,0,0,0-1.5-.568,2.309,2.309,0,0,0-1.744.664,2.647,2.647,0,0,0-.64,1.912V175h-2v-8.544h1.9v1.1a3.127,3.127,0,0,1,1.248-.9A4.491,4.491,0,0,1,46.048,166.36Zm13.168,8.752a7.65,7.65,0,0,1-2.032-.272,5.113,5.113,0,0,1-1.584-.688l.768-1.52a4.938,4.938,0,0,0,1.384.616,5.75,5.75,0,0,0,1.592.232q1.792,0,1.792-.944a.631.631,0,0,0-.456-.624,7.872,7.872,0,0,0-1.464-.336,11.878,11.878,0,0,1-1.72-.368,2.64,2.64,0,0,1-1.152-.728,2.033,2.033,0,0,1-.488-1.448,2.276,2.276,0,0,1,1.016-1.944,4.624,4.624,0,0,1,2.744-.728,7.919,7.919,0,0,1,1.76.2,4.934,4.934,0,0,1,1.44.536l-.768,1.52a4.737,4.737,0,0,0-2.448-.64,2.713,2.713,0,0,0-1.336.264.788.788,0,0,0-.456.7.7.7,0,0,0,.488.68,7.756,7.756,0,0,0,1.512.376,11.665,11.665,0,0,1,1.68.368,2.629,2.629,0,0,1,1.128.7,1.962,1.962,0,0,1,.472,1.408,2.228,2.228,0,0,1-1.04,1.92A4.9,4.9,0,0,1,59.216,175.112Zm10.336-8.752a4.535,4.535,0,0,1,2.232.544,3.923,3.923,0,0,1,1.544,1.536,4.97,4.97,0,0,1,0,4.584,3.909,3.909,0,0,1-1.544,1.544,4.535,4.535,0,0,1-2.232.544,3.449,3.449,0,0,1-2.736-1.152V178.1h-2V166.456h1.9v1.12a3.094,3.094,0,0,1,1.224-.912A4.133,4.133,0,0,1,69.552,166.36Zm-.224,7.04a2.417,2.417,0,0,0,1.816-.736,2.988,2.988,0,0,0,0-3.872,2.417,2.417,0,0,0-1.816-.736,2.572,2.572,0,0,0-1.3.328,2.37,2.37,0,0,0-.912.936,3.118,3.118,0,0,0,0,2.816,2.37,2.37,0,0,0,.912.936A2.572,2.572,0,0,0,69.328,173.4Zm8.368-5.7a3.332,3.332,0,0,1,3.04-1.344v1.9a2.539,2.539,0,0,0-.464-.048,2.416,2.416,0,0,0-1.824.68,2.712,2.712,0,0,0-.656,1.96V175h-2v-8.544h1.9Zm4.736-1.248h2V175h-2Zm1.008-1.408a1.285,1.285,0,0,1-.912-.344,1.18,1.18,0,0,1,0-1.712,1.285,1.285,0,0,1,.912-.344,1.321,1.321,0,0,1,.912.328,1.057,1.057,0,0,1,.368.824,1.207,1.207,0,0,1-.36.888A1.246,1.246,0,0,1,83.44,165.048ZM91.9,166.36a3.57,3.57,0,0,1,2.592.944,3.724,3.724,0,0,1,.976,2.8V175h-2v-4.64a2.4,2.4,0,0,0-.528-1.688,1.952,1.952,0,0,0-1.5-.568,2.309,2.309,0,0,0-1.744.664,2.647,2.647,0,0,0-.64,1.912V175h-2v-8.544h1.9v1.1a3.127,3.127,0,0,1,1.248-.9A4.491,4.491,0,0,1,91.9,166.36Zm11.248,8.176a2.354,2.354,0,0,1-.856.432,3.855,3.855,0,0,1-1.064.144,3.019,3.019,0,0,1-2.176-.736,2.833,2.833,0,0,1-.768-2.144V168.12H96.88v-1.6h1.408v-1.952h2v1.952h2.288v1.6h-2.288v4.064a1.352,1.352,0,0,0,.3.952,1.141,1.141,0,0,0,.88.328,1.757,1.757,0,0,0,1.12-.352Zm11.2,0a2.354,2.354,0,0,1-.856.432,3.855,3.855,0,0,1-1.064.144,3.019,3.019,0,0,1-2.176-.736,2.833,2.833,0,0,1-.768-2.144V168.12H108.08v-1.6h1.408v-1.952h2v1.952h2.288v1.6h-2.288v4.064a1.352,1.352,0,0,0,.3.952,1.141,1.141,0,0,0,.88.328,1.757,1.757,0,0,0,1.12-.352Zm9.392-3.76q0,.208-.032.592h-6.7a2.324,2.324,0,0,0,.92,1.5,3.016,3.016,0,0,0,1.848.552,3.114,3.114,0,0,0,2.32-.928l1.072,1.232a3.612,3.612,0,0,1-1.456,1.04,5.77,5.77,0,0,1-4.464-.208,4.033,4.033,0,0,1-1.656-1.56,4.406,4.406,0,0,1-.584-2.264,4.471,4.471,0,0,1,.568-2.248,4.029,4.029,0,0,1,1.576-1.56,4.6,4.6,0,0,1,2.272-.56,4.483,4.483,0,0,1,2.232.552,3.909,3.909,0,0,1,1.536,1.552A4.706,4.706,0,0,1,123.744,170.776Zm-4.32-2.816a2.364,2.364,0,0,0-2.432,2.08h4.848a2.358,2.358,0,0,0-.784-1.5A2.384,2.384,0,0,0,119.424,167.96Zm8.88,7.152a7.65,7.65,0,0,1-2.032-.272,5.113,5.113,0,0,1-1.584-.688l.768-1.52a4.938,4.938,0,0,0,1.384.616,5.75,5.75,0,0,0,1.592.232q1.792,0,1.792-.944a.631.631,0,0,0-.456-.624,7.872,7.872,0,0,0-1.464-.336,11.878,11.878,0,0,1-1.72-.368,2.64,2.64,0,0,1-1.152-.728,2.033,2.033,0,0,1-.488-1.448,2.276,2.276,0,0,1,1.016-1.944,4.624,4.624,0,0,1,2.744-.728,7.919,7.919,0,0,1,1.76.2,4.934,4.934,0,0,1,1.44.536l-.768,1.52a4.737,4.737,0,0,0-2.448-.64,2.713,2.713,0,0,0-1.336.264.788.788,0,0,0-.456.7.7.7,0,0,0,.488.68,7.756,7.756,0,0,0,1.512.376,11.665,11.665,0,0,1,1.68.368,2.629,2.629,0,0,1,1.128.7,1.962,1.962,0,0,1,.472,1.408,2.228,2.228,0,0,1-1.04,1.92A4.9,4.9,0,0,1,128.3,175.112Zm10.736-.576a2.354,2.354,0,0,1-.856.432,3.855,3.855,0,0,1-1.064.144,3.019,3.019,0,0,1-2.176-.736,2.833,2.833,0,0,1-.768-2.144V168.12h-1.408v-1.6h1.408v-1.952h2v1.952h2.288v1.6h-2.288v4.064a1.352,1.352,0,0,0,.3.952,1.141,1.141,0,0,0,.88.328,1.757,1.757,0,0,0,1.12-.352Zm1.648-8.08h2V175h-2Zm1.008-1.408a1.285,1.285,0,0,1-.912-.344,1.18,1.18,0,0,1,0-1.712,1.285,1.285,0,0,1,.912-.344,1.321,1.321,0,0,1,.912.328,1.057,1.057,0,0,1,.368.824,1.207,1.207,0,0,1-.36.888A1.246,1.246,0,0,1,141.7,165.048Zm8.464,1.312a3.57,3.57,0,0,1,2.592.944,3.724,3.724,0,0,1,.976,2.8V175h-2v-4.64a2.4,2.4,0,0,0-.528-1.688,1.952,1.952,0,0,0-1.5-.568,2.309,2.309,0,0,0-1.744.664,2.647,2.647,0,0,0-.64,1.912V175h-2v-8.544h1.9v1.1a3.127,3.127,0,0,1,1.248-.9A4.491,4.491,0,0,1,150.16,166.36Zm14.672.1V173.7q0,4.512-4.608,4.512a8.552,8.552,0,0,1-2.336-.312,4.956,4.956,0,0,1-1.824-.9l.9-1.5a4.281,4.281,0,0,0,1.416.744,5.552,5.552,0,0,0,1.736.28,2.865,2.865,0,0,0,2.064-.64,2.616,2.616,0,0,0,.656-1.952v-.448a3.288,3.288,0,0,1-1.248.848,4.4,4.4,0,0,1-1.616.288,4.635,4.635,0,0,1-2.2-.52,3.907,3.907,0,0,1-1.552-1.464,4.107,4.107,0,0,1-.568-2.16,4.065,4.065,0,0,1,.568-2.152,3.868,3.868,0,0,1,1.552-1.448,4.694,4.694,0,0,1,2.2-.512,4.508,4.508,0,0,1,1.688.3,3.114,3.114,0,0,1,1.272.928v-1.136Zm-4.56,6.464a2.622,2.622,0,0,0,1.864-.68,2.308,2.308,0,0,0,.728-1.768,2.264,2.264,0,0,0-.728-1.744,2.943,2.943,0,0,0-3.744,0,2.264,2.264,0,0,0-.728,1.744,2.308,2.308,0,0,0,.728,1.768A2.644,2.644,0,0,0,160.272,172.92ZM166.5,178.1a14.389,14.389,0,0,0,1.44-3.568,16.791,16.791,0,0,0,0-7.84,14.388,14.388,0,0,0-1.44-3.568h1.9a11.1,11.1,0,0,1,1.448,3.352,16.306,16.306,0,0,1,.5,4.136,16.119,16.119,0,0,1-.5,4.12A11.561,11.561,0,0,1,168.4,178.1ZM17.872,203.8,14.16,215H11.952l-2.768-8.288L6.368,215H4.144L.432,203.8h2.16l2.784,8.512,2.9-8.512h1.92l2.832,8.56,2.864-8.56ZM29.856,215l-.016-7.424-3.68,6.144h-.928l-3.68-6.048V215H19.568V203.8H21.28l4.448,7.424L30.1,203.8h1.712l.016,11.2Zm14.016-11.2a6.2,6.2,0,0,1,2.536.48,3.687,3.687,0,0,1,1.656,1.376,4.2,4.2,0,0,1,0,4.248,3.67,3.67,0,0,1-1.656,1.384,6.2,6.2,0,0,1-2.536.48H41.344V215h-2.08V203.8Zm-.1,6.208a3.2,3.2,0,0,0,2.064-.576,2.281,2.281,0,0,0,0-3.3,3.2,3.2,0,0,0-2.064-.576H41.344v4.448Zm6.912-6.88h2V215h-2Zm7.888,3.232a4.166,4.166,0,0,1,2.888.9,3.494,3.494,0,0,1,1,2.728V215H60.576v-1.04a2.327,2.327,0,0,1-1.048.856,4.1,4.1,0,0,1-1.64.3,4.018,4.018,0,0,1-1.68-.328,2.6,2.6,0,0,1-1.112-.912,2.314,2.314,0,0,1-.392-1.32,2.262,2.262,0,0,1,.856-1.848,4.251,4.251,0,0,1,2.7-.7h2.208v-.128a1.751,1.751,0,0,0-.536-1.376,2.319,2.319,0,0,0-1.592-.48,4.6,4.6,0,0,0-1.416.224,3.479,3.479,0,0,0-1.176.624l-.784-1.456a4.855,4.855,0,0,1,1.616-.784A7.19,7.19,0,0,1,58.576,206.36Zm-.272,7.3a2.582,2.582,0,0,0,1.336-.344,1.872,1.872,0,0,0,.824-.984v-.992H58.4q-1.728,0-1.728,1.136a1.02,1.02,0,0,0,.432.864A1.98,1.98,0,0,0,58.3,213.656Zm11.856.88a2.354,2.354,0,0,1-.856.432,3.855,3.855,0,0,1-1.064.144,3.019,3.019,0,0,1-2.176-.736,2.833,2.833,0,0,1-.768-2.144V208.12H63.888v-1.6H65.3v-1.952h2v1.952h2.288v1.6H67.3v4.064a1.352,1.352,0,0,0,.3.952,1.141,1.141,0,0,0,.88.328,1.757,1.757,0,0,0,1.12-.352Zm5.12-9.9q-1.264,0-1.264,1.376v.512h2.352v1.6H74.08V215h-2v-6.88H70.672v-1.6H72.08v-.544a2.913,2.913,0,0,1,.8-2.168,3.671,3.671,0,0,1,4.064-.328l-.56,1.5A1.911,1.911,0,0,0,75.28,204.632Zm6.144,10.48a4.848,4.848,0,0,1-2.336-.56,4.083,4.083,0,0,1-1.624-1.56,4.665,4.665,0,0,1,0-4.52,4.1,4.1,0,0,1,1.624-1.552,5.186,5.186,0,0,1,4.688,0,4.1,4.1,0,0,1,1.624,1.552,4.665,4.665,0,0,1,0,4.52,4.083,4.083,0,0,1-1.624,1.56A4.881,4.881,0,0,1,81.424,215.112Zm0-1.712a2.444,2.444,0,0,0,1.824-.736,2.963,2.963,0,0,0,0-3.872,2.444,2.444,0,0,0-1.824-.736,2.417,2.417,0,0,0-1.816.736,2.988,2.988,0,0,0,0,3.872A2.417,2.417,0,0,0,81.424,213.4Zm8.384-5.7a3.332,3.332,0,0,1,3.04-1.344v1.9a2.539,2.539,0,0,0-.464-.048,2.416,2.416,0,0,0-1.824.68,2.712,2.712,0,0,0-.656,1.96V215h-2v-8.544h1.9Zm15.52-1.344a3.476,3.476,0,0,1,2.56.936,3.794,3.794,0,0,1,.944,2.808V215h-2v-4.64a2.5,2.5,0,0,0-.5-1.688,1.789,1.789,0,0,0-1.424-.568,2.086,2.086,0,0,0-1.616.664,2.709,2.709,0,0,0-.608,1.9V215h-2v-4.64a2.5,2.5,0,0,0-.5-1.688,1.789,1.789,0,0,0-1.424-.568,2.092,2.092,0,0,0-1.624.656,2.727,2.727,0,0,0-.6,1.9V215h-2v-8.544h1.9v1.088a3.11,3.11,0,0,1,1.2-.88,4.074,4.074,0,0,1,1.6-.3,3.865,3.865,0,0,1,1.7.36,2.766,2.766,0,0,1,1.176,1.064,3.561,3.561,0,0,1,1.36-1.048A4.417,4.417,0,0,1,105.328,206.36Zm17.936,6.048h-5.6L116.56,215h-2.144l5.04-11.2H121.5L126.56,215h-2.176Zm-.688-1.632-2.112-4.9-2.1,4.9Zm7.12-3.072a3.333,3.333,0,0,1,3.04-1.344v1.9a2.539,2.539,0,0,0-.464-.048,2.416,2.416,0,0,0-1.824.68,2.712,2.712,0,0,0-.656,1.96V215h-2v-8.544h1.9Zm8.576,7.408a5.009,5.009,0,0,1-2.384-.56,4.112,4.112,0,0,1-1.648-1.56,4.61,4.61,0,0,1,0-4.52,4.143,4.143,0,0,1,1.64-1.552,5,5,0,0,1,2.392-.56,4.608,4.608,0,0,1,2.216.512,3.322,3.322,0,0,1,1.432,1.472l-1.536.9a2.44,2.44,0,0,0-.92-.888,2.685,2.685,0,0,0-3.064.432,2.947,2.947,0,0,0-.008,3.888,2.7,2.7,0,0,0,3.072.432,2.44,2.44,0,0,0,.92-.888l1.536.9a3.462,3.462,0,0,1-1.448,1.48A4.516,4.516,0,0,1,138.272,215.112Zm10.144-8.752a3.57,3.57,0,0,1,2.592.944,3.724,3.724,0,0,1,.976,2.8V215h-2v-4.64a2.4,2.4,0,0,0-.528-1.688,1.952,1.952,0,0,0-1.5-.568,2.309,2.309,0,0,0-1.744.664,2.647,2.647,0,0,0-.64,1.912V215h-2V203.128h2v4.32a3.253,3.253,0,0,1,1.224-.808A4.492,4.492,0,0,1,148.416,206.36Zm6.112.1h2V215h-2Zm1.008-1.408a1.285,1.285,0,0,1-.912-.344,1.18,1.18,0,0,1,0-1.712,1.285,1.285,0,0,1,.912-.344,1.321,1.321,0,0,1,.912.328,1.057,1.057,0,0,1,.368.824,1.207,1.207,0,0,1-.36.888A1.246,1.246,0,0,1,155.536,205.048Zm8.752,9.488a2.354,2.354,0,0,1-.856.432,3.855,3.855,0,0,1-1.064.144,3.019,3.019,0,0,1-2.176-.736,2.833,2.833,0,0,1-.768-2.144V208.12h-1.408v-1.6h1.408v-1.952h2v1.952h2.288v1.6h-2.288v4.064a1.352,1.352,0,0,0,.3.952,1.141,1.141,0,0,0,.88.328,1.757,1.757,0,0,0,1.12-.352Zm9.392-3.76q0,.208-.032.592h-6.7a2.324,2.324,0,0,0,.92,1.5,3.016,3.016,0,0,0,1.848.552,3.114,3.114,0,0,0,2.32-.928l1.072,1.232a3.612,3.612,0,0,1-1.456,1.04,5.77,5.77,0,0,1-4.464-.208,4.033,4.033,0,0,1-1.656-1.56,4.406,4.406,0,0,1-.584-2.264,4.471,4.471,0,0,1,.568-2.248,4.029,4.029,0,0,1,1.576-1.56,4.6,4.6,0,0,1,2.272-.56,4.483,4.483,0,0,1,2.232.552,3.909,3.909,0,0,1,1.536,1.552A4.706,4.706,0,0,1,173.68,210.776Zm-4.32-2.816a2.364,2.364,0,0,0-2.432,2.08h4.848a2.358,2.358,0,0,0-.784-1.5A2.384,2.384,0,0,0,169.36,207.96Zm10.16,7.152a5.009,5.009,0,0,1-2.384-.56,4.112,4.112,0,0,1-1.648-1.56,4.61,4.61,0,0,1,0-4.52,4.143,4.143,0,0,1,1.64-1.552,5,5,0,0,1,2.392-.56,4.608,4.608,0,0,1,2.216.512,3.322,3.322,0,0,1,1.432,1.472l-1.536.9a2.44,2.44,0,0,0-.92-.888,2.685,2.685,0,0,0-3.064.432,2.947,2.947,0,0,0-.008,3.888,2.7,2.7,0,0,0,3.072.432,2.44,2.44,0,0,0,.92-.888l1.536.9a3.462,3.462,0,0,1-1.448,1.48A4.516,4.516,0,0,1,179.52,215.112Zm10.624-.576a2.354,2.354,0,0,1-.856.432,3.855,3.855,0,0,1-1.064.144,3.019,3.019,0,0,1-2.176-.736,2.833,2.833,0,0,1-.768-2.144V208.12h-1.408v-1.6h1.408v-1.952h2v1.952h2.288v1.6H187.28v4.064a1.352,1.352,0,0,0,.3.952,1.141,1.141,0,0,0,.88.328,1.757,1.757,0,0,0,1.12-.352ZM17.872,243.8,14.16,255H11.952l-2.768-8.288L6.368,255H4.144L.432,243.8h2.16l2.784,8.512,2.9-8.512h1.92l2.832,8.56,2.864-8.56ZM29.856,255l-.016-7.424-3.68,6.144h-.928l-3.68-6.048V255H19.568V243.8H21.28l4.448,7.424L30.1,243.8h1.712l.016,11.2Zm14.224.16a4.871,4.871,0,0,1-3.616-1.3,5.074,5.074,0,0,1-1.3-3.736V243.8h2.08v6.24q0,3.3,2.848,3.3,2.832,0,2.832-3.3V243.8h2.048v6.32a5.093,5.093,0,0,1-1.288,3.736A4.843,4.843,0,0,1,44.08,255.16Zm14.7-.16-3.04-4.256L52.736,255H50.368l4.16-5.712L50.592,243.8h2.352l2.864,3.984L58.64,243.8H60.9l-3.92,5.408L61.184,255Zm8.448-11.2h2.08v9.44h5.856V255H67.232Zm17.344,6.976q0,.208-.032.592h-6.7a2.324,2.324,0,0,0,.92,1.5,3.016,3.016,0,0,0,1.848.552,3.114,3.114,0,0,0,2.32-.928L84,253.72a3.612,3.612,0,0,1-1.456,1.04,5.77,5.77,0,0,1-4.464-.208,4.033,4.033,0,0,1-1.656-1.56,4.406,4.406,0,0,1-.584-2.264,4.471,4.471,0,0,1,.568-2.248,4.029,4.029,0,0,1,1.576-1.56,4.6,4.6,0,0,1,2.272-.56,4.483,4.483,0,0,1,2.232.552,3.909,3.909,0,0,1,1.536,1.552A4.706,4.706,0,0,1,84.576,250.776Zm-4.32-2.816a2.364,2.364,0,0,0-2.432,2.08h4.848a2.358,2.358,0,0,0-.784-1.5A2.384,2.384,0,0,0,80.256,247.96Zm9.264-1.6a4.166,4.166,0,0,1,2.888.9,3.494,3.494,0,0,1,1,2.728V255H91.52v-1.04a2.327,2.327,0,0,1-1.048.856,4.1,4.1,0,0,1-1.64.3,4.018,4.018,0,0,1-1.68-.328,2.6,2.6,0,0,1-1.112-.912,2.314,2.314,0,0,1-.392-1.32A2.262,2.262,0,0,1,86.5,250.7a4.251,4.251,0,0,1,2.7-.7h2.208v-.128a1.751,1.751,0,0,0-.536-1.376,2.319,2.319,0,0,0-1.592-.48,4.6,4.6,0,0,0-1.416.224,3.479,3.479,0,0,0-1.176.624l-.784-1.456a4.855,4.855,0,0,1,1.616-.784A7.19,7.19,0,0,1,89.52,246.36Zm-.272,7.3a2.582,2.582,0,0,0,1.336-.344,1.872,1.872,0,0,0,.824-.984v-.992H89.344q-1.728,0-1.728,1.136a1.02,1.02,0,0,0,.432.864A1.98,1.98,0,0,0,89.248,253.656Zm15.168-10.528V255H102.5v-1.1a3.094,3.094,0,0,1-1.224.912,4.133,4.133,0,0,1-1.608.3,4.5,4.5,0,0,1-2.216-.544,3.909,3.909,0,0,1-1.544-1.544,4.97,4.97,0,0,1,0-4.584,3.923,3.923,0,0,1,1.544-1.536,4.5,4.5,0,0,1,2.216-.544,4.062,4.062,0,0,1,1.552.288,3.122,3.122,0,0,1,1.2.864v-4.384ZM99.9,253.4a2.572,2.572,0,0,0,1.3-.328,2.37,2.37,0,0,0,.912-.936,3.118,3.118,0,0,0,0-2.816,2.37,2.37,0,0,0-.912-.936,2.724,2.724,0,0,0-2.592,0,2.37,2.37,0,0,0-.912.936,3.118,3.118,0,0,0,0,2.816,2.37,2.37,0,0,0,.912.936A2.572,2.572,0,0,0,99.9,253.4Z" transform="translate(437.5 2395.5)"/><path class="b" d="M5.008.192A9.164,9.164,0,0,1,2.44-.168,6.023,6.023,0,0,1,.448-1.1l.88-1.952a5.972,5.972,0,0,0,1.712.848,6.43,6.43,0,0,0,1.984.32,3.17,3.17,0,0,0,1.632-.328.991.991,0,0,0,.528-.872.834.834,0,0,0-.312-.664,2.365,2.365,0,0,0-.8-.424q-.488-.16-1.32-.352a18.247,18.247,0,0,1-2.1-.608,3.405,3.405,0,0,1-1.4-.976A2.636,2.636,0,0,1,.672-7.9,3.117,3.117,0,0,1,1.2-9.672a3.552,3.552,0,0,1,1.592-1.256,6.5,6.5,0,0,1,2.6-.464,8.609,8.609,0,0,1,2.1.256A6.192,6.192,0,0,1,9.28-10.4l-.8,1.968a6.245,6.245,0,0,0-3.1-.88,2.91,2.91,0,0,0-1.608.352,1.074,1.074,0,0,0-.52.928.907.907,0,0,0,.6.856,9.42,9.42,0,0,0,1.832.552,18.247,18.247,0,0,1,2.1.608,3.471,3.471,0,0,1,1.4.96A2.574,2.574,0,0,1,9.76-3.28a3.058,3.058,0,0,1-.536,1.752A3.6,3.6,0,0,1,7.616-.272,6.555,6.555,0,0,1,5.008.192ZM15.056-3.376l-1.2,1.184V0h-2.5V-11.872h2.5v6.72L17.5-8.608H20.48L16.9-4.96,20.8,0H17.776Zm6.8-5.232h2.5V0h-2.5Zm1.248-1.2a1.583,1.583,0,0,1-1.12-.4,1.3,1.3,0,0,1-.432-.992,1.3,1.3,0,0,1,.432-.992,1.583,1.583,0,0,1,1.12-.4,1.623,1.623,0,0,1,1.12.384,1.231,1.231,0,0,1,.432.96,1.359,1.359,0,0,1-.432,1.032A1.565,1.565,0,0,1,23.1-9.808Zm3.568-2.064h2.5V0h-2.5Zm4.816,0h2.5V0h-2.5Z" transform="translate(437.5 2351.5)"/><path class="b" d="M6.688.192a6.433,6.433,0,0,1-3.1-.744A5.552,5.552,0,0,1,1.416-2.616,5.687,5.687,0,0,1,.624-5.6a5.687,5.687,0,0,1,.792-2.984,5.552,5.552,0,0,1,2.176-2.064A6.467,6.467,0,0,1,6.7-11.392a6.528,6.528,0,0,1,2.632.512,5.272,5.272,0,0,1,1.976,1.472L9.648-7.872A3.578,3.578,0,0,0,6.832-9.184a3.739,3.739,0,0,0-1.856.456A3.242,3.242,0,0,0,3.7-7.456,3.739,3.739,0,0,0,3.248-5.6,3.739,3.739,0,0,0,3.7-3.744,3.242,3.242,0,0,0,4.976-2.472a3.739,3.739,0,0,0,1.856.456A3.561,3.561,0,0,0,9.648-3.344l1.664,1.536A5.187,5.187,0,0,1,9.328-.32,6.585,6.585,0,0,1,6.688.192ZM16.672.128a5.162,5.162,0,0,1-2.44-.568,4.222,4.222,0,0,1-1.688-1.576A4.342,4.342,0,0,1,11.936-4.3a4.342,4.342,0,0,1,.608-2.288,4.222,4.222,0,0,1,1.688-1.576,5.162,5.162,0,0,1,2.44-.568,5.114,5.114,0,0,1,2.432.568,4.236,4.236,0,0,1,1.68,1.576A4.342,4.342,0,0,1,21.392-4.3a4.342,4.342,0,0,1-.608,2.288A4.236,4.236,0,0,1,19.1-.44,5.114,5.114,0,0,1,16.672.128Zm0-2.048a2.079,2.079,0,0,0,1.576-.648A2.416,2.416,0,0,0,18.864-4.3a2.416,2.416,0,0,0-.616-1.736,2.079,2.079,0,0,0-1.576-.648,2.1,2.1,0,0,0-1.584.648A2.4,2.4,0,0,0,14.464-4.3a2.4,2.4,0,0,0,.624,1.736A2.1,2.1,0,0,0,16.672-1.92ZM31.728-8.608V0H29.36V-1.024a3.31,3.31,0,0,1-1.184.856,3.725,3.725,0,0,1-1.488.3A3.666,3.666,0,0,1,24-.848a3.891,3.891,0,0,1-.992-2.9V-8.608h2.5v4.5q0,2.08,1.744,2.08a1.875,1.875,0,0,0,1.44-.584,2.464,2.464,0,0,0,.544-1.736V-8.608Zm7.552-.128a3.542,3.542,0,0,1,2.584.96,3.807,3.807,0,0,1,.984,2.848V0h-2.5V-4.544A2.244,2.244,0,0,0,39.9-6.072a1.643,1.643,0,0,0-1.3-.5,1.986,1.986,0,0,0-1.5.584,2.418,2.418,0,0,0-.56,1.736V0h-2.5V-8.608h2.384V-7.6a3.31,3.31,0,0,1,1.232-.84A4.292,4.292,0,0,1,39.28-8.736ZM50.656-.416a2.566,2.566,0,0,1-.9.408,4.571,4.571,0,0,1-1.128.136,3.351,3.351,0,0,1-2.376-.784,3,3,0,0,1-.84-2.3V-6.5H44.08v-1.92h1.328v-2.1h2.5v2.1h2.144V-6.5H47.9v3.5a1.175,1.175,0,0,0,.28.84,1.038,1.038,0,0,0,.792.3,1.6,1.6,0,0,0,1.008-.32Z" transform="translate(725.5 2351.5)"/><line class="d" y2="293.307" transform="translate(699 2389.109)"/><path class="b" d="M23.278,3.8V15H21.2V5.544H18.83V3.8Zm0,40V55H21.2V45.544H18.83V43.8Zm3.728,48.656H25.022V95H23.006V92.456H16.862v-1.44l5.52-7.216h2.224l-5.2,6.9H23.07V88.44h1.952V90.7h1.984Zm-1.1,40.784V135H17.654v-1.392l4.448-4.224a4.887,4.887,0,0,0,1.016-1.256,2.392,2.392,0,0,0,.264-1.064,1.437,1.437,0,0,0-.528-1.2,2.47,2.47,0,0,0-1.552-.416,3.131,3.131,0,0,0-2.624,1.168l-1.456-1.12a4.312,4.312,0,0,1,1.768-1.368,6.128,6.128,0,0,1,2.488-.488,4.551,4.551,0,0,1,2.912.864,2.843,2.843,0,0,1,1.088,2.352,3.905,3.905,0,0,1-.384,1.712,6.682,6.682,0,0,1-1.472,1.824L20.63,133.24Zm0,40V175H17.654v-1.392l4.448-4.224a4.887,4.887,0,0,0,1.016-1.256,2.392,2.392,0,0,0,.264-1.064,1.437,1.437,0,0,0-.528-1.2,2.47,2.47,0,0,0-1.552-.416,3.131,3.131,0,0,0-2.624,1.168l-1.456-1.12a4.312,4.312,0,0,1,1.768-1.368,6.128,6.128,0,0,1,2.488-.488,4.551,4.551,0,0,1,2.912.864,2.843,2.843,0,0,1,1.088,2.352,3.905,3.905,0,0,1-.384,1.712,6.682,6.682,0,0,1-1.472,1.824L20.63,173.24ZM23.278,203.8V215H21.2v-9.456H18.83V203.8Zm0,40V255H21.2v-9.456H18.83V243.8Z" transform="translate(728.5 2395.5)"/><line class="e" y2="43.682" transform="translate(806 2322.109)"/><line class="e" y2="43.682" transform="translate(699 2322.109)"/></g><g transform="translate(-409 -2324)"><g transform="translate(-35.012 42.503)"><g transform="translate(1117.012 2438.656)"><path class="f" d="M120.793,225.165a5.688,5.688,0,1,0-5.689-5.688A5.689,5.689,0,0,0,120.793,225.165Zm2.413,1.455H118.38A7.292,7.292,0,0,0,111.1,233.9v5.9l.015.092.406.126a33.171,33.171,0,0,0,9.9,1.6A20.324,20.324,0,0,0,130.067,240l.38-.192.04-5.9A7.291,7.291,0,0,0,123.206,226.62Z" transform="translate(-111.096 -213.789)"/></g><g transform="translate(1143.408 2438.656)"><path class="f" d="M120.793,225.165a5.688,5.688,0,1,0-5.689-5.688A5.689,5.689,0,0,0,120.793,225.165Zm2.413,1.455H118.38A7.292,7.292,0,0,0,111.1,233.9v5.9l.015.092.406.126a33.171,33.171,0,0,0,9.9,1.6A20.324,20.324,0,0,0,130.067,240l.38-.192.04-5.9A7.291,7.291,0,0,0,123.206,226.62Z" transform="translate(-111.096 -213.789)"/></g><g transform="translate(1169.804 2438.656)"><path class="g" d="M120.793,225.165a5.688,5.688,0,1,0-5.689-5.688A5.689,5.689,0,0,0,120.793,225.165Zm2.413,1.455H118.38A7.292,7.292,0,0,0,111.1,233.9v5.9l.015.092.406.126a33.171,33.171,0,0,0,9.9,1.6A20.324,20.324,0,0,0,130.067,240l.38-.192.04-5.9A7.291,7.291,0,0,0,123.206,226.62Z" transform="translate(-111.096 -213.789)"/></g><g transform="translate(1196.2 2438.656)"><path class="g" d="M120.793,225.165a5.688,5.688,0,1,0-5.689-5.688A5.689,5.689,0,0,0,120.793,225.165Zm2.413,1.455H118.38A7.292,7.292,0,0,0,111.1,233.9v5.9l.015.092.406.126a33.171,33.171,0,0,0,9.9,1.6A20.324,20.324,0,0,0,130.067,240l.38-.192.04-5.9A7.291,7.291,0,0,0,123.206,226.62Z" transform="translate(-111.096 -213.789)"/></g><g transform="translate(1143.408 2404.497)"><path class="h" d="M120.793,225.165a5.688,5.688,0,1,0-5.689-5.688A5.689,5.689,0,0,0,120.793,225.165Zm2.413,1.455H118.38A7.292,7.292,0,0,0,111.1,233.9v5.9l.015.092.406.126a33.171,33.171,0,0,0,9.9,1.6A20.324,20.324,0,0,0,130.067,240l.38-.192.04-5.9A7.291,7.291,0,0,0,123.206,226.62Z" transform="translate(-111.096 -213.789)"/></g><g transform="translate(1169.804 2404.497)"><path class="f" d="M120.793,225.165a5.688,5.688,0,1,0-5.689-5.688A5.689,5.689,0,0,0,120.793,225.165Zm2.413,1.455H118.38A7.292,7.292,0,0,0,111.1,233.9v5.9l.015.092.406.126a33.171,33.171,0,0,0,9.9,1.6A20.324,20.324,0,0,0,130.067,240l.38-.192.04-5.9A7.291,7.291,0,0,0,123.206,226.62Z" transform="translate(-111.096 -213.789)"/></g><g transform="translate(1143.408 2472.815)"><path class="g" d="M120.793,225.165a5.688,5.688,0,1,0-5.689-5.688A5.689,5.689,0,0,0,120.793,225.165Zm2.413,1.455H118.38A7.292,7.292,0,0,0,111.1,233.9v5.9l.015.092.406.126a33.171,33.171,0,0,0,9.9,1.6A20.324,20.324,0,0,0,130.067,240l.38-.192.04-5.9A7.291,7.291,0,0,0,123.206,226.62Z" transform="translate(-111.096 -213.789)"/></g><g transform="translate(1169.804 2472.815)"><path class="g" d="M120.793,225.165a5.688,5.688,0,1,0-5.689-5.688A5.689,5.689,0,0,0,120.793,225.165Zm2.413,1.455H118.38A7.292,7.292,0,0,0,111.1,233.9v5.9l.015.092.406.126a33.171,33.171,0,0,0,9.9,1.6A20.324,20.324,0,0,0,130.067,240l.38-.192.04-5.9A7.291,7.291,0,0,0,123.206,226.62Z" transform="translate(-111.096 -213.789)"/></g></g><path class="i" d="M-63.544-11.2h2.592V0h-2.592Zm10.3,2.464a3.542,3.542,0,0,1,2.584.96,3.807,3.807,0,0,1,.984,2.848V0h-2.5V-4.544a2.244,2.244,0,0,0-.448-1.528,1.643,1.643,0,0,0-1.3-.5,1.986,1.986,0,0,0-1.5.584,2.418,2.418,0,0,0-.56,1.736V0h-2.5V-8.608h2.384V-7.6a3.31,3.31,0,0,1,1.232-.84A4.292,4.292,0,0,1-53.24-8.736Zm14.688-3.136V0h-2.384V-.992A3.292,3.292,0,0,1-43.624.128a4.47,4.47,0,0,1-2.2-.544,3.9,3.9,0,0,1-1.544-1.552,4.731,4.731,0,0,1-.56-2.336,4.731,4.731,0,0,1,.56-2.336,3.9,3.9,0,0,1,1.544-1.552,4.47,4.47,0,0,1,2.2-.544A3.274,3.274,0,0,1-41.048-7.7v-4.176Zm-4.64,9.952a2.086,2.086,0,0,0,1.568-.648A2.4,2.4,0,0,0-41-4.3a2.4,2.4,0,0,0-.624-1.736,2.086,2.086,0,0,0-1.568-.648,2.1,2.1,0,0,0-1.584.648A2.4,2.4,0,0,0-45.4-4.3a2.4,2.4,0,0,0,.624,1.736A2.1,2.1,0,0,0-43.192-1.92Zm6.944-6.688h2.5V0h-2.5ZM-35-9.808a1.583,1.583,0,0,1-1.12-.4,1.3,1.3,0,0,1-.432-.992,1.3,1.3,0,0,1,.432-.992,1.583,1.583,0,0,1,1.12-.4,1.623,1.623,0,0,1,1.12.384,1.231,1.231,0,0,1,.432.96,1.359,1.359,0,0,1-.432,1.032A1.565,1.565,0,0,1-35-9.808Zm12.112,1.2L-26.52,0H-29.1l-3.616-8.608h2.576l2.384,5.856,2.464-5.856Zm1.024,0h2.5V0h-2.5Zm1.248-1.2a1.583,1.583,0,0,1-1.12-.4,1.3,1.3,0,0,1-.432-.992,1.3,1.3,0,0,1,.432-.992,1.583,1.583,0,0,1,1.12-.4,1.623,1.623,0,0,1,1.12.384,1.231,1.231,0,0,1,.432.96,1.359,1.359,0,0,1-.432,1.032A1.565,1.565,0,0,1-20.616-9.808ZM-8.28-11.872V0h-2.384V-.992A3.292,3.292,0,0,1-13.352.128a4.47,4.47,0,0,1-2.2-.544A3.9,3.9,0,0,1-17.1-1.968a4.731,4.731,0,0,1-.56-2.336A4.731,4.731,0,0,1-17.1-6.64a3.9,3.9,0,0,1,1.544-1.552,4.47,4.47,0,0,1,2.2-.544A3.274,3.274,0,0,1-10.776-7.7v-4.176ZM-12.92-1.92a2.086,2.086,0,0,0,1.568-.648A2.4,2.4,0,0,0-10.728-4.3a2.4,2.4,0,0,0-.624-1.736,2.086,2.086,0,0,0-1.568-.648A2.1,2.1,0,0,0-14.5-6.04,2.4,2.4,0,0,0-15.128-4.3,2.4,2.4,0,0,0-14.5-2.568,2.1,2.1,0,0,0-12.92-1.92ZM2.7-8.608V0H.328V-1.024A3.31,3.31,0,0,1-.856-.168a3.725,3.725,0,0,1-1.488.3A3.666,3.666,0,0,1-5.032-.848a3.891,3.891,0,0,1-.992-2.9V-8.608h2.5v4.5q0,2.08,1.744,2.08a1.875,1.875,0,0,0,1.44-.584A2.464,2.464,0,0,0,.2-4.352V-8.608Zm5.792-.128a4.48,4.48,0,0,1,3.072.952,3.643,3.643,0,0,1,1.072,2.872V0H10.3V-1.072A2.781,2.781,0,0,1,7.672.128a4.072,4.072,0,0,1-1.72-.336A2.565,2.565,0,0,1,4.84-1.136,2.415,2.415,0,0,1,4.456-2.48a2.243,2.243,0,0,1,.9-1.888,4.607,4.607,0,0,1,2.792-.688h1.984a1.591,1.591,0,0,0-.5-1.256,2.185,2.185,0,0,0-1.488-.44A4.345,4.345,0,0,0,6.8-6.536a3.577,3.577,0,0,0-1.128.584L4.776-7.7a5.406,5.406,0,0,1,1.688-.768A7.562,7.562,0,0,1,8.488-8.736ZM8.3-1.552a2.174,2.174,0,0,0,1.136-.3,1.62,1.62,0,0,0,.7-.872V-3.6H8.424q-1.536,0-1.536,1.008a.9.9,0,0,0,.376.76A1.694,1.694,0,0,0,8.3-1.552Zm6.592-10.32h2.5V0h-2.5ZM22.6.128a8.362,8.362,0,0,1-2.1-.264A5.476,5.476,0,0,1,18.872-.8L19.7-2.592a5.236,5.236,0,0,0,1.392.6,5.834,5.834,0,0,0,1.6.232q1.584,0,1.584-.784a.555.555,0,0,0-.432-.528,6.4,6.4,0,0,0-1.328-.272,12.811,12.811,0,0,1-1.744-.368,2.706,2.706,0,0,1-1.192-.736,2.093,2.093,0,0,1-.5-1.5A2.356,2.356,0,0,1,19.552-7.4a3.038,3.038,0,0,1,1.376-.984,5.877,5.877,0,0,1,2.136-.352,8.383,8.383,0,0,1,1.816.2,5.076,5.076,0,0,1,1.5.552l-.832,1.776a4.967,4.967,0,0,0-2.48-.64,2.523,2.523,0,0,0-1.2.224.659.659,0,0,0-.4.576.572.572,0,0,0,.432.56,7.648,7.648,0,0,0,1.376.3A14.729,14.729,0,0,1,25-4.808a2.6,2.6,0,0,1,1.168.728,2.066,2.066,0,0,1,.5,1.472,2.273,2.273,0,0,1-.48,1.424,3.064,3.064,0,0,1-1.4.968A6.237,6.237,0,0,1,22.6.128ZM46.552-8.608,43.432,0h-2.4L39.1-5.344,37.1,0H34.7l-3.1-8.608h2.352l2.032,5.824,2.112-5.824H40.2l2.048,5.824,2.1-5.824Zm1.168,0h2.5V0h-2.5Zm1.248-1.2a1.583,1.583,0,0,1-1.12-.4,1.3,1.3,0,0,1-.432-.992,1.3,1.3,0,0,1,.432-.992,1.583,1.583,0,0,1,1.12-.4,1.623,1.623,0,0,1,1.12.384,1.231,1.231,0,0,1,.432.96,1.359,1.359,0,0,1-.432,1.032A1.565,1.565,0,0,1,48.968-9.808Zm9.12,9.392a2.566,2.566,0,0,1-.9.408,4.571,4.571,0,0,1-1.128.136A3.351,3.351,0,0,1,53.68-.656a3,3,0,0,1-.84-2.3V-6.5H51.512v-1.92H52.84v-2.1h2.5v2.1H57.48V-6.5H55.336v3.5a1.175,1.175,0,0,0,.28.84,1.038,1.038,0,0,0,.792.3,1.6,1.6,0,0,0,1.008-.32Zm6.64-8.32a3.542,3.542,0,0,1,2.584.96A3.807,3.807,0,0,1,68.3-4.928V0H65.8V-4.544a2.244,2.244,0,0,0-.448-1.528,1.643,1.643,0,0,0-1.3-.5,1.986,1.986,0,0,0-1.5.584,2.418,2.418,0,0,0-.56,1.736V0H59.5V-11.872h2.5v4.16a3.32,3.32,0,0,1,1.2-.76A4.341,4.341,0,0,1,64.728-8.736ZM-65.736,7.128V19H-68.12v-.992a3.292,3.292,0,0,1-2.688,1.12,4.47,4.47,0,0,1-2.2-.544,3.9,3.9,0,0,1-1.544-1.552,4.731,4.731,0,0,1-.56-2.336,4.731,4.731,0,0,1,.56-2.336,3.9,3.9,0,0,1,1.544-1.552,4.47,4.47,0,0,1,2.2-.544,3.274,3.274,0,0,1,2.576,1.04V7.128Zm-4.64,9.952a2.086,2.086,0,0,0,1.568-.648,2.4,2.4,0,0,0,.624-1.736,2.4,2.4,0,0,0-.624-1.736,2.086,2.086,0,0,0-1.568-.648,2.1,2.1,0,0,0-1.584.648,2.4,2.4,0,0,0-.624,1.736,2.4,2.4,0,0,0,.624,1.736A2.1,2.1,0,0,0-70.376,17.08Zm6.944-6.688h2.5V19h-2.5Zm1.248-1.2a1.583,1.583,0,0,1-1.12-.4,1.3,1.3,0,0,1-.432-.992,1.3,1.3,0,0,1,.432-.992,1.583,1.583,0,0,1,1.12-.4,1.623,1.623,0,0,1,1.12.384,1.231,1.231,0,0,1,.432.96,1.359,1.359,0,0,1-.432,1.032A1.565,1.565,0,0,1-62.184,9.192Zm6.3,1.392h2.208V12.5h-2.144V19h-2.5V12.5H-59.64v-1.92h1.328V10.2a3.14,3.14,0,0,1,.872-2.336A3.339,3.339,0,0,1-54.984,7a4.581,4.581,0,0,1,1.064.12,2.586,2.586,0,0,1,.84.344l-.656,1.808a1.707,1.707,0,0,0-1.008-.3q-1.136,0-1.136,1.248Zm6.192,0h2.208V12.5h-2.144V19h-2.5V12.5h-1.328v-1.92h1.328V10.2a3.14,3.14,0,0,1,.872-2.336A3.339,3.339,0,0,1-48.792,7a4.581,4.581,0,0,1,1.064.12,2.586,2.586,0,0,1,.84.344l-.656,1.808a1.707,1.707,0,0,0-1.008-.3q-1.136,0-1.136,1.248Zm11.776,4.144q0,.048-.048.672h-6.512a2.028,2.028,0,0,0,.832,1.264,2.756,2.756,0,0,0,1.632.464,3.3,3.3,0,0,0,1.192-.2,2.887,2.887,0,0,0,.968-.632l1.328,1.44a4.463,4.463,0,0,1-3.552,1.392,5.619,5.619,0,0,1-2.576-.568,4.164,4.164,0,0,1-1.728-1.576,4.342,4.342,0,0,1-.608-2.288,4.4,4.4,0,0,1,.6-2.28,4.2,4.2,0,0,1,1.648-1.584,4.839,4.839,0,0,1,2.344-.568,4.8,4.8,0,0,1,2.288.544,3.971,3.971,0,0,1,1.608,1.56A4.652,4.652,0,0,1-37.912,14.728Zm-4.464-2.576a2.15,2.15,0,0,0-1.424.48,2.043,2.043,0,0,0-.7,1.312h4.24a2.064,2.064,0,0,0-.7-1.3A2.1,2.1,0,0,0-42.376,12.152Zm8.512-.624a2.776,2.776,0,0,1,1.208-.944,4.484,4.484,0,0,1,1.752-.32v2.3q-.416-.032-.56-.032a2.288,2.288,0,0,0-1.68.6,2.425,2.425,0,0,0-.608,1.8V19h-2.5V10.392h2.384Zm12.8,3.2q0,.048-.048.672h-6.512a2.028,2.028,0,0,0,.832,1.264,2.756,2.756,0,0,0,1.632.464,3.3,3.3,0,0,0,1.192-.2A2.887,2.887,0,0,0-23,16.3l1.328,1.44a4.463,4.463,0,0,1-3.552,1.392A5.619,5.619,0,0,1-27.8,18.56a4.164,4.164,0,0,1-1.728-1.576,4.342,4.342,0,0,1-.608-2.288,4.4,4.4,0,0,1,.6-2.28,4.2,4.2,0,0,1,1.648-1.584,4.839,4.839,0,0,1,2.344-.568,4.8,4.8,0,0,1,2.288.544,3.971,3.971,0,0,1,1.608,1.56A4.652,4.652,0,0,1-21.064,14.728Zm-4.464-2.576a2.15,2.15,0,0,0-1.424.48,2.043,2.043,0,0,0-.7,1.312h4.24a2.064,2.064,0,0,0-.7-1.3A2.1,2.1,0,0,0-25.528,12.152Zm11.36-1.888a3.542,3.542,0,0,1,2.584.96,3.807,3.807,0,0,1,.984,2.848V19h-2.5V14.456a2.244,2.244,0,0,0-.448-1.528,1.643,1.643,0,0,0-1.3-.5,1.986,1.986,0,0,0-1.5.584,2.418,2.418,0,0,0-.56,1.736V19h-2.5V10.392h2.384V11.4a3.31,3.31,0,0,1,1.232-.84A4.292,4.292,0,0,1-14.168,10.264Zm11.376,8.32a2.566,2.566,0,0,1-.9.408,4.571,4.571,0,0,1-1.128.136A3.351,3.351,0,0,1-7.2,18.344a3,3,0,0,1-.84-2.3V12.5H-9.368v-1.92H-8.04v-2.1h2.5v2.1H-3.4V12.5H-5.544v3.5a1.175,1.175,0,0,0,.28.84,1.038,1.038,0,0,0,.792.3,1.6,1.6,0,0,0,1.008-.32Zm8.832.544a8.362,8.362,0,0,1-2.1-.264A5.476,5.476,0,0,1,2.312,18.2l.832-1.792a5.236,5.236,0,0,0,1.392.6,5.834,5.834,0,0,0,1.6.232q1.584,0,1.584-.784a.555.555,0,0,0-.432-.528,6.4,6.4,0,0,0-1.328-.272,12.811,12.811,0,0,1-1.744-.368,2.706,2.706,0,0,1-1.192-.736,2.093,2.093,0,0,1-.5-1.5A2.356,2.356,0,0,1,2.992,11.6a3.038,3.038,0,0,1,1.376-.984A5.877,5.877,0,0,1,6.5,10.264a8.383,8.383,0,0,1,1.816.2,5.076,5.076,0,0,1,1.5.552l-.832,1.776a4.967,4.967,0,0,0-2.48-.64,2.523,2.523,0,0,0-1.2.224.659.659,0,0,0-.4.576.572.572,0,0,0,.432.56,7.648,7.648,0,0,0,1.376.3,14.729,14.729,0,0,1,1.728.376,2.6,2.6,0,0,1,1.168.728,2.066,2.066,0,0,1,.5,1.472,2.273,2.273,0,0,1-.48,1.424,3.064,3.064,0,0,1-1.4.968A6.237,6.237,0,0,1,6.04,19.128Zm9.3-3.5-1.2,1.184V19h-2.5V7.128h2.5v6.72l3.648-3.456H20.76L17.176,14.04,21.08,19H18.056Zm6.8-5.232h2.5V19h-2.5Zm1.248-1.2a1.583,1.583,0,0,1-1.12-.4,1.355,1.355,0,0,1,0-1.984,1.583,1.583,0,0,1,1.12-.4,1.623,1.623,0,0,1,1.12.384,1.231,1.231,0,0,1,.432.96A1.359,1.359,0,0,1,24.5,8.784,1.565,1.565,0,0,1,23.384,9.192Zm3.568-2.064h2.5V19h-2.5Zm4.816,0h2.5V19h-2.5Zm4.5,6.368h4.528v2H36.264Zm9.392,5.632a8.362,8.362,0,0,1-2.1-.264,5.476,5.476,0,0,1-1.632-.664l.832-1.792a5.236,5.236,0,0,0,1.392.6,5.834,5.834,0,0,0,1.6.232q1.584,0,1.584-.784a.555.555,0,0,0-.432-.528,6.4,6.4,0,0,0-1.328-.272,12.811,12.811,0,0,1-1.744-.368,2.706,2.706,0,0,1-1.192-.736,2.093,2.093,0,0,1-.5-1.5,2.356,2.356,0,0,1,.472-1.448,3.038,3.038,0,0,1,1.376-.984,5.877,5.877,0,0,1,2.136-.352,8.383,8.383,0,0,1,1.816.2,5.076,5.076,0,0,1,1.5.552L48.6,12.792a4.967,4.967,0,0,0-2.48-.64,2.523,2.523,0,0,0-1.2.224.659.659,0,0,0-.4.576.572.572,0,0,0,.432.56,7.648,7.648,0,0,0,1.376.3,14.729,14.729,0,0,1,1.728.376,2.6,2.6,0,0,1,1.168.728,2.066,2.066,0,0,1,.5,1.472,2.273,2.273,0,0,1-.48,1.424,3.064,3.064,0,0,1-1.4.968A6.237,6.237,0,0,1,45.656,19.128Zm14.032-4.4q0,.048-.048.672H53.128a2.028,2.028,0,0,0,.832,1.264,2.756,2.756,0,0,0,1.632.464,3.3,3.3,0,0,0,1.192-.2,2.887,2.887,0,0,0,.968-.632l1.328,1.44a4.463,4.463,0,0,1-3.552,1.392,5.619,5.619,0,0,1-2.576-.568,4.164,4.164,0,0,1-1.728-1.576,4.342,4.342,0,0,1-.608-2.288,4.4,4.4,0,0,1,.6-2.28,4.2,4.2,0,0,1,1.648-1.584,5.1,5.1,0,0,1,4.632-.024,3.971,3.971,0,0,1,1.608,1.56A4.652,4.652,0,0,1,59.688,14.728Zm-4.464-2.576a2.15,2.15,0,0,0-1.424.48,2.043,2.043,0,0,0-.7,1.312h4.24a2.064,2.064,0,0,0-.7-1.3A2.1,2.1,0,0,0,55.224,12.152ZM66.9,18.584a2.566,2.566,0,0,1-.9.408,4.571,4.571,0,0,1-1.128.136,3.351,3.351,0,0,1-2.376-.784,3,3,0,0,1-.84-2.3V12.5H60.328v-1.92h1.328v-2.1h2.5v2.1H66.3V12.5H64.152v3.5a1.175,1.175,0,0,0,.28.84,1.038,1.038,0,0,0,.792.3,1.6,1.6,0,0,0,1.008-.32Zm4.3.544a8.362,8.362,0,0,1-2.1-.264A5.476,5.476,0,0,1,67.48,18.2l.832-1.792a5.236,5.236,0,0,0,1.392.6,5.834,5.834,0,0,0,1.6.232q1.584,0,1.584-.784a.555.555,0,0,0-.432-.528,6.4,6.4,0,0,0-1.328-.272,12.811,12.811,0,0,1-1.744-.368,2.706,2.706,0,0,1-1.192-.736,2.093,2.093,0,0,1-.5-1.5A2.356,2.356,0,0,1,68.16,11.6a3.038,3.038,0,0,1,1.376-.984,5.877,5.877,0,0,1,2.136-.352,8.383,8.383,0,0,1,1.816.2,5.076,5.076,0,0,1,1.5.552l-.832,1.776a4.967,4.967,0,0,0-2.48-.64,2.523,2.523,0,0,0-1.2.224.659.659,0,0,0-.4.576.572.572,0,0,0,.432.56,7.648,7.648,0,0,0,1.376.3,14.729,14.729,0,0,1,1.728.376,2.6,2.6,0,0,1,1.168.728,2.066,2.066,0,0,1,.5,1.472,2.273,2.273,0,0,1-.48,1.424,3.064,3.064,0,0,1-1.4.968A6.237,6.237,0,0,1,71.208,19.128Z" transform="translate(1131.5 2598)"/><g class="j" transform="translate(1054 2418)"><circle class="k" cx="77" cy="77" r="77"/><circle class="l" cx="77" cy="77" r="76.25"/></g></g></svg>