<svg xmlns="http://www.w3.org/2000/svg" xmlns:xlink="http://www.w3.org/1999/xlink" width="636" height="467" viewBox="0 0 636 467"><defs><style>.a{fill:#3fba32;}.b{fill:#fff;stroke:rgba(255,255,255,0);}.c{fill:#5100c1;}.d{fill:#2a6ef0;}.e{fill:#1c4fb1;}.f{fill:none;stroke:#20a0ee;stroke-width:2px;opacity:0.8;}.g{fill:url(#a);}</style><linearGradient id="a" x1="0.581" y1="1" x2="0.581" gradientUnits="objectBoundingBox"><stop offset="0" stop-color="#5100c1"/><stop offset="1" stop-color="#41009a"/></linearGradient></defs><rect class="a" width="100" height="53" transform="translate(256 414)"/><path class="b" d="M3.92-9.12v2.96H9.1v2.08H3.92V0H1.328V-11.2H9.792v2.08Zm7.632-2.08h2.592V0H11.552ZM20.48.192a9.164,9.164,0,0,1-2.568-.36A6.023,6.023,0,0,1,15.92-1.1l.88-1.952a5.972,5.972,0,0,0,1.712.848,6.43,6.43,0,0,0,1.984.32,3.17,3.17,0,0,0,1.632-.328.991.991,0,0,0,.528-.872.834.834,0,0,0-.312-.664,2.365,2.365,0,0,0-.8-.424q-.488-.16-1.32-.352a18.247,18.247,0,0,1-2.1-.608,3.405,3.405,0,0,1-1.4-.976A2.636,2.636,0,0,1,16.144-7.9a3.117,3.117,0,0,1,.528-1.768,3.552,3.552,0,0,1,1.592-1.256,6.5,6.5,0,0,1,2.6-.464,8.609,8.609,0,0,1,2.1.256,6.192,6.192,0,0,1,1.792.736l-.8,1.968a6.245,6.245,0,0,0-3.1-.88,2.91,2.91,0,0,0-1.608.352,1.074,1.074,0,0,0-.52.928.907.907,0,0,0,.6.856,9.42,9.42,0,0,0,1.832.552,18.247,18.247,0,0,1,2.1.608,3.471,3.471,0,0,1,1.4.96,2.574,2.574,0,0,1,.584,1.776A3.058,3.058,0,0,1,24.7-1.528,3.6,3.6,0,0,1,23.088-.272,6.555,6.555,0,0,1,20.48.192Z" transform="translate(293.5 445.5)"/><rect class="c" width="140" height="53" transform="translate(378 414)"/><path class="b" d="M3.92-9.12v2.96H9.1v2.08H3.92V0H1.328V-11.2H9.792v2.08Zm7.632-2.08h2.592V0H11.552ZM20.48.192a9.164,9.164,0,0,1-2.568-.36A6.023,6.023,0,0,1,15.92-1.1l.88-1.952a5.972,5.972,0,0,0,1.712.848,6.43,6.43,0,0,0,1.984.32,3.17,3.17,0,0,0,1.632-.328.991.991,0,0,0,.528-.872.834.834,0,0,0-.312-.664,2.365,2.365,0,0,0-.8-.424q-.488-.16-1.32-.352a18.247,18.247,0,0,1-2.1-.608,3.405,3.405,0,0,1-1.4-.976A2.636,2.636,0,0,1,16.144-7.9a3.117,3.117,0,0,1,.528-1.768,3.552,3.552,0,0,1,1.592-1.256,6.5,6.5,0,0,1,2.6-.464,8.609,8.609,0,0,1,2.1.256,6.192,6.192,0,0,1,1.792.736l-.8,1.968a6.245,6.245,0,0,0-3.1-.88,2.91,2.91,0,0,0-1.608.352,1.074,1.074,0,0,0-.52.928.907.907,0,0,0,.6.856,9.42,9.42,0,0,0,1.832.552,18.247,18.247,0,0,1,2.1.608,3.471,3.471,0,0,1,1.4.96,2.574,2.574,0,0,1,.584,1.776A3.058,3.058,0,0,1,24.7-1.528,3.6,3.6,0,0,1,23.088-.272,6.555,6.555,0,0,1,20.48.192ZM34.832-8.736a4.48,4.48,0,0,1,3.072.952,3.643,3.643,0,0,1,1.072,2.872V0H36.64V-1.072a2.781,2.781,0,0,1-2.624,1.2A4.072,4.072,0,0,1,32.3-.208a2.565,2.565,0,0,1-1.112-.928A2.415,2.415,0,0,1,30.8-2.48a2.243,2.243,0,0,1,.9-1.888A4.607,4.607,0,0,1,34.5-5.056H36.48a1.591,1.591,0,0,0-.5-1.256,2.185,2.185,0,0,0-1.488-.44,4.345,4.345,0,0,0-1.352.216,3.577,3.577,0,0,0-1.128.584L31.12-7.7a5.406,5.406,0,0,1,1.688-.768A7.562,7.562,0,0,1,34.832-8.736ZM34.64-1.552a2.174,2.174,0,0,0,1.136-.3,1.62,1.62,0,0,0,.7-.872V-3.6H34.768q-1.536,0-1.536,1.008a.9.9,0,0,0,.376.76A1.694,1.694,0,0,0,34.64-1.552ZM46.464-8.736a3.542,3.542,0,0,1,2.584.96,3.807,3.807,0,0,1,.984,2.848V0h-2.5V-4.544a2.244,2.244,0,0,0-.448-1.528,1.643,1.643,0,0,0-1.3-.5,1.986,1.986,0,0,0-1.5.584,2.418,2.418,0,0,0-.56,1.736V0h-2.5V-8.608h2.384V-7.6a3.31,3.31,0,0,1,1.232-.84A4.292,4.292,0,0,1,46.464-8.736Zm14.688-3.136V0H58.768V-.992A3.292,3.292,0,0,1,56.08.128a4.47,4.47,0,0,1-2.2-.544,3.9,3.9,0,0,1-1.544-1.552,4.731,4.731,0,0,1-.56-2.336,4.731,4.731,0,0,1,.56-2.336A3.9,3.9,0,0,1,53.88-8.192a4.47,4.47,0,0,1,2.2-.544A3.274,3.274,0,0,1,58.656-7.7v-4.176ZM56.512-1.92a2.086,2.086,0,0,0,1.568-.648A2.4,2.4,0,0,0,58.7-4.3,2.4,2.4,0,0,0,58.08-6.04a2.086,2.086,0,0,0-1.568-.648,2.1,2.1,0,0,0-1.584.648A2.4,2.4,0,0,0,54.3-4.3a2.4,2.4,0,0,0,.624,1.736A2.1,2.1,0,0,0,56.512-1.92ZM85.088-11.2,81.424,0H78.64L76.176-7.584,73.632,0H70.864l-3.68-11.2h2.688L72.4-3.328,75.04-11.2h2.4L80-3.264,82.608-11.2ZM96.72,0,96.7-6.72l-3.3,5.536H92.24L88.96-6.576V0H86.528V-11.2h2.144l4.192,6.96,4.128-6.96H99.12L99.152,0Z" transform="translate(398.5 445.5)"/><rect class="d" width="100" height="53" transform="translate(134 414)"/><path class="b" d="M18.256-11.2,14.592,0H11.808L9.344-7.584,6.8,0H4.032L.352-11.2H3.04L5.568-3.328,8.208-11.2h2.4l2.56,7.936L15.776-11.2ZM29.888,0l-.016-6.72-3.3,5.536H25.408l-3.28-5.392V0H19.7V-11.2H21.84l4.192,6.96L30.16-11.2h2.128L32.32,0Z" transform="translate(167.5 445.5)"/><path class="e" d="M6,0H630a6,6,0,0,1,6,6V308a0,0,0,0,1,0,0H0a0,0,0,0,1,0,0V6A6,6,0,0,1,6,0Z"/><path class="b" d="M17.872,3.8,14.16,15H11.952L9.184,6.712,6.368,15H4.144L.432,3.8h2.16l2.784,8.512L8.272,3.8h1.92l2.832,8.56L15.888,3.8ZM29.856,15,29.84,7.576,26.16,13.72h-.928l-3.68-6.048V15H19.568V3.8H21.28l4.448,7.424L30.1,3.8h1.712L31.824,15Zm11.68-9.44H37.824V3.8h9.5V5.56H43.616V15h-2.08Zm14.32,5.216q0,.208-.032.592h-6.7a2.324,2.324,0,0,0,.92,1.5,3.016,3.016,0,0,0,1.848.552,3.114,3.114,0,0,0,2.32-.928L55.28,13.72a3.612,3.612,0,0,1-1.456,1.04,5.77,5.77,0,0,1-4.464-.208,4.033,4.033,0,0,1-1.656-1.56,4.406,4.406,0,0,1-.584-2.264,4.471,4.471,0,0,1,.568-2.248,4.029,4.029,0,0,1,1.576-1.56,4.6,4.6,0,0,1,2.272-.56,4.483,4.483,0,0,1,2.232.552A3.909,3.909,0,0,1,55.3,8.464,4.706,4.706,0,0,1,55.856,10.776ZM51.536,7.96A2.364,2.364,0,0,0,49.1,10.04h4.848a2.358,2.358,0,0,0-.784-1.5A2.384,2.384,0,0,0,51.536,7.96ZM61.7,15.112a5.009,5.009,0,0,1-2.384-.56,4.112,4.112,0,0,1-1.648-1.56,4.359,4.359,0,0,1-.592-2.264,4.317,4.317,0,0,1,.592-2.256A4.142,4.142,0,0,1,59.3,6.92,5,5,0,0,1,61.7,6.36a4.608,4.608,0,0,1,2.216.512,3.322,3.322,0,0,1,1.432,1.472l-1.536.9a2.44,2.44,0,0,0-.92-.888,2.685,2.685,0,0,0-3.064.432,2.611,2.611,0,0,0-.736,1.944,2.627,2.627,0,0,0,.728,1.944,2.7,2.7,0,0,0,3.072.432,2.44,2.44,0,0,0,.92-.888l1.536.9a3.462,3.462,0,0,1-1.448,1.48A4.516,4.516,0,0,1,61.7,15.112ZM71.84,6.36a3.57,3.57,0,0,1,2.592.944,3.724,3.724,0,0,1,.976,2.8V15h-2V10.36a2.4,2.4,0,0,0-.528-1.688,1.952,1.952,0,0,0-1.5-.568,2.309,2.309,0,0,0-1.744.664,2.647,2.647,0,0,0-.64,1.912V15h-2V3.128h2v4.32a3.253,3.253,0,0,1,1.224-.808A4.492,4.492,0,0,1,71.84,6.36Zm10.96,0a3.57,3.57,0,0,1,2.592.944,3.724,3.724,0,0,1,.976,2.8V15h-2V10.36a2.4,2.4,0,0,0-.528-1.688,1.952,1.952,0,0,0-1.5-.568,2.309,2.309,0,0,0-1.744.664,2.647,2.647,0,0,0-.64,1.912V15h-2V6.456h1.9v1.1a3.127,3.127,0,0,1,1.248-.9A4.491,4.491,0,0,1,82.8,6.36Zm6.112.1h2V15h-2ZM89.92,5.048a1.285,1.285,0,0,1-.912-.344,1.124,1.124,0,0,1-.368-.856,1.124,1.124,0,0,1,.368-.856,1.285,1.285,0,0,1,.912-.344,1.321,1.321,0,0,1,.912.328A1.057,1.057,0,0,1,91.2,3.8a1.207,1.207,0,0,1-.36.888A1.246,1.246,0,0,1,89.92,5.048Zm7.536,10.064a5.009,5.009,0,0,1-2.384-.56,4.112,4.112,0,0,1-1.648-1.56,4.359,4.359,0,0,1-.592-2.264,4.317,4.317,0,0,1,.592-2.256,4.143,4.143,0,0,1,1.64-1.552,5,5,0,0,1,2.392-.56,4.608,4.608,0,0,1,2.216.512A3.322,3.322,0,0,1,101.1,8.344l-1.536.9a2.44,2.44,0,0,0-.92-.888,2.685,2.685,0,0,0-3.064.432,2.611,2.611,0,0,0-.736,1.944,2.627,2.627,0,0,0,.728,1.944,2.7,2.7,0,0,0,3.072.432,2.44,2.44,0,0,0,.92-.888l1.536.9a3.462,3.462,0,0,1-1.448,1.48A4.516,4.516,0,0,1,97.456,15.112ZM106.1,6.36a4.166,4.166,0,0,1,2.888.9,3.494,3.494,0,0,1,1,2.728V15H108.1V13.96a2.327,2.327,0,0,1-1.048.856,4.1,4.1,0,0,1-1.64.3,4.018,4.018,0,0,1-1.68-.328,2.6,2.6,0,0,1-1.112-.912,2.314,2.314,0,0,1-.392-1.32,2.262,2.262,0,0,1,.856-1.848,4.251,4.251,0,0,1,2.7-.7h2.208V9.88a1.751,1.751,0,0,0-.536-1.376,2.319,2.319,0,0,0-1.592-.48,4.6,4.6,0,0,0-1.416.224,3.479,3.479,0,0,0-1.176.624l-.784-1.456a4.855,4.855,0,0,1,1.616-.784A7.19,7.19,0,0,1,106.1,6.36Zm-.272,7.3a2.582,2.582,0,0,0,1.336-.344,1.872,1.872,0,0,0,.824-.984v-.992H105.92q-1.728,0-1.728,1.136a1.02,1.02,0,0,0,.432.864A1.98,1.98,0,0,0,105.824,13.656Zm6.72-10.528h2V15h-2Zm9.232.672h2.08v9.44h5.856V15h-7.936Zm17.344,6.976q0,.208-.032.592h-6.7a2.324,2.324,0,0,0,.92,1.5,3.016,3.016,0,0,0,1.848.552,3.114,3.114,0,0,0,2.32-.928l1.072,1.232a3.612,3.612,0,0,1-1.456,1.04,5.77,5.77,0,0,1-4.464-.208,4.033,4.033,0,0,1-1.656-1.56,4.406,4.406,0,0,1-.584-2.264,4.471,4.471,0,0,1,.568-2.248,4.029,4.029,0,0,1,1.576-1.56,4.6,4.6,0,0,1,2.272-.56,4.483,4.483,0,0,1,2.232.552,3.909,3.909,0,0,1,1.536,1.552A4.706,4.706,0,0,1,139.12,10.776ZM134.8,7.96a2.364,2.364,0,0,0-2.432,2.08h4.848a2.358,2.358,0,0,0-.784-1.5A2.384,2.384,0,0,0,134.8,7.96Zm9.264-1.6a4.166,4.166,0,0,1,2.888.9,3.494,3.494,0,0,1,1,2.728V15h-1.888V13.96a2.327,2.327,0,0,1-1.048.856,4.1,4.1,0,0,1-1.64.3,4.018,4.018,0,0,1-1.68-.328,2.6,2.6,0,0,1-1.112-.912,2.314,2.314,0,0,1-.392-1.32,2.262,2.262,0,0,1,.856-1.848,4.251,4.251,0,0,1,2.7-.7h2.208V9.88a1.751,1.751,0,0,0-.536-1.376,2.319,2.319,0,0,0-1.592-.48,4.6,4.6,0,0,0-1.416.224,3.478,3.478,0,0,0-1.176.624l-.784-1.456a4.855,4.855,0,0,1,1.616-.784A7.19,7.19,0,0,1,144.064,6.36Zm-.272,7.3a2.582,2.582,0,0,0,1.336-.344,1.872,1.872,0,0,0,.824-.984v-.992h-2.064q-1.728,0-1.728,1.136a1.02,1.02,0,0,0,.432.864A1.98,1.98,0,0,0,143.792,13.656ZM158.96,3.128V15h-1.92V13.9a3.094,3.094,0,0,1-1.224.912,4.133,4.133,0,0,1-1.608.3,4.5,4.5,0,0,1-2.216-.544,3.909,3.909,0,0,1-1.544-1.544,4.619,4.619,0,0,1-.56-2.3,4.574,4.574,0,0,1,.56-2.288A3.923,3.923,0,0,1,151.992,6.9a4.5,4.5,0,0,1,2.216-.544,4.062,4.062,0,0,1,1.552.288,3.122,3.122,0,0,1,1.2.864V3.128ZM154.448,13.4a2.572,2.572,0,0,0,1.3-.328,2.371,2.371,0,0,0,.912-.936,2.864,2.864,0,0,0,.336-1.408,2.864,2.864,0,0,0-.336-1.408,2.371,2.371,0,0,0-.912-.936,2.724,2.724,0,0,0-2.592,0,2.37,2.37,0,0,0-.912.936,2.863,2.863,0,0,0-.336,1.408,2.863,2.863,0,0,0,.336,1.408,2.37,2.37,0,0,0,.912.936A2.572,2.572,0,0,0,154.448,13.4ZM4.976,55.16a8.545,8.545,0,0,1-2.5-.368A5.226,5.226,0,0,1,.56,53.816L1.28,52.2a5.672,5.672,0,0,0,1.688.888,6.138,6.138,0,0,0,2.008.344,3.47,3.47,0,0,0,1.864-.4,1.212,1.212,0,0,0,.616-1.056,1.022,1.022,0,0,0-.344-.792A2.415,2.415,0,0,0,6.24,50.7q-.528-.176-1.44-.4a16.786,16.786,0,0,1-2.072-.608,3.41,3.41,0,0,1-1.36-.952A2.564,2.564,0,0,1,.8,46.984,2.989,2.989,0,0,1,1.3,45.3a3.41,3.41,0,0,1,1.52-1.208,6.158,6.158,0,0,1,2.488-.448,8.036,8.036,0,0,1,2.016.256,5.572,5.572,0,0,1,1.712.736l-.656,1.616a6.472,6.472,0,0,0-1.536-.656A5.746,5.746,0,0,0,5.3,45.368a3.242,3.242,0,0,0-1.832.416,1.283,1.283,0,0,0-.6,1.1,1,1,0,0,0,.344.784,2.485,2.485,0,0,0,.872.48q.528.176,1.44.4a15.153,15.153,0,0,1,2.048.6,3.507,3.507,0,0,1,1.368.952A2.509,2.509,0,0,1,9.5,51.832a2.951,2.951,0,0,1-.5,1.68,3.428,3.428,0,0,1-1.528,1.2A6.216,6.216,0,0,1,4.976,55.16Zm14.24-8.7-4,9.232a4.3,4.3,0,0,1-1.36,1.96,3.257,3.257,0,0,1-1.936.568,3.973,3.973,0,0,1-1.264-.208,2.793,2.793,0,0,1-1.024-.576l.8-1.472a2.177,2.177,0,0,0,.68.432,2.08,2.08,0,0,0,.792.16,1.363,1.363,0,0,0,.872-.272,2.4,2.4,0,0,0,.632-.912l.144-.336L9.824,46.456H11.9l2.688,6.32,2.7-6.32Zm3.776,8.656a7.65,7.65,0,0,1-2.032-.272,5.113,5.113,0,0,1-1.584-.688l.768-1.52a4.938,4.938,0,0,0,1.384.616,5.75,5.75,0,0,0,1.592.232q1.792,0,1.792-.944a.631.631,0,0,0-.456-.624,7.873,7.873,0,0,0-1.464-.336,11.877,11.877,0,0,1-1.72-.368,2.64,2.64,0,0,1-1.152-.728,2.033,2.033,0,0,1-.488-1.448,2.276,2.276,0,0,1,1.016-1.944,4.624,4.624,0,0,1,2.744-.728,7.919,7.919,0,0,1,1.76.2,4.934,4.934,0,0,1,1.44.536l-.768,1.52a4.737,4.737,0,0,0-2.448-.64,2.713,2.713,0,0,0-1.336.264.788.788,0,0,0-.456.7.7.7,0,0,0,.488.68,7.755,7.755,0,0,0,1.512.376,11.666,11.666,0,0,1,1.68.368,2.629,2.629,0,0,1,1.128.7,1.962,1.962,0,0,1,.472,1.408,2.228,2.228,0,0,1-1.04,1.92A4.9,4.9,0,0,1,22.992,55.112Zm10.736-.576a2.354,2.354,0,0,1-.856.432,3.855,3.855,0,0,1-1.064.144,3.019,3.019,0,0,1-2.176-.736,2.833,2.833,0,0,1-.768-2.144V48.12H27.456v-1.6h1.408V44.568h2V46.52h2.288v1.6H30.864v4.064a1.352,1.352,0,0,0,.3.952,1.141,1.141,0,0,0,.88.328,1.757,1.757,0,0,0,1.12-.352Zm9.392-3.76q0,.208-.032.592h-6.7a2.324,2.324,0,0,0,.92,1.5,3.016,3.016,0,0,0,1.848.552,3.114,3.114,0,0,0,2.32-.928l1.072,1.232a3.612,3.612,0,0,1-1.456,1.04,5.77,5.77,0,0,1-4.464-.208,4.033,4.033,0,0,1-1.656-1.56,4.406,4.406,0,0,1-.584-2.264,4.471,4.471,0,0,1,.568-2.248,4.029,4.029,0,0,1,1.576-1.56,4.6,4.6,0,0,1,2.272-.56,4.483,4.483,0,0,1,2.232.552,3.909,3.909,0,0,1,1.536,1.552A4.706,4.706,0,0,1,43.12,50.776ZM38.8,47.96a2.364,2.364,0,0,0-2.432,2.08h4.848a2.358,2.358,0,0,0-.784-1.5A2.384,2.384,0,0,0,38.8,47.96Zm17.024-1.6a3.476,3.476,0,0,1,2.56.936,3.794,3.794,0,0,1,.944,2.808V55h-2V50.36a2.5,2.5,0,0,0-.5-1.688,1.789,1.789,0,0,0-1.424-.568,2.086,2.086,0,0,0-1.616.664,2.709,2.709,0,0,0-.608,1.9V55h-2V50.36a2.5,2.5,0,0,0-.5-1.688,1.789,1.789,0,0,0-1.424-.568,2.092,2.092,0,0,0-1.624.656,2.727,2.727,0,0,0-.6,1.9V55h-2V46.456h1.9v1.088a3.11,3.11,0,0,1,1.2-.88,4.074,4.074,0,0,1,1.6-.3,3.865,3.865,0,0,1,1.7.36,2.766,2.766,0,0,1,1.176,1.064,3.561,3.561,0,0,1,1.36-1.048A4.417,4.417,0,0,1,55.824,46.36ZM73.76,52.408h-5.6L67.056,55H64.912l5.04-11.2H72L77.056,55H74.88Zm-.688-1.632-2.112-4.9-2.1,4.9Zm7.12-3.072a3.332,3.332,0,0,1,3.04-1.344v1.9a2.539,2.539,0,0,0-.464-.048,2.416,2.416,0,0,0-1.824.68,2.712,2.712,0,0,0-.656,1.96V55h-2V46.456h1.9Zm8.576,7.408a5.009,5.009,0,0,1-2.384-.56,4.112,4.112,0,0,1-1.648-1.56,4.61,4.61,0,0,1,0-4.52,4.143,4.143,0,0,1,1.64-1.552,5,5,0,0,1,2.392-.56,4.608,4.608,0,0,1,2.216.512,3.322,3.322,0,0,1,1.432,1.472l-1.536.9a2.44,2.44,0,0,0-.92-.888,2.685,2.685,0,0,0-3.064.432,2.947,2.947,0,0,0-.008,3.888,2.7,2.7,0,0,0,3.072.432,2.44,2.44,0,0,0,.92-.888l1.536.9a3.462,3.462,0,0,1-1.448,1.48A4.516,4.516,0,0,1,88.768,55.112ZM98.912,46.36a3.57,3.57,0,0,1,2.592.944,3.724,3.724,0,0,1,.976,2.8V55h-2V50.36a2.4,2.4,0,0,0-.528-1.688,1.952,1.952,0,0,0-1.5-.568,2.309,2.309,0,0,0-1.744.664,2.647,2.647,0,0,0-.64,1.912V55h-2V43.128h2v4.32a3.253,3.253,0,0,1,1.224-.808A4.492,4.492,0,0,1,98.912,46.36Zm6.112.1h2V55h-2Zm1.008-1.408a1.285,1.285,0,0,1-.912-.344,1.18,1.18,0,0,1,0-1.712,1.285,1.285,0,0,1,.912-.344,1.321,1.321,0,0,1,.912.328,1.057,1.057,0,0,1,.368.824,1.207,1.207,0,0,1-.36.888A1.246,1.246,0,0,1,106.032,45.048Zm8.752,9.488a2.354,2.354,0,0,1-.856.432,3.855,3.855,0,0,1-1.064.144,3.019,3.019,0,0,1-2.176-.736,2.833,2.833,0,0,1-.768-2.144V48.12h-1.408v-1.6h1.408V44.568h2V46.52h2.288v1.6H111.92v4.064a1.352,1.352,0,0,0,.3.952,1.141,1.141,0,0,0,.88.328,1.757,1.757,0,0,0,1.12-.352Zm9.392-3.76q0,.208-.032.592h-6.7a2.324,2.324,0,0,0,.92,1.5,3.016,3.016,0,0,0,1.848.552,3.114,3.114,0,0,0,2.32-.928L123.6,53.72a3.612,3.612,0,0,1-1.456,1.04,5.77,5.77,0,0,1-4.464-.208,4.033,4.033,0,0,1-1.656-1.56,4.405,4.405,0,0,1-.584-2.264,4.471,4.471,0,0,1,.568-2.248,4.029,4.029,0,0,1,1.576-1.56,4.6,4.6,0,0,1,2.272-.56,4.483,4.483,0,0,1,2.232.552,3.909,3.909,0,0,1,1.536,1.552A4.706,4.706,0,0,1,124.176,50.776Zm-4.32-2.816a2.364,2.364,0,0,0-2.432,2.08h4.848a2.358,2.358,0,0,0-.784-1.5A2.384,2.384,0,0,0,119.856,47.96Zm10.16,7.152a5.009,5.009,0,0,1-2.384-.56,4.112,4.112,0,0,1-1.648-1.56,4.61,4.61,0,0,1,0-4.52,4.143,4.143,0,0,1,1.64-1.552,5,5,0,0,1,2.392-.56,4.608,4.608,0,0,1,2.216.512,3.322,3.322,0,0,1,1.432,1.472l-1.536.9a2.44,2.44,0,0,0-.92-.888,2.685,2.685,0,0,0-3.064.432,2.947,2.947,0,0,0-.008,3.888,2.7,2.7,0,0,0,3.072.432,2.44,2.44,0,0,0,.92-.888l1.536.9a3.462,3.462,0,0,1-1.448,1.48A4.516,4.516,0,0,1,130.016,55.112Zm10.624-.576a2.354,2.354,0,0,1-.856.432,3.855,3.855,0,0,1-1.064.144,3.019,3.019,0,0,1-2.176-.736,2.833,2.833,0,0,1-.768-2.144V48.12h-1.408v-1.6h1.408V44.568h2V46.52h2.288v1.6h-2.288v4.064a1.352,1.352,0,0,0,.3.952,1.141,1.141,0,0,0,.88.328,1.757,1.757,0,0,0,1.12-.352ZM17.872,83.8,14.16,95H11.952L9.184,86.712,6.368,95H4.144L.432,83.8h2.16l2.784,8.512,2.9-8.512h1.92l2.832,8.56,2.864-8.56ZM29.856,95l-.016-7.424L26.16,93.72h-.928l-3.68-6.048V95H19.568V83.8H21.28l4.448,7.424L30.1,83.8h1.712L31.824,95Zm9.408-11.2h4.9a7.026,7.026,0,0,1,3.184.7,5.151,5.151,0,0,1,2.16,1.968,6,6,0,0,1,0,5.872,5.151,5.151,0,0,1-2.16,1.968,7.026,7.026,0,0,1-3.184.7h-4.9Zm4.8,9.44a4.753,4.753,0,0,0,2.168-.472,3.377,3.377,0,0,0,1.44-1.344,4.316,4.316,0,0,0,0-4.048,3.377,3.377,0,0,0-1.44-1.344,4.753,4.753,0,0,0-2.168-.472h-2.72v7.68ZM60.32,90.776q0,.208-.032.592h-6.7a2.324,2.324,0,0,0,.92,1.5,3.016,3.016,0,0,0,1.848.552,3.114,3.114,0,0,0,2.32-.928l1.072,1.232a3.612,3.612,0,0,1-1.456,1.04,5.77,5.77,0,0,1-4.464-.208,4.033,4.033,0,0,1-1.656-1.56,4.406,4.406,0,0,1-.584-2.264,4.471,4.471,0,0,1,.568-2.248,4.029,4.029,0,0,1,1.576-1.56A4.6,4.6,0,0,1,56,86.36a4.483,4.483,0,0,1,2.232.552,3.909,3.909,0,0,1,1.536,1.552A4.706,4.706,0,0,1,60.32,90.776ZM56,87.96a2.364,2.364,0,0,0-2.432,2.08h4.848a2.358,2.358,0,0,0-.784-1.5A2.384,2.384,0,0,0,56,87.96Zm14.08-1.5L66.416,95H64.352l-3.664-8.544h2.08l2.656,6.336,2.736-6.336Zm9.04,4.32q0,.208-.032.592h-6.7a2.324,2.324,0,0,0,.92,1.5,3.016,3.016,0,0,0,1.848.552,3.114,3.114,0,0,0,2.32-.928l1.072,1.232a3.612,3.612,0,0,1-1.456,1.04,5.77,5.77,0,0,1-4.464-.208,4.033,4.033,0,0,1-1.656-1.56,4.405,4.405,0,0,1-.584-2.264,4.471,4.471,0,0,1,.568-2.248,4.029,4.029,0,0,1,1.576-1.56,4.6,4.6,0,0,1,2.272-.56,4.483,4.483,0,0,1,2.232.552,3.909,3.909,0,0,1,1.536,1.552A4.706,4.706,0,0,1,79.12,90.776ZM74.8,87.96a2.364,2.364,0,0,0-2.432,2.08h4.848a2.358,2.358,0,0,0-.784-1.5A2.384,2.384,0,0,0,74.8,87.96Zm6.24-4.832h2V95h-2ZM89.5,95.112a4.848,4.848,0,0,1-2.336-.56,4.083,4.083,0,0,1-1.624-1.56,4.665,4.665,0,0,1,0-4.52,4.1,4.1,0,0,1,1.624-1.552,5.186,5.186,0,0,1,4.688,0,4.1,4.1,0,0,1,1.624,1.552,4.665,4.665,0,0,1,0,4.52,4.083,4.083,0,0,1-1.624,1.56A4.881,4.881,0,0,1,89.5,95.112Zm0-1.712a2.444,2.444,0,0,0,1.824-.736,2.963,2.963,0,0,0,0-3.872,2.444,2.444,0,0,0-1.824-.736,2.417,2.417,0,0,0-1.816.736,2.988,2.988,0,0,0,0,3.872A2.417,2.417,0,0,0,89.5,93.4Zm11.216-7.04a4.535,4.535,0,0,1,2.232.544A3.923,3.923,0,0,1,104.5,88.44a4.97,4.97,0,0,1,0,4.584,3.909,3.909,0,0,1-1.544,1.544,4.535,4.535,0,0,1-2.232.544,3.449,3.449,0,0,1-2.736-1.152V98.1h-2V86.456h1.9v1.12a3.094,3.094,0,0,1,1.224-.912A4.133,4.133,0,0,1,100.72,86.36ZM100.5,93.4a2.417,2.417,0,0,0,1.816-.736,2.988,2.988,0,0,0,0-3.872,2.417,2.417,0,0,0-1.816-.736,2.572,2.572,0,0,0-1.3.328,2.37,2.37,0,0,0-.912.936,3.118,3.118,0,0,0,0,2.816,2.37,2.37,0,0,0,.912.936A2.572,2.572,0,0,0,100.5,93.4Zm14.5-2.624q0,.208-.032.592h-6.7a2.324,2.324,0,0,0,.92,1.5,3.016,3.016,0,0,0,1.848.552,3.114,3.114,0,0,0,2.32-.928l1.072,1.232a3.612,3.612,0,0,1-1.456,1.04,5.77,5.77,0,0,1-4.464-.208,4.033,4.033,0,0,1-1.656-1.56,4.405,4.405,0,0,1-.584-2.264,4.471,4.471,0,0,1,.568-2.248,4.029,4.029,0,0,1,1.576-1.56,4.6,4.6,0,0,1,2.272-.56,4.483,4.483,0,0,1,2.232.552,3.909,3.909,0,0,1,1.536,1.552A4.706,4.706,0,0,1,114.992,90.776Zm-4.32-2.816a2.364,2.364,0,0,0-2.432,2.08h4.848a2.358,2.358,0,0,0-.784-1.5A2.384,2.384,0,0,0,110.672,87.96Zm8.144-.256a3.332,3.332,0,0,1,3.04-1.344v1.9a2.539,2.539,0,0,0-.464-.048,2.416,2.416,0,0,0-1.824.68,2.712,2.712,0,0,0-.656,1.96V95h-2V86.456h1.9Zm7.408,7.408a7.65,7.65,0,0,1-2.032-.272,5.113,5.113,0,0,1-1.584-.688l.768-1.52a4.938,4.938,0,0,0,1.384.616,5.75,5.75,0,0,0,1.592.232q1.792,0,1.792-.944a.631.631,0,0,0-.456-.624,7.873,7.873,0,0,0-1.464-.336,11.878,11.878,0,0,1-1.72-.368,2.64,2.64,0,0,1-1.152-.728,2.033,2.033,0,0,1-.488-1.448,2.276,2.276,0,0,1,1.016-1.944,4.624,4.624,0,0,1,2.744-.728,7.919,7.919,0,0,1,1.76.2,4.935,4.935,0,0,1,1.44.536l-.768,1.52a4.737,4.737,0,0,0-2.448-.64,2.713,2.713,0,0,0-1.336.264.788.788,0,0,0-.456.7.7.7,0,0,0,.488.68,7.755,7.755,0,0,0,1.512.376,11.667,11.667,0,0,1,1.68.368,2.629,2.629,0,0,1,1.128.7,1.962,1.962,0,0,1,.472,1.408,2.228,2.228,0,0,1-1.04,1.92A4.9,4.9,0,0,1,126.224,95.112ZM17.872,123.8,14.16,135H11.952l-2.768-8.288L6.368,135H4.144L.432,123.8h2.16l2.784,8.512,2.9-8.512h1.92l2.832,8.56,2.864-8.56ZM29.856,135l-.016-7.424-3.68,6.144h-.928l-3.68-6.048V135H19.568V123.8H21.28l4.448,7.424L30.1,123.8h1.712l.016,11.2Zm14.224.16a4.871,4.871,0,0,1-3.616-1.3,5.074,5.074,0,0,1-1.3-3.736V123.8h2.08v6.24q0,3.3,2.848,3.3,2.832,0,2.832-3.3V123.8h2.048v6.32a5.093,5.093,0,0,1-1.288,3.736A4.843,4.843,0,0,1,44.08,135.16Zm7.808-11.36h2.08V135h-2.08Zm9.52,0h4.9a7.026,7.026,0,0,1,3.184.7,5.151,5.151,0,0,1,2.16,1.968,6,6,0,0,1,0,5.872,5.151,5.151,0,0,1-2.16,1.968,7.026,7.026,0,0,1-3.184.7h-4.9Zm4.8,9.44a4.753,4.753,0,0,0,2.168-.472,3.377,3.377,0,0,0,1.44-1.344,4.316,4.316,0,0,0,0-4.048,3.377,3.377,0,0,0-1.44-1.344,4.753,4.753,0,0,0-2.168-.472h-2.72v7.68Zm16.256-2.464q0,.208-.032.592h-6.7a2.324,2.324,0,0,0,.92,1.5,3.016,3.016,0,0,0,1.848.552,3.114,3.114,0,0,0,2.32-.928l1.072,1.232a3.612,3.612,0,0,1-1.456,1.04,5.77,5.77,0,0,1-4.464-.208,4.033,4.033,0,0,1-1.656-1.56,4.406,4.406,0,0,1-.584-2.264,4.471,4.471,0,0,1,.568-2.248,4.029,4.029,0,0,1,1.576-1.56,4.6,4.6,0,0,1,2.272-.56,4.483,4.483,0,0,1,2.232.552,3.909,3.909,0,0,1,1.536,1.552A4.706,4.706,0,0,1,82.464,130.776Zm-4.32-2.816a2.364,2.364,0,0,0-2.432,2.08H80.56a2.358,2.358,0,0,0-.784-1.5A2.384,2.384,0,0,0,78.144,127.96Zm14.08-1.5L88.56,135H86.5l-3.664-8.544h2.08l2.656,6.336,2.736-6.336Zm9.04,4.32q0,.208-.032.592h-6.7a2.324,2.324,0,0,0,.92,1.5,3.016,3.016,0,0,0,1.848.552,3.114,3.114,0,0,0,2.32-.928l1.072,1.232a3.612,3.612,0,0,1-1.456,1.04,5.77,5.77,0,0,1-4.464-.208,4.033,4.033,0,0,1-1.656-1.56,4.406,4.406,0,0,1-.584-2.264,4.471,4.471,0,0,1,.568-2.248,4.029,4.029,0,0,1,1.576-1.56,4.6,4.6,0,0,1,2.272-.56,4.483,4.483,0,0,1,2.232.552,3.909,3.909,0,0,1,1.536,1.552A4.706,4.706,0,0,1,101.264,130.776Zm-4.32-2.816a2.364,2.364,0,0,0-2.432,2.08H99.36a2.358,2.358,0,0,0-.784-1.5A2.384,2.384,0,0,0,96.944,127.96Zm6.24-4.832h2V135h-2Zm8.464,11.984a4.848,4.848,0,0,1-2.336-.56,4.083,4.083,0,0,1-1.624-1.56,4.665,4.665,0,0,1,0-4.52,4.1,4.1,0,0,1,1.624-1.552,5.186,5.186,0,0,1,4.688,0,4.1,4.1,0,0,1,1.624,1.552,4.665,4.665,0,0,1,0,4.52,4.083,4.083,0,0,1-1.624,1.56A4.881,4.881,0,0,1,111.648,135.112Zm0-1.712a2.444,2.444,0,0,0,1.824-.736,2.963,2.963,0,0,0,0-3.872,2.444,2.444,0,0,0-1.824-.736,2.417,2.417,0,0,0-1.816.736,2.988,2.988,0,0,0,0,3.872A2.417,2.417,0,0,0,111.648,133.4Zm11.216-7.04a4.535,4.535,0,0,1,2.232.544,3.923,3.923,0,0,1,1.544,1.536,4.97,4.97,0,0,1,0,4.584,3.909,3.909,0,0,1-1.544,1.544,4.535,4.535,0,0,1-2.232.544,3.449,3.449,0,0,1-2.736-1.152V138.1h-2V126.456h1.9v1.12a3.094,3.094,0,0,1,1.224-.912A4.133,4.133,0,0,1,122.864,126.36Zm-.224,7.04a2.417,2.417,0,0,0,1.816-.736,2.988,2.988,0,0,0,0-3.872,2.417,2.417,0,0,0-1.816-.736,2.572,2.572,0,0,0-1.3.328,2.371,2.371,0,0,0-.912.936,3.118,3.118,0,0,0,0,2.816,2.371,2.371,0,0,0,.912.936A2.572,2.572,0,0,0,122.64,133.4Zm14.5-2.624q0,.208-.032.592h-6.7a2.324,2.324,0,0,0,.92,1.5,3.016,3.016,0,0,0,1.848.552,3.114,3.114,0,0,0,2.32-.928l1.072,1.232a3.612,3.612,0,0,1-1.456,1.04,5.77,5.77,0,0,1-4.464-.208,4.033,4.033,0,0,1-1.656-1.56,4.406,4.406,0,0,1-.584-2.264,4.471,4.471,0,0,1,.568-2.248,4.029,4.029,0,0,1,1.576-1.56,4.6,4.6,0,0,1,2.272-.56,4.483,4.483,0,0,1,2.232.552,3.909,3.909,0,0,1,1.536,1.552A4.706,4.706,0,0,1,137.136,130.776Zm-4.32-2.816a2.364,2.364,0,0,0-2.432,2.08h4.848a2.358,2.358,0,0,0-.784-1.5A2.384,2.384,0,0,0,132.816,127.96Zm8.144-.256A3.332,3.332,0,0,1,144,126.36v1.9a2.539,2.539,0,0,0-.464-.048,2.416,2.416,0,0,0-1.824.68,2.712,2.712,0,0,0-.656,1.96V135h-2v-8.544h1.9Zm7.408,7.408a7.649,7.649,0,0,1-2.032-.272,5.113,5.113,0,0,1-1.584-.688l.768-1.52a4.937,4.937,0,0,0,1.384.616,5.75,5.75,0,0,0,1.592.232q1.792,0,1.792-.944a.631.631,0,0,0-.456-.624,7.872,7.872,0,0,0-1.464-.336,11.878,11.878,0,0,1-1.72-.368,2.64,2.64,0,0,1-1.152-.728,2.033,2.033,0,0,1-.488-1.448,2.276,2.276,0,0,1,1.016-1.944,4.624,4.624,0,0,1,2.744-.728,7.919,7.919,0,0,1,1.76.2,4.935,4.935,0,0,1,1.44.536l-.768,1.52a4.737,4.737,0,0,0-2.448-.64,2.713,2.713,0,0,0-1.336.264.788.788,0,0,0-.456.7.7.7,0,0,0,.488.68,7.756,7.756,0,0,0,1.512.376,11.665,11.665,0,0,1,1.68.368,2.629,2.629,0,0,1,1.128.7,1.962,1.962,0,0,1,.472,1.408,2.228,2.228,0,0,1-1.04,1.92A4.9,4.9,0,0,1,148.368,135.112Zm12,2.992a11.549,11.549,0,0,1-1.448-3.376,17.059,17.059,0,0,1,0-8.232,11.316,11.316,0,0,1,1.448-3.368h1.9a14.187,14.187,0,0,0-1.432,3.56,17.146,17.146,0,0,0,0,7.856,14.187,14.187,0,0,0,1.432,3.56Zm5.872-12.544h-3.712V123.8h9.5v1.76H168.32V135h-2.08Zm12.016.8a3.57,3.57,0,0,1,2.592.944,3.724,3.724,0,0,1,.976,2.8V135h-2v-4.64a2.4,2.4,0,0,0-.528-1.688,1.952,1.952,0,0,0-1.5-.568,2.309,2.309,0,0,0-1.744.664,2.647,2.647,0,0,0-.64,1.912V135h-2V123.128h2v4.32a3.253,3.253,0,0,1,1.224-.808A4.492,4.492,0,0,1,178.256,126.36Zm14.224,4.416q0,.208-.032.592h-6.7a2.324,2.324,0,0,0,.92,1.5,3.016,3.016,0,0,0,1.848.552,3.114,3.114,0,0,0,2.32-.928l1.072,1.232a3.612,3.612,0,0,1-1.456,1.04,5.77,5.77,0,0,1-4.464-.208,4.033,4.033,0,0,1-1.656-1.56,4.406,4.406,0,0,1-.584-2.264,4.471,4.471,0,0,1,.568-2.248,4.029,4.029,0,0,1,1.576-1.56,4.6,4.6,0,0,1,2.272-.56,4.483,4.483,0,0,1,2.232.552,3.909,3.909,0,0,1,1.536,1.552A4.706,4.706,0,0,1,192.48,130.776Zm-4.32-2.816a2.364,2.364,0,0,0-2.432,2.08h4.848a2.358,2.358,0,0,0-.784-1.5A2.384,2.384,0,0,0,188.16,127.96Zm17.024-1.6a3.476,3.476,0,0,1,2.56.936,3.794,3.794,0,0,1,.944,2.808V135h-2v-4.64a2.5,2.5,0,0,0-.5-1.688,1.789,1.789,0,0,0-1.424-.568,2.086,2.086,0,0,0-1.616.664,2.709,2.709,0,0,0-.608,1.9V135h-2v-4.64a2.5,2.5,0,0,0-.5-1.688,1.789,1.789,0,0,0-1.424-.568,2.092,2.092,0,0,0-1.624.656,2.727,2.727,0,0,0-.6,1.9V135h-2v-8.544h1.9v1.088a3.11,3.11,0,0,1,1.2-.88,4.074,4.074,0,0,1,1.6-.3,3.865,3.865,0,0,1,1.7.36,2.766,2.766,0,0,1,1.176,1.064,3.561,3.561,0,0,1,1.36-1.048A4.417,4.417,0,0,1,205.184,126.36Zm14.176,4.416q0,.208-.032.592h-6.7a2.324,2.324,0,0,0,.92,1.5,3.016,3.016,0,0,0,1.848.552,3.114,3.114,0,0,0,2.32-.928l1.072,1.232a3.612,3.612,0,0,1-1.456,1.04,5.77,5.77,0,0,1-4.464-.208,4.033,4.033,0,0,1-1.656-1.56,4.406,4.406,0,0,1-.584-2.264,4.471,4.471,0,0,1,.568-2.248,4.029,4.029,0,0,1,1.576-1.56,4.6,4.6,0,0,1,2.272-.56,4.483,4.483,0,0,1,2.232.552,3.909,3.909,0,0,1,1.536,1.552A4.706,4.706,0,0,1,219.36,130.776Zm-4.32-2.816a2.364,2.364,0,0,0-2.432,2.08h4.848a2.358,2.358,0,0,0-.784-1.5A2.384,2.384,0,0,0,215.04,127.96Zm5.28,10.144a14.389,14.389,0,0,0,1.44-3.568,16.791,16.791,0,0,0,0-7.84,14.389,14.389,0,0,0-1.44-3.568h1.9a11.1,11.1,0,0,1,1.448,3.352,16.306,16.306,0,0,1,.5,4.136,16.119,16.119,0,0,1-.5,4.12,11.561,11.561,0,0,1-1.448,3.368ZM13.328,176.12a3.712,3.712,0,0,1-1.3.992,3.9,3.9,0,0,1-1.624.336,4.362,4.362,0,0,1-2.112-.52,9.608,9.608,0,0,1-2.192-1.8,6.078,6.078,0,0,1-2.784-.9,5.48,5.48,0,0,1-1.92-2.032,5.978,5.978,0,0,1,.1-5.744,5.51,5.51,0,0,1,2.16-2.064,6.387,6.387,0,0,1,3.088-.744,6.387,6.387,0,0,1,3.088.744,5.527,5.527,0,0,1,2.16,2.056,5.659,5.659,0,0,1,.784,2.96,5.721,5.721,0,0,1-.528,2.456,5.541,5.541,0,0,1-1.472,1.92,5.825,5.825,0,0,1-2.192,1.144,3.322,3.322,0,0,0,.912.72,2.117,2.117,0,0,0,.96.224,2.519,2.519,0,0,0,1.92-.9ZM2.8,169.4a4.034,4.034,0,0,0,.512,2.024,3.645,3.645,0,0,0,1.408,1.408,4.04,4.04,0,0,0,2.016.5,4.04,4.04,0,0,0,2.016-.5,3.645,3.645,0,0,0,1.408-1.408,4.257,4.257,0,0,0,0-4.048,3.645,3.645,0,0,0-1.408-1.408,4.04,4.04,0,0,0-2.016-.5,4.04,4.04,0,0,0-2.016.5,3.645,3.645,0,0,0-1.408,1.408A4.034,4.034,0,0,0,2.8,169.4Zm19.28,3.008h-5.6L15.376,175H13.232l5.04-11.2H20.32L25.376,175H23.2Zm-.688-1.632-2.112-4.9-2.1,4.9ZM33.008,178.1a11.549,11.549,0,0,1-1.448-3.376,17.059,17.059,0,0,1,0-8.232,11.316,11.316,0,0,1,1.448-3.368h1.9a14.187,14.187,0,0,0-1.432,3.56,17.146,17.146,0,0,0,0,7.856,14.187,14.187,0,0,0,1.432,3.56Zm3.568-11.648h2V175h-2Zm1.008-1.408a1.285,1.285,0,0,1-.912-.344,1.18,1.18,0,0,1,0-1.712,1.285,1.285,0,0,1,.912-.344,1.321,1.321,0,0,1,.912.328,1.057,1.057,0,0,1,.368.824,1.207,1.207,0,0,1-.36.888A1.246,1.246,0,0,1,37.584,165.048Zm8.464,1.312a3.57,3.57,0,0,1,2.592.944,3.724,3.724,0,0,1,.976,2.8V175h-2v-4.64a2.4,2.4,0,0,0-.528-1.688,1.952,1.952,0,0,0-1.5-.568,2.309,2.309,0,0,0-1.744.664,2.647,2.647,0,0,0-.64,1.912V175h-2v-8.544h1.9v1.1a3.127,3.127,0,0,1,1.248-.9A4.491,4.491,0,0,1,46.048,166.36Zm13.168,8.752a7.65,7.65,0,0,1-2.032-.272,5.113,5.113,0,0,1-1.584-.688l.768-1.52a4.938,4.938,0,0,0,1.384.616,5.75,5.75,0,0,0,1.592.232q1.792,0,1.792-.944a.631.631,0,0,0-.456-.624,7.872,7.872,0,0,0-1.464-.336,11.878,11.878,0,0,1-1.72-.368,2.64,2.64,0,0,1-1.152-.728,2.033,2.033,0,0,1-.488-1.448,2.276,2.276,0,0,1,1.016-1.944,4.624,4.624,0,0,1,2.744-.728,7.919,7.919,0,0,1,1.76.2,4.934,4.934,0,0,1,1.44.536l-.768,1.52a4.737,4.737,0,0,0-2.448-.64,2.713,2.713,0,0,0-1.336.264.788.788,0,0,0-.456.7.7.7,0,0,0,.488.68,7.756,7.756,0,0,0,1.512.376,11.665,11.665,0,0,1,1.68.368,2.629,2.629,0,0,1,1.128.7,1.962,1.962,0,0,1,.472,1.408,2.228,2.228,0,0,1-1.04,1.92A4.9,4.9,0,0,1,59.216,175.112Zm10.336-8.752a4.535,4.535,0,0,1,2.232.544,3.923,3.923,0,0,1,1.544,1.536,4.97,4.97,0,0,1,0,4.584,3.909,3.909,0,0,1-1.544,1.544,4.535,4.535,0,0,1-2.232.544,3.449,3.449,0,0,1-2.736-1.152V178.1h-2V166.456h1.9v1.12a3.094,3.094,0,0,1,1.224-.912A4.133,4.133,0,0,1,69.552,166.36Zm-.224,7.04a2.417,2.417,0,0,0,1.816-.736,2.988,2.988,0,0,0,0-3.872,2.417,2.417,0,0,0-1.816-.736,2.572,2.572,0,0,0-1.3.328,2.37,2.37,0,0,0-.912.936,3.118,3.118,0,0,0,0,2.816,2.37,2.37,0,0,0,.912.936A2.572,2.572,0,0,0,69.328,173.4Zm8.368-5.7a3.332,3.332,0,0,1,3.04-1.344v1.9a2.539,2.539,0,0,0-.464-.048,2.416,2.416,0,0,0-1.824.68,2.712,2.712,0,0,0-.656,1.96V175h-2v-8.544h1.9Zm4.736-1.248h2V175h-2Zm1.008-1.408a1.285,1.285,0,0,1-.912-.344,1.18,1.18,0,0,1,0-1.712,1.285,1.285,0,0,1,.912-.344,1.321,1.321,0,0,1,.912.328,1.057,1.057,0,0,1,.368.824,1.207,1.207,0,0,1-.36.888A1.246,1.246,0,0,1,83.44,165.048ZM91.9,166.36a3.57,3.57,0,0,1,2.592.944,3.724,3.724,0,0,1,.976,2.8V175h-2v-4.64a2.4,2.4,0,0,0-.528-1.688,1.952,1.952,0,0,0-1.5-.568,2.309,2.309,0,0,0-1.744.664,2.647,2.647,0,0,0-.64,1.912V175h-2v-8.544h1.9v1.1a3.127,3.127,0,0,1,1.248-.9A4.491,4.491,0,0,1,91.9,166.36Zm11.248,8.176a2.354,2.354,0,0,1-.856.432,3.855,3.855,0,0,1-1.064.144,3.019,3.019,0,0,1-2.176-.736,2.833,2.833,0,0,1-.768-2.144V168.12H96.88v-1.6h1.408v-1.952h2v1.952h2.288v1.6h-2.288v4.064a1.352,1.352,0,0,0,.3.952,1.141,1.141,0,0,0,.88.328,1.757,1.757,0,0,0,1.12-.352Zm11.2,0a2.354,2.354,0,0,1-.856.432,3.855,3.855,0,0,1-1.064.144,3.019,3.019,0,0,1-2.176-.736,2.833,2.833,0,0,1-.768-2.144V168.12H108.08v-1.6h1.408v-1.952h2v1.952h2.288v1.6h-2.288v4.064a1.352,1.352,0,0,0,.3.952,1.141,1.141,0,0,0,.88.328,1.757,1.757,0,0,0,1.12-.352Zm9.392-3.76q0,.208-.032.592h-6.7a2.324,2.324,0,0,0,.92,1.5,3.016,3.016,0,0,0,1.848.552,3.114,3.114,0,0,0,2.32-.928l1.072,1.232a3.612,3.612,0,0,1-1.456,1.04,5.77,5.77,0,0,1-4.464-.208,4.033,4.033,0,0,1-1.656-1.56,4.406,4.406,0,0,1-.584-2.264,4.471,4.471,0,0,1,.568-2.248,4.029,4.029,0,0,1,1.576-1.56,4.6,4.6,0,0,1,2.272-.56,4.483,4.483,0,0,1,2.232.552,3.909,3.909,0,0,1,1.536,1.552A4.706,4.706,0,0,1,123.744,170.776Zm-4.32-2.816a2.364,2.364,0,0,0-2.432,2.08h4.848a2.358,2.358,0,0,0-.784-1.5A2.384,2.384,0,0,0,119.424,167.96Zm8.88,7.152a7.65,7.65,0,0,1-2.032-.272,5.113,5.113,0,0,1-1.584-.688l.768-1.52a4.938,4.938,0,0,0,1.384.616,5.75,5.75,0,0,0,1.592.232q1.792,0,1.792-.944a.631.631,0,0,0-.456-.624,7.872,7.872,0,0,0-1.464-.336,11.878,11.878,0,0,1-1.72-.368,2.64,2.64,0,0,1-1.152-.728,2.033,2.033,0,0,1-.488-1.448,2.276,2.276,0,0,1,1.016-1.944,4.624,4.624,0,0,1,2.744-.728,7.919,7.919,0,0,1,1.76.2,4.934,4.934,0,0,1,1.44.536l-.768,1.52a4.737,4.737,0,0,0-2.448-.64,2.713,2.713,0,0,0-1.336.264.788.788,0,0,0-.456.7.7.7,0,0,0,.488.68,7.756,7.756,0,0,0,1.512.376,11.665,11.665,0,0,1,1.68.368,2.629,2.629,0,0,1,1.128.7,1.962,1.962,0,0,1,.472,1.408,2.228,2.228,0,0,1-1.04,1.92A4.9,4.9,0,0,1,128.3,175.112Zm10.736-.576a2.354,2.354,0,0,1-.856.432,3.855,3.855,0,0,1-1.064.144,3.019,3.019,0,0,1-2.176-.736,2.833,2.833,0,0,1-.768-2.144V168.12h-1.408v-1.6h1.408v-1.952h2v1.952h2.288v1.6h-2.288v4.064a1.352,1.352,0,0,0,.3.952,1.141,1.141,0,0,0,.88.328,1.757,1.757,0,0,0,1.12-.352Zm1.648-8.08h2V175h-2Zm1.008-1.408a1.285,1.285,0,0,1-.912-.344,1.18,1.18,0,0,1,0-1.712,1.285,1.285,0,0,1,.912-.344,1.321,1.321,0,0,1,.912.328,1.057,1.057,0,0,1,.368.824,1.207,1.207,0,0,1-.36.888A1.246,1.246,0,0,1,141.7,165.048Zm8.464,1.312a3.57,3.57,0,0,1,2.592.944,3.724,3.724,0,0,1,.976,2.8V175h-2v-4.64a2.4,2.4,0,0,0-.528-1.688,1.952,1.952,0,0,0-1.5-.568,2.309,2.309,0,0,0-1.744.664,2.647,2.647,0,0,0-.64,1.912V175h-2v-8.544h1.9v1.1a3.127,3.127,0,0,1,1.248-.9A4.491,4.491,0,0,1,150.16,166.36Zm14.672.1V173.7q0,4.512-4.608,4.512a8.552,8.552,0,0,1-2.336-.312,4.956,4.956,0,0,1-1.824-.9l.9-1.5a4.281,4.281,0,0,0,1.416.744,5.552,5.552,0,0,0,1.736.28,2.865,2.865,0,0,0,2.064-.64,2.616,2.616,0,0,0,.656-1.952v-.448a3.288,3.288,0,0,1-1.248.848,4.4,4.4,0,0,1-1.616.288,4.635,4.635,0,0,1-2.2-.52,3.907,3.907,0,0,1-1.552-1.464,4.107,4.107,0,0,1-.568-2.16,4.065,4.065,0,0,1,.568-2.152,3.868,3.868,0,0,1,1.552-1.448,4.694,4.694,0,0,1,2.2-.512,4.508,4.508,0,0,1,1.688.3,3.114,3.114,0,0,1,1.272.928v-1.136Zm-4.56,6.464a2.622,2.622,0,0,0,1.864-.68,2.308,2.308,0,0,0,.728-1.768,2.264,2.264,0,0,0-.728-1.744,2.943,2.943,0,0,0-3.744,0,2.264,2.264,0,0,0-.728,1.744,2.308,2.308,0,0,0,.728,1.768A2.644,2.644,0,0,0,160.272,172.92ZM166.5,178.1a14.389,14.389,0,0,0,1.44-3.568,16.791,16.791,0,0,0,0-7.84,14.388,14.388,0,0,0-1.44-3.568h1.9a11.1,11.1,0,0,1,1.448,3.352,16.306,16.306,0,0,1,.5,4.136,16.119,16.119,0,0,1-.5,4.12A11.561,11.561,0,0,1,168.4,178.1ZM17.872,203.8,14.16,215H11.952l-2.768-8.288L6.368,215H4.144L.432,203.8h2.16l2.784,8.512,2.9-8.512h1.92l2.832,8.56,2.864-8.56ZM29.856,215l-.016-7.424-3.68,6.144h-.928l-3.68-6.048V215H19.568V203.8H21.28l4.448,7.424L30.1,203.8h1.712l.016,11.2Zm14.016-11.2a6.2,6.2,0,0,1,2.536.48,3.687,3.687,0,0,1,1.656,1.376,4.2,4.2,0,0,1,0,4.248,3.67,3.67,0,0,1-1.656,1.384,6.2,6.2,0,0,1-2.536.48H41.344V215h-2.08V203.8Zm-.1,6.208a3.2,3.2,0,0,0,2.064-.576,2.281,2.281,0,0,0,0-3.3,3.2,3.2,0,0,0-2.064-.576H41.344v4.448Zm6.912-6.88h2V215h-2Zm7.888,3.232a4.166,4.166,0,0,1,2.888.9,3.494,3.494,0,0,1,1,2.728V215H60.576v-1.04a2.327,2.327,0,0,1-1.048.856,4.1,4.1,0,0,1-1.64.3,4.018,4.018,0,0,1-1.68-.328,2.6,2.6,0,0,1-1.112-.912,2.314,2.314,0,0,1-.392-1.32,2.262,2.262,0,0,1,.856-1.848,4.251,4.251,0,0,1,2.7-.7h2.208v-.128a1.751,1.751,0,0,0-.536-1.376,2.319,2.319,0,0,0-1.592-.48,4.6,4.6,0,0,0-1.416.224,3.479,3.479,0,0,0-1.176.624l-.784-1.456a4.855,4.855,0,0,1,1.616-.784A7.19,7.19,0,0,1,58.576,206.36Zm-.272,7.3a2.582,2.582,0,0,0,1.336-.344,1.872,1.872,0,0,0,.824-.984v-.992H58.4q-1.728,0-1.728,1.136a1.02,1.02,0,0,0,.432.864A1.98,1.98,0,0,0,58.3,213.656Zm11.856.88a2.354,2.354,0,0,1-.856.432,3.855,3.855,0,0,1-1.064.144,3.019,3.019,0,0,1-2.176-.736,2.833,2.833,0,0,1-.768-2.144V208.12H63.888v-1.6H65.3v-1.952h2v1.952h2.288v1.6H67.3v4.064a1.352,1.352,0,0,0,.3.952,1.141,1.141,0,0,0,.88.328,1.757,1.757,0,0,0,1.12-.352Zm5.12-9.9q-1.264,0-1.264,1.376v.512h2.352v1.6H74.08V215h-2v-6.88H70.672v-1.6H72.08v-.544a2.913,2.913,0,0,1,.8-2.168,3.671,3.671,0,0,1,4.064-.328l-.56,1.5A1.911,1.911,0,0,0,75.28,204.632Zm6.144,10.48a4.848,4.848,0,0,1-2.336-.56,4.083,4.083,0,0,1-1.624-1.56,4.665,4.665,0,0,1,0-4.52,4.1,4.1,0,0,1,1.624-1.552,5.186,5.186,0,0,1,4.688,0,4.1,4.1,0,0,1,1.624,1.552,4.665,4.665,0,0,1,0,4.52,4.083,4.083,0,0,1-1.624,1.56A4.881,4.881,0,0,1,81.424,215.112Zm0-1.712a2.444,2.444,0,0,0,1.824-.736,2.963,2.963,0,0,0,0-3.872,2.444,2.444,0,0,0-1.824-.736,2.417,2.417,0,0,0-1.816.736,2.988,2.988,0,0,0,0,3.872A2.417,2.417,0,0,0,81.424,213.4Zm8.384-5.7a3.332,3.332,0,0,1,3.04-1.344v1.9a2.539,2.539,0,0,0-.464-.048,2.416,2.416,0,0,0-1.824.68,2.712,2.712,0,0,0-.656,1.96V215h-2v-8.544h1.9Zm15.52-1.344a3.476,3.476,0,0,1,2.56.936,3.794,3.794,0,0,1,.944,2.808V215h-2v-4.64a2.5,2.5,0,0,0-.5-1.688,1.789,1.789,0,0,0-1.424-.568,2.086,2.086,0,0,0-1.616.664,2.709,2.709,0,0,0-.608,1.9V215h-2v-4.64a2.5,2.5,0,0,0-.5-1.688,1.789,1.789,0,0,0-1.424-.568,2.092,2.092,0,0,0-1.624.656,2.727,2.727,0,0,0-.6,1.9V215h-2v-8.544h1.9v1.088a3.11,3.11,0,0,1,1.2-.88,4.074,4.074,0,0,1,1.6-.3,3.865,3.865,0,0,1,1.7.36,2.766,2.766,0,0,1,1.176,1.064,3.561,3.561,0,0,1,1.36-1.048A4.417,4.417,0,0,1,105.328,206.36Zm17.936,6.048h-5.6L116.56,215h-2.144l5.04-11.2H121.5L126.56,215h-2.176Zm-.688-1.632-2.112-4.9-2.1,4.9Zm7.12-3.072a3.333,3.333,0,0,1,3.04-1.344v1.9a2.539,2.539,0,0,0-.464-.048,2.416,2.416,0,0,0-1.824.68,2.712,2.712,0,0,0-.656,1.96V215h-2v-8.544h1.9Zm8.576,7.408a5.009,5.009,0,0,1-2.384-.56,4.112,4.112,0,0,1-1.648-1.56,4.61,4.61,0,0,1,0-4.52,4.143,4.143,0,0,1,1.64-1.552,5,5,0,0,1,2.392-.56,4.608,4.608,0,0,1,2.216.512,3.322,3.322,0,0,1,1.432,1.472l-1.536.9a2.44,2.44,0,0,0-.92-.888,2.685,2.685,0,0,0-3.064.432,2.947,2.947,0,0,0-.008,3.888,2.7,2.7,0,0,0,3.072.432,2.44,2.44,0,0,0,.92-.888l1.536.9a3.462,3.462,0,0,1-1.448,1.48A4.516,4.516,0,0,1,138.272,215.112Zm10.144-8.752a3.57,3.57,0,0,1,2.592.944,3.724,3.724,0,0,1,.976,2.8V215h-2v-4.64a2.4,2.4,0,0,0-.528-1.688,1.952,1.952,0,0,0-1.5-.568,2.309,2.309,0,0,0-1.744.664,2.647,2.647,0,0,0-.64,1.912V215h-2V203.128h2v4.32a3.253,3.253,0,0,1,1.224-.808A4.492,4.492,0,0,1,148.416,206.36Zm6.112.1h2V215h-2Zm1.008-1.408a1.285,1.285,0,0,1-.912-.344,1.18,1.18,0,0,1,0-1.712,1.285,1.285,0,0,1,.912-.344,1.321,1.321,0,0,1,.912.328,1.057,1.057,0,0,1,.368.824,1.207,1.207,0,0,1-.36.888A1.246,1.246,0,0,1,155.536,205.048Zm8.752,9.488a2.354,2.354,0,0,1-.856.432,3.855,3.855,0,0,1-1.064.144,3.019,3.019,0,0,1-2.176-.736,2.833,2.833,0,0,1-.768-2.144V208.12h-1.408v-1.6h1.408v-1.952h2v1.952h2.288v1.6h-2.288v4.064a1.352,1.352,0,0,0,.3.952,1.141,1.141,0,0,0,.88.328,1.757,1.757,0,0,0,1.12-.352Zm9.392-3.76q0,.208-.032.592h-6.7a2.324,2.324,0,0,0,.92,1.5,3.016,3.016,0,0,0,1.848.552,3.114,3.114,0,0,0,2.32-.928l1.072,1.232a3.612,3.612,0,0,1-1.456,1.04,5.77,5.77,0,0,1-4.464-.208,4.033,4.033,0,0,1-1.656-1.56,4.406,4.406,0,0,1-.584-2.264,4.471,4.471,0,0,1,.568-2.248,4.029,4.029,0,0,1,1.576-1.56,4.6,4.6,0,0,1,2.272-.56,4.483,4.483,0,0,1,2.232.552,3.909,3.909,0,0,1,1.536,1.552A4.706,4.706,0,0,1,173.68,210.776Zm-4.32-2.816a2.364,2.364,0,0,0-2.432,2.08h4.848a2.358,2.358,0,0,0-.784-1.5A2.384,2.384,0,0,0,169.36,207.96Zm10.16,7.152a5.009,5.009,0,0,1-2.384-.56,4.112,4.112,0,0,1-1.648-1.56,4.61,4.61,0,0,1,0-4.52,4.143,4.143,0,0,1,1.64-1.552,5,5,0,0,1,2.392-.56,4.608,4.608,0,0,1,2.216.512,3.322,3.322,0,0,1,1.432,1.472l-1.536.9a2.44,2.44,0,0,0-.92-.888,2.685,2.685,0,0,0-3.064.432,2.947,2.947,0,0,0-.008,3.888,2.7,2.7,0,0,0,3.072.432,2.44,2.44,0,0,0,.92-.888l1.536.9a3.462,3.462,0,0,1-1.448,1.48A4.516,4.516,0,0,1,179.52,215.112Zm10.624-.576a2.354,2.354,0,0,1-.856.432,3.855,3.855,0,0,1-1.064.144,3.019,3.019,0,0,1-2.176-.736,2.833,2.833,0,0,1-.768-2.144V208.12h-1.408v-1.6h1.408v-1.952h2v1.952h2.288v1.6H187.28v4.064a1.352,1.352,0,0,0,.3.952,1.141,1.141,0,0,0,.88.328,1.757,1.757,0,0,0,1.12-.352ZM17.872,243.8,14.16,255H11.952l-2.768-8.288L6.368,255H4.144L.432,243.8h2.16l2.784,8.512,2.9-8.512h1.92l2.832,8.56,2.864-8.56ZM29.856,255l-.016-7.424-3.68,6.144h-.928l-3.68-6.048V255H19.568V243.8H21.28l4.448,7.424L30.1,243.8h1.712l.016,11.2Zm14.224.16a4.871,4.871,0,0,1-3.616-1.3,5.074,5.074,0,0,1-1.3-3.736V243.8h2.08v6.24q0,3.3,2.848,3.3,2.832,0,2.832-3.3V243.8h2.048v6.32a5.093,5.093,0,0,1-1.288,3.736A4.843,4.843,0,0,1,44.08,255.16Zm14.7-.16-3.04-4.256L52.736,255H50.368l4.16-5.712L50.592,243.8h2.352l2.864,3.984L58.64,243.8H60.9l-3.92,5.408L61.184,255Zm8.448-11.2h2.08v9.44h5.856V255H67.232Zm17.344,6.976q0,.208-.032.592h-6.7a2.324,2.324,0,0,0,.92,1.5,3.016,3.016,0,0,0,1.848.552,3.114,3.114,0,0,0,2.32-.928L84,253.72a3.612,3.612,0,0,1-1.456,1.04,5.77,5.77,0,0,1-4.464-.208,4.033,4.033,0,0,1-1.656-1.56,4.406,4.406,0,0,1-.584-2.264,4.471,4.471,0,0,1,.568-2.248,4.029,4.029,0,0,1,1.576-1.56,4.6,4.6,0,0,1,2.272-.56,4.483,4.483,0,0,1,2.232.552,3.909,3.909,0,0,1,1.536,1.552A4.706,4.706,0,0,1,84.576,250.776Zm-4.32-2.816a2.364,2.364,0,0,0-2.432,2.08h4.848a2.358,2.358,0,0,0-.784-1.5A2.384,2.384,0,0,0,80.256,247.96Zm9.264-1.6a4.166,4.166,0,0,1,2.888.9,3.494,3.494,0,0,1,1,2.728V255H91.52v-1.04a2.327,2.327,0,0,1-1.048.856,4.1,4.1,0,0,1-1.64.3,4.018,4.018,0,0,1-1.68-.328,2.6,2.6,0,0,1-1.112-.912,2.314,2.314,0,0,1-.392-1.32A2.262,2.262,0,0,1,86.5,250.7a4.251,4.251,0,0,1,2.7-.7h2.208v-.128a1.751,1.751,0,0,0-.536-1.376,2.319,2.319,0,0,0-1.592-.48,4.6,4.6,0,0,0-1.416.224,3.479,3.479,0,0,0-1.176.624l-.784-1.456a4.855,4.855,0,0,1,1.616-.784A7.19,7.19,0,0,1,89.52,246.36Zm-.272,7.3a2.582,2.582,0,0,0,1.336-.344,1.872,1.872,0,0,0,.824-.984v-.992H89.344q-1.728,0-1.728,1.136a1.02,1.02,0,0,0,.432.864A1.98,1.98,0,0,0,89.248,253.656Zm15.168-10.528V255H102.5v-1.1a3.094,3.094,0,0,1-1.224.912,4.133,4.133,0,0,1-1.608.3,4.5,4.5,0,0,1-2.216-.544,3.909,3.909,0,0,1-1.544-1.544,4.97,4.97,0,0,1,0-4.584,3.923,3.923,0,0,1,1.544-1.536,4.5,4.5,0,0,1,2.216-.544,4.062,4.062,0,0,1,1.552.288,3.122,3.122,0,0,1,1.2.864v-4.384ZM99.9,253.4a2.572,2.572,0,0,0,1.3-.328,2.37,2.37,0,0,0,.912-.936,3.118,3.118,0,0,0,0-2.816,2.37,2.37,0,0,0-.912-.936,2.724,2.724,0,0,0-2.592,0,2.37,2.37,0,0,0-.912.936,3.118,3.118,0,0,0,0,2.816,2.37,2.37,0,0,0,.912.936A2.572,2.572,0,0,0,99.9,253.4Z" transform="translate(378.5 26.5)"/><path class="b" d="M6.112,3.8a6.2,6.2,0,0,1,2.536.48A3.688,3.688,0,0,1,10.3,5.656a3.85,3.85,0,0,1,.576,2.128A3.86,3.86,0,0,1,10.3,9.9a3.67,3.67,0,0,1-1.656,1.384,6.2,6.2,0,0,1-2.536.48H3.584V15H1.5V3.8Zm-.1,6.208A3.2,3.2,0,0,0,8.08,9.432a2.008,2.008,0,0,0,.7-1.648,2.008,2.008,0,0,0-.7-1.648A3.2,3.2,0,0,0,6.016,5.56H3.584v4.448Zm8.576-2.3a3.332,3.332,0,0,1,3.04-1.344v1.9a2.539,2.539,0,0,0-.464-.048,2.416,2.416,0,0,0-1.824.68,2.712,2.712,0,0,0-.656,1.96V15h-2V6.456h1.9Zm8.5,7.408a4.848,4.848,0,0,1-2.336-.56,4.083,4.083,0,0,1-1.624-1.56,4.405,4.405,0,0,1-.584-2.264,4.363,4.363,0,0,1,.584-2.256A4.1,4.1,0,0,1,20.752,6.92a5.186,5.186,0,0,1,4.688,0,4.1,4.1,0,0,1,1.624,1.552,4.363,4.363,0,0,1,.584,2.256,4.405,4.405,0,0,1-.584,2.264,4.083,4.083,0,0,1-1.624,1.56A4.881,4.881,0,0,1,23.088,15.112Zm0-1.712a2.444,2.444,0,0,0,1.824-.736,2.65,2.65,0,0,0,.72-1.936,2.65,2.65,0,0,0-.72-1.936,2.444,2.444,0,0,0-1.824-.736,2.417,2.417,0,0,0-1.816.736,2.667,2.667,0,0,0-.712,1.936,2.667,2.667,0,0,0,.712,1.936A2.417,2.417,0,0,0,23.088,13.4ZM37.936,3.128V15h-1.92V13.9a3.094,3.094,0,0,1-1.224.912,4.133,4.133,0,0,1-1.608.3,4.5,4.5,0,0,1-2.216-.544,3.909,3.909,0,0,1-1.544-1.544,4.619,4.619,0,0,1-.56-2.3,4.574,4.574,0,0,1,.56-2.288A3.923,3.923,0,0,1,30.968,6.9a4.5,4.5,0,0,1,2.216-.544,4.062,4.062,0,0,1,1.552.288,3.122,3.122,0,0,1,1.2.864V3.128ZM33.424,13.4a2.572,2.572,0,0,0,1.3-.328,2.37,2.37,0,0,0,.912-.936,2.864,2.864,0,0,0,.336-1.408,2.864,2.864,0,0,0-.336-1.408,2.37,2.37,0,0,0-.912-.936,2.724,2.724,0,0,0-2.592,0,2.37,2.37,0,0,0-.912.936,2.864,2.864,0,0,0-.336,1.408,2.864,2.864,0,0,0,.336,1.408,2.37,2.37,0,0,0,.912.936A2.572,2.572,0,0,0,33.424,13.4ZM48.832,6.456V15h-1.9V13.912a3.183,3.183,0,0,1-1.2.888,3.861,3.861,0,0,1-1.552.312,3.714,3.714,0,0,1-2.7-.952,3.756,3.756,0,0,1-.984-2.824V6.456h2v4.608a2.475,2.475,0,0,0,.52,1.72,1.905,1.905,0,0,0,1.48.568,2.241,2.241,0,0,0,1.7-.664,2.668,2.668,0,0,0,.632-1.912V6.456Zm6.544,8.656a5.009,5.009,0,0,1-2.384-.56,4.112,4.112,0,0,1-1.648-1.56,4.359,4.359,0,0,1-.592-2.264,4.317,4.317,0,0,1,.592-2.256,4.142,4.142,0,0,1,1.64-1.552,5,5,0,0,1,2.392-.56,4.608,4.608,0,0,1,2.216.512,3.322,3.322,0,0,1,1.432,1.472l-1.536.9a2.44,2.44,0,0,0-.92-.888,2.685,2.685,0,0,0-3.064.432,2.611,2.611,0,0,0-.736,1.944,2.627,2.627,0,0,0,.728,1.944,2.7,2.7,0,0,0,3.072.432,2.44,2.44,0,0,0,.92-.888l1.536.9a3.462,3.462,0,0,1-1.448,1.48A4.516,4.516,0,0,1,55.376,15.112ZM66,14.536a2.355,2.355,0,0,1-.856.432,3.855,3.855,0,0,1-1.064.144,3.019,3.019,0,0,1-2.176-.736,2.833,2.833,0,0,1-.768-2.144V8.12H59.728V6.52h1.408V4.568h2V6.52h2.288v1.6H63.136v4.064a1.352,1.352,0,0,0,.3.952,1.141,1.141,0,0,0,.88.328,1.757,1.757,0,0,0,1.12-.352Zm11.488.624a6.387,6.387,0,0,1-3.088-.744,5.51,5.51,0,0,1-2.16-2.064A5.671,5.671,0,0,1,71.456,9.4a5.671,5.671,0,0,1,.784-2.952A5.51,5.51,0,0,1,74.4,4.384a6.78,6.78,0,0,1,6.176,0,5.527,5.527,0,0,1,2.16,2.056A5.659,5.659,0,0,1,83.52,9.4a5.659,5.659,0,0,1-.784,2.96,5.527,5.527,0,0,1-2.16,2.056A6.387,6.387,0,0,1,77.488,15.16Zm0-1.824a4.04,4.04,0,0,0,2.016-.5,3.645,3.645,0,0,0,1.408-1.408A4.034,4.034,0,0,0,81.424,9.4a4.034,4.034,0,0,0-.512-2.024A3.645,3.645,0,0,0,79.5,5.968a4.284,4.284,0,0,0-4.032,0,3.645,3.645,0,0,0-1.408,1.408A4.034,4.034,0,0,0,73.552,9.4a4.034,4.034,0,0,0,.512,2.024,3.645,3.645,0,0,0,1.408,1.408A4.04,4.04,0,0,0,77.488,13.336Zm21.376-6.88L95.712,15h-1.92L91.584,9.112,89.344,15h-1.92L84.288,6.456h1.888l2.256,6.3,2.352-6.3h1.68l2.3,6.336,2.32-6.336Zm6.224-.1a3.57,3.57,0,0,1,2.592.944,3.724,3.724,0,0,1,.976,2.8V15h-2V10.36a2.4,2.4,0,0,0-.528-1.688,1.952,1.952,0,0,0-1.5-.568,2.309,2.309,0,0,0-1.744.664,2.647,2.647,0,0,0-.64,1.912V15h-2V6.456h1.9v1.1a3.127,3.127,0,0,1,1.248-.9A4.491,4.491,0,0,1,105.088,6.36Zm14.224,4.416q0,.208-.032.592h-6.7a2.324,2.324,0,0,0,.92,1.5,3.016,3.016,0,0,0,1.848.552,3.114,3.114,0,0,0,2.32-.928l1.072,1.232a3.612,3.612,0,0,1-1.456,1.04,5.77,5.77,0,0,1-4.464-.208,4.033,4.033,0,0,1-1.656-1.56,4.405,4.405,0,0,1-.584-2.264,4.471,4.471,0,0,1,.568-2.248,4.029,4.029,0,0,1,1.576-1.56,4.6,4.6,0,0,1,2.272-.56,4.483,4.483,0,0,1,2.232.552,3.909,3.909,0,0,1,1.536,1.552A4.706,4.706,0,0,1,119.312,10.776Zm-4.32-2.816a2.364,2.364,0,0,0-2.432,2.08h4.848a2.358,2.358,0,0,0-.784-1.5A2.384,2.384,0,0,0,114.992,7.96Zm8.144-.256a3.332,3.332,0,0,1,3.04-1.344v1.9a2.539,2.539,0,0,0-.464-.048,2.416,2.416,0,0,0-1.824.68,2.712,2.712,0,0,0-.656,1.96V15h-2V6.456h1.9ZM8.768,52.408h-5.6L2.064,55H-.08L4.96,43.8H7.008L12.064,55H9.888ZM8.08,50.776l-2.112-4.9-2.1,4.9ZM21.7,46.456V53.7q0,4.512-4.608,4.512a8.552,8.552,0,0,1-2.336-.312,4.956,4.956,0,0,1-1.824-.9l.9-1.5a4.281,4.281,0,0,0,1.416.744,5.552,5.552,0,0,0,1.736.28,2.865,2.865,0,0,0,2.064-.64,2.616,2.616,0,0,0,.656-1.952V53.48a3.288,3.288,0,0,1-1.248.848,4.4,4.4,0,0,1-1.616.288,4.635,4.635,0,0,1-2.2-.52,3.907,3.907,0,0,1-1.552-1.464,4.107,4.107,0,0,1-.568-2.16,4.065,4.065,0,0,1,.568-2.152,3.868,3.868,0,0,1,1.552-1.448,4.694,4.694,0,0,1,2.2-.512,4.508,4.508,0,0,1,1.688.3,3.114,3.114,0,0,1,1.272.928V46.456Zm-4.56,6.464A2.622,2.622,0,0,0,19,52.24a2.308,2.308,0,0,0,.728-1.768A2.264,2.264,0,0,0,19,48.728a2.64,2.64,0,0,0-1.864-.672,2.662,2.662,0,0,0-1.88.672,2.264,2.264,0,0,0-.728,1.744,2.308,2.308,0,0,0,.728,1.768A2.644,2.644,0,0,0,17.136,52.92Zm7.184-6.464h2V55h-2Zm1.008-1.408a1.285,1.285,0,0,1-.912-.344,1.18,1.18,0,0,1,0-1.712,1.285,1.285,0,0,1,.912-.344,1.321,1.321,0,0,1,.912.328,1.057,1.057,0,0,1,.368.824,1.207,1.207,0,0,1-.36.888A1.246,1.246,0,0,1,25.328,45.048Zm3.616-1.92h2V55h-2ZM41.6,50.776q0,.208-.032.592h-6.7a2.324,2.324,0,0,0,.92,1.5,3.016,3.016,0,0,0,1.848.552,3.114,3.114,0,0,0,2.32-.928l1.072,1.232a3.612,3.612,0,0,1-1.456,1.04,5.77,5.77,0,0,1-4.464-.208,4.033,4.033,0,0,1-1.656-1.56,4.406,4.406,0,0,1-.584-2.264,4.471,4.471,0,0,1,.568-2.248,4.029,4.029,0,0,1,1.576-1.56,4.6,4.6,0,0,1,2.272-.56,4.483,4.483,0,0,1,2.232.552,3.909,3.909,0,0,1,1.536,1.552A4.706,4.706,0,0,1,41.6,50.776ZM37.28,47.96a2.364,2.364,0,0,0-2.432,2.08H39.7a2.358,2.358,0,0,0-.784-1.5A2.384,2.384,0,0,0,37.28,47.96ZM48.128,43.8h2.08v9.44h5.856V55H48.128Zm17.344,6.976q0,.208-.032.592h-6.7a2.324,2.324,0,0,0,.92,1.5,3.016,3.016,0,0,0,1.848.552,3.114,3.114,0,0,0,2.32-.928L64.9,53.72a3.612,3.612,0,0,1-1.456,1.04,5.77,5.77,0,0,1-4.464-.208,4.033,4.033,0,0,1-1.656-1.56,4.406,4.406,0,0,1-.584-2.264A4.471,4.471,0,0,1,57.3,48.48a4.029,4.029,0,0,1,1.576-1.56,4.6,4.6,0,0,1,2.272-.56,4.483,4.483,0,0,1,2.232.552,3.909,3.909,0,0,1,1.536,1.552A4.706,4.706,0,0,1,65.472,50.776Zm-4.32-2.816a2.364,2.364,0,0,0-2.432,2.08h4.848a2.358,2.358,0,0,0-.784-1.5A2.384,2.384,0,0,0,61.152,47.96Zm9.264-1.6a4.166,4.166,0,0,1,2.888.9,3.494,3.494,0,0,1,1,2.728V55H72.416V53.96a2.327,2.327,0,0,1-1.048.856,4.1,4.1,0,0,1-1.64.3,4.018,4.018,0,0,1-1.68-.328,2.6,2.6,0,0,1-1.112-.912,2.314,2.314,0,0,1-.392-1.32A2.262,2.262,0,0,1,67.4,50.7a4.251,4.251,0,0,1,2.7-.7H72.3V49.88a1.751,1.751,0,0,0-.536-1.376,2.319,2.319,0,0,0-1.592-.48,4.6,4.6,0,0,0-1.416.224,3.479,3.479,0,0,0-1.176.624L66.8,47.416a4.855,4.855,0,0,1,1.616-.784A7.19,7.19,0,0,1,70.416,46.36Zm-.272,7.3a2.582,2.582,0,0,0,1.336-.344,1.872,1.872,0,0,0,.824-.984v-.992H70.24q-1.728,0-1.728,1.136a1.02,1.02,0,0,0,.432.864A1.98,1.98,0,0,0,70.144,53.656ZM85.312,43.128V55h-1.92V53.9a3.094,3.094,0,0,1-1.224.912,4.133,4.133,0,0,1-1.608.3,4.5,4.5,0,0,1-2.216-.544A3.909,3.909,0,0,1,76.8,53.024a4.97,4.97,0,0,1,0-4.584A3.923,3.923,0,0,1,78.344,46.9a4.5,4.5,0,0,1,2.216-.544,4.062,4.062,0,0,1,1.552.288,3.122,3.122,0,0,1,1.2.864V43.128ZM80.8,53.4a2.572,2.572,0,0,0,1.3-.328,2.37,2.37,0,0,0,.912-.936,3.118,3.118,0,0,0,0-2.816,2.37,2.37,0,0,0-.912-.936,2.724,2.724,0,0,0-2.592,0,2.37,2.37,0,0,0-.912.936,3.118,3.118,0,0,0,0,2.816,2.37,2.37,0,0,0,.912.936A2.572,2.572,0,0,0,80.8,53.4ZM3.776,85.56H.064V83.8h9.5v1.76H5.856V95H3.776ZM18.1,90.776q0,.208-.032.592h-6.7a2.324,2.324,0,0,0,.92,1.5,3.016,3.016,0,0,0,1.848.552,3.114,3.114,0,0,0,2.32-.928L17.52,93.72a3.612,3.612,0,0,1-1.456,1.04,5.3,5.3,0,0,1-1.984.352,5.28,5.28,0,0,1-2.48-.56,4.033,4.033,0,0,1-1.656-1.56,4.405,4.405,0,0,1-.584-2.264,4.471,4.471,0,0,1,.568-2.248A4.029,4.029,0,0,1,11.5,86.92a4.6,4.6,0,0,1,2.272-.56,4.483,4.483,0,0,1,2.232.552,3.909,3.909,0,0,1,1.536,1.552A4.706,4.706,0,0,1,18.1,90.776Zm-4.32-2.816a2.364,2.364,0,0,0-2.432,2.08h4.848a2.358,2.358,0,0,0-.784-1.5A2.384,2.384,0,0,0,13.776,87.96Zm10.16,7.152a5.009,5.009,0,0,1-2.384-.56,4.112,4.112,0,0,1-1.648-1.56,4.61,4.61,0,0,1,0-4.52,4.143,4.143,0,0,1,1.64-1.552,5,5,0,0,1,2.392-.56,4.608,4.608,0,0,1,2.216.512,3.322,3.322,0,0,1,1.432,1.472l-1.536.9a2.44,2.44,0,0,0-.92-.888,2.685,2.685,0,0,0-3.064.432,2.947,2.947,0,0,0-.008,3.888,2.7,2.7,0,0,0,3.072.432,2.44,2.44,0,0,0,.92-.888l1.536.9a3.462,3.462,0,0,1-1.448,1.48A4.516,4.516,0,0,1,23.936,95.112ZM34.08,86.36a3.57,3.57,0,0,1,2.592.944,3.724,3.724,0,0,1,.976,2.8V95h-2V90.36a2.4,2.4,0,0,0-.528-1.688,1.952,1.952,0,0,0-1.5-.568,2.309,2.309,0,0,0-1.744.664,2.647,2.647,0,0,0-.64,1.912V95h-2V83.128h2v4.32a3.253,3.253,0,0,1,1.224-.808A4.492,4.492,0,0,1,34.08,86.36Zm10.96,0a3.57,3.57,0,0,1,2.592.944,3.724,3.724,0,0,1,.976,2.8V95h-2V90.36a2.4,2.4,0,0,0-.528-1.688,1.952,1.952,0,0,0-1.5-.568,2.309,2.309,0,0,0-1.744.664,2.647,2.647,0,0,0-.64,1.912V95h-2V86.456h1.9v1.1a3.127,3.127,0,0,1,1.248-.9A4.491,4.491,0,0,1,45.04,86.36Zm6.112.1h2V95h-2Zm1.008-1.408a1.285,1.285,0,0,1-.912-.344,1.18,1.18,0,0,1,0-1.712,1.285,1.285,0,0,1,.912-.344,1.321,1.321,0,0,1,.912.328,1.057,1.057,0,0,1,.368.824,1.207,1.207,0,0,1-.36.888A1.246,1.246,0,0,1,52.16,85.048ZM59.7,95.112a5.009,5.009,0,0,1-2.384-.56,4.112,4.112,0,0,1-1.648-1.56,4.61,4.61,0,0,1,0-4.52A4.143,4.143,0,0,1,57.3,86.92a5,5,0,0,1,2.392-.56,4.608,4.608,0,0,1,2.216.512,3.322,3.322,0,0,1,1.432,1.472l-1.536.9a2.44,2.44,0,0,0-.92-.888,2.685,2.685,0,0,0-3.064.432,2.947,2.947,0,0,0-.008,3.888,2.7,2.7,0,0,0,3.072.432,2.44,2.44,0,0,0,.92-.888l1.536.9a3.462,3.462,0,0,1-1.448,1.48A4.516,4.516,0,0,1,59.7,95.112Zm8.64-8.752a4.166,4.166,0,0,1,2.888.9,3.494,3.494,0,0,1,1,2.728V95H70.336V93.96a2.327,2.327,0,0,1-1.048.856,4.1,4.1,0,0,1-1.64.3,4.018,4.018,0,0,1-1.68-.328,2.6,2.6,0,0,1-1.112-.912,2.314,2.314,0,0,1-.392-1.32A2.262,2.262,0,0,1,65.32,90.7a4.251,4.251,0,0,1,2.7-.7h2.208V89.88a1.751,1.751,0,0,0-.536-1.376,2.319,2.319,0,0,0-1.592-.48,4.6,4.6,0,0,0-1.416.224,3.478,3.478,0,0,0-1.176.624l-.784-1.456a4.855,4.855,0,0,1,1.616-.784A7.19,7.19,0,0,1,68.336,86.36Zm-.272,7.3a2.582,2.582,0,0,0,1.336-.344,1.872,1.872,0,0,0,.824-.984v-.992H68.16q-1.728,0-1.728,1.136a1.02,1.02,0,0,0,.432.864A1.98,1.98,0,0,0,68.064,93.656Zm6.72-10.528h2V95h-2Zm9.232.672h4.9a7.026,7.026,0,0,1,3.184.7,5.151,5.151,0,0,1,2.16,1.968,6,6,0,0,1,0,5.872A5.151,5.151,0,0,1,92.1,94.3a7.026,7.026,0,0,1-3.184.7h-4.9Zm4.8,9.44a4.753,4.753,0,0,0,2.168-.472,3.377,3.377,0,0,0,1.44-1.344,4.316,4.316,0,0,0,0-4.048,3.377,3.377,0,0,0-1.44-1.344,4.753,4.753,0,0,0-2.168-.472H86.1v7.68Zm16.256-2.464q0,.208-.032.592h-6.7a2.324,2.324,0,0,0,.92,1.5,3.016,3.016,0,0,0,1.848.552,3.114,3.114,0,0,0,2.32-.928L104.5,93.72a3.612,3.612,0,0,1-1.456,1.04,5.77,5.77,0,0,1-4.464-.208,4.033,4.033,0,0,1-1.656-1.56,4.405,4.405,0,0,1-.584-2.264A4.471,4.471,0,0,1,96.9,88.48a4.029,4.029,0,0,1,1.576-1.56,4.6,4.6,0,0,1,2.272-.56,4.483,4.483,0,0,1,2.232.552,3.909,3.909,0,0,1,1.536,1.552A4.706,4.706,0,0,1,105.072,90.776Zm-4.32-2.816a2.364,2.364,0,0,0-2.432,2.08h4.848a2.358,2.358,0,0,0-.784-1.5A2.384,2.384,0,0,0,100.752,87.96Zm6.24-4.832h2V95h-2Zm4.624,3.328h2V95h-2Zm1.008-1.408a1.285,1.285,0,0,1-.912-.344,1.18,1.18,0,0,1,0-1.712,1.285,1.285,0,0,1,.912-.344,1.321,1.321,0,0,1,.912.328,1.057,1.057,0,0,1,.368.824,1.207,1.207,0,0,1-.36.888A1.246,1.246,0,0,1,112.624,85.048Zm11.616,1.408L120.576,95h-2.064l-3.664-8.544h2.08l2.656,6.336,2.736-6.336Zm9.04,4.32q0,.208-.032.592h-6.7a2.324,2.324,0,0,0,.92,1.5,3.016,3.016,0,0,0,1.848.552,3.114,3.114,0,0,0,2.32-.928L132.7,93.72a3.612,3.612,0,0,1-1.456,1.04,5.77,5.77,0,0,1-4.464-.208,4.033,4.033,0,0,1-1.656-1.56,4.405,4.405,0,0,1-.584-2.264,4.471,4.471,0,0,1,.568-2.248,4.029,4.029,0,0,1,1.576-1.56,4.6,4.6,0,0,1,2.272-.56,4.483,4.483,0,0,1,2.232.552,3.909,3.909,0,0,1,1.536,1.552A4.706,4.706,0,0,1,133.28,90.776Zm-4.32-2.816a2.364,2.364,0,0,0-2.432,2.08h4.848a2.358,2.358,0,0,0-.784-1.5A2.384,2.384,0,0,0,128.96,87.96ZM137.1,87.7a3.332,3.332,0,0,1,3.04-1.344v1.9a2.539,2.539,0,0,0-.464-.048,2.416,2.416,0,0,0-1.824.68,2.712,2.712,0,0,0-.656,1.96V95h-2V86.456h1.9Zm13.056-1.248-4,9.232a4.3,4.3,0,0,1-1.36,1.96,3.257,3.257,0,0,1-1.936.568,3.974,3.974,0,0,1-1.264-.208,2.793,2.793,0,0,1-1.024-.576l.8-1.472a2.177,2.177,0,0,0,.68.432,2.08,2.08,0,0,0,.792.16,1.363,1.363,0,0,0,.872-.272,2.4,2.4,0,0,0,.632-.912l.144-.336-3.728-8.576h2.08l2.688,6.32,2.7-6.32ZM166.3,95l-.016-7.424-3.68,6.144h-.928L158,87.672V95h-1.984V83.8h1.712l4.448,7.424,4.368-7.424h1.712l.016,11.2Zm8.064-8.64a4.166,4.166,0,0,1,2.888.9,3.494,3.494,0,0,1,1,2.728V95h-1.888V93.96a2.327,2.327,0,0,1-1.048.856,4.1,4.1,0,0,1-1.64.3,4.018,4.018,0,0,1-1.68-.328,2.6,2.6,0,0,1-1.112-.912,2.314,2.314,0,0,1-.392-1.32,2.262,2.262,0,0,1,.856-1.848,4.251,4.251,0,0,1,2.7-.7h2.208V89.88a1.751,1.751,0,0,0-.536-1.376,2.319,2.319,0,0,0-1.592-.48,4.6,4.6,0,0,0-1.416.224,3.478,3.478,0,0,0-1.176.624l-.784-1.456a4.855,4.855,0,0,1,1.616-.784A7.19,7.19,0,0,1,174.368,86.36Zm-.272,7.3a2.582,2.582,0,0,0,1.336-.344,1.872,1.872,0,0,0,.824-.984v-.992h-2.064q-1.728,0-1.728,1.136a1.02,1.02,0,0,0,.432.864A1.98,1.98,0,0,0,174.1,93.656Zm11.568-7.3a3.57,3.57,0,0,1,2.592.944,3.724,3.724,0,0,1,.976,2.8V95h-2V90.36a2.4,2.4,0,0,0-.528-1.688,1.952,1.952,0,0,0-1.5-.568,2.309,2.309,0,0,0-1.744.664,2.647,2.647,0,0,0-.64,1.912V95h-2V86.456h1.9v1.1a3.127,3.127,0,0,1,1.248-.9A4.491,4.491,0,0,1,185.664,86.36Zm9.376,0a4.166,4.166,0,0,1,2.888.9,3.494,3.494,0,0,1,1,2.728V95H197.04V93.96a2.327,2.327,0,0,1-1.048.856,4.1,4.1,0,0,1-1.64.3,4.018,4.018,0,0,1-1.68-.328,2.6,2.6,0,0,1-1.112-.912,2.314,2.314,0,0,1-.392-1.32,2.262,2.262,0,0,1,.856-1.848,4.251,4.251,0,0,1,2.7-.7h2.208V89.88a1.751,1.751,0,0,0-.536-1.376,2.319,2.319,0,0,0-1.592-.48,4.6,4.6,0,0,0-1.416.224,3.478,3.478,0,0,0-1.176.624l-.784-1.456a4.855,4.855,0,0,1,1.616-.784A7.19,7.19,0,0,1,195.04,86.36Zm-.272,7.3a2.582,2.582,0,0,0,1.336-.344,1.872,1.872,0,0,0,.824-.984v-.992h-2.064q-1.728,0-1.728,1.136a1.02,1.02,0,0,0,.432.864A1.98,1.98,0,0,0,194.768,93.656Zm15.28-7.2V93.7q0,4.512-4.608,4.512A8.551,8.551,0,0,1,203.1,97.9a4.956,4.956,0,0,1-1.824-.9l.9-1.5a4.281,4.281,0,0,0,1.416.744,5.551,5.551,0,0,0,1.736.28,2.865,2.865,0,0,0,2.064-.64,2.616,2.616,0,0,0,.656-1.952V93.48a3.288,3.288,0,0,1-1.248.848,4.4,4.4,0,0,1-1.616.288,4.635,4.635,0,0,1-2.2-.52,3.907,3.907,0,0,1-1.552-1.464,4.107,4.107,0,0,1-.568-2.16,4.065,4.065,0,0,1,.568-2.152,3.868,3.868,0,0,1,1.552-1.448,4.694,4.694,0,0,1,2.2-.512,4.508,4.508,0,0,1,1.688.3,3.114,3.114,0,0,1,1.272.928V86.456Zm-4.56,6.464a2.622,2.622,0,0,0,1.864-.68,2.308,2.308,0,0,0,.728-1.768,2.264,2.264,0,0,0-.728-1.744,2.943,2.943,0,0,0-3.744,0,2.264,2.264,0,0,0-.728,1.744,2.308,2.308,0,0,0,.728,1.768A2.644,2.644,0,0,0,205.488,92.92ZM220.7,90.776q0,.208-.032.592h-6.7a2.324,2.324,0,0,0,.92,1.5,3.016,3.016,0,0,0,1.848.552,3.114,3.114,0,0,0,2.32-.928l1.072,1.232a3.612,3.612,0,0,1-1.456,1.04,5.77,5.77,0,0,1-4.464-.208,4.033,4.033,0,0,1-1.656-1.56,4.406,4.406,0,0,1-.584-2.264,4.471,4.471,0,0,1,.568-2.248,4.029,4.029,0,0,1,1.576-1.56,4.6,4.6,0,0,1,2.272-.56,4.483,4.483,0,0,1,2.232.552,3.909,3.909,0,0,1,1.536,1.552A4.706,4.706,0,0,1,220.7,90.776Zm-4.32-2.816a2.364,2.364,0,0,0-2.432,2.08H218.8a2.358,2.358,0,0,0-.784-1.5A2.384,2.384,0,0,0,216.384,87.96Zm8.144-.256a3.332,3.332,0,0,1,3.04-1.344v1.9a2.539,2.539,0,0,0-.464-.048,2.416,2.416,0,0,0-1.824.68,2.712,2.712,0,0,0-.656,1.96V95h-2V86.456h1.9ZM240.16,98.1a11.549,11.549,0,0,1-1.448-3.376,17.059,17.059,0,0,1,0-8.232,11.316,11.316,0,0,1,1.448-3.368h1.9a14.187,14.187,0,0,0-1.432,3.56,17.146,17.146,0,0,0,0,7.856,14.187,14.187,0,0,0,1.432,3.56Zm5.872-12.544H242.32V83.8h9.5v1.76h-3.712V95h-2.08Zm7.36-1.76h4.9a7.026,7.026,0,0,1,3.184.7,5.151,5.151,0,0,1,2.16,1.968,6,6,0,0,1,0,5.872,5.151,5.151,0,0,1-2.16,1.968,7.026,7.026,0,0,1-3.184.7h-4.9Zm4.8,9.44a4.753,4.753,0,0,0,2.168-.472,3.377,3.377,0,0,0,1.44-1.344,4.316,4.316,0,0,0,0-4.048,3.377,3.377,0,0,0-1.44-1.344,4.753,4.753,0,0,0-2.168-.472h-2.72v7.68ZM276.9,95l-.016-7.424L273.2,93.72h-.928l-3.68-6.048V95h-1.984V83.8h1.712l4.448,7.424,4.368-7.424h1.712l.016,11.2Zm3.84,3.1a14.388,14.388,0,0,0,1.44-3.568,16.79,16.79,0,0,0,0-7.84,14.388,14.388,0,0,0-1.44-3.568h1.9a11.1,11.1,0,0,1,1.448,3.352,16.306,16.306,0,0,1,.5,4.136,16.12,16.12,0,0,1-.5,4.12A11.561,11.561,0,0,1,282.64,98.1ZM4.976,135.16a8.545,8.545,0,0,1-2.5-.368,5.226,5.226,0,0,1-1.912-.976l.72-1.616a5.671,5.671,0,0,0,1.688.888,6.138,6.138,0,0,0,2.008.344,3.47,3.47,0,0,0,1.864-.4,1.212,1.212,0,0,0,.616-1.056,1.022,1.022,0,0,0-.344-.792,2.415,2.415,0,0,0-.872-.488q-.528-.176-1.44-.4a16.786,16.786,0,0,1-2.072-.608,3.41,3.41,0,0,1-1.36-.952A2.564,2.564,0,0,1,.8,126.984a2.989,2.989,0,0,1,.5-1.688,3.41,3.41,0,0,1,1.52-1.208,6.158,6.158,0,0,1,2.488-.448,8.036,8.036,0,0,1,2.016.256,5.573,5.573,0,0,1,1.712.736l-.656,1.616a6.471,6.471,0,0,0-1.536-.656,5.745,5.745,0,0,0-1.552-.224,3.242,3.242,0,0,0-1.832.416,1.283,1.283,0,0,0-.6,1.1,1,1,0,0,0,.344.784,2.485,2.485,0,0,0,.872.48q.528.176,1.44.4a15.154,15.154,0,0,1,2.048.6,3.507,3.507,0,0,1,1.368.952,2.509,2.509,0,0,1,.568,1.728,2.951,2.951,0,0,1-.5,1.68,3.428,3.428,0,0,1-1.528,1.2A6.217,6.217,0,0,1,4.976,135.16Zm10.24-.048a4.848,4.848,0,0,1-2.336-.56,4.083,4.083,0,0,1-1.624-1.56,4.665,4.665,0,0,1,0-4.52,4.1,4.1,0,0,1,1.624-1.552,4.848,4.848,0,0,1,2.336-.56,4.881,4.881,0,0,1,2.352.56,4.1,4.1,0,0,1,1.624,1.552,4.665,4.665,0,0,1,0,4.52,4.083,4.083,0,0,1-1.624,1.56A4.881,4.881,0,0,1,15.216,135.112Zm0-1.712a2.444,2.444,0,0,0,1.824-.736,2.963,2.963,0,0,0,0-3.872,2.444,2.444,0,0,0-1.824-.736,2.417,2.417,0,0,0-1.816.736,2.988,2.988,0,0,0,0,3.872A2.417,2.417,0,0,0,15.216,133.4Zm6.48-10.272h2V135h-2Zm12.9,3.328V135h-1.9v-1.088a3.183,3.183,0,0,1-1.2.888,3.861,3.861,0,0,1-1.552.312,3.714,3.714,0,0,1-2.7-.952,3.756,3.756,0,0,1-.984-2.824v-4.88h2v4.608a2.475,2.475,0,0,0,.52,1.72,1.905,1.905,0,0,0,1.48.568,2.241,2.241,0,0,0,1.7-.664,2.668,2.668,0,0,0,.632-1.912v-4.32Zm7.76,8.08a2.354,2.354,0,0,1-.856.432,3.855,3.855,0,0,1-1.064.144,3.019,3.019,0,0,1-2.176-.736,2.833,2.833,0,0,1-.768-2.144V128.12H36.08v-1.6h1.408v-1.952h2v1.952h2.288v1.6H39.488v4.064a1.352,1.352,0,0,0,.3.952,1.141,1.141,0,0,0,.88.328,1.757,1.757,0,0,0,1.12-.352ZM44,126.456h2V135H44Zm1.008-1.408a1.285,1.285,0,0,1-.912-.344,1.18,1.18,0,0,1,0-1.712,1.285,1.285,0,0,1,.912-.344,1.321,1.321,0,0,1,.912.328,1.057,1.057,0,0,1,.368.824,1.207,1.207,0,0,1-.36.888A1.246,1.246,0,0,1,45.008,125.048Zm7.456,10.064a4.848,4.848,0,0,1-2.336-.56,4.083,4.083,0,0,1-1.624-1.56,4.665,4.665,0,0,1,0-4.52,4.1,4.1,0,0,1,1.624-1.552,5.186,5.186,0,0,1,4.688,0,4.1,4.1,0,0,1,1.624,1.552,4.665,4.665,0,0,1,0,4.52,4.083,4.083,0,0,1-1.624,1.56A4.881,4.881,0,0,1,52.464,135.112Zm0-1.712a2.444,2.444,0,0,0,1.824-.736,2.963,2.963,0,0,0,0-3.872,2.444,2.444,0,0,0-1.824-.736,2.417,2.417,0,0,0-1.816.736,2.988,2.988,0,0,0,0,3.872A2.417,2.417,0,0,0,52.464,133.4Zm11.328-7.04a3.57,3.57,0,0,1,2.592.944,3.724,3.724,0,0,1,.976,2.8V135h-2v-4.64a2.4,2.4,0,0,0-.528-1.688,1.952,1.952,0,0,0-1.5-.568,2.309,2.309,0,0,0-1.744.664,2.647,2.647,0,0,0-.64,1.912V135h-2v-8.544h1.9v1.1a3.127,3.127,0,0,1,1.248-.9A4.491,4.491,0,0,1,63.792,126.36Zm17.984,6.048h-5.6L75.072,135H72.928l5.04-11.2h2.048L85.072,135H82.9Zm-.688-1.632-2.112-4.9-2.1,4.9Zm7.12-3.072a3.332,3.332,0,0,1,3.04-1.344v1.9a2.539,2.539,0,0,0-.464-.048,2.416,2.416,0,0,0-1.824.68,2.712,2.712,0,0,0-.656,1.96V135h-2v-8.544h1.9Zm8.576,7.408a5.009,5.009,0,0,1-2.384-.56,4.112,4.112,0,0,1-1.648-1.56,4.61,4.61,0,0,1,0-4.52,4.143,4.143,0,0,1,1.64-1.552,5,5,0,0,1,2.392-.56,4.608,4.608,0,0,1,2.216.512,3.322,3.322,0,0,1,1.432,1.472l-1.536.9a2.44,2.44,0,0,0-.92-.888,2.685,2.685,0,0,0-3.064.432,2.947,2.947,0,0,0-.008,3.888,2.7,2.7,0,0,0,3.072.432,2.44,2.44,0,0,0,.92-.888l1.536.9a3.462,3.462,0,0,1-1.448,1.48A4.516,4.516,0,0,1,96.784,135.112Zm10.144-8.752a3.57,3.57,0,0,1,2.592.944,3.724,3.724,0,0,1,.976,2.8V135h-2v-4.64a2.4,2.4,0,0,0-.528-1.688,1.952,1.952,0,0,0-1.5-.568,2.309,2.309,0,0,0-1.744.664,2.647,2.647,0,0,0-.64,1.912V135h-2V123.128h2v4.32a3.253,3.253,0,0,1,1.224-.808A4.492,4.492,0,0,1,106.928,126.36Zm6.112.1h2V135h-2Zm1.008-1.408a1.285,1.285,0,0,1-.912-.344,1.18,1.18,0,0,1,0-1.712,1.285,1.285,0,0,1,.912-.344,1.321,1.321,0,0,1,.912.328,1.057,1.057,0,0,1,.368.824,1.207,1.207,0,0,1-.36.888A1.246,1.246,0,0,1,114.048,125.048Zm8.752,9.488a2.354,2.354,0,0,1-.856.432,3.855,3.855,0,0,1-1.064.144,3.019,3.019,0,0,1-2.176-.736,2.833,2.833,0,0,1-.768-2.144V128.12h-1.408v-1.6h1.408v-1.952h2v1.952h2.288v1.6h-2.288v4.064a1.352,1.352,0,0,0,.3.952,1.141,1.141,0,0,0,.88.328,1.757,1.757,0,0,0,1.12-.352Zm9.392-3.76q0,.208-.032.592h-6.7a2.324,2.324,0,0,0,.92,1.5,3.016,3.016,0,0,0,1.848.552,3.114,3.114,0,0,0,2.32-.928l1.072,1.232a3.612,3.612,0,0,1-1.456,1.04,5.77,5.77,0,0,1-4.464-.208,4.033,4.033,0,0,1-1.656-1.56,4.406,4.406,0,0,1-.584-2.264,4.471,4.471,0,0,1,.568-2.248,4.029,4.029,0,0,1,1.576-1.56,4.6,4.6,0,0,1,2.272-.56,4.483,4.483,0,0,1,2.232.552,3.909,3.909,0,0,1,1.536,1.552A4.706,4.706,0,0,1,132.192,130.776Zm-4.32-2.816a2.364,2.364,0,0,0-2.432,2.08h4.848a2.358,2.358,0,0,0-.784-1.5A2.384,2.384,0,0,0,127.872,127.96Zm10.16,7.152a5.009,5.009,0,0,1-2.384-.56,4.112,4.112,0,0,1-1.648-1.56,4.61,4.61,0,0,1,0-4.52,4.143,4.143,0,0,1,1.64-1.552,5,5,0,0,1,2.392-.56,4.608,4.608,0,0,1,2.216.512,3.322,3.322,0,0,1,1.432,1.472l-1.536.9a2.44,2.44,0,0,0-.92-.888,2.685,2.685,0,0,0-3.064.432,2.947,2.947,0,0,0-.008,3.888,2.7,2.7,0,0,0,3.072.432,2.44,2.44,0,0,0,.92-.888l1.536.9a3.462,3.462,0,0,1-1.448,1.48A4.516,4.516,0,0,1,138.032,135.112Zm10.624-.576a2.354,2.354,0,0,1-.856.432,3.855,3.855,0,0,1-1.064.144,3.019,3.019,0,0,1-2.176-.736,2.833,2.833,0,0,1-.768-2.144V128.12h-1.408v-1.6h1.408v-1.952h2v1.952h2.288v1.6h-2.288v4.064a1.352,1.352,0,0,0,.3.952,1.141,1.141,0,0,0,.88.328,1.757,1.757,0,0,0,1.12-.352ZM8.768,172.408h-5.6L2.064,175H-.08l5.04-11.2H7.008L12.064,175H9.888Zm-.688-1.632-2.112-4.9-2.1,4.9ZM18.1,163.8a6.2,6.2,0,0,1,2.536.48,3.687,3.687,0,0,1,1.656,1.376,4.2,4.2,0,0,1,0,4.248,3.67,3.67,0,0,1-1.656,1.384,6.2,6.2,0,0,1-2.536.48H15.568V175h-2.08V163.8Zm-.1,6.208a3.2,3.2,0,0,0,2.064-.576,2.281,2.281,0,0,0,0-3.3A3.2,3.2,0,0,0,18,165.56H15.568v4.448Zm6.944-6.208h2.08V175h-2.08Zm9.52,0h2.08v9.44H42.4V175H34.464Zm17.344,6.976q0,.208-.032.592h-6.7a2.324,2.324,0,0,0,.92,1.5,3.016,3.016,0,0,0,1.848.552,3.114,3.114,0,0,0,2.32-.928l1.072,1.232a3.612,3.612,0,0,1-1.456,1.04,5.77,5.77,0,0,1-4.464-.208,4.033,4.033,0,0,1-1.656-1.56,4.406,4.406,0,0,1-.584-2.264,4.471,4.471,0,0,1,.568-2.248,4.029,4.029,0,0,1,1.576-1.56,4.6,4.6,0,0,1,2.272-.56,4.483,4.483,0,0,1,2.232.552,3.909,3.909,0,0,1,1.536,1.552A4.706,4.706,0,0,1,51.808,170.776Zm-4.32-2.816a2.364,2.364,0,0,0-2.432,2.08H49.9a2.358,2.358,0,0,0-.784-1.5A2.384,2.384,0,0,0,47.488,167.96Zm9.264-1.6a4.166,4.166,0,0,1,2.888.9,3.494,3.494,0,0,1,1,2.728V175H58.752v-1.04a2.327,2.327,0,0,1-1.048.856,4.1,4.1,0,0,1-1.64.3,4.018,4.018,0,0,1-1.68-.328,2.6,2.6,0,0,1-1.112-.912,2.314,2.314,0,0,1-.392-1.32,2.262,2.262,0,0,1,.856-1.848,4.251,4.251,0,0,1,2.7-.7H58.64v-.128A1.751,1.751,0,0,0,58.1,168.5a2.319,2.319,0,0,0-1.592-.48,4.6,4.6,0,0,0-1.416.224,3.479,3.479,0,0,0-1.176.624l-.784-1.456a4.855,4.855,0,0,1,1.616-.784A7.19,7.19,0,0,1,56.752,166.36Zm-.272,7.3a2.582,2.582,0,0,0,1.336-.344,1.872,1.872,0,0,0,.824-.984v-.992H56.576q-1.728,0-1.728,1.136a1.02,1.02,0,0,0,.432.864A1.98,1.98,0,0,0,56.48,173.656Zm15.168-10.528V175h-1.92v-1.1a3.094,3.094,0,0,1-1.224.912,4.133,4.133,0,0,1-1.608.3,4.5,4.5,0,0,1-2.216-.544,3.909,3.909,0,0,1-1.544-1.544,4.97,4.97,0,0,1,0-4.584A3.923,3.923,0,0,1,64.68,166.9a4.5,4.5,0,0,1,2.216-.544,4.062,4.062,0,0,1,1.552.288,3.122,3.122,0,0,1,1.2.864v-4.384ZM67.136,173.4a2.572,2.572,0,0,0,1.3-.328,2.371,2.371,0,0,0,.912-.936,3.118,3.118,0,0,0,0-2.816,2.371,2.371,0,0,0-.912-.936,2.724,2.724,0,0,0-2.592,0,2.37,2.37,0,0,0-.912.936,3.118,3.118,0,0,0,0,2.816,2.37,2.37,0,0,0,.912.936A2.572,2.572,0,0,0,67.136,173.4ZM6.32,215.16a4.871,4.871,0,0,1-3.616-1.3,5.074,5.074,0,0,1-1.3-3.736V203.8h2.08v6.24q0,3.3,2.848,3.3,2.832,0,2.832-3.3V203.8h2.048v6.32a5.093,5.093,0,0,1-1.288,3.736A4.843,4.843,0,0,1,6.32,215.16Zm14.7-.16-3.04-4.256L14.976,215H12.608l4.16-5.712L12.832,203.8h2.352l2.864,3.984L20.88,203.8h2.256l-3.92,5.408L23.424,215Zm8.448-11.2h2.08v9.44h5.856V215H29.472Zm17.344,6.976q0,.208-.032.592h-6.7a2.324,2.324,0,0,0,.92,1.5,3.016,3.016,0,0,0,1.848.552,3.114,3.114,0,0,0,2.32-.928l1.072,1.232a3.612,3.612,0,0,1-1.456,1.04,5.77,5.77,0,0,1-4.464-.208,4.033,4.033,0,0,1-1.656-1.56,4.406,4.406,0,0,1-.584-2.264,4.471,4.471,0,0,1,.568-2.248,4.029,4.029,0,0,1,1.576-1.56,4.6,4.6,0,0,1,2.272-.56,4.483,4.483,0,0,1,2.232.552,3.909,3.909,0,0,1,1.536,1.552A4.706,4.706,0,0,1,46.816,210.776ZM42.5,207.96a2.364,2.364,0,0,0-2.432,2.08h4.848a2.358,2.358,0,0,0-.784-1.5A2.384,2.384,0,0,0,42.5,207.96Zm9.264-1.6a4.166,4.166,0,0,1,2.888.9,3.494,3.494,0,0,1,1,2.728V215H53.76v-1.04a2.327,2.327,0,0,1-1.048.856,4.1,4.1,0,0,1-1.64.3,4.018,4.018,0,0,1-1.68-.328,2.6,2.6,0,0,1-1.112-.912,2.314,2.314,0,0,1-.392-1.32,2.262,2.262,0,0,1,.856-1.848,4.251,4.251,0,0,1,2.7-.7h2.208v-.128a1.751,1.751,0,0,0-.536-1.376,2.319,2.319,0,0,0-1.592-.48,4.6,4.6,0,0,0-1.416.224,3.479,3.479,0,0,0-1.176.624l-.784-1.456a4.855,4.855,0,0,1,1.616-.784A7.19,7.19,0,0,1,51.76,206.36Zm-.272,7.3a2.582,2.582,0,0,0,1.336-.344,1.872,1.872,0,0,0,.824-.984v-.992H51.584q-1.728,0-1.728,1.136a1.02,1.02,0,0,0,.432.864A1.98,1.98,0,0,0,51.488,213.656Zm15.168-10.528V215h-1.92v-1.1a3.094,3.094,0,0,1-1.224.912,4.133,4.133,0,0,1-1.608.3,4.5,4.5,0,0,1-2.216-.544,3.909,3.909,0,0,1-1.544-1.544,4.97,4.97,0,0,1,0-4.584,3.923,3.923,0,0,1,1.544-1.536,4.5,4.5,0,0,1,2.216-.544,4.062,4.062,0,0,1,1.552.288,3.122,3.122,0,0,1,1.2.864v-4.384ZM62.144,213.4a2.572,2.572,0,0,0,1.3-.328,2.371,2.371,0,0,0,.912-.936,3.118,3.118,0,0,0,0-2.816,2.371,2.371,0,0,0-.912-.936,2.724,2.724,0,0,0-2.592,0,2.371,2.371,0,0,0-.912.936,3.118,3.118,0,0,0,0,2.816,2.371,2.371,0,0,0,.912.936A2.572,2.572,0,0,0,62.144,213.4ZM8.768,252.408h-5.6L2.064,255H-.08l5.04-11.2H7.008L12.064,255H9.888Zm-.688-1.632-2.112-4.9-2.1,4.9ZM18.1,243.8a6.2,6.2,0,0,1,2.536.48,3.687,3.687,0,0,1,1.656,1.376,4.2,4.2,0,0,1,0,4.248,3.67,3.67,0,0,1-1.656,1.384,6.2,6.2,0,0,1-2.536.48H15.568V255h-2.08V243.8Zm-.1,6.208a3.2,3.2,0,0,0,2.064-.576,2.281,2.281,0,0,0,0-3.3A3.2,3.2,0,0,0,18,245.56H15.568v4.448Zm6.944-6.208h2.08V255h-2.08Zm9.52,0h4.9a7.026,7.026,0,0,1,3.184.7,5.151,5.151,0,0,1,2.16,1.968,6,6,0,0,1,0,5.872,5.151,5.151,0,0,1-2.16,1.968,7.026,7.026,0,0,1-3.184.7h-4.9Zm4.8,9.44a4.753,4.753,0,0,0,2.168-.472,3.377,3.377,0,0,0,1.44-1.344,4.316,4.316,0,0,0,0-4.048,3.377,3.377,0,0,0-1.44-1.344,4.753,4.753,0,0,0-2.168-.472h-2.72v7.68Zm16.256-2.464q0,.208-.032.592h-6.7a2.324,2.324,0,0,0,.92,1.5,3.016,3.016,0,0,0,1.848.552,3.114,3.114,0,0,0,2.32-.928l1.072,1.232a3.612,3.612,0,0,1-1.456,1.04,5.77,5.77,0,0,1-4.464-.208,4.033,4.033,0,0,1-1.656-1.56,4.406,4.406,0,0,1-.584-2.264,4.471,4.471,0,0,1,.568-2.248,4.029,4.029,0,0,1,1.576-1.56,4.6,4.6,0,0,1,2.272-.56,4.483,4.483,0,0,1,2.232.552,3.909,3.909,0,0,1,1.536,1.552A4.706,4.706,0,0,1,55.52,250.776ZM51.2,247.96a2.364,2.364,0,0,0-2.432,2.08h4.848a2.358,2.358,0,0,0-.784-1.5A2.384,2.384,0,0,0,51.2,247.96Zm14.08-1.5L61.616,255H59.552l-3.664-8.544h2.08l2.656,6.336,2.736-6.336Zm9.04,4.32q0,.208-.032.592h-6.7a2.324,2.324,0,0,0,.92,1.5,3.016,3.016,0,0,0,1.848.552,3.114,3.114,0,0,0,2.32-.928l1.072,1.232a3.612,3.612,0,0,1-1.456,1.04,5.77,5.77,0,0,1-4.464-.208,4.033,4.033,0,0,1-1.656-1.56,4.406,4.406,0,0,1-.584-2.264,4.471,4.471,0,0,1,.568-2.248,4.029,4.029,0,0,1,1.576-1.56A4.6,4.6,0,0,1,70,246.36a4.483,4.483,0,0,1,2.232.552,3.909,3.909,0,0,1,1.536,1.552A4.706,4.706,0,0,1,74.32,250.776ZM70,247.96a2.364,2.364,0,0,0-2.432,2.08h4.848a2.358,2.358,0,0,0-.784-1.5A2.384,2.384,0,0,0,70,247.96Zm6.24-4.832h2V255h-2ZM84.7,255.112a4.848,4.848,0,0,1-2.336-.56,4.083,4.083,0,0,1-1.624-1.56,4.665,4.665,0,0,1,0-4.52,4.1,4.1,0,0,1,1.624-1.552,5.186,5.186,0,0,1,4.688,0,4.1,4.1,0,0,1,1.624,1.552,4.665,4.665,0,0,1,0,4.52,4.083,4.083,0,0,1-1.624,1.56A4.881,4.881,0,0,1,84.7,255.112Zm0-1.712a2.444,2.444,0,0,0,1.824-.736,2.963,2.963,0,0,0,0-3.872,2.444,2.444,0,0,0-1.824-.736,2.417,2.417,0,0,0-1.816.736,2.988,2.988,0,0,0,0,3.872A2.417,2.417,0,0,0,84.7,253.4Zm11.216-7.04a4.535,4.535,0,0,1,2.232.544A3.923,3.923,0,0,1,99.7,248.44a4.97,4.97,0,0,1,0,4.584,3.909,3.909,0,0,1-1.544,1.544,4.535,4.535,0,0,1-2.232.544,3.449,3.449,0,0,1-2.736-1.152V258.1h-2V246.456h1.9v1.12a3.094,3.094,0,0,1,1.224-.912A4.133,4.133,0,0,1,95.92,246.36ZM95.7,253.4a2.417,2.417,0,0,0,1.816-.736,2.988,2.988,0,0,0,0-3.872,2.417,2.417,0,0,0-1.816-.736,2.572,2.572,0,0,0-1.3.328,2.371,2.371,0,0,0-.912.936,3.118,3.118,0,0,0,0,2.816,2.371,2.371,0,0,0,.912.936A2.572,2.572,0,0,0,95.7,253.4Zm14.5-2.624q0,.208-.032.592h-6.7a2.324,2.324,0,0,0,.92,1.5,3.016,3.016,0,0,0,1.848.552,3.114,3.114,0,0,0,2.32-.928l1.072,1.232a3.612,3.612,0,0,1-1.456,1.04,5.77,5.77,0,0,1-4.464-.208,4.033,4.033,0,0,1-1.656-1.56,4.406,4.406,0,0,1-.584-2.264,4.471,4.471,0,0,1,.568-2.248,4.029,4.029,0,0,1,1.576-1.56,4.6,4.6,0,0,1,2.272-.56,4.483,4.483,0,0,1,2.232.552,3.909,3.909,0,0,1,1.536,1.552A4.706,4.706,0,0,1,110.192,250.776Zm-4.32-2.816a2.364,2.364,0,0,0-2.432,2.08h4.848a2.358,2.358,0,0,0-.784-1.5A2.384,2.384,0,0,0,105.872,247.96Zm8.144-.256a3.332,3.332,0,0,1,3.04-1.344v1.9a2.539,2.539,0,0,0-.464-.048,2.416,2.416,0,0,0-1.824.68,2.712,2.712,0,0,0-.656,1.96V255h-2v-8.544h1.9Zm7.408,7.408a7.65,7.65,0,0,1-2.032-.272,5.113,5.113,0,0,1-1.584-.688l.768-1.52a4.938,4.938,0,0,0,1.384.616,5.75,5.75,0,0,0,1.592.232q1.792,0,1.792-.944a.631.631,0,0,0-.456-.624,7.872,7.872,0,0,0-1.464-.336,11.878,11.878,0,0,1-1.72-.368,2.64,2.64,0,0,1-1.152-.728,2.033,2.033,0,0,1-.488-1.448,2.276,2.276,0,0,1,1.016-1.944,4.624,4.624,0,0,1,2.744-.728,7.919,7.919,0,0,1,1.76.2,4.934,4.934,0,0,1,1.44.536l-.768,1.52a4.737,4.737,0,0,0-2.448-.64,2.713,2.713,0,0,0-1.336.264.788.788,0,0,0-.456.7.7.7,0,0,0,.488.68,7.756,7.756,0,0,0,1.512.376,11.665,11.665,0,0,1,1.68.368,2.629,2.629,0,0,1,1.128.7,1.962,1.962,0,0,1,.472,1.408,2.228,2.228,0,0,1-1.04,1.92A4.9,4.9,0,0,1,121.424,255.112Z" transform="translate(28.5 26.5)"/><line class="f" y2="259" transform="translate(346.5 26.5)"/><path class="g" d="M0,0H636a0,0,0,0,1,0,0V54a6,6,0,0,1-6,6H6a6,6,0,0,1-6-6V0A0,0,0,0,1,0,0Z" transform="translate(0 310)"/><path class="b" d="M13.328,1.12a3.711,3.711,0,0,1-1.3.992,3.9,3.9,0,0,1-1.624.336,4.362,4.362,0,0,1-2.112-.52A9.608,9.608,0,0,1,6.1.128a6.078,6.078,0,0,1-2.784-.9,5.48,5.48,0,0,1-1.92-2.032A5.715,5.715,0,0,1,.7-5.6a5.671,5.671,0,0,1,.784-2.952,5.51,5.51,0,0,1,2.16-2.064,6.387,6.387,0,0,1,3.088-.744,6.387,6.387,0,0,1,3.088.744,5.527,5.527,0,0,1,2.16,2.056,5.659,5.659,0,0,1,.784,2.96,5.721,5.721,0,0,1-.528,2.456,5.541,5.541,0,0,1-1.472,1.92A5.825,5.825,0,0,1,8.576-.08a3.322,3.322,0,0,0,.912.72,2.117,2.117,0,0,0,.96.224,2.519,2.519,0,0,0,1.92-.9ZM2.8-5.6a4.034,4.034,0,0,0,.512,2.024A3.645,3.645,0,0,0,4.72-2.168a4.04,4.04,0,0,0,2.016.5,4.04,4.04,0,0,0,2.016-.5A3.645,3.645,0,0,0,10.16-3.576,4.034,4.034,0,0,0,10.672-5.6a4.034,4.034,0,0,0-.512-2.024A3.645,3.645,0,0,0,8.752-9.032a4.04,4.04,0,0,0-2.016-.5,4.04,4.04,0,0,0-2.016.5A3.645,3.645,0,0,0,3.312-7.624,4.034,4.034,0,0,0,2.8-5.6ZM22.08-2.592h-5.6L15.376,0H13.232l5.04-11.2H20.32L25.376,0H23.2Zm-.688-1.632L19.28-9.12l-2.1,4.9Zm6.4,1.68a1.258,1.258,0,0,1,.928.368,1.3,1.3,0,0,1,.368.96,2.152,2.152,0,0,1-.072.536,7.645,7.645,0,0,1-.3.84L27.9,2.416h-1.3l.64-2.448A1.161,1.161,0,0,1,26.7-.488a1.319,1.319,0,0,1-.2-.728,1.3,1.3,0,0,1,.368-.96A1.258,1.258,0,0,1,27.792-2.544ZM35.648-11.2h4.9a7.026,7.026,0,0,1,3.184.7,5.151,5.151,0,0,1,2.16,1.968A5.568,5.568,0,0,1,46.656-5.6a5.568,5.568,0,0,1-.768,2.936A5.151,5.151,0,0,1,43.728-.7a7.026,7.026,0,0,1-3.184.7h-4.9Zm4.8,9.44a4.753,4.753,0,0,0,2.168-.472,3.377,3.377,0,0,0,1.44-1.344,3.972,3.972,0,0,0,.5-2.024,3.972,3.972,0,0,0-.5-2.024,3.377,3.377,0,0,0-1.44-1.344,4.753,4.753,0,0,0-2.168-.472h-2.72v7.68ZM56.7-4.224q0,.208-.032.592h-6.7a2.324,2.324,0,0,0,.92,1.5,3.016,3.016,0,0,0,1.848.552,3.114,3.114,0,0,0,2.32-.928L56.128-1.28A3.612,3.612,0,0,1,54.672-.24a5.3,5.3,0,0,1-1.984.352,5.28,5.28,0,0,1-2.48-.56,4.033,4.033,0,0,1-1.656-1.56,4.406,4.406,0,0,1-.584-2.264,4.471,4.471,0,0,1,.568-2.248,4.029,4.029,0,0,1,1.576-1.56,4.6,4.6,0,0,1,2.272-.56,4.483,4.483,0,0,1,2.232.552,3.909,3.909,0,0,1,1.536,1.552A4.706,4.706,0,0,1,56.7-4.224ZM52.384-7.04a2.413,2.413,0,0,0-1.624.568,2.389,2.389,0,0,0-.808,1.512H54.8a2.358,2.358,0,0,0-.784-1.5A2.384,2.384,0,0,0,52.384-7.04Zm14.08-1.5L62.8,0H60.736L57.072-8.544h2.08l2.656,6.336,2.736-6.336ZM73.056.16a6.387,6.387,0,0,1-3.088-.744,5.51,5.51,0,0,1-2.16-2.064A5.671,5.671,0,0,1,67.024-5.6a5.671,5.671,0,0,1,.784-2.952,5.51,5.51,0,0,1,2.16-2.064,6.387,6.387,0,0,1,3.088-.744,6.387,6.387,0,0,1,3.088.744A5.527,5.527,0,0,1,78.3-8.56a5.659,5.659,0,0,1,.784,2.96A5.659,5.659,0,0,1,78.3-2.64a5.527,5.527,0,0,1-2.16,2.056A6.387,6.387,0,0,1,73.056.16Zm0-1.824a4.04,4.04,0,0,0,2.016-.5A3.645,3.645,0,0,0,76.48-3.576,4.034,4.034,0,0,0,76.992-5.6a4.034,4.034,0,0,0-.512-2.024,3.645,3.645,0,0,0-1.408-1.408,4.04,4.04,0,0,0-2.016-.5,4.04,4.04,0,0,0-2.016.5,3.645,3.645,0,0,0-1.408,1.408A4.034,4.034,0,0,0,69.12-5.6a4.034,4.034,0,0,0,.512,2.024A3.645,3.645,0,0,0,71.04-2.168,4.04,4.04,0,0,0,73.056-1.664ZM85.84-8.64a4.535,4.535,0,0,1,2.232.544A3.923,3.923,0,0,1,89.616-6.56a4.574,4.574,0,0,1,.56,2.288,4.619,4.619,0,0,1-.56,2.3A3.909,3.909,0,0,1,88.072-.432,4.535,4.535,0,0,1,85.84.112,3.449,3.449,0,0,1,83.1-1.04V3.1h-2V-8.544h1.9v1.12a3.094,3.094,0,0,1,1.224-.912A4.133,4.133,0,0,1,85.84-8.64ZM85.616-1.6a2.417,2.417,0,0,0,1.816-.736,2.667,2.667,0,0,0,.712-1.936,2.667,2.667,0,0,0-.712-1.936,2.417,2.417,0,0,0-1.816-.736,2.572,2.572,0,0,0-1.3.328,2.371,2.371,0,0,0-.912.936,2.864,2.864,0,0,0-.336,1.408,2.864,2.864,0,0,0,.336,1.408,2.371,2.371,0,0,0,.912.936A2.572,2.572,0,0,0,85.616-1.6ZM94.72.112A7.65,7.65,0,0,1,92.688-.16,5.113,5.113,0,0,1,91.1-.848l.768-1.52a4.938,4.938,0,0,0,1.384.616,5.75,5.75,0,0,0,1.592.232q1.792,0,1.792-.944a.631.631,0,0,0-.456-.624,7.873,7.873,0,0,0-1.464-.336A11.877,11.877,0,0,1,93-3.792a2.64,2.64,0,0,1-1.152-.728,2.033,2.033,0,0,1-.488-1.448,2.276,2.276,0,0,1,1.016-1.944A4.624,4.624,0,0,1,95.12-8.64a7.919,7.919,0,0,1,1.76.2,4.934,4.934,0,0,1,1.44.536l-.768,1.52a4.737,4.737,0,0,0-2.448-.64,2.713,2.713,0,0,0-1.336.264.788.788,0,0,0-.456.7.7.7,0,0,0,.488.68,7.755,7.755,0,0,0,1.512.376,11.666,11.666,0,0,1,1.68.368,2.629,2.629,0,0,1,1.128.7,1.962,1.962,0,0,1,.472,1.408,2.228,2.228,0,0,1-1.04,1.92A4.9,4.9,0,0,1,94.72.112Zm6.256-2.656a1.258,1.258,0,0,1,.928.368,1.3,1.3,0,0,1,.368.96,2.152,2.152,0,0,1-.072.536,7.645,7.645,0,0,1-.3.84l-.816,2.256h-1.3l.64-2.448a1.161,1.161,0,0,1-.552-.456,1.319,1.319,0,0,1-.2-.728,1.3,1.3,0,0,1,.368-.96A1.258,1.258,0,0,1,100.976-2.544Zm15.12-.048h-5.6L109.392,0h-2.144l5.04-11.2h2.048L119.392,0h-2.176Zm-.688-1.632L113.3-9.12l-2.1,4.9Zm13.616-4.32V-1.3q0,4.512-4.608,4.512A8.552,8.552,0,0,1,122.08,2.9a4.956,4.956,0,0,1-1.824-.9l.9-1.5a4.281,4.281,0,0,0,1.416.744,5.552,5.552,0,0,0,1.736.28,2.865,2.865,0,0,0,2.064-.64,2.616,2.616,0,0,0,.656-1.952V-1.52a3.288,3.288,0,0,1-1.248.848,4.4,4.4,0,0,1-1.616.288,4.635,4.635,0,0,1-2.2-.52,3.907,3.907,0,0,1-1.552-1.464,4.107,4.107,0,0,1-.568-2.16,4.065,4.065,0,0,1,.568-2.152,3.868,3.868,0,0,1,1.552-1.448,4.694,4.694,0,0,1,2.2-.512,4.508,4.508,0,0,1,1.688.3,3.114,3.114,0,0,1,1.272.928V-8.544Zm-4.56,6.464a2.622,2.622,0,0,0,1.864-.68,2.308,2.308,0,0,0,.728-1.768,2.264,2.264,0,0,0-.728-1.744,2.64,2.64,0,0,0-1.864-.672,2.662,2.662,0,0,0-1.88.672,2.264,2.264,0,0,0-.728,1.744,2.308,2.308,0,0,0,.728,1.768A2.644,2.644,0,0,0,124.464-2.08Zm7.184-6.464h2V0h-2Zm1.008-1.408a1.285,1.285,0,0,1-.912-.344,1.124,1.124,0,0,1-.368-.856,1.124,1.124,0,0,1,.368-.856,1.285,1.285,0,0,1,.912-.344,1.321,1.321,0,0,1,.912.328,1.057,1.057,0,0,1,.368.824,1.207,1.207,0,0,1-.36.888A1.246,1.246,0,0,1,132.656-9.952Zm3.616-1.92h2V0h-2Zm12.656,7.648q0,.208-.032.592h-6.7a2.324,2.324,0,0,0,.92,1.5,3.016,3.016,0,0,0,1.848.552,3.114,3.114,0,0,0,2.32-.928l1.072,1.232A3.612,3.612,0,0,1,146.9-.24a5.3,5.3,0,0,1-1.984.352,5.28,5.28,0,0,1-2.48-.56,4.033,4.033,0,0,1-1.656-1.56,4.406,4.406,0,0,1-.584-2.264,4.471,4.471,0,0,1,.568-2.248,4.029,4.029,0,0,1,1.576-1.56,4.6,4.6,0,0,1,2.272-.56,4.483,4.483,0,0,1,2.232.552,3.909,3.909,0,0,1,1.536,1.552A4.706,4.706,0,0,1,148.928-4.224Zm-4.32-2.816a2.413,2.413,0,0,0-1.624.568,2.389,2.389,0,0,0-.808,1.512h4.848a2.358,2.358,0,0,0-.784-1.5A2.384,2.384,0,0,0,144.608-7.04Zm15.456-4.16a6.2,6.2,0,0,1,2.536.48,3.688,3.688,0,0,1,1.656,1.376,3.85,3.85,0,0,1,.576,2.128,3.86,3.86,0,0,1-.576,2.12A3.67,3.67,0,0,1,162.6-3.712a6.2,6.2,0,0,1-2.536.48h-2.528V0h-2.08V-11.2Zm-.1,6.208a3.2,3.2,0,0,0,2.064-.576,2.008,2.008,0,0,0,.7-1.648,2.008,2.008,0,0,0-.7-1.648,3.2,3.2,0,0,0-2.064-.576h-2.432v4.448Zm8.576-2.3a3.332,3.332,0,0,1,3.04-1.344v1.9a2.539,2.539,0,0,0-.464-.048,2.416,2.416,0,0,0-1.824.68,2.712,2.712,0,0,0-.656,1.96V0h-2V-8.544h1.9Zm8.5,7.408a4.848,4.848,0,0,1-2.336-.56,4.083,4.083,0,0,1-1.624-1.56,4.406,4.406,0,0,1-.584-2.264,4.363,4.363,0,0,1,.584-2.256A4.1,4.1,0,0,1,174.7-8.08a4.848,4.848,0,0,1,2.336-.56,4.881,4.881,0,0,1,2.352.56,4.1,4.1,0,0,1,1.624,1.552,4.363,4.363,0,0,1,.584,2.256,4.406,4.406,0,0,1-.584,2.264,4.083,4.083,0,0,1-1.624,1.56A4.881,4.881,0,0,1,177.04.112Zm0-1.712a2.444,2.444,0,0,0,1.824-.736,2.65,2.65,0,0,0,.72-1.936,2.65,2.65,0,0,0-.72-1.936,2.444,2.444,0,0,0-1.824-.736,2.417,2.417,0,0,0-1.816.736,2.667,2.667,0,0,0-.712,1.936,2.667,2.667,0,0,0,.712,1.936A2.417,2.417,0,0,0,177.04-1.6ZM192-8.544V-1.3q0,4.512-4.608,4.512a8.552,8.552,0,0,1-2.336-.312,4.956,4.956,0,0,1-1.824-.9l.9-1.5a4.281,4.281,0,0,0,1.416.744,5.552,5.552,0,0,0,1.736.28,2.865,2.865,0,0,0,2.064-.64A2.616,2.616,0,0,0,190-1.072V-1.52a3.288,3.288,0,0,1-1.248.848,4.4,4.4,0,0,1-1.616.288,4.635,4.635,0,0,1-2.2-.52,3.907,3.907,0,0,1-1.552-1.464,4.107,4.107,0,0,1-.568-2.16,4.065,4.065,0,0,1,.568-2.152,3.868,3.868,0,0,1,1.552-1.448,4.694,4.694,0,0,1,2.2-.512,4.508,4.508,0,0,1,1.688.3,3.114,3.114,0,0,1,1.272.928V-8.544ZM187.44-2.08a2.622,2.622,0,0,0,1.864-.68,2.308,2.308,0,0,0,.728-1.768,2.264,2.264,0,0,0-.728-1.744,2.64,2.64,0,0,0-1.864-.672,2.662,2.662,0,0,0-1.88.672,2.264,2.264,0,0,0-.728,1.744,2.308,2.308,0,0,0,.728,1.768A2.644,2.644,0,0,0,187.44-2.08ZM196.528-7.3a3.332,3.332,0,0,1,3.04-1.344v1.9a2.539,2.539,0,0,0-.464-.048,2.416,2.416,0,0,0-1.824.68,2.712,2.712,0,0,0-.656,1.96V0h-2V-8.544h1.9ZM204.48-8.64a4.166,4.166,0,0,1,2.888.9,3.494,3.494,0,0,1,1,2.728V0H206.48V-1.04a2.327,2.327,0,0,1-1.048.856,4.1,4.1,0,0,1-1.64.3,4.018,4.018,0,0,1-1.68-.328A2.6,2.6,0,0,1,201-1.128a2.314,2.314,0,0,1-.392-1.32,2.262,2.262,0,0,1,.856-1.848,4.251,4.251,0,0,1,2.7-.7h2.208V-5.12a1.751,1.751,0,0,0-.536-1.376,2.319,2.319,0,0,0-1.592-.48,4.6,4.6,0,0,0-1.416.224,3.478,3.478,0,0,0-1.176.624l-.784-1.456a4.855,4.855,0,0,1,1.616-.784A7.19,7.19,0,0,1,204.48-8.64Zm-.272,7.3a2.582,2.582,0,0,0,1.336-.344,1.872,1.872,0,0,0,.824-.984v-.992H204.3q-1.728,0-1.728,1.136a1.02,1.02,0,0,0,.432.864A1.98,1.98,0,0,0,204.208-1.344Zm17.5-7.3a3.476,3.476,0,0,1,2.56.936,3.794,3.794,0,0,1,.944,2.808V0h-2V-4.64a2.5,2.5,0,0,0-.5-1.688A1.789,1.789,0,0,0,221.3-6.9a2.086,2.086,0,0,0-1.616.664,2.709,2.709,0,0,0-.608,1.9V0h-2V-4.64a2.5,2.5,0,0,0-.5-1.688,1.789,1.789,0,0,0-1.424-.568,2.092,2.092,0,0,0-1.624.656,2.727,2.727,0,0,0-.6,1.9V0h-2V-8.544h1.9v1.088a3.11,3.11,0,0,1,1.2-.88,4.074,4.074,0,0,1,1.6-.3,3.865,3.865,0,0,1,1.7.36,2.766,2.766,0,0,1,1.176,1.064,3.561,3.561,0,0,1,1.36-1.048A4.417,4.417,0,0,1,221.712-8.64Zm10.672-2.56h4.9a7.026,7.026,0,0,1,3.184.7,5.151,5.151,0,0,1,2.16,1.968,5.568,5.568,0,0,1,.768,2.936,5.568,5.568,0,0,1-.768,2.936A5.151,5.151,0,0,1,240.464-.7a7.026,7.026,0,0,1-3.184.7h-4.9Zm4.8,9.44a4.753,4.753,0,0,0,2.168-.472,3.377,3.377,0,0,0,1.44-1.344,3.972,3.972,0,0,0,.5-2.024,3.972,3.972,0,0,0-.5-2.024,3.377,3.377,0,0,0-1.44-1.344,4.753,4.753,0,0,0-2.168-.472h-2.72v7.68ZM253.44-4.224q0,.208-.032.592h-6.7a2.324,2.324,0,0,0,.92,1.5,3.016,3.016,0,0,0,1.848.552,3.114,3.114,0,0,0,2.32-.928l1.072,1.232a3.612,3.612,0,0,1-1.456,1.04,5.3,5.3,0,0,1-1.984.352,5.28,5.28,0,0,1-2.48-.56,4.033,4.033,0,0,1-1.656-1.56,4.406,4.406,0,0,1-.584-2.264,4.471,4.471,0,0,1,.568-2.248,4.029,4.029,0,0,1,1.576-1.56,4.6,4.6,0,0,1,2.272-.56,4.483,4.483,0,0,1,2.232.552,3.909,3.909,0,0,1,1.536,1.552A4.706,4.706,0,0,1,253.44-4.224ZM249.12-7.04a2.413,2.413,0,0,0-1.624.568,2.389,2.389,0,0,0-.808,1.512h4.848a2.358,2.358,0,0,0-.784-1.5A2.384,2.384,0,0,0,249.12-7.04Zm6.24-4.832h2V0h-2Zm4.624,3.328h2V0h-2Zm1.008-1.408a1.285,1.285,0,0,1-.912-.344,1.124,1.124,0,0,1-.368-.856,1.124,1.124,0,0,1,.368-.856,1.285,1.285,0,0,1,.912-.344,1.321,1.321,0,0,1,.912.328,1.057,1.057,0,0,1,.368.824,1.207,1.207,0,0,1-.36.888A1.246,1.246,0,0,1,260.992-9.952Zm11.616,1.408L268.944,0H266.88l-3.664-8.544h2.08l2.656,6.336,2.736-6.336Zm9.04,4.32q0,.208-.032.592h-6.7a2.324,2.324,0,0,0,.92,1.5,3.016,3.016,0,0,0,1.848.552A3.114,3.114,0,0,0,280-2.512l1.072,1.232a3.612,3.612,0,0,1-1.456,1.04,5.3,5.3,0,0,1-1.984.352,5.28,5.28,0,0,1-2.48-.56,4.033,4.033,0,0,1-1.656-1.56,4.406,4.406,0,0,1-.584-2.264,4.471,4.471,0,0,1,.568-2.248,4.029,4.029,0,0,1,1.576-1.56,4.6,4.6,0,0,1,2.272-.56,4.483,4.483,0,0,1,2.232.552A3.91,3.91,0,0,1,281.1-6.536,4.706,4.706,0,0,1,281.648-4.224Zm-4.32-2.816a2.413,2.413,0,0,0-1.624.568A2.389,2.389,0,0,0,274.9-4.96h4.848a2.358,2.358,0,0,0-.784-1.5A2.384,2.384,0,0,0,277.328-7.04Zm8.144-.256a3.332,3.332,0,0,1,3.04-1.344v1.9a2.539,2.539,0,0,0-.464-.048,2.416,2.416,0,0,0-1.824.68,2.712,2.712,0,0,0-.656,1.96V0h-2V-8.544h1.9Zm13.056-1.248-4,9.232a4.3,4.3,0,0,1-1.36,1.96,3.257,3.257,0,0,1-1.936.568,3.973,3.973,0,0,1-1.264-.208,2.793,2.793,0,0,1-1.024-.576l.8-1.472a2.177,2.177,0,0,0,.68.432,2.08,2.08,0,0,0,.792.16,1.363,1.363,0,0,0,.872-.272,2.4,2.4,0,0,0,.632-.912l.144-.336-3.728-8.576h2.08l2.688,6.32,2.7-6.32ZM314.672,0l-.016-7.424-3.68,6.144h-.928l-3.68-6.048V0h-1.984V-11.2H306.1l4.448,7.424,4.368-7.424h1.712L316.64,0Zm8.064-8.64a4.166,4.166,0,0,1,2.888.9,3.494,3.494,0,0,1,1,2.728V0h-1.888V-1.04a2.327,2.327,0,0,1-1.048.856,4.1,4.1,0,0,1-1.64.3,4.018,4.018,0,0,1-1.68-.328,2.6,2.6,0,0,1-1.112-.912,2.314,2.314,0,0,1-.392-1.32A2.262,2.262,0,0,1,319.72-4.3a4.251,4.251,0,0,1,2.7-.7h2.208V-5.12a1.751,1.751,0,0,0-.536-1.376,2.319,2.319,0,0,0-1.592-.48,4.6,4.6,0,0,0-1.416.224,3.479,3.479,0,0,0-1.176.624l-.784-1.456a4.855,4.855,0,0,1,1.616-.784A7.19,7.19,0,0,1,322.736-8.64Zm-.272,7.3a2.583,2.583,0,0,0,1.336-.344,1.872,1.872,0,0,0,.824-.984v-.992H322.56q-1.728,0-1.728,1.136a1.02,1.02,0,0,0,.432.864A1.98,1.98,0,0,0,322.464-1.344Zm11.568-7.3a3.57,3.57,0,0,1,2.592.944,3.724,3.724,0,0,1,.976,2.8V0h-2V-4.64a2.4,2.4,0,0,0-.528-1.688,1.952,1.952,0,0,0-1.5-.568,2.309,2.309,0,0,0-1.744.664,2.647,2.647,0,0,0-.64,1.912V0h-2V-8.544h1.9v1.1a3.127,3.127,0,0,1,1.248-.9A4.491,4.491,0,0,1,334.032-8.64Zm9.376,0a4.166,4.166,0,0,1,2.888.9,3.494,3.494,0,0,1,1,2.728V0h-1.888V-1.04a2.327,2.327,0,0,1-1.048.856,4.1,4.1,0,0,1-1.64.3,4.018,4.018,0,0,1-1.68-.328,2.6,2.6,0,0,1-1.112-.912,2.314,2.314,0,0,1-.392-1.32,2.262,2.262,0,0,1,.856-1.848,4.251,4.251,0,0,1,2.7-.7H345.3V-5.12A1.751,1.751,0,0,0,344.76-6.5a2.319,2.319,0,0,0-1.592-.48,4.6,4.6,0,0,0-1.416.224,3.479,3.479,0,0,0-1.176.624l-.784-1.456a4.855,4.855,0,0,1,1.616-.784A7.19,7.19,0,0,1,343.408-8.64Zm-.272,7.3a2.583,2.583,0,0,0,1.336-.344,1.872,1.872,0,0,0,.824-.984v-.992h-2.064q-1.728,0-1.728,1.136a1.02,1.02,0,0,0,.432.864A1.98,1.98,0,0,0,343.136-1.344Zm15.28-7.2V-1.3q0,4.512-4.608,4.512a8.552,8.552,0,0,1-2.336-.312,4.956,4.956,0,0,1-1.824-.9l.9-1.5a4.281,4.281,0,0,0,1.416.744,5.551,5.551,0,0,0,1.736.28A2.865,2.865,0,0,0,355.76.88a2.616,2.616,0,0,0,.656-1.952V-1.52a3.288,3.288,0,0,1-1.248.848,4.4,4.4,0,0,1-1.616.288,4.635,4.635,0,0,1-2.2-.52A3.907,3.907,0,0,1,349.8-2.368a4.107,4.107,0,0,1-.568-2.16A4.065,4.065,0,0,1,349.8-6.68a3.868,3.868,0,0,1,1.552-1.448,4.694,4.694,0,0,1,2.2-.512,4.508,4.508,0,0,1,1.688.3,3.114,3.114,0,0,1,1.272.928V-8.544Zm-4.56,6.464a2.622,2.622,0,0,0,1.864-.68,2.308,2.308,0,0,0,.728-1.768,2.264,2.264,0,0,0-.728-1.744,2.64,2.64,0,0,0-1.864-.672,2.662,2.662,0,0,0-1.88.672,2.264,2.264,0,0,0-.728,1.744,2.308,2.308,0,0,0,.728,1.768A2.644,2.644,0,0,0,353.856-2.08Zm15.216-2.144q0,.208-.032.592h-6.7a2.324,2.324,0,0,0,.92,1.5,3.016,3.016,0,0,0,1.848.552,3.114,3.114,0,0,0,2.32-.928L368.5-1.28A3.612,3.612,0,0,1,367.04-.24a5.3,5.3,0,0,1-1.984.352,5.28,5.28,0,0,1-2.48-.56,4.033,4.033,0,0,1-1.656-1.56,4.406,4.406,0,0,1-.584-2.264A4.471,4.471,0,0,1,360.9-6.52a4.029,4.029,0,0,1,1.576-1.56,4.6,4.6,0,0,1,2.272-.56,4.483,4.483,0,0,1,2.232.552,3.91,3.91,0,0,1,1.536,1.552A4.706,4.706,0,0,1,369.072-4.224Zm-4.32-2.816a2.413,2.413,0,0,0-1.624.568,2.389,2.389,0,0,0-.808,1.512h4.848a2.358,2.358,0,0,0-.784-1.5A2.384,2.384,0,0,0,364.752-7.04Zm17.024-1.6a3.476,3.476,0,0,1,2.56.936A3.794,3.794,0,0,1,385.28-4.9V0h-2V-4.64a2.5,2.5,0,0,0-.5-1.688A1.789,1.789,0,0,0,381.36-6.9a2.086,2.086,0,0,0-1.616.664,2.709,2.709,0,0,0-.608,1.9V0h-2V-4.64a2.5,2.5,0,0,0-.5-1.688,1.789,1.789,0,0,0-1.424-.568,2.092,2.092,0,0,0-1.624.656,2.727,2.727,0,0,0-.6,1.9V0h-2V-8.544h1.9v1.088a3.11,3.11,0,0,1,1.2-.88,4.074,4.074,0,0,1,1.6-.3,3.865,3.865,0,0,1,1.7.36,2.766,2.766,0,0,1,1.176,1.064,3.561,3.561,0,0,1,1.36-1.048A4.417,4.417,0,0,1,381.776-8.64Zm14.176,4.416q0,.208-.032.592h-6.7a2.324,2.324,0,0,0,.92,1.5,3.016,3.016,0,0,0,1.848.552,3.114,3.114,0,0,0,2.32-.928l1.072,1.232A3.612,3.612,0,0,1,393.92-.24a5.3,5.3,0,0,1-1.984.352,5.28,5.28,0,0,1-2.48-.56,4.033,4.033,0,0,1-1.656-1.56,4.406,4.406,0,0,1-.584-2.264,4.471,4.471,0,0,1,.568-2.248,4.029,4.029,0,0,1,1.576-1.56,4.6,4.6,0,0,1,2.272-.56,4.483,4.483,0,0,1,2.232.552A3.91,3.91,0,0,1,395.4-6.536,4.706,4.706,0,0,1,395.952-4.224Zm-4.32-2.816a2.413,2.413,0,0,0-1.624.568A2.389,2.389,0,0,0,389.2-4.96h4.848a2.358,2.358,0,0,0-.784-1.5A2.384,2.384,0,0,0,391.632-7.04Zm11.088-1.6a3.57,3.57,0,0,1,2.592.944,3.724,3.724,0,0,1,.976,2.8V0h-2V-4.64a2.4,2.4,0,0,0-.528-1.688,1.952,1.952,0,0,0-1.5-.568,2.309,2.309,0,0,0-1.744.664,2.647,2.647,0,0,0-.64,1.912V0h-2V-8.544h1.9v1.1a3.127,3.127,0,0,1,1.248-.9A4.491,4.491,0,0,1,402.72-8.64ZM413.968-.464a2.354,2.354,0,0,1-.856.432,3.855,3.855,0,0,1-1.064.144,3.019,3.019,0,0,1-2.176-.736,2.833,2.833,0,0,1-.768-2.144V-6.88H407.7v-1.6H409.1v-1.952h2V-8.48h2.288v1.6H411.1v4.064a1.352,1.352,0,0,0,.3.952,1.141,1.141,0,0,0,.88.328,1.757,1.757,0,0,0,1.12-.352Z" transform="translate(111.5 344.5)"/></svg>