<svg xmlns="http://www.w3.org/2000/svg" width="154.004" height="154" viewBox="0 0 154.004 154"><defs><style>.a{fill:none;stroke:#1043a5;stroke-linecap:round;stroke-linejoin:round;stroke-width:4px;}</style></defs><g transform="translate(-10101.094 4186.45)"><g transform="translate(9586.395 -6106.45)"><path class="a" d="M666.675,1982.6l-.025,75.75v12.9m-65.15-144.7L590.8,1922l-74.1,33.05v103.3H666.65m-149.95,0V2072H666.65"/></g><g transform="translate(9586.395 -6106.45)"><path class="a" d="M541.65,2058.15V1971.3h55.6m44.65,27.9v58.95"/></g><g transform="translate(9576.395 -6132.25)"><path class="a" d="M560.125,2017.282h9.35m-9.35,20.473v-20.473m20.478,20.473H560.125m20.478-20.473v20.473m-11.128-20.473H580.6m-11.128,0v3.75" transform="translate(9.959 25.794)"/></g><g transform="translate(9576.395 -6132.25)"><path class="a" d="M589.952,2017.282H601.08v20.473H580.6v-20.473Zm0,0v4.257" transform="translate(9.959 25.794)"/></g><g transform="translate(9576.395 -6132.25)"><path class="a" d="M601.08,2017.282h9.35m-9.35,20.473v-20.473m20.478,20.473H601.08m20.478-20.473v20.473m-11.128-20.473h11.128m-11.128,0v4.257" transform="translate(9.959 25.794)"/></g><g transform="translate(9577.395 -6132.25)"><path class="a" d="M550.81,2037.755h20.478v20.473H550.81Zm9.35,0v4.257" transform="translate(8.994 25.794)"/></g><g transform="translate(9577.395 -6132.25)"><path class="a" d="M571.288,2037.755h9.35m-9.35,20.473v-20.473m20.478,20.473H571.288m20.478-20.473v20.473m-11.128-20.473h11.128m-11.128,0v4.763" transform="translate(8.994 25.794)"/></g><g transform="translate(9577.395 -6132.25)"><path class="a" d="M601.115,2037.755h11.128v20.473H591.765v-20.473Zm0,0v4.257" transform="translate(8.994 25.794)"/></g><g transform="translate(9577.395 -6132.25)"><path class="a" d="M612.243,2037.755h9.35m-9.35,20.473v-20.473m20.478,20.473H612.243m20.478-20.473v20.473m-11.128-20.473h11.128m-11.128,0v4.1" transform="translate(8.994 25.794)"/></g><g transform="translate(9576.795 -6132.25)"><path class="a" d="M570.332,1996.2h9.35m-9.35,20.473V1996.2m20.478,20.473H570.332M590.81,1996.2v20.473M579.682,1996.2H590.81m-11.128,0v3.953" transform="translate(9.553 25.794)"/></g><g transform="translate(9576.795 -6132.25)"><path class="a" d="M600.159,1996.2h11.128v20.473H590.81V1996.2Zm0,0v3.7" transform="translate(9.553 25.794)"/></g><g transform="translate(9586.395 -6106.45)"><path class="a" d="M590.7,1960.2H554v-9.45h36.7m-17.85,0v9.45"/></g><g transform="translate(9808.545 -4300.25)"><path class="a" d="M636.965,1990.534h-9.358a1.837,1.837,0,0,1-1.166-.48,3.9,3.9,0,0,1-.788-.822l-1.748-4.351a42.619,42.619,0,0,1-5.725-2.638l-4.628,1.918a1.962,1.962,0,0,1-1.166.24,2.516,2.516,0,0,1-.925-.685l-6.513-6.509a2.833,2.833,0,0,1-.823-1.2,4.957,4.957,0,0,1,.24-1.3l1.92-4.385a27.685,27.685,0,0,1-2.571-5.824l-4.422-1.713a4.395,4.395,0,0,1-.994-.856,3.032,3.032,0,0,1-.171-1.028v-9.455a3.889,3.889,0,0,1,.171-1.1q.445-.377.994-.788l4.422-1.781a25.618,25.618,0,0,1,2.571-5.687l-1.92-4.659a3.038,3.038,0,0,1-.24-1.165,2.325,2.325,0,0,1,.823-.959l6.513-6.475a2.115,2.115,0,0,1,.925-.822,2.282,2.282,0,0,1,1.166.343l4.628,1.816a22.477,22.477,0,0,1,5.725-2.466l1.748-4.522a4.811,4.811,0,0,1,.788-.856,2.473,2.473,0,0,1,1.166-.308h9.358a2.047,2.047,0,0,1,1.131.308,10.181,10.181,0,0,1,1.028.856l1.543,4.522a24.294,24.294,0,0,1,5.828,2.466l4.388-1.816a3.248,3.248,0,0,1,1.3-.343,4.441,4.441,0,0,1,1.166.822l6.513,6.475a2.658,2.658,0,0,1,.72.959,1.959,1.959,0,0,1-.24,1.165l-1.92,4.659a50.315,50.315,0,0,1,2.639,5.687l4.216,1.781a4,4,0,0,1,.96.788,1.841,1.841,0,0,1,.446,1.1v9.455a1.49,1.49,0,0,1-.446,1.028,2.361,2.361,0,0,1-.96.856l-4.216,1.713a56.8,56.8,0,0,1-2.639,5.824l1.92,4.385a2.811,2.811,0,0,1,.24,1.3,3.365,3.365,0,0,1-.72,1.2l-6.513,6.509a3.281,3.281,0,0,1-1.166.685,2.646,2.646,0,0,1-1.3-.24l-4.388-1.918a48.494,48.494,0,0,1-5.828,2.638l-1.543,4.351a7.343,7.343,0,0,1-1.028.822A1.548,1.548,0,0,1,636.965,1990.534Z" transform="translate(-222.131 -1806.192)"/></g><g transform="translate(9586.395 -6106.45)"><path class="a" d="M620.05,1943.8a.322.322,0,0,1,.2-.15,16.189,16.189,0,0,1,3.05-2.5,16.723,16.723,0,0,1,9.1-2.55,16.405,16.405,0,0,1,9.1,2.55,15.46,15.46,0,0,1,3.1,2.5,16.4,16.4,0,0,1,5.05,12.1,18.483,18.483,0,0,1-.35,3.65l3.55-2.1m-40.75-2.9,3.75-3.35,3.25,3.8m25.25,13.3a16.777,16.777,0,0,1-6.5,4.05,18.793,18.793,0,0,1-10.85,0,16.9,16.9,0,0,1-6.75-4.3,16.54,16.54,0,0,1-5-12.15,17.851,17.851,0,0,1,.6-4.7m33.45,8.35-3.3-3"/></g></g></svg>