<svg xmlns="http://www.w3.org/2000/svg" width="154.002" height="154.001" viewBox="0 0 154.002 154.001"><defs><style>.a{fill:rgba(0,0,0,0);stroke:#1043a5;stroke-linecap:round;stroke-linejoin:round;stroke-width:4px;}</style></defs><g transform="translate(-9921.988 4011.807)"><g transform="translate(8926.994 -4474.8)"><path class="a" d="M361.742,2197.12v2.605m41.781-2.605v2.605m6.7-2.605v2.605m6.7-2.605v2.605" transform="translate(659.34 -1631.649)"/><path class="a" d="M369.041,2190.3H355.71a1.7,1.7,0,0,0-1.266.537,1.968,1.968,0,0,0-.447,1.3v14.637a1.969,1.969,0,0,0,.447,1.3,1.7,1.7,0,0,0,1.266.536h67.326a1.62,1.62,0,0,0,1.192-.536,1.8,1.8,0,0,0,.521-1.3V2192.14a1.8,1.8,0,0,0-.521-1.3,1.618,1.618,0,0,0-1.192-.537H382.372m-20.853,24.982v-6.667m56.154,6.667v-6.667" transform="translate(659.34 -1631.649)"/></g><g transform="translate(8926.994 -4474.8)"><path class="a" d="M362.487,2225.327v2.612m48.483-2.612v2.612m-6.7-2.612v2.612m13.406-2.612v2.612" transform="translate(659.34 -1631.575)"/><path class="a" d="M418.418,2236.774h5.362a1.617,1.617,0,0,0,1.192-.538,1.806,1.806,0,0,0,.521-1.306v-14.6a1.87,1.87,0,0,0-.447-1.229l-.075-.077a1.616,1.616,0,0,0-1.192-.538H356.454a1.7,1.7,0,0,0-1.266.538l-.074.077a2.107,2.107,0,0,0-.372,1.229v14.6a1.976,1.976,0,0,0,.447,1.306,1.7,1.7,0,0,0,1.266.538h61.963Zm0,0v9.219m-56.154,0v-9.219" transform="translate(659.34 -1631.575)"/></g><g transform="translate(8926.994 -4473.75)"><path class="a" d="M352.028,2246.59h74.025" transform="translate(659.385 -1632.646)"/></g><g transform="translate(9763.295 -4451.45)"><path class="a" d="M357.652,2140.159h63.595" transform="translate(-176.893 -1654.973)"/></g><g transform="translate(9290.545 -4674.9)"><path class="a" d="M375.55,2173.954H360.782q-3,0-3-3.218v-36.018q0-3.3,3-3.3h8.4m36.658,0h13.344q3.149,0,3.149,3.3v36.018q0,3.219-3.149,3.218H403.663m-19.416-9.579v12.645m10.12,6.744v-8.812m0-10.346V2154.03M379.9,2131.423h25.488" transform="translate(295.82 -1431.514)"/></g><g transform="translate(9294.895 -4675.15)"><path class="a" d="M430.7,2163.291a20.914,20.914,0,0,0,12.152-18.777,20.179,20.179,0,0,0-5.666-14.255,18.316,18.316,0,0,0-13.718-5.9,23.393,23.393,0,0,0-3.8.307,11.956,11.956,0,0,0,.149-1.916,16.455,16.455,0,0,0-4.7-11.8,15.044,15.044,0,0,0-11.332-4.752,15.27,15.27,0,0,0-10.363,3.832,27.832,27.832,0,0,0-4.548-6.284,22.856,22.856,0,0,0-16.775-7.127,22.614,22.614,0,0,0-16.7,7.127,24.086,24.086,0,0,0-6.933,17.321,28.577,28.577,0,0,0,.447,5.135,21.6,21.6,0,0,0-5.591,4.062,20.179,20.179,0,0,0-5.666,14.255,19.481,19.481,0,0,0,5.666,14.1,21.041,21.041,0,0,0,5.07,4.024q.769.419,1.566.767" transform="translate(291.434 -1431.271)"/></g><g transform="translate(9290.545 -4675.15)"><path class="a" d="M447.218,2128.5h6.522a2.487,2.487,0,0,1,1.274.307q.6.46,1.2,1l1.8,5.288a24.342,24.342,0,0,1,6.522,2.912l5.1-2.069a3.475,3.475,0,0,1,1.5-.46,15.832,15.832,0,0,1,1.349.92l7.422,7.74a2.086,2.086,0,0,1,.75,1.073,1.715,1.715,0,0,1-.225,1.3l-2.249,5.441a58.727,58.727,0,0,1,3.074,6.744l4.8,2.146a3.461,3.461,0,0,1,1.124.843,2.711,2.711,0,0,1,.45,1.3V2174.1a1.854,1.854,0,0,1-.45,1.226,2.728,2.728,0,0,1-1.124,1l-4.8,2.069a51.675,51.675,0,0,1-3.074,6.744l2.249,5.212a2.551,2.551,0,0,1,.225,1.533,3.7,3.7,0,0,1-.75,1.38l-7.422,7.664a3.574,3.574,0,0,1-1.349.766,2.4,2.4,0,0,1-1.5-.23l-5.1-2.3a40.693,40.693,0,0,1-6.522,3.066l-1.8,5.135a6.9,6.9,0,0,1-1.2,1,1.716,1.716,0,0,1-1.274.536H443.095a2.168,2.168,0,0,1-1.349-.536,5.86,5.86,0,0,1-.9-1l-1.949-5.135q-2.176-.809-4.123-1.763m17.617-48.629a12.714,12.714,0,0,1,2.174.728,15,15,0,0,1,2.7,1.418,18.565,18.565,0,0,1,3.074,2.491,17.636,17.636,0,0,1,4.873,12.339,16.4,16.4,0,0,1-4.873,11.879,15.63,15.63,0,0,1-11.62,5.135,16.356,16.356,0,0,1-11.995-5.135,17.873,17.873,0,0,1-3.336-4.829" transform="translate(295.82 -1431.271)"/></g></g></svg>