<svg xmlns="http://www.w3.org/2000/svg" xmlns:xlink="http://www.w3.org/1999/xlink" width="1920" height="1080" viewBox="0 0 1920 1080"><defs><style>.a{fill:#fff;}.b{fill:url(#a);}.c{clip-path:url(#b);}.d{opacity:0.6;}.e,.g,.h{fill:none;stroke-miterlimit:10;}.e{stroke:#339eff;}.f{opacity:0.5;}.g,.h{stroke:#4bcd3d;}.h{stroke-width:2px;opacity:0.4;}</style><linearGradient id="a" x1="0.5" x2="0.5" y2="1" gradientUnits="objectBoundingBox"><stop offset="0" stop-color="#1043a5"/><stop offset="1" stop-color="#0e398b"/></linearGradient><clipPath id="b"><rect class="a" width="1920" height="1080"/></clipPath></defs><rect class="b" width="1920" height="1080"/><g class="c"><g class="d" transform="translate(671.926 550)"><path class="e" d="M0,616.573C118.259,336.651,254.341,270.811,512.665,389.49,660.489,457.426,879.814,716.8,1041.686,641.944c156.21-72.339-109.243-320.18-59.549-458.568C1057.831-27.143,1435.044-17.288,1629.626,23.39" transform="translate(113.227 34.272)"/><path class="e" d="M0,609.76C122.243,341.58,257.276,281.612,511.407,398.823c148.243,68.565,365.261,318.293,523.569,237.986,155.372-78.839-92.468-318.712-35.645-455.633,83.033-200.034,440.536-196.05,628.408-165.856" transform="translate(107.775 39.617)"/><path class="e" d="M0,603.949C126.227,347.512,259.792,293.624,510.149,409.367c148.872,68.984,363.583,309.277,518.117,223.518,154.324-85.549-76.113-316.825-11.742-452.907C1105.638-9.572,1444.689-11.669,1625.642,8.251" transform="translate(102.533 43.959)"/><path class="e" d="M0,599.591C130.211,355.1,262.518,307.088,508.891,421.154c149.5,69.613,361.7,300.051,512.456,209.05,153.276-92.469-59.968-314.519,12.161-449.972C1128.493,1.166,1449.721-7.011,1623.755,2.634" transform="translate(97.081 46.85)"/><path class="e" d="M0,598.215C134.195,365.471,265.244,323.325,507.633,435.923c149.921,70.033,359.809,290.615,507,194.792C1167.074,531.327,970.6,318.5,1050.7,183.469,1150.509,14.887,1454.753.839,1621.868,0" transform="translate(91.63 46.758)"/><path class="e" d="M0,599.682c138.178-221,267.97-257.276,506.165-146.146,150.55,70.662,357.922,281.18,501.553,180.324,151.388-106.517-28.726-309.486,59.758-444.52C1171.477,31.033,1459.367,11.113,1619.771,0" transform="translate(86.388 43.823)"/><path class="e" d="M0,600.94C142.162,391.89,270.7,361.487,504.907,471.149c150.969,71.081,356.035,271.535,496.1,165.856,150.34-113.646-13.839-306.97,83.662-441.584C1192.026,47.178,1464.4,21.6,1617.884,0" transform="translate(80.936 41.097)"/><path class="e" d="M0,602.2C146.146,404.891,273.421,380.358,503.649,488.553c151.6,71.71,354.148,261.889,490.439,151.388,149.292-120.985.839-304.245,107.565-438.859C1211.526,62.694,1469.221,31.871,1615.787,0" transform="translate(75.485 38.371)"/><path class="e" d="M0,603.457c150.13-185.566,276.147-204.018,502.391-97.5,152.017,72.13,352.051,252.034,484.988,136.921,148.243-128.324,14.887-301.728,131.469-435.923C1231.026,78,1474.464,42.355,1614.11,0" transform="translate(70.033 35.645)"/><path class="e" d="M0,604.715c154.114-173.824,278.873-186.4,501.133-81.356,152.646,72.759,349.955,242.18,479.536,122.453,146.985-135.872,28.726-299.422,155.372-433.2C1249.478,93.1,1479.077,52.629,1612.013,0" transform="translate(64.791 32.92)"/><path class="e" d="M0,605.973c158.1-161.872,281.6-168.582,499.875-65C652.941,614.36,847.733,773.087,973.959,649.167c145.727-143.421,41.936-297.535,179.276-430.262C1267.72,107.775,1484.109,62.9,1610.126,0" transform="translate(59.339 30.194)"/><path class="e" d="M0,607.231C162.082,457.1,284.325,456.262,498.617,558.376,652.312,632.183,844.168,780.426,967.04,652.1c144.469-150.969,54.936-295.857,203.179-427.536C1285.542,122.243,1489.141,73.388,1608.239,0" transform="translate(53.888 27.468)"/><path class="e" d="M0,608.489C166.275,470.1,287.051,475.343,497.359,575.779c154.114,74.436,343.454,211.986,462.971,79.259,143-158.727,67.307-294.809,227.082-424.6C1302.946,136.291,1493.963,83.662,1606.142,0" transform="translate(48.646 24.742)"/><path class="e" d="M0,609.747C170.259,483.31,289.777,494.214,495.891,593.182c154.743,74.856,340.938,201.921,457.52,64.791,141.533-166.485,79.468-294.18,250.776-421.874,116.162-86.178,294.6-142.162,400.068-236.1" transform="translate(43.194 22.016)"/><path class="e" d="M0,611.005c174.243-114.694,292.5-97.71,494.633-.419C649.8,686.07,833.265,802.232,946.7,660.909c139.856-174.244,91.211-294.39,274.68-418.939C1337.543,163.13,1503.818,104.211,1602.368,0" transform="translate(37.742 19.291)"/><path class="e" d="M0,612.473c178.227-102.952,295.228-80.1,493.375,15.936,155.792,75.9,336.116,181.582,446.407,36.065,138.178-182,102.743-295.438,298.583-416.213C1354.737,176.34,1508.851,114.9,1600.481,0" transform="translate(32.291 16.355)"/><path class="e" d="M0,613.731c182.211-91,297.954-62.275,492.117,32.081,156.211,76.533,333.39,171.308,440.955,21.6,136.5-189.969,114.066-297.115,322.486-413.487C1371.931,189.131,1513.673,125.178,1598.384,0" transform="translate(27.049 13.629)"/><path class="e" d="M0,614.989c186.195-79.259,300.68-44.662,490.859,48.226,156.84,76.952,330.874,161.034,435.5,7.129,134.4-197.937,125.179-299.632,346.39-410.552C1389.334,201.292,1518.5,135.453,1596.5,0" transform="translate(21.597 10.903)"/><path class="e" d="M0,616.247c190.179-67.517,303.406-26.839,489.6,64.371C647.07,758.2,817.748,831.378,919.652,673.28c132.517-205.9,136.082-303.2,370.293-407.826,116.791-52,233.582-119.517,304.664-265.454" transform="translate(16.145 8.178)"/><path class="e" d="M0,617.505c194.163-55.775,306.131-9.226,488.343,80.726,157.888,78.21,325.422,140.485,424.391-21.807,130.421-213.663,147.195-307.809,394.2-404.891C1424.35,225.405,1528.351,156.211,1592.723,0" transform="translate(10.903 5.452)"/><path class="e" d="M0,618.763c198.147-43.823,308.857,8.6,487.085,96.872,158.517,78.63,322.7,130.42,418.939-36.275,128.324-221.631,158.1-313.051,417.89-402.165,118.259-40.258,209.47-110.711,266.712-277.2" transform="translate(5.452 2.726)"/><path class="e" d="M0,620.021c202.131-32.081,311.583,26.21,485.617,113.017C644.554,812.3,805.378,853.184,899.1,682.506c126.227-229.808,169.421-319.341,442-399.229C1460.415,248.26,1538.206,176.969,1588.739,0" transform="translate(0 0)"/></g><g transform="matrix(0.995, 0.105, -0.105, 0.995, 138.226, -54.629)"><g class="f" transform="translate(-424.598 -588.652) rotate(15)"><path class="g" d="M0,616.573C118.259,336.651,254.341,270.811,512.665,389.49,660.489,457.426,879.814,716.8,1041.686,641.944c156.21-72.339-109.243-320.18-59.549-458.568C1057.831-27.143,1435.044-17.288,1629.626,23.39" transform="translate(113.227 34.272)"/><path class="g" d="M0,609.76C122.243,341.58,257.276,281.612,511.407,398.823c148.243,68.565,365.261,318.293,523.569,237.986,155.372-78.839-92.468-318.712-35.645-455.633,83.033-200.034,440.536-196.05,628.408-165.856" transform="translate(107.775 39.617)"/><path class="g" d="M0,603.949C126.227,347.512,259.792,293.624,510.149,409.367c148.872,68.984,363.583,309.277,518.117,223.518,154.324-85.549-76.113-316.825-11.742-452.907C1105.638-9.572,1444.689-11.669,1625.642,8.251" transform="translate(102.533 43.959)"/><path class="g" d="M0,599.591C130.211,355.1,262.518,307.088,508.891,421.154c149.5,69.613,361.7,300.051,512.456,209.05,153.276-92.469-59.968-314.519,12.161-449.972C1128.493,1.166,1449.721-7.011,1623.755,2.634" transform="translate(97.081 46.85)"/><path class="g" d="M0,598.215C134.195,365.471,265.244,323.325,507.633,435.923c149.921,70.033,359.809,290.615,507,194.792C1167.074,531.327,970.6,318.5,1050.7,183.469,1150.509,14.887,1454.753.839,1621.868,0" transform="translate(91.63 46.758)"/><path class="g" d="M0,599.682c138.178-221,267.97-257.276,506.165-146.146,150.55,70.662,357.922,281.18,501.553,180.324,151.388-106.517-28.726-309.486,59.758-444.52C1171.477,31.033,1459.367,11.113,1619.771,0" transform="translate(86.388 43.823)"/><path class="g" d="M0,600.94C142.162,391.89,270.7,361.487,504.907,471.149c150.969,71.081,356.035,271.535,496.1,165.856,150.34-113.646-13.839-306.97,83.662-441.584C1192.026,47.178,1464.4,21.6,1617.884,0" transform="translate(80.936 41.097)"/><path class="g" d="M0,602.2C146.146,404.891,273.421,380.358,503.649,488.553c151.6,71.71,354.148,261.889,490.439,151.388,149.292-120.985.839-304.245,107.565-438.859C1211.526,62.694,1469.221,31.871,1615.787,0" transform="translate(75.485 38.371)"/><path class="g" d="M0,603.457c150.13-185.566,276.147-204.018,502.391-97.5,152.017,72.13,352.051,252.034,484.988,136.921,148.243-128.324,14.887-301.728,131.469-435.923C1231.026,78,1474.464,42.355,1614.11,0" transform="translate(70.033 35.645)"/><path class="g" d="M0,604.715c154.114-173.824,278.873-186.4,501.133-81.356,152.646,72.759,349.955,242.18,479.536,122.453,146.985-135.872,28.726-299.422,155.372-433.2C1249.478,93.1,1479.077,52.629,1612.013,0" transform="translate(64.791 32.92)"/><path class="g" d="M0,605.973c158.1-161.872,281.6-168.582,499.875-65C652.941,614.36,847.733,773.087,973.959,649.167c145.727-143.421,41.936-297.535,179.276-430.262C1267.72,107.775,1484.109,62.9,1610.126,0" transform="translate(59.339 30.194)"/><path class="g" d="M0,607.231C162.082,457.1,284.325,456.262,498.617,558.376,652.312,632.183,844.168,780.426,967.04,652.1c144.469-150.969,54.936-295.857,203.179-427.536C1285.542,122.243,1489.141,73.388,1608.239,0" transform="translate(53.888 27.468)"/><path class="g" d="M0,608.489C166.275,470.1,287.051,475.343,497.359,575.779c154.114,74.436,343.454,211.986,462.971,79.259,143-158.727,67.307-294.809,227.082-424.6C1302.946,136.291,1493.963,83.662,1606.142,0" transform="translate(48.646 24.742)"/><path class="g" d="M0,609.747C170.259,483.31,289.777,494.214,495.891,593.182c154.743,74.856,340.938,201.921,457.52,64.791,141.533-166.485,79.468-294.18,250.776-421.874,116.162-86.178,294.6-142.162,400.068-236.1" transform="translate(43.194 22.016)"/><path class="g" d="M0,611.005c174.243-114.694,292.5-97.71,494.633-.419C649.8,686.07,833.265,802.232,946.7,660.909c139.856-174.244,91.211-294.39,274.68-418.939C1337.543,163.13,1503.818,104.211,1602.368,0" transform="translate(37.742 19.291)"/><path class="g" d="M0,612.473c178.227-102.952,295.228-80.1,493.375,15.936,155.792,75.9,336.116,181.582,446.407,36.065,138.178-182,102.743-295.438,298.583-416.213C1354.737,176.34,1508.851,114.9,1600.481,0" transform="translate(32.291 16.355)"/><path class="g" d="M0,613.731c182.211-91,297.954-62.275,492.117,32.081,156.211,76.533,333.39,171.308,440.955,21.6,136.5-189.969,114.066-297.115,322.486-413.487C1371.931,189.131,1513.673,125.178,1598.384,0" transform="translate(27.049 13.629)"/><path class="g" d="M0,614.989c186.195-79.259,300.68-44.662,490.859,48.226,156.84,76.952,330.874,161.034,435.5,7.129,134.4-197.937,125.179-299.632,346.39-410.552C1389.334,201.292,1518.5,135.453,1596.5,0" transform="translate(21.597 10.903)"/><path class="g" d="M0,616.247c190.179-67.517,303.406-26.839,489.6,64.371C647.07,758.2,817.748,831.378,919.652,673.28c132.517-205.9,136.082-303.2,370.293-407.826,116.791-52,233.582-119.517,304.664-265.454" transform="translate(16.145 8.178)"/><path class="g" d="M0,617.505c194.163-55.775,306.131-9.226,488.343,80.726,157.888,78.21,325.422,140.485,424.391-21.807,130.421-213.663,147.195-307.809,394.2-404.891C1424.35,225.405,1528.351,156.211,1592.723,0" transform="translate(10.903 5.452)"/><path class="g" d="M0,618.763c198.147-43.823,308.857,8.6,487.085,96.872,158.517,78.63,322.7,130.42,418.939-36.275,128.324-221.631,158.1-313.051,417.89-402.165,118.259-40.258,209.47-110.711,266.712-277.2" transform="translate(5.452 2.726)"/><path class="g" d="M0,620.021c202.131-32.081,311.583,26.21,485.617,113.017C644.554,812.3,805.378,853.184,899.1,682.506c126.227-229.808,169.421-319.341,442-399.229C1460.415,248.26,1538.206,176.969,1588.739,0" transform="translate(0 0)"/></g><path class="h" d="M0,616.573C118.259,336.651,254.341,270.811,512.665,389.49,660.489,457.426,879.814,716.8,1041.686,641.944c156.21-72.339-109.243-320.18-59.549-458.568C1057.831-27.143,1435.044-17.288,1629.626,23.39" transform="translate(-324.1 -526.243) rotate(15)"/></g></g></svg>