<svg xmlns="http://www.w3.org/2000/svg" width="657.343" height="594.846" viewBox="0 0 657.343 594.846"><defs><style>.a,.ad,.ag,.d,.g,.h,.k,.o,.r,.s,.t,.w,.x{fill:none;}.a,.ae,.ag,.w,.y{stroke:#0198fa;}.a,.ad,.ah,.aj,.ak,.g,.h,.k,.o,.r,.s,.t{stroke-linecap:round;}.a,.ah,.aj,.ak,.g,.h,.k,.o,.r,.s,.t{stroke-linejoin:round;}.a,.ad,.ae,.ag,.ah,.aj,.am,.an,.ap,.g,.h,.k,.t,.v,.w,.x,.y{stroke-width:2px;}.b{fill:rgba(0,0,0,0.2);}.c{fill:rgba(0,0,0,0.4);}.e,.m,.z{opacity:0.2;}.f,.h,.p{opacity:0.3;}.ad,.ah,.aj,.ak,.am,.an,.ap,.g,.h,.o,.r,.s,.v,.x{stroke:#fff;}.i{fill:rgba(0,0,0,0.3);}.j{fill:#4bcd3d;}.k{stroke:rgba(255,255,255,0.3);}.l{fill:#0af;}.m,.p{fill:#0e0e0e;}.n{fill:#f0fbff;}.o{stroke-width:1.8px;}.q{fill:#94baef;}.r{stroke-width:1.7px;}.ak,.s{stroke-width:3px;}.t{stroke:#4bcd3d;}.u,.v{fill:#fff;}.ag,.x,.y{stroke-miterlimit:10;}.aa,.ae,.ah,.am,.y{fill:#1043a5;}.ab{fill:#0c3583;opacity:0.997;}.ac{fill:#0f3886;}.af{fill:#0198fa;}.ai,.aj{fill:#0e3c94;}.ak{fill:#184bad;}.al{fill:#0c378b;}.an,.ao{fill:#f2f1e7;}.ap{fill:#1043a4;}.aq{fill:#0d3c98;}.ar{opacity:0.1;}</style></defs><g transform="translate(0 1)"><g transform="translate(334.756 348.199)"><path class="a" d="M1191.08,793.4l13.2-1.344a28.564,28.564,0,0,0,3.075,4.3l-10.928,4.419a48.5,48.5,0,0,0,7.763,6.688l11.286-4.15a31.868,31.868,0,0,0,2.717,1.7q1.1.657,2.956,1.582l-4.6,4.18-2.568,2.329a89.979,89.979,0,0,0,11.584,4.508l7.643-6.33q3.643,1.045,7.434,1.792l-2.12,7.016-.179.567a118.753,118.753,0,0,0,13.675,1.612l2.836-7.554q4.031.179,8.031,0l2.926,7.584a121.561,121.561,0,0,0,13.645-1.553l-.179-.6-2.18-7.016q3.643-.687,7.4-1.762l7.7,6.359a88.564,88.564,0,0,0,11.555-4.449l-2.18-1.971-.239-.209-4.837-4.359q1.851-.926,2.956-1.582,1.164-.657,2.717-1.672l11.316,4.15a47.8,47.8,0,0,0,7.7-6.658l-1.4-.567h-.03l-.3-.119a.23.23,0,0,0-.09-.03q-3.075-1.254-6.121-2.478l-3.045-1.254a28.5,28.5,0,0,0,3.045-4.27l13.167,1.373a26.06,26.06,0,0,0,2.687-7.882l-1.851-.239L1316,784.054q.06-.627.119-1.224l-.119-3.4,13.047-1.642a26.226,26.226,0,0,0-2.747-7.882l-6.748.687-6.419.627a30.276,30.276,0,0,0-3.105-4.3l10.958-4.389a48.769,48.769,0,0,0-7.793-6.718l-11.256,4.15a5.685,5.685,0,0,1-.627-.418q-1.672-1.045-2.12-1.284-1.1-.657-2.956-1.582l7.166-6.509a86.485,86.485,0,0,0-11.585-4.479l-7.643,6.3q-2.687-.776-5.285-1.314-1.075-.239-2.12-.448l2.269-7.614q-.794-.143-1.6-.269m1.6.269v7.464l-.149.6m52.518-17.944a6.483,6.483,0,0,1,1.672-1.463.086.086,0,0,1,.06-.03q.06-.06.09-.06a3.2,3.2,0,0,1,.269-.179,14.34,14.34,0,0,1,7.255-1.732,14.614,14.614,0,0,1,7.285,1.762,6.42,6.42,0,0,1,2.627,2.508l.119.239a3.686,3.686,0,0,1,.3,1.463q0,2.418-2.986,4.18a14.339,14.339,0,0,1-7.255,1.732,14.613,14.613,0,0,1-7.285-1.761q-3.016-1.732-3.045-4.21a3.8,3.8,0,0,1,.9-2.448,4.052,4.052,0,0,0-.806,1.732,4,4,0,0,0,1.373,3.732,7.859,7.859,0,0,1,1.523-1.164,14.339,14.339,0,0,1,7.255-1.732,14.614,14.614,0,0,1,7.285,1.762,7.338,7.338,0,0,1,1.582,1.194,3.908,3.908,0,0,0,1.373-3.732,3.968,3.968,0,0,0-.209-.746m7.136-15.585a51.7,51.7,0,0,0-8.539-2.06l-4.747,4.508a44.591,44.591,0,0,0-7.823-.03L1332,716.1a53.584,53.584,0,0,0-8.509,2.03l2.15,5.135q-1.194.508-2.09.985-.478.239-.9.478a20.778,20.778,0,0,0-2.538,1.732l-8.9-1.254a16.124,16.124,0,0,0-3.493,4.926l7.793,2.777a8.63,8.63,0,0,0,0,4.389.279.279,0,0,0,.03.119l-.03.03-2.12.746-5.613,1.97a16.8,16.8,0,0,0,3.523,4.926l8.9-1.224a21.307,21.307,0,0,0,2.568,1.762,30.138,30.138,0,0,0,2.986,1.463l-1.971,4.867-.119.269a52.442,52.442,0,0,0,8.539,2.03l4.747-4.478a42.792,42.792,0,0,0,7.823,0l4.807,4.508a49.425,49.425,0,0,0,8.509-2l-.328-.806-1.821-4.329a30.134,30.134,0,0,0,2.986-1.463,20.783,20.783,0,0,0,2.538-1.732l8.9,1.254a16.126,16.126,0,0,0,3.493-4.926l-5.643-2-2.15-.776a8.879,8.879,0,0,0-.03-4.508l7.763-2.747a16.8,16.8,0,0,0-3.523-4.926l-8.927,1.194a21.531,21.531,0,0,0-2.538-1.732q-.418-.239-.926-.478-.9-.478-2.06-.985l2.09-5.135v6.031l-.03.09m-34.4-6.18v6.031l.06.09m-8.032,13.2V737.3m-7.733,2.866V746.2a16.8,16.8,0,0,0,3.523,4.926l8.9-1.224a22.439,22.439,0,0,0,2.568,1.732l.926.508.089-.179m-20.392-1.791v7.464l-2.09,1.911m22.363-7.315v6.031a52.442,52.442,0,0,0,8.539,2.03l4.747-4.479a42.77,42.77,0,0,0,7.823,0l4.807,4.508a49.436,49.436,0,0,0,8.509-2v-6.031m-50.369-22.154v6.031l5.673,2.03m44.367,13.286.3.687.866-.448a26.135,26.135,0,0,0,2.538-1.732l8.9,1.254a15.727,15.727,0,0,0,3.493-4.926v-6.031m-.06-10.032v6.031l-5.583,2m-39.172,39.5v7.464l-1.791.269m-6.27-22.99v7.464l-1.433.6m-17.974,40.725.6-.358,11.316,4.18a46.518,46.518,0,0,0,7.7-6.688v-7.464m-1.4-.567,6.628.687a26.423,26.423,0,0,0,2.687-7.882v-7.464m-91.183-2.836a8.358,8.358,0,0,0,.9,2.389,12.992,12.992,0,0,1,5.046-4.747,32.76,32.76,0,0,1,29.558.06,12.91,12.91,0,0,1,5.135,4.837,7.186,7.186,0,0,0,.478-6.479,9.935,9.935,0,0,0-2.06-3.165,16.757,16.757,0,0,0-3.553-2.687,29.478,29.478,0,0,0-14.779-3.553,28.957,28.957,0,0,0-14.779,3.493q-.358.209-.657.418a.086.086,0,0,0-.06.03,13.658,13.658,0,0,0-3.016,2.478,8.082,8.082,0,0,0-2.239,4.6,3.039,3.039,0,0,0-.06.6,2.955,2.955,0,0,0-.03.418,4.609,4.609,0,0,0,.03.508,3.847,3.847,0,0,0,.09.806q.716,4.18,6.031,7.225a29.132,29.132,0,0,0,14.809,3.553,28.792,28.792,0,0,0,14.749-3.493q6.121-3.523,6.091-8.539a8.265,8.265,0,0,0-2.627-5.852m2.3,44.338q3.135-.687,5.225-1.314l7.7,6.359a85.927,85.927,0,0,0,11.555-4.449v-7.464m-65.417,7.375v7.494a118.423,118.423,0,0,0,13.675,1.582l2.836-7.554q3.852.179,8.031.03l2.926,7.554a121.533,121.533,0,0,0,13.645-1.553v-7.464m-83.032-19.974v7.464a48.5,48.5,0,0,0,7.763,6.688l11.286-4.12.6.388.478-.418m-2.568,2.329v7.464a87.126,87.126,0,0,0,11.584,4.508l7.643-6.33q1.732.508,5.315,1.344M1188.9,795.43a29.833,29.833,0,0,0,2.179,5.434l6.061-.6" transform="translate(-1188.9 -716.1)"/></g><g transform="translate(63.523 283.663)"><path class="a" d="M1179.62,644.779l20.427,12.346q3.966,2.389,3.638,5.016a3.594,3.594,0,0,1-.089.388v.03a6.2,6.2,0,0,1-2.207,3.016,15.893,15.893,0,0,1-2.594,1.821l-15.522,9.375m-420.428-31.1-25.467-15.391q-.745-.478-1.342-.9-2.207-1.7-2.3-3.463a1.083,1.083,0,0,1,0-.358q.089-2.687,4.891-5.583l19.8-11.958m-7.813,56.683L786.195,644.2a1.476,1.476,0,0,1,2.028,0l4.712,2.568,2.3-12.421-21.71,1.344,4.443,2.418q.954.687,0,1.224l-35.576,20.661M1017.932,776.6l-10.109,6.106q-9.155,5.524-17.058.746L774.967,653" transform="translate(-733.725 -608.025)"/></g><g transform="translate(63.523 224.561)"><path class="b" d="M1201.389,577.93a6.2,6.2,0,0,0,2.207-3.016v-.03a3.6,3.6,0,0,0,.089-.388q.328-2.627-3.638-5.016l-41.391-25.02-150.833,86.615q-8.1,4.647-15.209,1.642a17.787,17.787,0,0,1-1.849-.926L777.189,509.05l-38.558,23.288q-4.8,2.9-4.891,5.583a1.083,1.083,0,0,0,0,.358q.089,1.762,2.3,3.463.6.418,1.342.9L990.765,695.805q7.9,4.777,17.058-.746l190.972-115.307A15.89,15.89,0,0,0,1201.389,577.93Z" transform="translate(-733.725 -509.05)"/><path class="c" d="M1203.6,594.635a6.2,6.2,0,0,1-2.207,3.016,15.888,15.888,0,0,1-2.594,1.821L1007.823,714.779q-9.155,5.524-17.058.746L737.378,562.359q-.745-.478-1.342-.9-2.207-1.7-2.3-3.463l.03,6.837a3.071,3.071,0,0,0,0,1.045q.358,2.06,3.608,4.031L990.765,723.079q7.9,4.777,17.058-.746l190.972-115.307q4.175-2.508,4.8-4.837a4.538,4.538,0,0,0,0-1.941Z" transform="translate(-733.725 -528.77)"/><path class="d" d="M733.74,538.28l.03,6.837a3.071,3.071,0,0,0,0,1.045q.358,2.06,3.608,4.031L990.765,703.359q7.9,4.777,17.058-.746l190.972-115.308q4.175-2.508,4.8-4.837a4.542,4.542,0,0,0,0-1.941v-5.643a3.6,3.6,0,0,0,.089-.388q.328-2.627-3.638-5.016l-41.376-25.005M777.2,509.05l-38.573,23.288q-4.8,2.9-4.891,5.583a1.083,1.083,0,0,0,0,.358" transform="translate(-733.725 -509.05)"/></g><g transform="translate(63.508 190.501)"><g class="e"><path d="M1198.784,498.337q4.169-2.379,4.8-4.628a3.822,3.822,0,0,0,0-1.821v-5.344a6.105,6.105,0,0,1-2.207,2.9,19.63,19.63,0,0,1-2.594,1.732L1007.812,600.806q-9.155,5.255-17.058.717L737.368,455.88q-.754-.433-1.372-.866-2.182-1.617-2.3-3.314l.03,6.479a3.094,3.094,0,0,0,.03,1.015q.375,1.995,3.608,3.852L990.755,608.688q7.9,4.538,17.058-.716Z" transform="translate(-733.7 -451.7)"/></g></g><g class="f" transform="translate(170.064 128.52)"><path class="g" d="M1067.965,431.688l-.164-.09-.06.03-.1.06h-.015l-53.175-30.544-4.135-2.374-24.2-13.9-.164-.09,26.3-15.108.3-.179h.015l.149.09.164-.09m-.627.179.313-.179m37.993-21.8,24.393,14-26.632,15.272-24.378-14ZM941.013,451.124l-4.15-2.359-24.184-13.913-.179-.09,26.3-15.108.3-.179h.03l.149.09.149-.09m-26.752,15.376.149-.09,26.453-15.2,81.539,46.816-26.453,15.2.149.09M938.8,419.655l.328-.179m-2.269,29.29.179-.09-24.214-13.913m28.185,16.362.149-.09-4.12-2.359m130.7-17.048-.12.06m-54.907-62.1,81.554,46.816L1067.8,431.6l-53.19-30.544-.164.09m-4.135-2.374.164-.09-24.2-13.9-.164.09m28.5,16.182-4.135-2.374m-33.544,23.99,26.319-15.108h.015l24.214,13.913-26.633,15.287-23.841-13.689-.09-.06-.3-.164.314-.179-.3.179.284.164m-2.344-31.544.3-.179h.03l24.214,13.9-26.647,15.287-24.2-13.9,26.3-15.108.328-.179m19.467,90.287-.179.09m-7.912-96.886,26.438-15.2M994.368,481.579l-53.205-30.544" transform="translate(-912.5 -347.7)"/></g><g transform="translate(257.724 183.555)"><path class="h" d="M1137.457,479.216l67.7-39.216,81.719,46.905-145.254,83.3-18.69-10.719m-27.8-15.958L1059.9,523.3l37.62-21.587" transform="translate(-1059.9 -440)"/></g><g transform="translate(170.435 197.952)"><g transform="translate(0 0)"><path class="i" d="M1117.589,437.363l26.453-15.2L1062.5,375.35l-26.453,15.2Z" transform="translate(-1036.05 -375.35)"/></g></g><g transform="translate(170.435 194.97)"><g transform="translate(0 0)"><path class="j" d="M1117.589,433.363l26.453-15.2L1062.5,371.35l-26.453,15.2Z" transform="translate(-1036.05 -371.35)"/></g></g><g transform="translate(249.107 239.202)"><path class="k" d="M1179.246,440.734a2.738,2.738,0,0,1-1.672,2.329,7.832,7.832,0,0,1-4,.955,8,8,0,0,1-4.031-.955,2.472,2.472,0,0,1,0-4.658,8,8,0,0,1,4.031-.955,7.833,7.833,0,0,1,4,.955A2.739,2.739,0,0,1,1179.246,440.734Z" transform="translate(-1167.9 -437.45)"/></g><g transform="translate(206.148 168.84)"><g transform="translate(0 0)"><path class="i" d="M999.032,410.7,972.4,425.987,996.614,439.9l26.632-15.287Z" transform="translate(-972.4 -410.7)"/></g></g><g transform="translate(206.148 162.875)"><path class="l" d="M999.032,400.7,972.4,415.987,996.614,429.9l26.632-15.287Z" transform="translate(-972.4 -400.7)"/></g><g transform="translate(0 323.187)"><g transform="translate(0 63.887)"><path class="m" d="M740.354,865.919q-.083-7.655-9.484-13.062-9.318-5.324-22.546-5.324-1.082,0-2.163.083-2.579,4.409-6.24,10.233h-.665l-.167.749q-1.248,3.993,3,7.571a3.3,3.3,0,0,1,0,2.745,2.284,2.284,0,0,1-1.5,1,3.2,3.2,0,0,1-1.747-.416,3.644,3.644,0,0,1-1.081-.832,7.17,7.17,0,0,1-1.165-2,26.792,26.792,0,0,0-1.5-2.829q-.166-.25-1.747-2a6.175,6.175,0,0,1-1.414-2.579,3.236,3.236,0,0,1,.749-1.914l.166-.166a.338.338,0,0,1,.083-.249,8.681,8.681,0,0,1,1.914-1.664,8.8,8.8,0,0,0,.749-.5l-.166-.666q1.664-3.078,3.162-5.741a39.94,39.94,0,0,0-12.9,4.493q-9.318,5.408-9.235,13.145,0,7.654,9.4,13.062t22.629,5.408q13.311,0,22.629-5.408T740.354,865.919Z" transform="translate(-676.459 -808.681)"/><path class="n" d="M702.477,813.923a3.242,3.242,0,0,1-.915-1.913,3.383,3.383,0,0,0,1.165,2.329v-.166Z" transform="translate(-674.106 -812.01)"/></g><path class="o" d="M850.69,393.433v1m1.83-14.226-1.83,13.228m1.83-13.311v.083m-.083-.749.083.666m-.083-.666a10.976,10.976,0,0,1-1-2.662l-1.082-4.742a1.151,1.151,0,0,1-1-.915,92.255,92.255,0,0,1-1.415-10.815,3.466,3.466,0,0,1,.167-1.5l.333-.666a5.328,5.328,0,0,1,1-1.082l3.661-3.328q1.165-.832,2.413-1.581a4.124,4.124,0,0,1,2-1.747l1.414-.5.5-.5.333-.749.416-1-.666-.832h-.665a18.936,18.936,0,0,1-2.246-5.99v-5.907l2.163-2.662a5.223,5.223,0,0,1,4.659-1.664h2.5a3.225,3.225,0,0,1,1.83.5l6.489,3.827q.166.166,0,1.414a.639.639,0,0,0-.083.25q-1.414,2.08-2.329,2.329l-.416,7.9a.983.983,0,0,1,.166.25,29.353,29.353,0,0,1,3.328,1.165,21.575,21.575,0,0,1,2.08.832.969.969,0,0,0,.249.166l.084.083q.159.141.416.333l.083.083a4.361,4.361,0,0,1,1.248,2.08q.333,1.664.666,4.16a9.686,9.686,0,0,0,.5,2.329.738.738,0,0,1,.083.333,1.2,1.2,0,0,1,.666.832,1.642,1.642,0,0,1-.416,1.581q.167,1.331.416,2.745a14.267,14.267,0,0,0,2.579,6.24,22.655,22.655,0,0,0,4.659,4.492l5.491,5.241a1.32,1.32,0,0,1-.5,2.163l-1.164.416,1.83,1.082.083.083,11.814-6.822q.582-.416.582.416l-2.5,12.063a.635.635,0,0,0-.083.25.338.338,0,0,0-.083.249,4.046,4.046,0,0,0-.25.416q-.332.249-.582.416l-19.634,11.315a3.194,3.194,0,0,1-1.081-.416l-6.323-3.744-.333,10.15q-.915,9.069-2.995,10.9-2.329,2.246-12.812,4.908-.915.166-1.83.416a102.473,102.473,0,0,1-4.909,9.318m-3.411-7.487q-1.581,3.245-4.16,8.236m6.656-14.393a35.517,35.517,0,0,1-2.5,6.157m2.5-6.157a6.586,6.586,0,0,0-1,.25q-2.33.5-5.241,1.081a1.044,1.044,0,0,0-.749.582.925.925,0,0,0-.083.416v.333a7.376,7.376,0,0,0,.582,2.829l.666,1.331h.25l2.329-.5m23.045-87.106a4.52,4.52,0,0,1-1.248.166h-.333l-.832.832a3.3,3.3,0,0,1-3.161.666l-2.912-.25a.8.8,0,0,0-.458.291l-.125.125a3.267,3.267,0,0,0-.416.749l-.083.083a6.031,6.031,0,0,0-.582,2.579v1.165l-.5-.333-.166-1.664a2.906,2.906,0,0,0-2.329-1.914,3.247,3.247,0,0,0-.166,1.914,4.166,4.166,0,0,0,.5,1.913l.5.333m3.827-5.241h-.083a.753.753,0,0,0-.375.291m-3.952,9.276-.5.333a2.215,2.215,0,0,0-.583,1.5,1.192,1.192,0,0,0,.666,1.165,20.746,20.746,0,0,1,7.82,8.32,3.245,3.245,0,0,1,.166.416q.416.749,1.248,2.745,1,2.08,1.331,1.414l.5-14.226-1,.5a1.652,1.652,0,0,1-.749.166A1.345,1.345,0,0,1,867,352l-5.158-2.5a3.566,3.566,0,0,1-.832-.666l-.166-.333-.582-.749-.5.915m9.817,2.912,1-.582q.832-.915.832-4.16m9.151,14.227h-.083a3.749,3.749,0,0,1-2,1.248,4.8,4.8,0,0,1-1.747.166l-.166,3.328a19.991,19.991,0,0,0,3.245,7.072,18.785,18.785,0,0,0,5.74,5.158q-1.747,6.406,1.5,2l1.165,1.414a4.125,4.125,0,0,0,1.248,1,3.861,3.861,0,0,0,2.246,0l.333-.083m-41.681-10.316a3.86,3.86,0,0,0,1.331-.083l3-1.165h.083q.416,2.08,1.082,4.742a5.726,5.726,0,0,0,4.16,4.409l15.058,4.243,2.08-.749-.083-.749q-.416-3.91-.5-12.313v-4.576m-24.127,13.644a8.974,8.974,0,0,0,1.581,2.08,11.953,11.953,0,0,0,4.742,2.912l17.8,5.408,1.165.416.083.083a4.093,4.093,0,0,0,1.83-.083,2.394,2.394,0,0,0,1.414-1.082l1.082-1.248a1.632,1.632,0,0,0,.166-1.248v-.167a1.585,1.585,0,0,0-.832-.749l-3.744-.915,1.081-.5a.463.463,0,0,0,.416-.5.752.752,0,0,0-.416-.665h-1.081l-.583.25M850.69,394.431a3.242,3.242,0,0,0,.915,1.914l.25.249.166.167,3.494,2.662a2.545,2.545,0,0,0,1.331.5,2.635,2.635,0,0,0,1.414-.25l11.148-4.659a.24.24,0,0,1,.166-.083l.915-.333q-.749-.582,0-1.248l6.073-3.494m-24.709,6.905a16.993,16.993,0,0,0,1.664,6.739l-.25,6.988a50.3,50.3,0,0,1-1.248,9.235m31.2-17.887q-.666-.25-.666-.333l2.5-12.063v-.083a2.089,2.089,0,0,1,.5-.832.5.5,0,0,1,.333-.333l.167-.166,7.9-4.493m-4.493-1.082-7.155,4.077m-22.629,37.105-1.747.166.5-1a29.555,29.555,0,0,0,1.5-5.158q.915-3.91,2.08-9.817l.333-1.747.583-1.165a8.808,8.808,0,0,1,3.66-3.744l.915-.416q.083,3.078,0,4.659.416,7.4-.665,8.652-1.165,1.5-5.241,2.995m8.9-22.463,5.324,3.078m-15.89,19.967q.666-.25,1.165-.416m-16.057,4.409a6.442,6.442,0,0,0-.832-.333q-.832-.083-1.331-.083a1.425,1.425,0,0,0-.582.083H842.2a1.459,1.459,0,0,0-1.331.832q-.666,1.082-.832,4.825-.083.416-.832,2.579a7.121,7.121,0,0,0-.5,2.08,3.063,3.063,0,0,0,1,2.5,2.3,2.3,0,0,0,2,.5q1-.166,1.664-1.664a20.211,20.211,0,0,1,2-5.075l1.082-1.331m-4.076,13.977a8.759,8.759,0,0,1-.749.5,8.674,8.674,0,0,0-1.913,1.664.338.338,0,0,0-.083.25l-.166.166a3.235,3.235,0,0,0-.749,1.914,6.173,6.173,0,0,0,1.415,2.579q1.58,1.747,1.747,2a26.936,26.936,0,0,1,1.5,2.829,7.176,7.176,0,0,0,1.165,2,3.646,3.646,0,0,0,1.082.832,3.2,3.2,0,0,0,1.747.416,2.285,2.285,0,0,0,1.5-1,3.3,3.3,0,0,0,0-2.745q-4.243-3.577-2.995-7.571l.167-.749a5.017,5.017,0,0,1-2.33-1.082A4.872,4.872,0,0,1,842.371,440.522Zm0,0-.167-.666q1.664-3.078,3.161-5.741m.666,9.484h.666q3.66-5.824,6.239-10.233" transform="translate(-823.152 -330.592)"/></g><g transform="translate(282.246 214.442)"><g transform="translate(3.445 46.658)"><path class="p" d="M904.641,964.631q.694,0-.126-1.893l-.631-1.451q-1.2.568-2.208,1.136,1.2.947,2.966,2.208m22.083-10.537q.631-.315-1.009-1.577l-.631-.5q-1.893.631-3.912,1.388,2.082.316,5.552.694m-41.012,19.055q-.946.883-1.83,1.767a3.483,3.483,0,0,0-1.262,2.271,2.457,2.457,0,0,0,1.767,2.524,9.655,9.655,0,0,0,3.155.379,40.627,40.627,0,0,0,10.474-1.893,43.316,43.316,0,0,0,10.222-5.174q13.692-10.285,24.607-19.055a6.372,6.372,0,0,0,1.514-1.514,1.52,1.52,0,0,0-.126-2.019,1.424,1.424,0,0,0-.631-.253q-.126.253-.315.568a6.739,6.739,0,0,1-1.641,1.451l-26.5,16.026a42.015,42.015,0,0,1-10.726,4.1A38.746,38.746,0,0,1,885.712,973.149Z" transform="translate(-882.621 -930.496)"/><path class="q" d="M964.778,923.255l.063-.063-.126.063h.063m.063-.063-.063.063h.063l.063-.063Z" transform="translate(-904.838 -923.192)"/></g><path class="r" d="M1150.467,538.795a.735.735,0,0,1-.189-.126h-.252a.429.429,0,0,0-.316.126,5.438,5.438,0,0,0-.5-1.767,3.3,3.3,0,0,0-3.659-1.7,3.454,3.454,0,0,0-2.461,1.64,4.981,4.981,0,0,0-.694,2.65,1.288,1.288,0,0,0-.568,0,.773.773,0,0,0-.5.568,1.23,1.23,0,0,0,0,.946q.442,1.2,1.262,1.01h.126l.063.063a3.465,3.465,0,0,0,1.073,1.514l.126.126.5.379a2.464,2.464,0,0,0,.568.315,2.746,2.746,0,0,0,2.839-.063,2.1,2.1,0,0,1,.316-.252,3.835,3.835,0,0,0,1.578-3.218,1.881,1.881,0,0,0,.82-.883Q1150.972,539.173,1150.467,538.795Zm0,0a8.346,8.346,0,0,0,0-1.451l.189-.568a8.7,8.7,0,0,0-1.2-3.659,9.336,9.336,0,0,0-7.067-4.669,45.024,45.024,0,0,1-7.13-1.073q-1.325-.442-2.461-3.344-1.325-3.281-5.868-3.029-4.669.252-5.111,4.417a6.778,6.778,0,0,0,1.136,5.237,9.868,9.868,0,0,1,2.145,3.6q.82,6.057,7.319,7.95a32.5,32.5,0,0,0,11.42,1.514m1.2.82-.442,1.577-4.29-.694q-.189,0-.82.063-10.221,1.009-11.1,1.01a3.325,3.325,0,0,0-1.893.883l-8.455,9.149.063.063,3.218,1.956.189-.126,7.508-7.508,5.679-.5,2.019-.189m-2.019.189-8.581,8.455.063.063,2.208,2.587a8.187,8.187,0,0,0,3.912,1.325,14.967,14.967,0,0,0,5.3-.82h.063l8.2-4.227a10.446,10.446,0,0,0,2.208-1.451l2.145-1.7,7.95,4.353,3.281-2.334q-9.906-9.78-12.114-10.1l-1.451-.126v-1.956m-21.7,14.449-.126-.063a22.781,22.781,0,0,0-1.767,1.83,4.763,4.763,0,0,0-1.136,3.722q.378,3.281,7.95,13.755l-9.023,15.648-1.325,1.83-.5.631q-.5.694-.442.757.5.5,3.218,2.524m2.208-1.136-.757-1.7,1.578-3.155,1.262-1.64,8.328-10.979a5.251,5.251,0,0,0,.883-4.417l-4.227-13.692m1.893,4.669,9.969,5.678-3.407,11.862a27.225,27.225,0,0,1-1.01,2.776,9.228,9.228,0,0,0-.379.883v.631q0,.694.126.757.568.126,3.029.442m3.912-1.388-2.145-1.641.442-.946,5.931-12.24a3.859,3.859,0,0,0,.315-2.966,3.92,3.92,0,0,0-1.83-2.461l-11.483-6.877m20.506-3.029-5.742,4.227,11.041,4.732,1.136-10.6,5.678-4.038-2.335-1.2-6.5,4.543m2.524,10.979-.063.063m13.565-10.284-13.5,10.221m15.837-21.01-2.334,10.789m-7.193-4.1,9.527-6.688m-15.9,21.074-.379.252h-.063m-41.958-9.527-.252.316a6.825,6.825,0,0,0-.315,1.262q-.253,3.028-2.208.82-.757.568-1.577,1.2v.694q-3.534-1.073-1.136-4.038l2.082-2.082m-11.042,53.694-1.893-.126a7.825,7.825,0,0,1-3.155-.631,2.606,2.606,0,0,1-1.515-2.713,3.693,3.693,0,0,1,1.515-2.019,54.213,54.213,0,0,1,12.114-7.571q3.344-1.64,7.95-3.407m-6.309,15.647a38.745,38.745,0,0,1-8.707.82m19.433-4.921a42.015,42.015,0,0,1-10.726,4.1m37.226-20.127-26.5,16.026m28.14-17.477a6.743,6.743,0,0,1-1.641,1.451m1.956-2.019q-.126.252-.316.568m0-2.019a1.377,1.377,0,0,1,.316,1.451m-2.461-1.956a3.329,3.329,0,0,1,2.145.5m-9.906.694a49.875,49.875,0,0,1,7.761-1.2m-9.969,5.174q2.082.315,5.552.694.631-.316-1.01-1.577l-.631-.5m-19.118,2.776a.484.484,0,0,0,.189-.063q8.013-2.9,12.24-4.038m-16.72,11.736q1.2.946,2.966,2.208.694,0-.126-1.893l-.631-1.451" transform="translate(-1100.477 -520.984)"/></g><g transform="translate(63.513 99.623)"><path class="s" d="M990.572,281.37l119.269,68.554,8.064,4.635,24.77,14.238,5.487,3.154,51.879,29.819q3.964,2.277,3.638,4.732a3.412,3.412,0,0,1-.089.418v5.329a3.887,3.887,0,0,1,0,1.836q-.632,2.233-4.8,4.613l-88.314,50.7m-117.867,60.58a17.781,17.781,0,0,1-1.849-.926l-12.2-7.016M859.7,453.72,737.372,383.407q-3.233-1.857-3.608-3.837a2.86,2.86,0,0,1-.015-1.015l-.03-6.494q-.007-.153,0-.3.106-2.56,4.906-5.315l51.858-29.767m319.992,132.714-102.658,58.938q-8.1,4.647-15.208,1.642m-14.046-7.942L859.7,453.72" transform="translate(-733.711 -281.37)"/><path class="t" d="M1140.622,584.9l23.268,14.564-145.038,83.3L978.038,659.3l24.1-14.78m-14.192-7.471-23.207,13.891L845.909,582.626l22.949-13.914M811,562.144l21.982-13.28,23.982,13.28-21.786,13.913Zm-30.5-19.407,21.542-12.874,23.834,12.874-21.2,13.913Z" transform="translate(-752.56 -391.525)"/></g><g transform="translate(160.568 9.569)"><g transform="translate(0 21.658)"><path class="b" d="M-6889.377-14910.754a27.21,27.21,0,0,0-6.568,6.166c-2.61,3.641,1.969,6.935,1.969,6.935s35.274,22.447,43.223,26.931,15.961,0,15.961,0l113.813-65.551s4.584-2.949,3.838-6.049-6.824-6.349-6.824-6.349l-110.826,64.287-5.859.6-5.428-1.865Z" transform="translate(6896.75 14986.908)"/><g transform="translate(0.75)"><g transform="translate(85.815 18.111)"><path class="u" d="M301.82,201.969l-27.668,15.936-31.285-18.087,27.668-15.936,31.285,18.087Zm1.369,0L270.437,183.1,241.4,199.818l32.752,18.869,29.037-16.718Z" transform="translate(-241.4 -183.1)"/></g><g transform="translate(68.413 34.927)"><path class="u" d="M244.424,207.73l-8.017,4.6-11.537-6.648,8.017-4.6,11.537,6.648Zm1.466,0-12.905-7.43-9.386,5.377,12.905,7.43,9.386-5.377Z" transform="translate(-223.6 -200.3)"/><path class="u" d="M258.722,215.93l-8.017,4.6-11.537-6.648,8.017-4.6,11.536,6.648Zm1.369,0-12.905-7.43-9.386,5.377,12.905,7.43,9.386-5.377Z" transform="translate(-223.917 -200.483)"/><path class="u" d="M272.922,224.13l-8.017,4.6-11.537-6.648,8.017-4.6,11.537,6.648Zm1.369,0-12.905-7.43L252,222.077l12.905,7.43,9.386-5.377Z" transform="translate(-224.234 -200.666)"/></g><g transform="translate(60.591 44.117)"><path class="u" d="M256.173,233.848,215.6,210.384l1.271-.684,40.573,23.366Z" transform="translate(-215.6 -209.7)"/></g><g transform="translate(56.974 46.171)"><path class="u" d="M252.473,235.948,211.9,212.582l1.271-.782,40.573,23.464Z" transform="translate(-211.9 -211.8)"/></g><g transform="translate(53.259 48.321)"><path class="u" d="M229.413,227,208.1,214.684l1.271-.684,21.313,12.319Z" transform="translate(-208.1 -214)"/></g><g transform="translate(15.349 71.977)"><path class="u" d="M174.384,241.035a.845.845,0,0,1-.293-.587c0-.1.2-.2.391-.2a2.707,2.707,0,0,0,.88-.1.623.623,0,0,0,.587,0c.2-.1.2-.2.1-.293.587-.391.88-.88,0-1.369a2.485,2.485,0,0,0-2.346,0,1.063,1.063,0,0,0-.489.1c-.2.1-.1.2,0,.293a1.652,1.652,0,0,0-.2.489c0,.1-.2.2-.391.2a3.514,3.514,0,0,1-1.075-.2,1.887,1.887,0,0,0-1.466.1l-.684.391a.183.183,0,0,0,0,.293l3.617,2.053a.436.436,0,0,0,.489,0l.684-.391C174.58,241.622,174.678,241.231,174.384,241.035Z" transform="translate(-169.325 -238.195)"/></g><g transform="translate(50.032 91.046)"><path class="u" d="M210.079,260.731c.1-.1.2-.1.293-.2l.88.1a1.717,1.717,0,0,0,.391-.489l-.782-.293v-.489l.782-.293a1.717,1.717,0,0,0-.391-.489l-.88.1c-.1-.1-.2-.1-.293-.2a.359.359,0,0,0-.293-.1l.2-.489a2.856,2.856,0,0,0-.88-.2l-.489.489h-.782l-.489-.489a2.856,2.856,0,0,0-.88.2l.2.489c-.1,0-.2.1-.293.1-.1.1-.2.1-.293.2l-.88-.1a1.716,1.716,0,0,0-.391.489l.782.293v.489l-.782.293a1.717,1.717,0,0,0,.391.489l.88-.1c.1.1.2.1.293.2a.359.359,0,0,0,.293.1l-.2.489a2.854,2.854,0,0,0,.88.2l.489-.489h.782l.489.489a2.854,2.854,0,0,0,.88-.2l-.2-.489A.359.359,0,0,0,210.079,260.731Zm-2.444-.587a.407.407,0,0,1,0-.782,1.907,1.907,0,0,1,1.467,0,.407.407,0,0,1,0,.782A1.9,1.9,0,0,1,207.635,260.144Z" transform="translate(-204.8 -257.7)"/></g><g transform="translate(26.079 78.923)"><path class="u" d="M180.3,246.473l1.075.587,1.955-1.173-1.075-.587Zm1.662.88,1.075.587,3.226-1.858-1.075-.587Zm6.062-1.564-4.5,2.64,1.075.587,4.5-2.64Z" transform="translate(-180.3 -245.3)"/></g><g transform="translate(39.959 84.397)"><path class="u" d="M199.779,252.464a2.716,2.716,0,0,0-1.76-.293c.2-.293,0-.684-.391-.978a2.693,2.693,0,0,0-2.444,0c-1.271.684-.391,2.933-.391,2.933s3.813.489,4.986-.293C200.464,253.54,200.464,252.855,199.779,252.464Z" transform="translate(-194.497 -250.9)"/></g><g transform="translate(117.663 3.691)"><path class="u" d="M277.519,169.083l6.746,3.911a.888.888,0,0,0,.978,0q.44-.293,0-.587L278.5,168.5a.888.888,0,0,0-.978,0Q277.079,168.79,277.519,169.083Zm6.062,4.3-6.746-3.911a.888.888,0,0,0-.978,0q-.44.293,0,.587l6.746,3.911a.888.888,0,0,0,.978,0Q284.021,173.678,283.581,173.385Zm-1.662.978-6.746-3.911a.888.888,0,0,0-.978,0q-.44.293,0,.587l6.746,3.911a.888.888,0,0,0,.978,0A.367.367,0,0,0,281.919,174.363Z" transform="translate(-273.975 -168.35)"/></g><path class="v" d="M204.537,266.473l-48.493-27.961c-3.226-1.858-3.226-4.791,0-6.648l114.192-65.9a12.637,12.637,0,0,1,11.536,0l48.492,27.961c3.226,1.858,3.226,4.791,0,6.648l-114.192,65.9A12.637,12.637,0,0,1,204.537,266.473Zm76.747-100.309a12.011,12.011,0,0,0-10.657,0l-114.192,65.9c-2.933,1.662-2.933,4.4,0,6.159l48.492,27.961a12.011,12.011,0,0,0,10.657,0l114.192-65.9c2.933-1.662,2.933-4.4,0-6.159Z" transform="translate(-153.625 -164.575)"/><g transform="translate(166.18 32.288)"><path class="u" d="M324.969,197.991c0,.2-.293.391-.684.391s-.684-.2-.684-.391.293-.391.684-.391S324.969,197.8,324.969,197.991Z" transform="translate(-323.6 -197.6)"/></g><g transform="translate(166.473 29.648)"><path class="u" d="M324,194.9h-.1v.391h.1c2.737,0,4.888,1.271,4.888,2.835h.684C329.57,196.367,327.029,194.9,324,194.9Z" transform="translate(-323.9 -194.9)"/><g transform="translate(0 1.467)"><path class="u" d="M324,196.4h-.1v.391h.1c1.271,0,2.249.587,2.249,1.369h.684C326.931,197.182,325.66,196.4,324,196.4Z" transform="translate(-323.9 -196.4)"/></g><g transform="translate(0 0.782)"><path class="u" d="M324,195.7h-.1v.391h.1c1.955,0,3.617.978,3.617,2.053h.684C328.2,196.775,326.344,195.7,324,195.7Z" transform="translate(-323.9 -195.7)"/></g></g><g transform="translate(134.405 13.712)"><path class="u" d="M310.653,190.625,291.1,179.284l1.271-.684,19.553,11.243Z" transform="translate(-291.1 -178.6)"/></g><g transform="translate(41.123 61.007)"><path class="u" d="M216.817,244.4l-19.26-11.145c-2.444-1.467-2.542-3.813,0-5.182a9.745,9.745,0,0,1,8.995,0l19.26,11.145c2.444,1.466,2.542,3.813,0,5.182A9.744,9.744,0,0,1,216.817,244.4Zm-10.95-15.936a8.389,8.389,0,0,0-7.626,0c-2.053,1.173-2.053,3.226,0,4.4l19.26,11.145a8.388,8.388,0,0,0,7.626,0c2.053-1.173,2.053-3.226,0-4.4Z" transform="translate(-195.687 -226.975)"/></g><g transform="translate(132.45 44.9)"><path class="u" d="M289.3,214.606c-.1-.1-.2-.2-.2-.293,0-.2.293-.391.684-.391h5.182v-3.031c0-.2.293-.391.684-.391s.684.2.684.391V214.7h-6.55A.882.882,0,0,1,289.3,214.606Z" transform="translate(-289.1 -210.5)"/></g><g transform="translate(93.636 22.511)"><path class="u" d="M249.6,191.706c-.1-.1-.2-.2-.2-.293V187.6h6.55c.391,0,.684.2.684.391s-.293.391-.684.391h-5.182v3.031c0,.2-.293.391-.684.391A.733.733,0,0,1,249.6,191.706Z" transform="translate(-249.4 -187.6)"/></g></g></g><path class="w" d="M281.284,166.164a12.011,12.011,0,0,0-10.657,0l-114.192,65.9c-2.933,1.662-2.933,4.4,0,6.159l48.492,27.961a12.011,12.011,0,0,0,10.657,0l114.192-65.9c2.933-1.662,2.933-4.4,0-6.159Z" transform="translate(-153.875 -164.917)"/></g><g transform="translate(261.652 158.897)"><path class="u" d="M244.424,207.73l-8.017,4.6-11.537-6.648,8.017-4.6,11.537,6.648Zm1.466,0-12.905-7.43-9.386,5.377,12.905,7.43,9.386-5.377Z" transform="translate(-223.6 -200.3)"/><path class="u" d="M258.722,215.93l-8.017,4.6-11.537-6.648,8.017-4.6,11.536,6.648Zm1.369,0-12.905-7.43-9.386,5.377,12.905,7.43,9.386-5.377Z" transform="translate(-223.917 -200.483)"/><path class="u" d="M272.922,224.13l-8.017,4.6-11.537-6.648,8.017-4.6,11.537,6.648Zm1.369,0-12.905-7.43L252,222.077l12.905,7.43,9.386-5.377Z" transform="translate(-224.234 -200.666)"/></g><g transform="translate(314.426 159.088)"><g transform="translate(7.333)"><path class="u" d="M256.173,233.848,215.6,210.384l1.271-.684,40.573,23.366Z" transform="translate(-215.6 -209.7)"/></g><g transform="translate(3.715 2.054)"><path class="u" d="M252.473,235.948,211.9,212.582l1.271-.782,40.573,23.464Z" transform="translate(-211.9 -211.8)"/></g><g transform="translate(0 4.204)"><path class="u" d="M229.413,227,208.1,214.684l1.271-.684,21.313,12.319Z" transform="translate(-208.1 -214)"/></g></g><g transform="translate(274.697 213.818)"><path class="u" d="M289.3,214.606c-.1-.1-.2-.2-.2-.293,0-.2.293-.391.684-.391h5.182v-3.031c0-.2.293-.391.684-.391s.684.2.684.391V214.7h-6.55A.882.882,0,0,1,289.3,214.606Z" transform="translate(-289.1 -210.5)"/></g><g transform="translate(203.971 165.485)"><path class="u" d="M249.6,191.706c-.1-.1-.2-.2-.2-.293V187.6h6.55c.391,0,.684.2.684.391s-.293.391-.684.391h-5.182v3.031c0,.2-.293.391-.684.391A.733.733,0,0,1,249.6,191.706Z" transform="translate(-249.4 -187.6)"/></g><g transform="translate(449.083 211.18)"><path class="x" d="M578.925,391.553l32.046,19.2a7.483,7.483,0,0,0,7.515-.048l56.932-32.22a11.067,11.067,0,0,1,11.357-.089l48.136,30.737a1.909,1.909,0,0,0,2.876-1.611V397.273" transform="translate(-568.289 -339.651)"/><path class="x" d="M571.875,388.834a2.779,2.779,0,0,1-1.667,2.247,8.86,8.86,0,0,1-4.366,1.039,9.029,9.029,0,0,1-4.43-1.055l-.306-.193a2.618,2.618,0,0,1-1.385-2.086,1.917,1.917,0,0,1,.37-1.12,3.827,3.827,0,0,1,1.289-1.128,8.917,8.917,0,0,1,4.374-1.039,9.885,9.885,0,0,1,3.512.612,6.9,6.9,0,0,1,.918.443,2.924,2.924,0,0,1,1.692,2.175Z" transform="translate(-559.72 -338.913)"/><path class="y" d="M519.808,416.3c9.666-5.566,17.664-2.03,19.1,7.805a27.161,27.161,0,0,1,4.833-3.633c9.191-5.3,16.674-1.047,16.706,9.521s-7.41,23.44-16.6,28.748l-47.79,27.6c-9.2,5.3-16.682,1.047-16.714-9.513s7.411-23.448,16.6-28.756a17.518,17.518,0,0,1,4.833-1.974C502.192,434.644,510.158,421.877,519.808,416.3Z" transform="translate(-353.184 -413.664)"/></g><path class="z" d="M310.03,505.075c13.693,7.894,35.764,7.894,49.457,0,8.055-4.672,11.277-11.035,9.827-17.076-1.047-4.189-4.269-8.216-9.827-11.438-6.847-3.947-15.788-5.88-24.729-5.961-8.941,0-17.882,1.933-24.729,5.88q-1.571.967-2.9,1.933c-4.189,3.061-6.605,6.686-7.169,10.471v.161a12.013,12.013,0,0,0-.161,1.691C299.8,495.973,303.183,501.128,310.03,505.075Z" transform="translate(-251.991 -359.471)"/><path class="aa" d="M369.214,450.6c-1.047-4.189-4.269-8.216-9.827-11.438-6.847-3.947-15.788-5.88-24.729-5.961-8.941,0-17.882,1.933-24.729,5.88q-1.571.967-2.9,1.933c-4.189,3.061-6.605,6.686-7.169,10.471v.161a12.013,12.013,0,0,0-.161,1.691h0v9.988c0,5.155,3.464,10.31,10.23,14.257,13.693,7.894,35.764,7.894,49.377,0,6.847-3.947,10.23-9.1,10.23-14.257v-9.988h0A7.98,7.98,0,0,0,369.214,450.6Z" transform="translate(-251.972 -352.197)"/><path class="ab" d="M369.214,454.8c1.45,6.041-1.772,12.4-9.827,17.076-13.613,7.894-35.764,7.894-49.457,0-6.847-3.947-10.23-9.1-10.23-14.257h0v9.988c0,5.155,3.464,10.31,10.23,14.257,13.693,7.894,35.764,7.894,49.377,0,6.847-3.947,10.23-9.1,10.23-14.257v-9.988h0A8.213,8.213,0,0,0,369.214,454.8Z" transform="translate(-251.972 -356.399)"/><g transform="translate(46.6 79.794)"><path class="u" d="M334.467,484.379c-9.183,0-18.365-2.014-25.292-6.041-7.008-4.027-10.794-9.424-10.874-15.3v-9.988a18.679,18.679,0,0,1,.161-1.933v-.161c.644-4.108,3.3-7.974,7.652-11.2a27.766,27.766,0,0,1,2.98-2.014c6.766-3.866,15.707-6.041,25.292-6.041h0c9.5,0,18.526,2.175,25.292,6.041,5.638,3.3,9.263,7.491,10.391,12.163a14.546,14.546,0,0,1,.4,3.061v9.988c0,5.8-3.786,11.277-10.794,15.3C352.751,482.365,343.569,484.379,334.467,484.379Zm-.081-50.263c-9.1,0-17.64,2.014-24.084,5.719a23.477,23.477,0,0,0-2.739,1.853c-3.866,2.819-6.122,6.2-6.766,9.666v.242a11,11,0,0,0-.161,1.53v9.988c0,4.914,3.464,9.666,9.666,13.21,13.291,7.652,34.958,7.652,48.249,0,6.2-3.625,9.666-8.3,9.666-13.291V452.965a14.3,14.3,0,0,0-.322-2.416h0c-.967-4.108-4.189-7.813-9.344-10.713-6.444-3.705-15.063-5.719-24.165-5.719Z" transform="translate(-298.3 -431.7)"/></g><path class="ac" d="M221.784,116.253a4.666,4.666,0,0,0-2.416.564l-55.015,31.736a1.339,1.339,0,0,0-.805,1.128,2,2,0,0,0,1.208,1.53L198.264,170.7a6.345,6.345,0,0,0,5.638.242l55.015-31.736a1.339,1.339,0,0,0,.806-1.128,2,2,0,0,0-1.208-1.53l-7.673-4.464-25.835-15.029A6.182,6.182,0,0,0,221.784,116.253Z" transform="translate(85.643 378.888)"/><path class="j" d="M352.342,459.871l5.075,2.9-4.43,2.578-5.075-2.9a34.388,34.388,0,0,1-11.841,2.739l-2.416-4.108c4.43-.161,9.5-1.45,11.921-2.819,1.772-1.047,2.255-2.094,1.047-2.739-3.947-2.255-13.774,6.2-21.99,1.45-3.705-2.094-3.544-5.155,0-7.974l-4.833-2.819,4.43-2.578,4.833,2.819a34.49,34.49,0,0,1,9.746-2.739l2.5,4.108c-3.866.644-8.055,1.772-9.988,2.9-1.45.806-1.853,1.691-.806,2.336,3.866,2.255,13.854-6.122,22.232-1.289C356.691,453.991,355.966,457.213,352.342,459.871Z" transform="translate(-255.882 -354.22)"/><g transform="translate(104.442 127.161)"><line class="ad" x1="69.587" y1="38.664" transform="translate(0 0)"/></g><g transform="translate(-958.492 -329.136)"><path class="d" d="M259.281,139.732l-55.015,31.736a6.854,6.854,0,0,1-6.122-.242l-33.508-19.493c-1.853-1.047-2.014-2.658-.4-3.544l55.015-31.736a6.854,6.854,0,0,1,6.122.242l33.508,19.493C260.731,137.235,260.892,138.846,259.281,139.732Z" transform="translate(1044.013 690.905)"/><path class="ae" d="M221.784,116.253a4.666,4.666,0,0,0-2.416.564l-55.015,31.736a1.339,1.339,0,0,0-.805,1.128,2,2,0,0,0,1.208,1.53L198.264,170.7a6.345,6.345,0,0,0,5.638.242l55.015-31.736a1.339,1.339,0,0,0,.806-1.128,2,2,0,0,0-1.208-1.53l-7.673-4.464-25.835-15.029A6.182,6.182,0,0,0,221.784,116.253Z" transform="translate(1044.135 691.024)"/><g transform="translate(1261.65 814.405)"><path class="af" d="M235.875,134.073a6.882,6.882,0,0,1-3.464-.805,2.748,2.748,0,0,1-1.611-2.336,2.848,2.848,0,0,1,1.611-2.336,7.68,7.68,0,0,1,7.008,0,2.748,2.748,0,0,1,1.611,2.336,2.848,2.848,0,0,1-1.611,2.336A8.483,8.483,0,0,1,235.875,134.073Zm0-5.236a6.048,6.048,0,0,0-2.98.725,1.671,1.671,0,0,0-1.047,1.45,1.95,1.95,0,0,0,1.047,1.45,6.489,6.489,0,0,0,5.961,0,1.671,1.671,0,0,0,1.047-1.45,1.95,1.95,0,0,0-1.047-1.45A5.294,5.294,0,0,0,235.875,128.837Z" transform="translate(-230.8 -125.817)"/><g transform="translate(3.222 0)"><path class="af" d="M243.223,126.91c1.772,1.047,1.772,2.658,0,3.705a7,7,0,0,1-6.444,0c-1.772-1.047-1.772-2.658,0-3.705A7,7,0,0,1,243.223,126.91Z" transform="translate(-234.926 -125.501)"/><path class="af" d="M239.875,131.754a6.913,6.913,0,0,1-3.464-.886,2.748,2.748,0,0,1-1.611-2.336,2.848,2.848,0,0,1,1.611-2.336,7.681,7.681,0,0,1,7.008,0h0a2.748,2.748,0,0,1,1.611,2.336,2.848,2.848,0,0,1-1.611,2.336A7.456,7.456,0,0,1,239.875,131.754Zm0-5.316a6.048,6.048,0,0,0-2.98.725,1.671,1.671,0,0,0-1.047,1.45,1.95,1.95,0,0,0,1.047,1.45,6.489,6.489,0,0,0,5.961,0,1.671,1.671,0,0,0,1.047-1.45,1.95,1.95,0,0,0-1.047-1.45h0A6.048,6.048,0,0,0,239.875,126.437Z" transform="translate(-234.8 -125.35)"/></g></g><g transform="translate(1232.552 821.534)"><path class="af" d="M198.562,170.644c.644.4,1.047.725,1.128,1.047s-.081.564-.564.886a3.067,3.067,0,0,1-1.53.322,4.334,4.334,0,0,1-1.772-.644c-.644-.4-1.047-.725-1.128-1.047s.081-.564.564-.886a3.066,3.066,0,0,1,1.53-.322A5.952,5.952,0,0,1,198.562,170.644Zm-1.853,1.128a5.85,5.85,0,0,0,1.128.483.757.757,0,0,0,.725-.081c.161-.081.242-.242.081-.4a3.1,3.1,0,0,0-.886-.644,9.212,9.212,0,0,0-1.128-.483c-.322-.081-.564-.081-.725.081-.161.081-.242.242-.081.4C195.9,171.289,196.226,171.45,196.709,171.772Z" transform="translate(-194.675 -141.163)"/><path class="af" d="M202.362,168.444c.644.4,1.047.725,1.128,1.047s-.081.564-.564.886a3.066,3.066,0,0,1-1.53.322,4.334,4.334,0,0,1-1.772-.644c-.644-.4-1.047-.725-1.128-1.047s.081-.564.564-.886a3.066,3.066,0,0,1,1.53-.322A5.952,5.952,0,0,1,202.362,168.444Zm-1.853,1.128a5.849,5.849,0,0,0,1.128.483.757.757,0,0,0,.725-.081c.161-.081.242-.242.081-.4a3.1,3.1,0,0,0-.886-.644,9.21,9.21,0,0,0-1.128-.483c-.322-.081-.564-.081-.725.081-.161.081-.242.242-.081.4C199.7,169.089,200.026,169.25,200.509,169.572Z" transform="translate(-195.415 -140.736)"/><path class="af" d="M206.162,166.244c.644.4,1.047.725,1.128,1.047s-.081.564-.564.886a3.067,3.067,0,0,1-1.53.322,4.334,4.334,0,0,1-1.772-.644c-.644-.4-1.047-.725-1.128-1.047s.081-.564.564-.886a3.066,3.066,0,0,1,1.53-.322A5.953,5.953,0,0,1,206.162,166.244Zm-1.853,1.128a9.216,9.216,0,0,0,1.128.483.757.757,0,0,0,.725-.081c.161-.081.242-.242.081-.4a3.1,3.1,0,0,0-.886-.644,9.21,9.21,0,0,0-1.128-.483c-.322-.081-.564-.081-.725.081-.161.081-.242.242-.081.4C203.5,166.889,203.826,167.05,204.309,167.372Z" transform="translate(-196.154 -140.308)"/><path class="af" d="M209.962,164.144c.644.4,1.047.725,1.128,1.047s-.081.564-.564.886a3.067,3.067,0,0,1-1.53.322,4.335,4.335,0,0,1-1.772-.644c-.644-.4-1.047-.725-1.128-1.047s.081-.564.564-.886a3.066,3.066,0,0,1,1.53-.322A3.678,3.678,0,0,1,209.962,164.144Zm-1.853,1.047a5.847,5.847,0,0,0,1.128.483.757.757,0,0,0,.725-.081c.161-.081.242-.242.081-.4a3.1,3.1,0,0,0-.886-.644,9.206,9.206,0,0,0-1.128-.483c-.322-.081-.564-.081-.725.081-.161.081-.242.242-.081.4A2.214,2.214,0,0,0,208.109,165.192Z" transform="translate(-196.893 -139.899)"/><path class="af" d="M215.462,160.944c.644.4,1.047.725,1.128,1.047s-.081.564-.564.886a3.066,3.066,0,0,1-1.53.322,4.335,4.335,0,0,1-1.772-.644c-.644-.4-1.047-.725-1.128-1.047s.081-.564.564-.886a3.066,3.066,0,0,1,1.53-.322A3.419,3.419,0,0,1,215.462,160.944Zm-1.853,1.047a5.846,5.846,0,0,0,1.128.483.757.757,0,0,0,.725-.081c.161-.081.242-.242.081-.4a3.1,3.1,0,0,0-.886-.644,9.208,9.208,0,0,0-1.128-.483c-.322-.081-.564-.081-.725.081-.161.081-.242.242-.081.4A2.214,2.214,0,0,0,213.609,161.992Z" transform="translate(-197.963 -139.277)"/><path class="af" d="M219.262,158.744c.644.4,1.047.725,1.128,1.047s-.081.564-.564.886a3.066,3.066,0,0,1-1.53.322,4.334,4.334,0,0,1-1.772-.644c-.644-.4-1.047-.725-1.128-1.047s.081-.564.564-.886a3.066,3.066,0,0,1,1.53-.322A3.419,3.419,0,0,1,219.262,158.744Zm-1.853,1.047a5.847,5.847,0,0,0,1.128.483.757.757,0,0,0,.725-.081c.161-.081.242-.242.081-.4a3.1,3.1,0,0,0-.886-.644,9.212,9.212,0,0,0-1.128-.483c-.322-.081-.564-.081-.725.081-.161.081-.242.242-.081.4A2.214,2.214,0,0,0,217.409,159.792Z" transform="translate(-198.702 -138.849)"/><path class="af" d="M223.062,156.544c.644.4,1.047.725,1.128,1.047s-.081.564-.564.886a3.066,3.066,0,0,1-1.53.322,4.334,4.334,0,0,1-1.772-.644c-.644-.4-1.047-.725-1.128-1.047s.081-.564.564-.886a3.066,3.066,0,0,1,1.53-.322A4.779,4.779,0,0,1,223.062,156.544Zm-1.853,1.047a5.847,5.847,0,0,0,1.128.483.757.757,0,0,0,.725-.081c.161-.081.242-.242.081-.4a3.1,3.1,0,0,0-.886-.644,9.209,9.209,0,0,0-1.128-.483c-.322-.081-.564-.081-.725.081-.161.081-.242.242-.081.4A2.214,2.214,0,0,0,221.209,157.592Z" transform="translate(-199.441 -138.421)"/><path class="af" d="M226.862,154.344c.644.4,1.047.725,1.128,1.047s-.081.564-.564.886a3.066,3.066,0,0,1-1.53.322,4.334,4.334,0,0,1-1.772-.644c-.644-.4-1.047-.725-1.128-1.047s.081-.564.564-.886a3.066,3.066,0,0,1,1.53-.322A4.78,4.78,0,0,1,226.862,154.344Zm-1.853,1.047a5.847,5.847,0,0,0,1.128.483.757.757,0,0,0,.725-.081c.161-.081.242-.242.081-.4a3.1,3.1,0,0,0-.886-.644,9.209,9.209,0,0,0-1.128-.483c-.322-.081-.564-.081-.725.081-.161.081-.242.242-.081.4A2.214,2.214,0,0,0,225.009,155.392Z" transform="translate(-200.18 -137.993)"/><path class="af" d="M232.362,151.144c.644.4,1.047.725,1.128,1.047s-.081.564-.564.886a3.066,3.066,0,0,1-1.53.322,4.334,4.334,0,0,1-1.772-.644c-.644-.4-1.047-.725-1.128-1.047s.081-.564.564-.886a3.066,3.066,0,0,1,1.53-.322A5.954,5.954,0,0,1,232.362,151.144Zm-1.853,1.128a5.847,5.847,0,0,0,1.128.483.757.757,0,0,0,.725-.081c.161-.081.242-.242.081-.4a3.1,3.1,0,0,0-.886-.644,9.217,9.217,0,0,0-1.128-.483c-.322-.081-.564-.081-.725.081-.161.081-.242.242-.081.4A8.668,8.668,0,0,0,230.509,152.272Z" transform="translate(-201.25 -137.37)"/><path class="af" d="M236.162,148.944c.644.4,1.047.725,1.128,1.047s-.081.564-.564.886a3.066,3.066,0,0,1-1.53.322,4.334,4.334,0,0,1-1.772-.644c-.644-.4-1.047-.725-1.128-1.047s.081-.564.564-.886a3.066,3.066,0,0,1,1.53-.322A5.952,5.952,0,0,1,236.162,148.944Zm-1.853,1.128a5.849,5.849,0,0,0,1.128.483.757.757,0,0,0,.725-.081c.161-.081.242-.242.081-.4a3.1,3.1,0,0,0-.886-.644,9.217,9.217,0,0,0-1.128-.483c-.322-.081-.564-.081-.725.081-.161.081-.242.242-.081.4C233.5,149.589,233.826,149.75,234.309,150.072Z" transform="translate(-201.989 -136.943)"/><path class="af" d="M239.962,146.744c.644.4,1.047.725,1.128,1.047s-.081.564-.564.886a3.066,3.066,0,0,1-1.53.322,4.334,4.334,0,0,1-1.772-.644c-.644-.4-1.047-.725-1.128-1.047s.081-.564.564-.886a3.066,3.066,0,0,1,1.53-.322A6.862,6.862,0,0,1,239.962,146.744Zm-1.853,1.128a5.85,5.85,0,0,0,1.128.483.757.757,0,0,0,.725-.081c.161-.081.242-.242.081-.4a3.1,3.1,0,0,0-.886-.644,9.211,9.211,0,0,0-1.128-.483c-.322-.081-.564-.081-.725.081-.161.081-.242.242-.081.4C237.3,147.389,237.626,147.55,238.109,147.872Z" transform="translate(-202.728 -136.515)"/><path class="af" d="M243.762,144.544c.644.4,1.047.725,1.128,1.047s-.081.564-.564.886a3.067,3.067,0,0,1-1.53.322,4.334,4.334,0,0,1-1.772-.644c-.644-.4-1.047-.725-1.128-1.047s.081-.564.564-.886a3.066,3.066,0,0,1,1.53-.322A6.861,6.861,0,0,1,243.762,144.544Zm-1.853,1.128a5.85,5.85,0,0,0,1.128.483.757.757,0,0,0,.725-.081c.161-.081.242-.242.081-.4a3.1,3.1,0,0,0-.886-.644,9.208,9.208,0,0,0-1.128-.483c-.322-.081-.564-.081-.725.081-.161.081-.242.242-.081.4C241.1,145.189,241.426,145.35,241.909,145.672Z" transform="translate(-203.467 -136.087)"/><path class="af" d="M249.262,141.444c.644.4,1.047.725,1.128,1.047s-.081.564-.564.886a3.066,3.066,0,0,1-1.53.322,4.334,4.334,0,0,1-1.772-.644c-.644-.4-1.047-.725-1.128-1.047s.081-.564.564-.886a3.067,3.067,0,0,1,1.53-.322A3.419,3.419,0,0,1,249.262,141.444Zm-1.853,1.047a9.215,9.215,0,0,0,1.128.483.757.757,0,0,0,.725-.081c.161-.081.242-.242.081-.4a3.1,3.1,0,0,0-.886-.644,9.2,9.2,0,0,0-1.128-.483c-.322-.081-.564-.081-.725.081-.161.081-.242.242-.081.4A2.214,2.214,0,0,0,247.409,142.492Z" transform="translate(-204.537 -135.484)"/><path class="af" d="M253.062,139.244c.644.4,1.047.725,1.128,1.047s-.081.564-.564.886a3.066,3.066,0,0,1-1.53.322,4.334,4.334,0,0,1-1.772-.644c-.644-.4-1.047-.725-1.128-1.047s.081-.564.564-.886a3.066,3.066,0,0,1,1.53-.322A3.678,3.678,0,0,1,253.062,139.244Zm-1.853,1.047a5.846,5.846,0,0,0,1.128.483.757.757,0,0,0,.725-.081c.161-.081.242-.242.081-.4a3.1,3.1,0,0,0-.886-.644,9.211,9.211,0,0,0-1.128-.483c-.322-.081-.564-.081-.725.081-.161.081-.242.242-.081.4A2.214,2.214,0,0,0,251.209,140.292Z" transform="translate(-205.276 -135.056)"/><path class="af" d="M256.862,137.044c.644.4,1.047.725,1.128,1.047s-.081.564-.564.886a3.066,3.066,0,0,1-1.53.322,4.335,4.335,0,0,1-1.772-.644c-.644-.4-1.047-.725-1.128-1.047s.081-.564.564-.886a3.066,3.066,0,0,1,1.53-.322A3.678,3.678,0,0,1,256.862,137.044Zm-1.853,1.047a5.848,5.848,0,0,0,1.128.483.757.757,0,0,0,.725-.081c.161-.081.242-.242.081-.4a3.1,3.1,0,0,0-.886-.644,9.211,9.211,0,0,0-1.128-.483c-.322-.081-.564-.081-.725.081-.161.081-.242.242-.081.4A2.214,2.214,0,0,0,255.009,138.092Z" transform="translate(-206.015 -134.628)"/><path class="af" d="M260.662,134.844c.644.4,1.047.725,1.128,1.047s-.081.564-.564.886a3.066,3.066,0,0,1-1.53.322,4.334,4.334,0,0,1-1.772-.644c-.644-.4-1.047-.725-1.128-1.047s.081-.564.564-.886a3.067,3.067,0,0,1,1.53-.322A4.779,4.779,0,0,1,260.662,134.844Zm-1.853,1.047a5.849,5.849,0,0,0,1.128.483.757.757,0,0,0,.725-.081c.161-.081.242-.242.081-.4a3.1,3.1,0,0,0-.886-.644,9.215,9.215,0,0,0-1.128-.483c-.322-.081-.564-.081-.725.081-.161.081-.242.242-.081.4A2.214,2.214,0,0,0,258.809,135.892Z" transform="translate(-206.755 -134.2)"/></g><g transform="translate(1238.472 842.799)"><path class="af" d="M202.891,175.183a.432.432,0,0,0-.242.322c0,.161.161.242.4.4a1.1,1.1,0,0,0,1.289.081,2.136,2.136,0,0,0,.483-.4l.4.242a.825.825,0,0,1-.483.4,2.23,2.23,0,0,1-1.047.242,2.987,2.987,0,0,1-1.128-.322c-.242-.161-.4-.242-.483-.4a.359.359,0,0,1,0-.4.95.95,0,0,1,.4-.4,1.361,1.361,0,0,1,.805-.242l.242.322c-.161,0-.242.081-.322.081A.484.484,0,0,0,202.891,175.183Z" transform="translate(-202.025 -163.343)"/><path class="af" d="M207.68,174.647l-.644-.242-.806.483.4.4-.483.322-1.45-1.692.564-.322,2.98.805Zm-1.208-.4c-.644-.161-.967-.322-1.047-.322a.281.281,0,0,1-.161-.081,8.488,8.488,0,0,1,.644.725Z" transform="translate(-202.545 -163.129)"/><path class="af" d="M208.453,173.089l.805.483-.483.242-2.175-1.289.644-.4a5.552,5.552,0,0,1,.805-.322,1.2,1.2,0,0,1,.725.161q.242.121.242.242a.484.484,0,0,1-.081.322c.806.081,1.369.161,1.611.161l-.483.322-1.369-.161Zm-.4-.242.161-.081q.242-.121.242-.242c0-.081,0-.161-.161-.161a.484.484,0,0,0-.322-.081,1.361,1.361,0,0,0-.4.161l-.161.081Z" transform="translate(-202.915 -162.779)"/><path class="af" d="M211.98,170.7c.322.242.564.4.483.644,0,.242-.242.483-.644.644l-.644.322L209,171.025l.725-.4a1.849,1.849,0,0,1,1.128-.322A2.351,2.351,0,0,1,211.98,170.7Zm-.4.242a1.39,1.39,0,0,0-1.369-.081l-.242.161,1.45.805.161-.081C212.061,171.508,211.98,171.267,211.578,170.944Z" transform="translate(-203.382 -162.487)"/><path class="af" d="M216.927,169.089l-.483.242-.967-.564-.886.483.967.564-.483.242-2.175-1.289.483-.242.886.483.886-.483-.886-.483.483-.242Z" transform="translate(-204.14 -162)"/><path class="af" d="M219.058,166.717c.4.242.564.4.564.644s-.161.4-.483.644a1.677,1.677,0,0,1-1.047.242,2.013,2.013,0,0,1-1.128-.322c-.4-.242-.564-.4-.564-.644s.161-.4.483-.644a1.677,1.677,0,0,1,1.047-.242A1.849,1.849,0,0,1,219.058,166.717Zm-1.611.886a1.3,1.3,0,0,0,.725.242.969.969,0,0,0,.644-.161c.4-.242.322-.483-.161-.725a1.1,1.1,0,0,0-1.289-.081.432.432,0,0,0-.242.322C217.125,167.361,217.205,167.442,217.447,167.6Z" transform="translate(-204.821 -161.723)"/><path class="af" d="M221.175,166.83,219,165.542l.483-.242,1.853,1.047.886-.483.4.242Z" transform="translate(-205.327 -161.514)"/><path class="af" d="M223.98,163.8c.322.242.564.4.483.644,0,.242-.242.483-.644.644l-.644.322L221,164.125l.725-.4a1.849,1.849,0,0,1,1.128-.322A2.706,2.706,0,0,1,223.98,163.8Zm-.483.242a1.39,1.39,0,0,0-1.369-.081l-.242.161,1.45.805.161-.081C223.98,164.608,223.98,164.367,223.5,164.044Z" transform="translate(-205.716 -161.145)"/><path class="af" d="M227.364,163.189l-1.289.725-2.175-1.289,1.289-.725.4.242-.805.483.483.242.725-.4.4.242-.725.4.564.322.805-.483Z" transform="translate(-206.28 -160.853)"/><path class="af" d="M227.853,161.889l.805.483-.483.242L226,161.325l.644-.4a5.555,5.555,0,0,1,.805-.322,1.2,1.2,0,0,1,.725.161q.242.121.242.242a.484.484,0,0,1-.081.322c.805.081,1.369.161,1.611.161l-.483.322-1.369-.161Zm-.4-.242.161-.081q.242-.121.242-.242c0-.081,0-.161-.161-.161a.484.484,0,0,0-.322-.081,1.36,1.36,0,0,0-.4.161l-.161.081Z" transform="translate(-206.688 -160.6)"/></g><g transform="translate(1218.315 836.787)"><path class="af" d="M184.169,163.981a3.666,3.666,0,0,1-1.611-.4l-4.752-2.739a1.354,1.354,0,0,1-.805-1.208,1.257,1.257,0,0,1,.644-1.047l8.941-5.155a3.342,3.342,0,0,1,2.9.081l4.752,2.739a1.354,1.354,0,0,1,.805,1.208,1.257,1.257,0,0,1-.644,1.047l-8.941,5.155A2.2,2.2,0,0,1,184.169,163.981Zm3.705-9.827a1.609,1.609,0,0,0-.725.161l-8.941,5.155-.161.161a.965.965,0,0,0,.322.322l4.752,2.739a2.149,2.149,0,0,0,1.853.081l8.941-5.155.161-.161a.965.965,0,0,0-.322-.322L189,154.4A4.648,4.648,0,0,0,187.874,154.154Z" transform="translate(-177 -153.137)"/><path class="af" d="M2.089,7.622,5.409,5.7,4.365,5.088.524,7.309,0,6.4,3.328,4.479l-.24-.141a1.614,1.614,0,0,1-.966-1.369,1.419,1.419,0,0,1,.725-1.209l.161-.08a3.846,3.846,0,0,1,3.383.08l.789.464L11.027,0l.524.906L8.217,2.834,9.353,3.5l3.82-2.208L13.7,2.2,10.39,4.111l.109.064a1.615,1.615,0,0,1,.966,1.369,1.42,1.42,0,0,1-.725,1.209l-.161.08a2.58,2.58,0,0,1-1.45.4A4.054,4.054,0,0,1,7.2,6.754l-.75-.441L2.613,8.528ZM3.652,2.565l-.161.08c-.08.08-.241.161-.241.242a.86.86,0,0,0,.483.483L7.841,5.787a2.578,2.578,0,0,0,2.416.08l.162-.08c.081-.081.242-.162.242-.242a.86.86,0,0,0-.484-.483L6.068,2.645a4.7,4.7,0,0,0-1.45-.322A1.718,1.718,0,0,0,3.652,2.565Z" transform="translate(2.147 1.191)"/></g></g><path class="aa" d="M2.6,5.8l9.385-2.425L10.711,8.428,1.456,10.349Z" transform="translate(231.715 395.465) rotate(45)"/><g transform="translate(180.197 390.397)"><path class="ag" d="M434.25,411.61l-65.591,37.238a1.836,1.836,0,0,0,0,3.222l98.761,56.513" transform="translate(-367.705 -405.647)"/><path class="ag" d="M459.983,407.544a2.811,2.811,0,0,1-1.667,2.255,8.909,8.909,0,0,1-4.374,1.031,9.077,9.077,0,0,1-4.43-1.047c-.1-.064-.209-.129-.306-.2a2.634,2.634,0,0,1-1.385-2.086,1.949,1.949,0,0,1,.379-1.12,3.834,3.834,0,0,1,1.289-1.128,8.862,8.862,0,0,1,4.374-1.039,9.666,9.666,0,0,1,3.5.62,6.914,6.914,0,0,1,.918.435,2.916,2.916,0,0,1,1.692,2.183.392.392,0,0,1,.008.1Z" transform="translate(-383.288 -404.207)"/></g><path class="u" d="M474.447,394.552c2.759,1.655,2.759,4.138,0,5.794s-7.311,1.517-10.07,0l-27.728-16c-2.759-1.655-2.759-4.138,0-5.794s7.311-1.517,10.07,0l27.728,16Zm.966-.552-27.728-16a13.154,13.154,0,0,0-12,0c-3.311,1.931-3.311,4.966,0,6.9l27.728,16a13.155,13.155,0,0,0,12,0c3.311-1.931,3.311-5.1,0-6.9Z" transform="translate(-36.505 -175.023)"/><g transform="translate(419.015 139.69)"><g transform="translate(0 0)"><path class="j" d="M613.7,295.432V282.576l-1.2-1.025v13.882a12.523,12.523,0,0,1-1.8,6.515,12.762,12.762,0,0,1-4.711,4.811L561.174,332.62a4.145,4.145,0,0,0,0,7.217l17.341,10.024a4.054,4.054,0,0,1,2.1,3.709,3.951,3.951,0,0,1-2.1,3.709L529.6,385.544l.5,1.1,49.016-28.267a4.824,4.824,0,0,0,2-2,4.967,4.967,0,0,0,0-5.413,5.49,5.49,0,0,0-2-2l-17.341-10.024a2.8,2.8,0,0,1-1.5-2.606,2.953,2.953,0,0,1,1.5-2.706l44.806-25.861a13.7,13.7,0,0,0,5.212-5.212,14.047,14.047,0,0,0,1.9-7.117m-13.231-20.807-1.2-1.025v14.114a13.442,13.442,0,0,1-1.7,6.515,13.82,13.82,0,0,1-4.811,4.811l-28.367,16.339a9.246,9.246,0,0,1-4.912,1.3,9.851,9.851,0,0,1-5.012-1.3l-4.009-2.305a1.138,1.138,0,0,0,.3-.8,1.4,1.4,0,0,0-.8-1.1,3.948,3.948,0,0,0-2-.5,4.237,4.237,0,0,0-2,.5,1.229,1.229,0,0,0,0,2.305,3.949,3.949,0,0,0,2,.5,5.912,5.912,0,0,0,1.4-.2l3.314,1.915,1.2.692a11.225,11.225,0,0,0,5.613,1.5,10.864,10.864,0,0,0,5.513-1.5l28.267-16.339a14.227,14.227,0,0,0,7.117-12.329V274.625Z" transform="translate(-529.6 -273.6)"/></g></g><path class="d" d="M622.1,252.209l6.616-3.809c5.914,3.408,11.026,10.425,13.131,17.642l-6.615,3.809C633.026,262.634,628.014,255.617,622.1,252.209Z" transform="translate(-139.61 -133.291)"/><path class="j" d="M4.022,0C6.244,0,8.045,1.2,8.045,2.682s-1.8,2.682-4.022,2.682S0,4.163,0,2.682,1.8,0,4.022,0Z" transform="translate(416.918 249.107)"/><g transform="translate(-966.269 -180.93)"><path class="z" d="M879.553,348.117,763.924,281.4,681.1,329.2l14.186,8.127-10.27,5.911L772.347,393.7l10.27-5.911,14.112,8.2Z" transform="translate(714.406 -8.557)"/><path class="ah" d="M698,303.536,768.338,262.9,871.48,322.451l-70.338,40.636Z" transform="translate(714.501 -4.464)"/><path class="ai" d="M728.5,289.372,774.3,262.9l98.811,57.05-46.362,26.755Z" transform="translate(709.491 -3.007)"/><path class="ah" d="M801.142,377.451,698,317.9v13.669l103.142,59.551Z" transform="translate(714.501 -18.828)"/><path class="aj" d="M837.6,384.136,907.938,343.5v13.742L837.6,397.8Z" transform="translate(678.043 -25.513)"/><path class="ak" d="M0,19.652V5.912l10.2,5.909L0,5.912,10.2,0,20.466,5.912v13.74L10.2,25.564Z" transform="translate(1415.31 310.525)"/><path class="aa" d="M0,19.652V5.912l10.2,5.909L0,5.912,10.2,0,20.466,5.912v13.74L10.2,25.564Z" transform="translate(1415.31 310.525)"/><path class="ai" d="M804.6,393.311l10.27-5.911v13.743l-10.27,5.911Z" transform="translate(620.905 -70.965)"/><path class="al" d="M801,391.221l10.27-5.911L801,379.4l-10.2,5.911Z" transform="translate(624.508 -68.875)"/><path class="s" d="M0,15.221V10.714L5.1,7.759l54.379,31.4-5.1,2.955v4.507ZM5.1,7.759v-4.8L10.27,0,64.576,31.329l-5.1,2.954V39.16Z" transform="translate(1425.947 321.236)"/><path class="aa" d="M54.382,42.114h0v4.507L0,15.221V10.714L5.1,7.759l54.379,31.4-2.953,1.711L59.48,39.16V34.282L61.349,33.2l-1.872,1.085V39.16L5.1,7.759v-4.8L10.27,0l54.3,31.327h0V40.71L54.382,46.622Z" transform="translate(1425.947 321.236)"/><path class="ai" d="M771.579,388.8,717.2,357.4v4.507l54.379,31.4Z" transform="translate(708.748 -25.449)"/><path class="ai" d="M778.479,378.227,724.1,346.9v4.8l54.379,31.4Z" transform="translate(706.946 -22.707)"/><path class="ak" d="M0,19.652V5.912l10.2,5.909L0,5.912,10.2,0,20.466,5.912v13.74L10.2,25.564Z" transform="translate(1480.328 348.206)"/><path class="aa" d="M0,19.652V5.912l10.2,5.909L0,5.912,10.2,0,20.466,5.912v13.74L10.2,25.564Z" transform="translate(1480.328 348.206)"/><path class="ai" d="M804.6,393.311l10.27-5.911v13.743l-10.27,5.911Z" transform="translate(685.923 -33.284)"/><path class="al" d="M801,391.221l10.27-5.911L801,379.4l-10.2,5.911Z" transform="translate(689.526 -31.194)"/><path class="ah" d="M12122.883-13091.689v56.226l82.383,47.212,50.4-29.665v-58.683Z" transform="translate(-10688.302 13327.529)"/><g transform="translate(1425.8 289.176)"><ellipse class="am" cx="8.94" cy="5.172" rx="8.94" ry="5.172" transform="translate(0 4.039) rotate(-0.311)"/><path class="am" d="M759,288.324a20.791,20.791,0,0,1,1.581,6.459,3.514,3.514,0,0,1-1.421,2.094,10.547,10.547,0,0,1-2.319,1.359c-.582.24-1.357.414-2.167.688a17.511,17.511,0,0,1-5,.236,10.882,10.882,0,0,1-4.646-1.5,3.945,3.945,0,0,1-2.359-3.972s.709-4.409,1.522-5.591C745.007,288.02,759,288.324,759,288.324Z" transform="translate(-742.593 -284.918)"/><path class="aa" d="M746.2,291.632a12.519,12.519,0,0,0,11.23,0c3.1-1.773,3.1-4.729,0-6.5a12.519,12.519,0,0,0-11.23,0C743.168,286.9,743.168,289.858,746.2,291.632Z" transform="translate(-742.927 -283.8)"/><path class="am" d="M746.516,291.43a12.206,12.206,0,0,0,10.861,0c3.029-1.773,3.029-4.581,0-6.28a12.206,12.206,0,0,0-10.861,0C743.561,286.923,743.561,289.73,746.516,291.43Z" transform="translate(-743.025 -283.82)"/></g><path class="am" d="M746.1,270.857l.739-54.157h11.23l.739,54.157-1.686,1.478-2.756.739h-3.691l-2.559-.739Z" transform="translate(682.601 21.279)"/><g transform="translate(1426.798 226.744)"><path class="an" d="M758.925,214.754s1.256-5.689.96-7.906c-.369-2.438-15.885.369-15.885.369a43.974,43.974,0,0,0,.96,7.61C745.625,214.828,758.925,214.754,758.925,214.754Z" transform="translate(-743.944 -202.489)"/><path class="an" d="M747.165,218.642a11.189,11.189,0,0,0,10.048,0c2.808-1.625,2.808-4.211,0-5.763a11.189,11.189,0,0,0-10.048,0C744.432,214.43,744.358,217.016,747.165,218.642Z" transform="translate(-744.228 -204.013)"/><path class="ao" d="M12430.05-13062.3l.774,5.085h0l1.358,1.027,2.229.836h5.085l2.544-.836,1.583-1.344.735-4.769.386-3.131h-12.562Z" transform="translate(-12429.217 13069.329)"/><path class="an" d="M746.2,209.132a12.519,12.519,0,0,0,11.23,0c3.1-1.773,3.1-4.729,0-6.5a12.519,12.519,0,0,0-11.23,0C743.168,204.4,743.168,207.359,746.2,209.132Z" transform="translate(-743.925 -201.3)"/></g><path class="am" d="M869.154,360.2a10.173,10.173,0,0,0,9.014,0c2.512-1.4,2.512-3.768,0-5.172a10.173,10.173,0,0,0-9.014,0C866.715,356.506,866.715,358.8,869.154,360.2Z" transform="translate(561.375 -66.493)"/><path class="aa" d="M12432.682-12966.762l-.306,8.959,1.315.223h8.573l1.5-.648-.4-8.229Z" transform="translate(-11003.028 13248.877)"/><g transform="translate(1447.226 302.475)"><ellipse class="am" cx="8.94" cy="5.172" rx="8.94" ry="5.172" transform="translate(0 4.039) rotate(-0.311)"/><path class="am" d="M759,288.324a20.791,20.791,0,0,1,1.581,6.459,3.514,3.514,0,0,1-1.421,2.094,10.547,10.547,0,0,1-2.319,1.359c-.582.24-1.357.414-2.167.688a17.511,17.511,0,0,1-5,.236,10.882,10.882,0,0,1-4.646-1.5,3.945,3.945,0,0,1-2.359-3.972s.709-4.409,1.522-5.591C745.007,288.02,759,288.324,759,288.324Z" transform="translate(-742.593 -284.918)"/><path class="aa" d="M746.2,291.632a12.519,12.519,0,0,0,11.23,0c3.1-1.773,3.1-4.729,0-6.5a12.519,12.519,0,0,0-11.23,0C743.168,286.9,743.168,289.858,746.2,291.632Z" transform="translate(-742.927 -283.8)"/><path class="am" d="M746.516,291.43a12.206,12.206,0,0,0,10.861,0c3.029-1.773,3.029-4.581,0-6.28a12.206,12.206,0,0,0-10.861,0C743.561,286.923,743.561,289.73,746.516,291.43Z" transform="translate(-743.025 -283.82)"/></g><path class="am" d="M746.1,270.857l.739-54.157h11.23l.739,54.157-1.686,1.478-2.756.739h-3.691l-2.559-.739Z" transform="translate(704.027 34.578)"/><g transform="translate(1448.224 240.043)"><path class="an" d="M758.925,214.754s1.256-5.689.96-7.906c-.369-2.438-15.885.369-15.885.369a43.974,43.974,0,0,0,.96,7.61C745.625,214.828,758.925,214.754,758.925,214.754Z" transform="translate(-743.944 -202.489)"/><path class="an" d="M747.165,218.642a11.189,11.189,0,0,0,10.048,0c2.808-1.625,2.808-4.211,0-5.763a11.189,11.189,0,0,0-10.048,0C744.432,214.43,744.358,217.016,747.165,218.642Z" transform="translate(-744.228 -204.013)"/><path class="ao" d="M12430.05-13062.3l.774,5.085h0l1.358,1.027,2.229.836h5.085l2.544-.836,1.583-1.344.735-4.769.386-3.131h-12.562Z" transform="translate(-12429.217 13069.329)"/><path class="an" d="M746.2,209.132a12.519,12.519,0,0,0,11.23,0c3.1-1.773,3.1-4.729,0-6.5a12.519,12.519,0,0,0-11.23,0C743.168,204.4,743.168,207.359,746.2,209.132Z" transform="translate(-743.925 -201.3)"/></g><path class="am" d="M869.154,360.2a10.173,10.173,0,0,0,9.014,0c2.512-1.4,2.512-3.768,0-5.172a10.173,10.173,0,0,0-9.014,0C866.715,356.506,866.715,358.8,869.154,360.2Z" transform="translate(582.802 -53.194)"/><path class="aa" d="M12432.682-12966.762l-.306,8.959,1.315.223h8.573l1.5-.648-.4-8.229Z" transform="translate(-10981.603 13262.176)"/><g transform="translate(1482.691 323.163)"><ellipse class="am" cx="8.94" cy="5.172" rx="8.94" ry="5.172" transform="translate(0 4.039) rotate(-0.311)"/><path class="am" d="M759,288.324a20.791,20.791,0,0,1,1.581,6.459,3.514,3.514,0,0,1-1.421,2.094,10.547,10.547,0,0,1-2.319,1.359c-.582.24-1.357.414-2.167.688a17.511,17.511,0,0,1-5,.236,10.882,10.882,0,0,1-4.646-1.5,3.945,3.945,0,0,1-2.359-3.972s.709-4.409,1.522-5.591C745.007,288.02,759,288.324,759,288.324Z" transform="translate(-742.593 -284.918)"/><path class="aa" d="M746.2,291.632a12.519,12.519,0,0,0,11.23,0c3.1-1.773,3.1-4.729,0-6.5a12.519,12.519,0,0,0-11.23,0C743.168,286.9,743.168,289.858,746.2,291.632Z" transform="translate(-742.927 -283.8)"/><path class="am" d="M746.516,291.43a12.206,12.206,0,0,0,10.861,0c3.029-1.773,3.029-4.581,0-6.28a12.206,12.206,0,0,0-10.861,0C743.561,286.923,743.561,289.73,746.516,291.43Z" transform="translate(-743.025 -283.82)"/></g><path class="am" d="M746.1,270.857l.739-54.157h11.23l.739,54.157-1.686,1.478-2.756.739h-3.691l-2.559-.739Z" transform="translate(739.492 55.266)"/><g transform="translate(1483.689 260.731)"><path class="an" d="M758.925,214.754s1.256-5.689.96-7.906c-.369-2.438-15.885.369-15.885.369a43.974,43.974,0,0,0,.96,7.61C745.625,214.828,758.925,214.754,758.925,214.754Z" transform="translate(-743.944 -202.489)"/><path class="an" d="M747.165,218.642a11.189,11.189,0,0,0,10.048,0c2.808-1.625,2.808-4.211,0-5.763a11.189,11.189,0,0,0-10.048,0C744.432,214.43,744.358,217.016,747.165,218.642Z" transform="translate(-744.228 -204.013)"/><path class="ao" d="M12430.05-13062.3l.774,5.085h0l1.358,1.027,2.229.836h5.085l2.544-.836,1.583-1.344.735-4.769.386-3.131h-12.562Z" transform="translate(-12429.217 13069.329)"/><path class="an" d="M746.2,209.132a12.519,12.519,0,0,0,11.23,0c3.1-1.773,3.1-4.729,0-6.5a12.519,12.519,0,0,0-11.23,0C743.168,204.4,743.168,207.359,746.2,209.132Z" transform="translate(-743.925 -201.3)"/></g><path class="am" d="M869.154,360.2a10.173,10.173,0,0,0,9.014,0c2.512-1.4,2.512-3.768,0-5.172a10.173,10.173,0,0,0-9.014,0C866.715,356.506,866.715,358.8,869.154,360.2Z" transform="translate(618.266 -32.507)"/><path class="aa" d="M12432.682-12966.762l-.306,8.959,1.315.223h8.573l1.5-.648-.4-8.229Z" transform="translate(-10946.138 13282.863)"/><g transform="translate(1505.595 336.462)"><ellipse class="am" cx="8.94" cy="5.172" rx="8.94" ry="5.172" transform="translate(0 4.039) rotate(-0.311)"/><path class="am" d="M759,288.324a20.791,20.791,0,0,1,1.581,6.459,3.514,3.514,0,0,1-1.421,2.094,10.547,10.547,0,0,1-2.319,1.359c-.582.24-1.357.414-2.167.688a17.511,17.511,0,0,1-5,.236,10.882,10.882,0,0,1-4.646-1.5,3.945,3.945,0,0,1-2.359-3.972s.709-4.409,1.522-5.591C745.007,288.02,759,288.324,759,288.324Z" transform="translate(-742.593 -284.918)"/><path class="aa" d="M746.2,291.632a12.519,12.519,0,0,0,11.23,0c3.1-1.773,3.1-4.729,0-6.5a12.519,12.519,0,0,0-11.23,0C743.168,286.9,743.168,289.858,746.2,291.632Z" transform="translate(-742.927 -283.8)"/><path class="am" d="M746.516,291.43a12.206,12.206,0,0,0,10.861,0c3.029-1.773,3.029-4.581,0-6.28a12.206,12.206,0,0,0-10.861,0C743.561,286.923,743.561,289.73,746.516,291.43Z" transform="translate(-743.025 -283.82)"/></g><path class="am" d="M746.1,270.857l.739-54.157h11.23l.739,54.157-1.686,1.478-2.756.739h-3.691l-2.559-.739Z" transform="translate(762.396 68.565)"/><g transform="translate(1506.593 274.03)"><path class="an" d="M758.925,214.754s1.256-5.689.96-7.906c-.369-2.438-15.885.369-15.885.369a43.974,43.974,0,0,0,.96,7.61C745.625,214.828,758.925,214.754,758.925,214.754Z" transform="translate(-743.944 -202.489)"/><path class="an" d="M747.165,218.642a11.189,11.189,0,0,0,10.048,0c2.808-1.625,2.808-4.211,0-5.763a11.189,11.189,0,0,0-10.048,0C744.432,214.43,744.358,217.016,747.165,218.642Z" transform="translate(-744.228 -204.013)"/><path class="ao" d="M12430.05-13062.3l.774,5.085h0l1.358,1.027,2.229.836h5.085l2.544-.836,1.583-1.344.735-4.769.386-3.131h-12.562Z" transform="translate(-12429.217 13069.329)"/><path class="an" d="M746.2,209.132a12.519,12.519,0,0,0,11.23,0c3.1-1.773,3.1-4.729,0-6.5a12.519,12.519,0,0,0-11.23,0C743.168,204.4,743.168,207.359,746.2,209.132Z" transform="translate(-743.925 -201.3)"/></g><path class="am" d="M869.154,360.2a10.173,10.173,0,0,0,9.014,0c2.512-1.4,2.512-3.768,0-5.172a10.173,10.173,0,0,0-9.014,0C866.715,356.506,866.715,358.8,869.154,360.2Z" transform="translate(641.17 -19.207)"/><path class="aa" d="M12432.682-12966.762l-.306,8.959,1.315.223h8.573l1.5-.648-.4-8.229Z" transform="translate(-10923.234 13296.162)"/><g transform="translate(1555.836 309.125)"><ellipse class="am" cx="8.94" cy="5.172" rx="8.94" ry="5.172" transform="translate(0 4.039) rotate(-0.311)"/><path class="am" d="M759,288.324a20.791,20.791,0,0,1,1.581,6.459,3.514,3.514,0,0,1-1.421,2.094,10.547,10.547,0,0,1-2.319,1.359c-.582.24-1.357.414-2.167.688a17.511,17.511,0,0,1-5,.236,10.882,10.882,0,0,1-4.646-1.5,3.945,3.945,0,0,1-2.359-3.972s.709-4.409,1.522-5.591C745.007,288.02,759,288.324,759,288.324Z" transform="translate(-742.593 -284.918)"/><path class="aa" d="M746.2,291.632a12.519,12.519,0,0,0,11.23,0c3.1-1.773,3.1-4.729,0-6.5a12.519,12.519,0,0,0-11.23,0C743.168,286.9,743.168,289.858,746.2,291.632Z" transform="translate(-742.927 -283.8)"/><path class="am" d="M746.516,291.43a12.206,12.206,0,0,0,10.861,0c3.029-1.773,3.029-4.581,0-6.28a12.206,12.206,0,0,0-10.861,0C743.561,286.923,743.561,289.73,746.516,291.43Z" transform="translate(-743.025 -283.82)"/></g><path class="am" d="M746.1,270.857l.739-54.157h11.23l.739,54.157-1.686,1.478-2.756.739h-3.691l-2.559-.739Z" transform="translate(812.637 41.228)"/><g transform="translate(1556.834 246.693)"><path class="an" d="M758.925,214.754s1.256-5.689.96-7.906c-.369-2.438-15.885.369-15.885.369a43.974,43.974,0,0,0,.96,7.61C745.625,214.828,758.925,214.754,758.925,214.754Z" transform="translate(-743.944 -202.489)"/><path class="an" d="M747.165,218.642a11.189,11.189,0,0,0,10.048,0c2.808-1.625,2.808-4.211,0-5.763a11.189,11.189,0,0,0-10.048,0C744.432,214.43,744.358,217.016,747.165,218.642Z" transform="translate(-744.228 -204.013)"/><path class="ao" d="M12430.05-13062.3l.774,5.085h0l1.358,1.027,2.229.836h5.085l2.544-.836,1.583-1.344.735-4.769.386-3.131h-12.562Z" transform="translate(-12429.217 13069.329)"/><path class="an" d="M746.2,209.132a12.519,12.519,0,0,0,11.23,0c3.1-1.773,3.1-4.729,0-6.5a12.519,12.519,0,0,0-11.23,0C743.168,204.4,743.168,207.359,746.2,209.132Z" transform="translate(-743.925 -201.3)"/></g><path class="ap" d="M869.154,360.2a10.173,10.173,0,0,0,9.014,0c2.512-1.4,2.512-3.768,0-5.172a10.173,10.173,0,0,0-9.014,0C866.715,356.506,866.715,358.8,869.154,360.2Z" transform="translate(691.412 -46.545)"/><path class="aa" d="M12432.682-12966.762l-.306,8.959,1.315.223h8.573l1.5-.648-.4-8.229Z" transform="translate(-10872.992 13268.825)"/><path class="ah" d="M837.6,283.536,907.938,242.9v7.906L837.6,291.442Z" transform="translate(678.043 10.364)"/><path class="ah" d="M56,40.638,0,49.059,70.34,8.424l56-8.424,55.265,72.111L111.27,112.746Z" transform="translate(1408.067 180.93)"/><path class="ah" d="M698,214.558l51.571-7.758,51.571,67.308v7.906L698,222.463Z" transform="translate(714.501 19.792)"/><path class="ah" d="M748,200l-56,8.423,1.478,4.8,54.527-8.2L801.423,274.7l1.847-2.586Z" transform="translate(716.068 21.568)"/><path class="aq" d="M720,221.82l35.317-5.32,35.317,46.1V268L720,227.213Z" transform="translate(708.755 17.259)"/><path class="al" d="M723.916,222.9v5.024l66.717,38.568v3.177L720,228.885v-5.394Z" transform="translate(708.755 15.587)"/><path class="ar" d="M767.8,185.636,838.138,145,893.4,217.111l-70.338,40.636Z" transform="translate(696.272 35.931)"/></g><path class="d" d="M259.281,139.732l-55.015,31.736a6.854,6.854,0,0,1-6.122-.242l-33.508-19.493c-1.853-1.047-2.014-2.658-.4-3.544l55.015-31.736a6.854,6.854,0,0,1,6.122.242l33.508,19.493C260.731,137.235,260.892,138.846,259.281,139.732Z" transform="translate(85.521 421.769)"/></g></svg>