<svg xmlns="http://www.w3.org/2000/svg" width="20" height="20" viewBox="0 0 20 20"><defs><style>.a{fill:#2b2b2b;stroke:#2b2b2b;stroke-width:2px;}.b{fill:#fff;}.c{stroke:none;}.d{fill:none;}</style></defs><g class="a"><circle class="c" cx="10" cy="10" r="10"/><circle class="d" cx="10" cy="10" r="9"/></g><path class="b" d="M2.976-.9a1.051,1.051,0,0,0,2.1,0v-.272a1.051,1.051,0,0,0-2.1,0ZM.448-9.424C-.08-8.368,1.456-7.376,2.128-8.368a1.766,1.766,0,0,1,1.68-.912A1.373,1.373,0,0,1,5.216-8.032c0,.96-.576,1.328-1.552,1.68a.985.985,0,0,0-.688,1.008v1.376a1.016,1.016,0,0,0,2.032,0V-4.8A3.414,3.414,0,0,0,7.232-8.336a3.262,3.262,0,0,0-3.424-2.928A3.5,3.5,0,0,0,.448-9.424Z" transform="translate(6.205 15.597)"/></svg>