<svg xmlns="http://www.w3.org/2000/svg" width="20" height="20" viewBox="0 0 20 20"><defs><style>.a,.d{fill:none;}.a{stroke:#2b2b2b;stroke-width:2px;}.b{fill:#2b2b2b;}.c{stroke:none;}</style></defs><g class="a"><circle class="c" cx="10" cy="10" r="10"/><circle class="d" cx="10" cy="10" r="9"/></g><path class="b" d="M3.3.533a.745.745,0,1,0,1.469,0V.208A2.819,2.819,0,0,0,7.488-2.548c0-1.677-1.352-2.262-2.717-2.613V-7.527a6.742,6.742,0,0,1,.793.312c.819.585,1.742-.689.819-1.352a3.885,3.885,0,0,0-1.612-.585v-.312a.745.745,0,1,0-1.469,0v.208C1.937-9.048.689-8.333.559-6.864.325-4.81,1.82-4.342,3.3-4.017v2.626A4.251,4.251,0,0,1,1.82-1.963.817.817,0,0,0,.689-1.82,1,1,0,0,0,.78-.6,5.218,5.218,0,0,0,3.3.325Zm0-6.019c-.689-.221-1.144-.468-1.144-1.04,0-.689.455-1,1.144-1.118ZM4.771-3.562a1.286,1.286,0,0,1,1.04.91c0,.689-.468,1.027-1.04,1.261Z" transform="translate(5.994 14.466)"/></svg>