<svg xmlns="http://www.w3.org/2000/svg" width="154" height="154" viewBox="0 0 154 154"><defs><style>.a{fill:none;stroke:#fff;stroke-linecap:round;stroke-linejoin:round;stroke-width:4px;}</style></defs><g transform="translate(2 2)"><g transform="translate(0)"><g transform="translate(53.056 105)"><path class="a" d="M114.5,142.8v25.4a2.954,2.954,0,0,1-.2,1.3,5.723,5.723,0,0,1-1.4,2.5h0a4.918,4.918,0,0,1-3.8,1.6,5.284,5.284,0,0,1-3.9-1.6,5.2,5.2,0,0,1-1.5-3.8V138.3c.2-6,3-9.3,8.5-9.7h26.6c5.4.4,8.3,3.7,8.5,9.7v29.9a5.464,5.464,0,0,1-5.4,5.4A5.284,5.284,0,0,1,138,172a4.48,4.48,0,0,1-1.4-3.2,1.268,1.268,0,0,1-.1-.6V142.7m-.1,24.4.1,1.6" transform="translate(-103.7 -128.6)"/></g><g transform="translate(34.525 82.583)"><path class="a" d="M-21.5-1075.392a6.947,6.947,0,0,1-2.2,5.3,7.254,7.254,0,0,1-5.3,2.2,6.947,6.947,0,0,1-5.3-2.2,7.1,7.1,0,0,1-2.2-5.3,6.947,6.947,0,0,1,2.2-5.3,7.588,7.588,0,0,1,3.8-2.1,7.721,7.721,0,0,1,1.5-.2,8.755,8.755,0,0,1,1.6.2,7.589,7.589,0,0,1,3.8,2.1A7.845,7.845,0,0,1-21.5-1075.392Z" transform="translate(36.5 1082.992)"/></g><g transform="translate(0)"><path class="a" d="M63.391,119.6a14.168,14.168,0,0,1-.7-2.2L52.8,113.5a13.72,13.72,0,0,1-2.2-2,13.794,13.794,0,0,1-.2-2.2v-21a24.975,24.975,0,0,1,.2-2.5,17.672,17.672,0,0,1,2.2-1.6l9.893-4.1a50.726,50.726,0,0,1,5.5-12.6l-4.2-10.4a6.909,6.909,0,0,1-.4-2.5,4.891,4.891,0,0,1,1.6-2L79.581,38a4.329,4.329,0,0,1,2-1.6,4.606,4.606,0,0,1,2.6.8l9.993,3.9a46.972,46.972,0,0,1,12.592-5.4l3.8-10.1a16.316,16.316,0,0,1,1.7-2,9.283,9.283,0,0,1,2.7-.4h20.486a5.457,5.457,0,0,1,2.4.4,20.876,20.876,0,0,1,2.2,2l3.5,10.1a49.028,49.028,0,0,1,12.692,5.4l9.694-3.9a7.079,7.079,0,0,1,2.8-.8,16.361,16.361,0,0,1,2.6,1.6L185.51,52.6a5.541,5.541,0,0,1,1.5,2,4.291,4.291,0,0,1-.4,2.5l-4.1,10.4q3,6,5.7,12.6l9.194,4.1a7.235,7.235,0,0,1,2.1,1.6,4.777,4.777,0,0,1,.9,2.5v21a3.1,3.1,0,0,1-.9,2.2,6.73,6.73,0,0,1-2.1,2l-9.194,3.9c-.3.7-.5,1.3-.8,1.9-.2.5-.4,1.1-.6,1.6M78.181,97.7c.3-12.4,5-23.2,13.891-32.6,9.594-9.5,20.886-14.2,33.977-14.2,12.492,0,23.484,4.7,32.978,14.2A47.827,47.827,0,0,1,173.218,97" transform="translate(-50.4 -23.2)"/></g><g transform="translate(102.25 104.9)"><path class="a" d="M153.8,128.5h21c5.4.4,8.3,3.7,8.5,9.7v29.9a5.464,5.464,0,0,1-5.4,5.4,5.284,5.284,0,0,1-3.9-1.6,4.48,4.48,0,0,1-1.4-3.2,1.268,1.268,0,0,1-.1-.6V142.6m-.1,24.5.1,1.6" transform="translate(-153.8 -128.5)"/></g><g transform="translate(67.057 82.583)"><path class="a" d="M-21.5-1075.392a6.947,6.947,0,0,1-2.2,5.3,7.1,7.1,0,0,1-5.3,2.2,6.947,6.947,0,0,1-5.3-2.2,7.1,7.1,0,0,1-2.2-5.3,6.947,6.947,0,0,1,2.2-5.3,7.588,7.588,0,0,1,3.8-2.1,7.721,7.721,0,0,1,1.5-.2,8.755,8.755,0,0,1,1.6.2,7.3,7.3,0,0,1,3.7,2.1A7.493,7.493,0,0,1-21.5-1075.392Z" transform="translate(36.5 1082.992)"/></g><g transform="translate(19.3 104.9)"><path class="a" d="M95.7,128.5h-21c-5.4.4-8.3,3.7-8.5,9.7v29.9a5.464,5.464,0,0,0,5.4,5.4,5.284,5.284,0,0,0,3.9-1.6,5.047,5.047,0,0,0,1.5-3.2l.1-1.6V142.7M77,168.8a1.268,1.268,0,0,0,.1-.6v-1.1" transform="translate(-66.2 -128.5)"/></g><g transform="translate(114.589 97.682) rotate(180)"><g transform="translate(15 15.1) rotate(-180)"><path class="a" d="M15,7.6a6.947,6.947,0,0,1-2.2,5.3,7.1,7.1,0,0,1-5.3,2.2,6.947,6.947,0,0,1-5.3-2.2A7.1,7.1,0,0,1,0,7.6,6.947,6.947,0,0,1,2.2,2.3,7.588,7.588,0,0,1,6,.2,7.721,7.721,0,0,1,7.5,0,8.755,8.755,0,0,1,9.1.2a7.305,7.305,0,0,1,3.7,2.1A7.1,7.1,0,0,1,15,7.6Z"/></g></g></g></g></svg>