<svg xmlns="http://www.w3.org/2000/svg" width="154.428" height="154" viewBox="0 0 154.428 154"><defs><style>.a{fill:none;stroke:#fff;stroke-linecap:round;stroke-linejoin:round;stroke-width:4px;}</style></defs><g transform="translate(2.428 2)"><g transform="translate(0)"><g transform="translate(28.186 0)"><path class="a" d="M378.3,98V29c0-4,1.8-5.9,5.5-5.9h60c3.7,0,5.5,2,5.5,5.9V98M393.4,36.7h14.5m-14.5,17h14.5m-14.5,36h14.5M393.4,71.5h14.5m15.5,18.2h14.5M423.4,71.5h14.5M423.4,53.7h14.5m-14.5-17h14.5" transform="translate(-378.3 -23.1)"/></g><g transform="translate(99.283 15.2)"><path class="a" d="M436.4,38.3h27.5c3.9,0,5.8,2,5.9,5.9V99m-21.7-6.6h10.2M448.1,57.6h10.2m-10.2,17h10.2m-23,17.8h3.4m-3.4-17.8h3.4m-3.4-17h3.4" transform="translate(-435.3 -38.3)"/></g><g transform="translate(0 80)"><g transform="translate(0)"><path class="a" d="M466.477,109a41.445,41.445,0,0,1-2.2,6.8m-9.606,13.5a42.437,42.437,0,0,1-16.111,9.9,44.332,44.332,0,0,1-13.409,2,43.5,43.5,0,0,1-13.209-2,41.584,41.584,0,0,1-16.711-10.4A40.3,40.3,0,0,1,384.022,109M497.2,113.1l-9.306,3.8a115.383,115.383,0,0,1-5.8,12.8l4.2,9.6a6.589,6.589,0,0,1,.5,2.8,6.332,6.332,0,0,1-1.6,2.6l-14.109,14.2a8.1,8.1,0,0,1-2.6,1.5,5.262,5.262,0,0,1-2.8-.6l-9.606-4.1a126.536,126.536,0,0,1-12.809,5.8l-3.4,9.5a14.594,14.594,0,0,1-2.2,1.8,3.32,3.32,0,0,1-2.5,1H414.643a3.826,3.826,0,0,1-2.5-1,5.923,5.923,0,0,1-1.7-1.8l-3.8-9.5a89.834,89.834,0,0,1-12.508-5.8l-10.107,4.1a4.964,4.964,0,0,1-2.6.6,6.187,6.187,0,0,1-2-1.5l-14.21-14.2a5.142,5.142,0,0,1-1.8-2.6,12.765,12.765,0,0,1,.5-2.8l4.2-9.6a61.267,61.267,0,0,1-5.6-12.8l-9.706-3.8a12.4,12.4,0,0,1-2.2-1.8m-.4-7.5h150" transform="translate(-350.2 -103.8)"/></g></g></g></g></svg>